<svg width="188" height="188" viewBox="0 0 188 188" fill="none" xmlns="http://www.w3.org/2000/svg">
<g clip-path="url(#clip0)">
<path d="M156.956 69.5271C156.956 57.3262 155.669 46.4622 153.131 37.2355C150.032 25.9698 145.043 17.1088 138.302 10.897C137.053 9.74591 135.107 9.82522 133.955 11.0748C132.804 12.3243 132.884 14.2708 134.133 15.4219C147.911 28.1178 150.803 51.8518 150.803 69.5264C150.803 101.653 136.391 109.646 127.447 111.506C131.891 104.259 134.095 95.8486 133.728 87.2318C133.475 81.2162 132.986 76.1534 132.235 71.7526C130.422 61.1372 126.088 46.5797 109.45 42.7374C93.1038 38.9649 82.8049 25.7733 79.6584 21.1992C81.9133 12.4121 89.8923 6.15297 99.083 6.15297H109.346C110.232 6.15297 111.115 6.20218 111.97 6.29948C112.022 6.30719 112.073 6.31343 112.126 6.31821L112.185 6.32408C112.227 6.32812 112.269 6.33143 112.311 6.33363C118.233 6.83227 123.539 8.3987 128.081 10.9888C129.557 11.8301 131.436 11.316 132.277 9.84028C133.119 8.36455 132.605 6.48565 131.129 5.64405C125.798 2.6041 119.634 0.772931 112.803 0.200852C112.768 0.196813 112.734 0.193508 112.702 0.190938C111.604 0.0638908 110.476 0 109.346 0H99.0823C86.5748 0 75.7791 8.87494 73.3692 21.11C73.363 21.1361 73.3575 21.1629 73.352 21.1897C73.3505 21.1989 73.3479 21.2073 73.3461 21.2165C73.0285 22.8446 72.8669 24.5267 72.8669 26.2161V52.9159C72.8669 70.199 86.133 84.4357 103.016 85.994V88.7142C101.399 89.3633 99.0691 90.4106 96.7257 91.8518C92.7623 94.2884 90.4303 96.825 89.1021 99.179L80.4754 90.5523C69.1194 79.197 50.6432 79.197 39.2883 90.5523C36.0152 93.8254 33.5443 97.8711 32.1432 102.252C31.6254 103.871 32.5181 105.603 34.1359 106.12C35.7548 106.637 37.4861 105.745 38.0035 104.127C39.123 100.625 41.0192 97.5223 43.6387 94.9027C47.6403 90.9008 52.7641 88.6929 58.0061 88.2669C54.5137 91.6939 52.3771 96.4552 52.3771 101.6C52.3771 111.891 60.7497 120.264 71.0409 120.264C79.2644 120.264 86.2575 114.915 88.7379 107.516L103.969 122.747C108.308 127.086 110.697 132.855 110.697 138.99C110.697 145.126 108.308 150.895 103.969 155.233C99.6305 159.572 93.862 161.961 87.7259 161.961C81.5902 161.961 75.8217 159.572 71.483 155.233L43.638 127.388C40.1317 123.882 37.8922 119.445 37.163 114.558C36.9118 112.877 35.341 111.721 33.6662 111.969C31.9856 112.22 30.8268 113.786 31.0776 115.466C31.9416 121.252 34.4719 126.537 38.418 130.83L38.689 141.406C38.7551 143.977 39.9452 146.374 41.9533 147.981C43.5124 149.229 45.428 149.891 47.3877 149.891C47.9521 149.891 48.5198 149.836 49.0838 149.725L55.9204 148.372L56.5219 148.974C57.7681 153.431 64.1649 173.418 80.9311 182.976C86.8035 186.324 93.2583 188 100.229 188C105.069 188 110.158 187.192 115.474 185.574C124.671 182.774 132.2 177.514 137.85 169.939C142.493 163.716 145.884 155.895 147.931 146.693C148.3 145.035 147.255 143.391 145.596 143.022C143.937 142.654 142.294 143.699 141.925 145.357C137.852 163.672 128.349 175.223 113.681 179.688C105.048 182.316 97.1718 182.525 90.1776 180.333V168.006C97.0268 167.439 103.392 164.507 108.309 159.595C108.31 159.594 108.312 159.592 108.314 159.59C108.315 159.59 108.318 159.586 108.32 159.585L108.32 159.585C108.32 159.585 108.32 159.584 108.321 159.584C109.006 158.901 123.703 144.062 124.623 126.708C124.713 125.011 123.41 123.563 121.713 123.473C120.029 123.384 118.568 124.685 118.478 126.382C118.316 129.447 117.618 132.456 116.612 135.309C115.811 128.925 112.942 123.02 108.319 118.398L93.7926 103.871C94.6257 100.273 99.2288 97.2619 103.015 95.4315V96.6002C103.015 98.0705 104.056 99.3354 105.499 99.6189C106.529 99.8216 111.653 100.767 117.361 100.767C120.246 100.767 123.277 100.522 126.007 99.8205C124.537 104.637 122.082 109.143 118.727 113.057C117.983 113.923 117.781 115.13 118.202 116.192C118.622 117.253 119.596 117.995 120.731 118.118C120.841 118.13 121.438 118.189 122.419 118.189C125.823 118.189 134.59 117.466 142.465 110.771C142.767 110.514 143.064 110.249 143.358 109.98C143.998 115.975 144.576 125.461 143.499 135.593C143.319 137.283 144.544 138.798 146.233 138.977C146.344 138.989 146.453 138.995 146.562 138.995C148.115 138.995 149.45 137.822 149.618 136.243C151.219 121.167 149.396 107.735 148.733 103.62C150.265 101.293 151.591 98.7149 152.698 95.893C155.524 88.6899 156.956 79.819 156.956 69.5271ZM71.0412 114.111C64.1429 114.111 58.5304 108.498 58.5304 101.6C58.5304 95.9749 62.3352 91.0318 67.6855 89.5466C68.9545 90.0026 70.1905 90.5736 71.3787 91.2602C70.6796 92.0482 70.4009 93.1722 70.7141 94.2025C71.1033 95.4829 72.3191 96.3865 73.6589 96.3865C74.7032 96.3865 75.6605 95.8391 76.2201 94.9982L83.5312 102.309C83.1618 108.878 77.7017 114.111 71.0412 114.111ZM47.8904 143.689C46.8762 143.89 46.144 143.455 45.7982 143.177C45.4515 142.9 44.8666 142.281 44.8398 141.247L44.7355 137.187L50.6843 143.136L47.8904 143.689ZM84.0254 177.657C84.0203 177.654 84.0147 177.651 84.01 177.649C76.5292 173.395 71.3383 166.52 67.9091 160.324C72.4039 164.507 77.9991 167.115 84.0258 167.875V177.657H84.0254ZM79.0199 52.9155V30.3481C82.7993 34.674 88.4452 40.0353 95.8389 44.0523V62.5535C95.8389 64.2524 97.2159 65.6298 98.9152 65.6298H105.554C107.253 65.6298 108.63 64.2524 108.63 62.5535C108.63 60.8545 107.253 59.4772 105.554 59.4772H101.992V46.8775C103.926 47.6118 105.947 48.2445 108.066 48.7332C117.799 50.9812 123.339 57.9823 125.908 71.3546C120.788 76.8576 113.646 79.9883 106.093 79.9883C91.1646 79.9883 79.0199 67.8435 79.0199 52.9155ZM109.169 93.9995V85.997C115.718 85.3918 121.895 82.8685 126.968 78.7637C127.241 81.4181 127.445 84.3068 127.58 87.4936C127.654 89.2374 127.605 90.9716 127.437 92.6849C123.934 94.9993 115.559 94.9185 109.169 93.9995Z" fill="#793333"/>
<path d="M90.9892 45.5446L86.4772 45.1344C84.7881 44.9787 83.2889 46.2275 83.1354 47.9195C82.9815 49.6115 84.2285 51.1078 85.9205 51.2617L90.4325 51.6718C90.5269 51.6803 90.6213 51.6847 90.7149 51.6847C92.2879 51.6847 93.6296 50.484 93.7751 48.8867C93.9282 47.1947 92.6812 45.6984 90.9892 45.5446Z" fill="#793333"/>
<path d="M67.0978 99.7342C66.0483 99.071 64.6717 99.1188 63.6623 99.8355C62.5351 100.636 62.086 102.154 62.585 103.441C63.04 104.614 64.1955 105.41 65.4553 105.41C66.8488 105.41 68.0991 104.431 68.438 103.08C68.7563 101.809 68.2045 100.434 67.0978 99.7342Z" fill="#793333"/>
</g>
<defs>
<clipPath id="clip0">
<rect width="188" height="188" fill="white"/>
</clipPath>
</defs>
</svg>
