<svg width="188" height="188" viewBox="0 0 496 496" fill="none" xmlns="http://www.w3.org/2000/svg">
<path d="M213.656 221.656L202.344 210.344L170.496 242.192L212.424 263.16L219.576 248.84L197.504 237.808L213.656 221.656Z" fill="#793333"/>
<path d="M416 438.112V362.896L440.416 333.592C476.264 290.576 496 236.064 496 180.08C496 80.784 415.216 0 315.928 0C296.552 0 277.392 3.112 258.976 9.24L252.648 11.352C234.136 17.52 213.872 17.52 195.344 11.352L170.12 2.944C164.28 0.992 158.176 0 152 0C103.48 0 64 39.48 64 88V90.4C64 134.784 98.064 171.36 141.488 175.576C137.896 189.192 136 203.168 136 217.296V246.272C136 257.376 134.632 268.472 131.936 279.256L126.68 300.288L134.112 304C142.696 308.288 152.12 310.92 161.688 311.736L169.752 344H206.92C205.528 349.128 202.808 353.872 199.032 357.656L190.616 366.08L193.232 372.616C203.776 398.968 228.92 416 257.304 416C262.344 416 267.384 415.448 272.272 414.36L304 407.312V407.536C304 415.272 300.24 422.568 293.952 427.064L271.936 442.792C257.08 453.4 246.176 468.16 240.408 485.472L236.904 496H459.096L453.504 479.208C447.224 460.376 433.336 445.824 416 438.112V438.112ZM80 90.4V88C80 48.296 112.304 16 152 16C156.456 16 160.848 16.712 165.064 18.128L190.288 26.528C212.08 33.792 235.92 33.792 257.712 26.528L264.04 24.424C280.808 18.832 298.264 16 315.928 16C406.4 16 480 89.6 480 180.08C480 232.328 461.576 283.216 428.128 323.344L407.464 348.152L347.304 287.984C360.664 274.008 368.008 255.712 368.024 235.768C368.032 226.216 364.312 217.232 357.552 210.48C350.792 203.72 341.816 200 331.816 200C322.056 200 312.904 203.776 306.04 210.64L302.568 214.12C286.368 204.52 274.288 189.584 268.28 171.528L262.264 153.472C257.184 138.232 242.984 128 226.552 128C217.816 128 209.624 130.856 202.864 136.264L188.704 147.584C178.704 155.592 166.16 160 153.368 160H149.864C111.336 160 80 128.776 80 90.4V90.4ZM322.232 480H260.072C265.104 470.44 272.288 462.192 281.232 455.808L303.248 440.08C313.736 432.584 320 420.416 320 407.528V403.752L337.736 399.808L334.264 384.184L268.8 398.744C265.04 399.576 261.176 400 257.304 400C236.664 400 218.248 388.272 209.472 369.84L210.344 368.968C219.024 360.288 224 348.272 224 336V328H182.248L174.248 296H168C160.272 296 152.528 294.472 145.36 291.536L147.464 283.128C150.472 271.088 152 258.688 152 246.272V217.296C152 203.216 154.12 189.296 158.064 175.8C172.824 174.832 187.104 169.36 198.696 160.088L212.864 148.76C216.752 145.648 221.488 144 226.92 144C236.088 144 244.184 149.832 247.08 158.528L253.096 176.584C261.064 200.496 277.864 219.88 300.416 231.152L305.576 233.728L317.36 221.936C321.2 218.112 326.336 216 332.264 216C337.544 216 342.504 218.056 346.24 221.792C349.968 225.528 352.024 230.48 352.024 236.312C352.016 252.032 345.888 266.808 334.776 277.912L324.688 288L400 363.312V433.12C396.08 432.432 392.088 432 388 432C358.232 432 331.904 450.976 322.496 479.208L322.232 480ZM339.304 480C347.632 460.688 366.664 448 388 448C409.336 448 428.368 460.688 436.696 480H339.304Z" fill="#793333"/>
<path d="M144.824 477.384C142.544 479.096 139.832 480 136.968 480C132.024 480 128 475.976 128 471.032C128 468.672 128.96 466.36 130.624 464.688L136.688 458.624C141.336 453.976 144 447.544 144 440.968C144 427.2 132.8 416 119.032 416H117.952C112.304 416 106.768 417.944 102.352 421.472L75.488 442.968C72.304 445.512 68.088 446.264 64.184 444.976C59.296 443.336 56 438.768 56 433.6C56 429.944 57.64 426.528 60.496 424.248L86.92 403.104C92.688 398.496 96 391.6 96 384.208C96 370.856 85.144 360 71.792 360H24C19.592 360 16 356.416 16 352C16 347.584 19.592 344 24 344H73.168C85.76 344 96 333.76 96 321.168C96 312.472 91.168 304.648 83.376 300.744L70.824 294.472C66.616 292.368 64 288.128 64 283.416C64 277.12 69.12 272 75.416 272C77.176 272 78.944 272.416 80.52 273.2L108.416 287.152L115.576 272.84L87.664 258.88C83.872 257 79.64 256 75.416 256C60.304 256 48 268.296 48 283.416C48 294.24 54.008 303.952 63.672 308.784L76.216 315.056C78.552 316.216 80 318.56 80 321.168C80 324.928 76.936 328 73.168 328H24C10.768 328 0 338.768 0 352C0 365.232 10.768 376 24 376H71.792C76.32 376 80 379.68 80 384.208C80 386.712 78.872 389.048 76.92 390.616L50.496 411.76C43.824 417.104 40 425.064 40 433.6C40 445.664 47.688 456.328 59.168 460.152C68.208 463.16 78.04 461.4 85.488 455.456L112.352 433.96C113.936 432.696 115.928 432 117.952 432H119.032C123.976 432 128 436.024 128 440.968C128 443.328 127.04 445.64 125.376 447.312L119.312 453.376C114.664 458.024 112 464.456 112 471.032C112 484.8 123.2 496 136.968 496C143.224 496 149.432 493.928 154.424 490.176L180.8 470.4L171.2 457.6L144.824 477.384Z" fill="#793333"/>
<path d="M112 360H128V376H112V360Z" fill="#793333"/>
<path d="M128 328H144V344H128V328Z" fill="#793333"/>
<path d="M144 376H160V392H144V376Z" fill="#793333"/>
<path d="M160 408H176V424H160V408Z" fill="#793333"/>
</svg>
