<svg width="188" height="188" viewBox="0 0 512 512" fill="none" xmlns="http://www.w3.org/2000/svg">
<path d="M454.015 95.7925C458.158 95.7925 461.515 92.4345 461.515 88.2925V61.6815C461.515 57.5395 458.158 54.1815 454.015 54.1815C449.873 54.1815 446.515 57.5395 446.515 61.6815V88.2925C446.515 92.4345 449.872 95.7925 454.015 95.7925ZM33.443 206.45V179.839C33.443 175.697 30.085 172.339 25.943 172.339C21.8 172.339 18.443 175.697 18.443 179.839V206.45C18.443 210.592 21.8 213.95 25.943 213.95C30.086 213.95 33.443 210.593 33.443 206.45ZM49.954 414.242C45.811 414.242 42.454 417.6 42.454 421.742V448.352C42.454 452.494 45.811 455.852 49.954 455.852C54.097 455.852 57.454 452.494 57.454 448.352V421.742C57.454 417.6 54.097 414.242 49.954 414.242ZM89.647 368.871C85.504 368.871 82.147 372.229 82.147 376.371V402.982C82.147 407.124 85.504 410.482 89.647 410.482C93.79 410.482 97.147 407.124 97.147 402.982V376.371C97.147 372.229 93.79 368.871 89.647 368.871ZM489.536 165.964C493.679 165.964 497.036 162.606 497.036 158.464V131.854C497.036 127.712 493.679 124.354 489.536 124.354C485.393 124.354 482.036 127.712 482.036 131.854V158.464C482.036 162.606 485.394 165.964 489.536 165.964V165.964ZM379.642 382.674C400.133 369.428 416.963 353.09 430.027 334.768C470.396 347.903 512 317.621 512 275.174C512 247.87 493.915 223.603 468.269 215.456C462.004 152.344 427.997 97.6825 368.149 70.4705C319.869 48.5175 255.217 46.4855 207.198 57.3415C199.461 51.5255 190.125 47.7295 179.973 46.7565C162.947 2.09149 107.247 -14.6865 68.459 14.6405C65.155 17.1385 64.502 21.8425 67 25.1465C69.498 28.4495 74.201 29.1045 77.506 26.6055C109.594 2.34549 156.021 18.0105 167.326 56.1455C168.27 59.3295 171.249 61.6405 174.854 61.5075C196.366 61.5545 213.853 79.0705 213.853 100.592C213.853 122.144 196.32 139.677 174.768 139.677C161.473 139.677 58.716 139.677 45.762 139.677C28.8 139.676 15 125.876 15 108.913C15 91.5305 29.357 77.5555 46.893 78.1815C51.021 78.3385 54.543 75.0825 54.66 70.8945C54.843 64.3255 56.125 57.9105 58.472 51.8275C59.963 47.9625 58.038 43.6215 54.174 42.1305C50.309 40.6405 45.968 42.5645 44.478 46.4285C42.355 51.9305 40.922 57.6455 40.196 63.4885C17.858 66.1615 0 85.2025 0 108.913C0 134.147 20.529 154.676 45.763 154.676H83.575C74.392 175.032 69.503 195.966 67.603 215.418C41.899 223.53 23.762 247.83 23.762 275.173C23.762 317.625 65.37 347.901 105.735 334.768C118.789 353.075 135.614 369.417 156.12 382.674C127.619 408.789 109.248 443.728 104.053 482.141C101.918 497.938 114.366 511.997 130.349 511.997H355.61C359.752 511.997 363.11 508.639 363.11 504.497C363.11 500.355 359.752 496.997 355.61 496.997H324.186C320.924 463.109 296.431 440.426 267.88 440.426C239.286 440.426 214.831 463.165 211.574 496.997H130.348C123.604 496.997 117.975 491.117 118.917 484.151C123.843 447.727 141.809 414.733 169.674 390.691C199.257 406.625 232.794 414.967 267.88 414.967C302.966 414.967 336.503 406.625 366.086 390.691C393.952 414.733 411.917 447.727 416.843 484.151C417.78 491.078 412.198 496.997 405.412 496.997H392.237C388.094 496.997 384.737 500.355 384.737 504.497C384.737 508.639 388.094 511.997 392.237 511.997H405.412C421.414 511.997 433.84 497.919 431.708 482.141C426.514 443.728 408.143 408.79 379.642 382.674V382.674ZM267.881 455.426C289.465 455.426 306.225 472.836 309.114 496.997H226.648C229.537 472.836 246.297 455.426 267.881 455.426ZM464.623 274.863C467.801 262.178 469.451 247.502 469.207 231.873C485.766 239.521 497 256.403 497 275.174C497 305.626 468.573 328.553 438.569 321.581C444.402 311.628 449.207 301.168 452.853 290.354C458.679 287.053 462.959 281.503 464.623 274.863V274.863ZM100.171 154.676H174.769C204.591 154.676 228.854 130.414 228.854 100.591C228.854 89.3165 225.381 78.8405 219.456 70.1655C234.584 67.3945 250.805 65.9735 267.881 65.9735C326.758 65.9735 383.104 82.4585 419.337 128.889C451.479 170.075 460.857 228.165 450.072 271.216C448.365 278.026 440.321 280.819 434.726 276.578C416.66 262.878 402.668 237.29 404.174 220.702C404.664 215.293 399.402 211.162 394.263 212.933C356.309 225.995 290.457 185.853 274.183 160.615C271.236 156.045 264.532 156.032 261.578 160.615C245.304 185.852 179.444 225.996 141.498 212.933C136.362 211.164 131.096 215.288 131.587 220.702C133.092 237.29 119.101 262.879 101.036 276.578C95.426 280.832 87.393 278.014 85.689 271.216C78.825 243.819 78.701 197.36 100.171 154.676V154.676ZM38.762 275.174C38.762 256.361 50.05 239.444 66.672 231.822C66.405 248.336 68.213 263.182 71.139 274.863C72.803 281.504 77.083 287.053 82.91 290.354C86.556 301.168 91.361 311.629 97.193 321.582C67.175 328.556 38.762 305.612 38.762 275.174V275.174ZM267.881 399.967C189.172 399.967 124.45 354.712 99.902 293.105C103.543 292.386 107.035 290.854 110.1 288.531C129.188 274.055 143.627 249.853 146.26 229.522C186.908 236.161 243.445 204.462 267.881 176.913C292.726 204.922 349.175 236.12 389.501 229.521C392.134 249.852 406.573 274.055 425.663 288.531C428.727 290.855 432.221 292.377 435.863 293.096C411.264 354.844 346.445 399.967 267.881 399.967V399.967ZM220.33 265.241C217.205 262.52 212.471 262.844 209.748 265.967C206.432 269.772 201.644 271.954 196.613 271.954C191.582 271.954 186.795 269.772 183.478 265.967C180.756 262.843 176.018 262.52 172.896 265.241C169.774 267.962 169.448 272.7 172.169 275.823C178.335 282.898 187.244 286.956 196.612 286.956C205.98 286.956 214.889 282.898 221.055 275.823C223.778 272.7 223.452 267.962 220.33 265.241V265.241ZM489.536 418.083C485.393 418.083 482.036 421.441 482.036 425.583V452.194C482.036 456.336 485.393 459.694 489.536 459.694C493.679 459.694 497.036 456.336 497.036 452.194V425.583C497.036 421.441 493.679 418.083 489.536 418.083ZM444.684 368.871C440.541 368.871 437.184 372.229 437.184 376.371V402.982C437.184 407.124 440.541 410.482 444.684 410.482C448.827 410.482 452.184 407.124 452.184 402.982V376.371C452.184 372.229 448.826 368.871 444.684 368.871ZM267.881 285.115C254.195 285.115 241.304 292.364 232.511 305.003C230.146 308.403 230.985 313.078 234.385 315.443C237.787 317.81 242.46 316.969 244.825 313.569C250.772 305.018 259.177 300.113 267.881 300.113C276.585 300.113 284.989 305.018 290.937 313.569C293.297 316.96 297.969 317.814 301.378 315.443C304.778 313.078 305.617 308.404 303.252 305.003C294.458 292.364 281.566 285.115 267.881 285.115ZM362.865 265.241C359.744 262.52 355.005 262.844 352.284 265.966C348.967 269.772 344.179 271.953 339.147 271.953C334.117 271.953 329.329 269.771 326.011 265.966C323.291 262.844 318.552 262.519 315.43 265.241C312.307 267.963 311.983 272.7 314.704 275.823C320.87 282.897 329.779 286.954 339.146 286.954C348.514 286.954 357.423 282.897 363.589 275.823C366.313 272.7 365.988 267.963 362.865 265.241V265.241Z" fill="#793333"/>
</svg>
