<svg width="188" height="188" viewBox="0 0 397 397" fill="none" xmlns="http://www.w3.org/2000/svg">
<path d="M143.09 396.999C104.865 396.999 68.9367 382.121 41.9094 355.093C14.886 328.062 0 292.13 0 253.909C0 215.688 14.8821 179.755 41.9094 152.732L152.724 41.9133C179.752 14.886 215.684 0 253.905 0C292.126 0 328.058 14.886 355.082 41.9133C410.875 97.7028 410.875 188.485 355.086 244.275L244.267 355.093C217.243 382.121 181.311 396.999 143.09 396.999V396.999ZM253.905 13.6306C219.326 13.6306 186.812 27.0974 162.362 51.5514L51.5436 162.37C27.0935 186.82 13.6267 219.329 13.6267 253.913C13.6267 288.492 27.0935 321.005 51.5436 345.459C75.9976 369.913 108.507 383.372 143.09 383.372C177.67 383.372 210.179 369.913 234.633 345.459L345.451 234.64C395.927 184.161 395.927 102.031 345.451 51.5514C320.997 27.0974 288.488 13.6306 253.905 13.6306Z" fill="#793333"/>
<path d="M152.732 395.631C150.545 395.631 148.401 394.586 147.083 392.636C44.9429 241.858 116.878 79.2574 117.615 77.6355C119.163 74.2083 123.186 72.6722 126.629 74.2551C130.056 75.8069 131.569 79.8462 130.021 83.2733C129.315 84.829 60.6048 240.684 158.366 384.998C160.475 388.114 159.661 392.352 156.549 394.461C155.376 395.253 154.046 395.631 152.732 395.631Z" fill="#793333"/>
<path d="M181.732 334.784C142.049 334.784 117.759 323.504 116.051 322.685C112.659 321.063 111.224 316.989 112.854 313.597C114.48 310.209 118.554 308.774 121.931 310.396C122.598 310.704 189.936 341.572 284.671 295.95C288.071 294.34 292.134 295.744 293.768 299.136C295.401 302.524 293.978 306.598 290.586 308.236C247.951 328.764 210.732 334.784 181.732 334.784V334.784Z" fill="#793333"/>
<path d="M268.358 251.289C235.6 251.289 204.802 238.532 181.635 215.36C133.815 167.544 133.815 89.7297 181.635 41.9173C229.451 -5.91451 307.262 -5.91451 355.082 41.9173C378.249 65.0808 391.01 95.8822 391.01 128.637C391.01 161.396 378.249 192.197 355.082 215.36C331.922 238.532 301.125 251.289 268.358 251.289V251.289ZM268.358 19.6702C240.438 19.6702 212.526 30.2986 191.269 51.5516C148.763 94.0575 148.763 163.224 191.269 205.73C211.859 226.324 239.237 237.662 268.358 237.662C297.479 237.662 324.858 226.324 345.448 205.73C366.042 185.132 377.384 157.758 377.384 128.641C377.384 99.5199 366.042 72.1456 345.448 51.5516C324.199 30.3064 296.275 19.6702 268.358 19.6702V19.6702Z" fill="#793333"/>
<path d="M251.425 111.505C232.609 111.505 217.357 126.757 217.357 145.574C217.357 164.394 232.609 179.642 251.425 179.642C270.242 179.642 285.494 164.394 285.494 145.574C285.494 126.757 270.242 111.505 251.425 111.505ZM251.425 166.016C243.9 166.016 237.799 159.914 237.799 152.389C237.799 144.864 265.052 144.864 265.052 152.389C265.052 159.914 258.95 166.016 251.425 166.016V166.016Z" fill="#793333"/>
<path d="M283.642 81.6278C281.899 81.6278 280.156 80.9611 278.823 79.6316C276.164 76.9764 276.164 72.6565 278.823 69.9974C280.11 68.7147 280.819 66.9952 280.819 65.1783C280.819 63.3575 280.114 61.6459 278.823 60.3632C276.168 57.7119 271.84 57.6885 269.185 60.3632C266.526 63.0222 262.214 63.0222 259.551 60.3632C256.892 57.7002 256.892 53.388 259.551 50.729C267.52 42.7557 280.484 42.7401 288.461 50.729C292.321 54.5889 294.446 59.716 294.446 65.1783C294.446 70.6368 292.321 75.7717 288.465 79.6316C287.132 80.9611 285.385 81.6278 283.642 81.6278Z" fill="#793333"/>
<path d="M336.64 134.629C334.897 134.629 333.15 133.962 331.821 132.633C329.162 129.97 329.162 125.658 331.821 122.995C333.107 121.704 333.817 119.997 333.817 118.18C333.817 116.355 333.107 114.651 331.825 113.368C329.244 110.776 324.76 110.78 322.191 113.361C319.528 116.024 315.211 116.024 312.552 113.361C309.889 110.705 309.889 106.389 312.548 103.726C320.272 96.0066 333.735 96.0066 341.459 103.726C345.319 107.579 347.448 112.717 347.448 118.18C347.448 123.634 345.319 128.773 341.459 132.633C340.125 133.962 338.383 134.629 336.64 134.629Z" fill="#793333"/>
<path d="M326.179 48.7287C324.436 48.7287 322.693 48.062 321.36 46.7325C318.701 44.0734 318.701 39.7573 321.36 37.0983L355.09 3.3688C357.749 0.705843 362.061 0.705843 364.724 3.3688C367.383 6.02786 367.383 10.3401 364.724 13.003L330.998 46.7325C329.665 48.0659 327.922 48.7287 326.179 48.7287Z" fill="#793333"/>
<path d="M340.632 63.182C338.89 63.182 337.143 62.5153 335.813 61.1858C333.154 58.5228 333.154 54.2106 335.813 51.5516L350.271 37.0983C352.93 34.4392 357.242 34.4392 359.905 37.0983C362.564 39.7574 362.564 44.0735 359.905 46.7325L345.448 61.1858C344.118 62.5153 342.375 63.182 340.632 63.182Z" fill="#793333"/>
<path d="M355.086 77.6351C353.343 77.6351 351.6 76.9684 350.271 75.6388C347.608 72.9798 347.608 68.6637 350.271 66.0046L374.358 41.9171C377.017 39.2542 381.333 39.2542 383.992 41.9171C386.655 44.5762 386.655 48.8884 383.992 51.5514L359.905 75.6388C358.575 76.9684 356.833 77.6351 355.086 77.6351Z" fill="#793333"/>
<path d="M346.82 172.832C346.82 165.303 333.193 145.574 333.193 145.574C333.193 145.574 319.563 165.303 319.563 172.832C319.563 180.356 325.665 186.458 333.193 186.458C340.718 186.458 346.82 180.356 346.82 172.832V172.832Z" fill="#793333"/>
<path d="M346.82 240.968C346.82 233.443 333.193 213.711 333.193 213.711C333.193 213.711 319.563 233.443 319.563 240.968C319.563 248.493 325.665 254.595 333.193 254.595C340.718 254.595 346.82 248.493 346.82 240.968V240.968Z" fill="#793333"/>
<path d="M346.82 315.921C346.82 308.396 333.193 288.664 333.193 288.664C333.193 288.664 319.563 308.396 319.563 315.921C319.563 323.446 325.665 329.548 333.193 329.548C340.718 329.548 346.82 323.446 346.82 315.921V315.921Z" fill="#793333"/>
</svg>
