<svg width="188" height="188" viewBox="0 0 512 512" fill="none" xmlns="http://www.w3.org/2000/svg">
<path d="M112.894 360.112H112.602C107.08 360.112 102.602 364.589 102.602 370.112C102.602 375.635 107.08 380.112 112.602 380.112H112.894C118.416 380.112 122.894 375.635 122.894 370.112C122.894 364.589 118.416 360.112 112.894 360.112Z" fill="#793333"/>
<path d="M479.862 318.482H352.365C352.357 315.846 352.351 313.211 352.348 310.584L352.232 234.898L405.57 190.271C426.22 172.993 427.91 151.23 422.606 136.625C416.63 120.173 401.832 109.542 384.903 109.542C374.26 109.542 363.43 113.787 353.585 121.819L309.827 157.511L212.94 157.378L169.431 120.442C159.365 111.898 148.008 107.381 136.586 107.381C119.006 107.381 103.086 118.468 96.971 134.969C90.042 153.663 96.725 174.119 114.845 189.688L167.531 234.957L167.275 258.602C162.641 256.258 157.415 254.844 151.844 254.618C151.709 254.613 151.573 254.61 151.439 254.61H64.277V200.737C64.277 189.422 55.081 180.217 43.777 180.217H20.5C9.196 180.217 0 189.422 0 200.737V494.154C0 503.994 7.998 512 17.83 512H49.044C58.876 512 66.875 503.994 66.875 494.154V446.69H166.713V464.072C166.713 489.76 186.29 510.659 210.355 510.659C234.419 510.659 253.998 489.76 253.998 464.072V446.69H265.832V464.072C265.832 489.76 285.409 510.659 309.474 510.659C333.538 510.659 353.116 489.76 353.116 464.072C353.116 458.293 353.105 452.493 353.09 446.69H445.125V493.735C445.125 503.576 453.124 511.582 462.956 511.582H494.169C504.001 511.582 512 503.576 512 493.735V350.663C511.999 332.918 497.582 318.482 479.862 318.482ZM20 200.736C20 200.474 20.248 200.216 20.5 200.216H43.776C44.028 200.216 44.276 200.474 44.276 200.736V318.482H32.138C27.844 318.482 23.748 319.336 20 320.873V200.736ZM46.875 492H20V444.3C23.748 445.837 27.844 446.691 32.138 446.691H46.875V492ZM166.713 426.691H32.138V426.69C25.446 426.69 20 421.226 20 414.509V380.113H82.914C88.436 380.113 92.914 375.636 92.914 370.113C92.914 364.59 88.436 360.113 82.914 360.113H20V350.664C20 343.947 25.445 338.483 32.138 338.483H166.713V426.691ZM166.773 305.06C165.735 312.628 159.264 318.482 151.439 318.482H64.277V274.609H151.214C160.039 275.055 166.926 281.843 166.934 290.14L166.773 305.06ZM265.831 426.69H253.997V378.69H265.831V426.69ZM309.473 490.66C296.437 490.66 285.831 478.733 285.831 464.073V368.69C285.831 363.167 281.353 358.69 275.831 358.69H243.997C238.475 358.69 233.997 363.167 233.997 368.69V464.072C233.997 476.859 224.958 490.659 210.354 490.659C197.318 490.659 186.712 478.732 186.712 464.072V320.599H332.37C332.378 323.224 332.386 325.849 332.396 328.478C332.396 328.479 332.396 328.481 332.396 328.482C332.396 328.484 332.396 328.485 332.396 328.487C332.468 346.706 332.599 364.983 332.726 382.804C332.916 409.44 333.114 436.983 333.114 464.073C333.115 476.859 324.076 490.66 309.473 490.66ZM335.807 222.561C333.532 224.464 332.219 227.28 332.224 230.246L332.331 300.598H186.935L187.58 230.515C187.612 227.562 186.338 224.746 184.098 222.822L127.878 174.517C116.196 164.48 111.767 152.598 115.725 141.918C118.948 133.222 127.331 127.38 136.586 127.38C143.203 127.38 150.085 130.252 156.487 135.688L202.79 174.995C204.594 176.526 206.882 177.368 209.248 177.371L313.368 177.514H313.382C315.685 177.514 317.918 176.719 319.702 175.263L366.225 137.315C372.46 132.229 378.918 129.54 384.902 129.54C393.317 129.54 400.737 135.001 403.806 143.45C407.681 154.119 403.542 165.888 392.735 174.93L335.807 222.561ZM491.999 491.581H465.124V446.69H479.861C484.155 446.69 488.252 445.836 491.999 444.299V491.581ZM492 414.509C492 421.226 486.555 426.69 479.862 426.69H353.01C352.936 411.888 352.831 397.14 352.728 382.661C352.624 368.143 352.518 353.321 352.444 338.482H479.862C486.554 338.482 492 343.946 492 350.663V414.509Z" fill="#793333"/>
<path d="M343.736 55.809C341.593 53.437 338.573 52.339 335.614 52.545C326.213 22.155 297.878 0 264.519 0H264.348C244.467 0.045 225.795 7.843 211.771 21.958C200.132 33.673 192.87 48.579 190.759 64.693C187.589 64.83 184.537 66.47 182.72 69.358C179.779 74.033 181.184 80.206 185.858 83.148C187.29 84.049 188.988 84.756 190.89 85.292C196.118 121.303 227.163 149.078 264.512 149.078H264.684C305.716 148.986 339.024 115.472 338.931 74.371C338.93 73.98 338.906 73.595 338.899 73.205C340.358 72.176 341.74 71.088 343.018 69.933C347.117 66.231 347.438 59.908 343.736 55.809ZM210.868 65.432C212.713 54.368 217.901 44.165 225.959 36.054C236.212 25.734 249.861 20.033 264.393 20H264.519C290.024 20 311.505 37.725 317.35 61.527C302.727 65.63 280.828 62.662 256.266 46.548C251.935 43.708 246.154 44.644 242.94 48.703C235.762 57.769 221.823 63.183 210.868 65.432ZM264.639 129.078H264.512C238.342 129.078 216.398 110.421 211.246 85.68C225.348 83.488 241.354 77.091 252.328 67.618C277.453 82.195 300.539 85.443 318.437 81.777C314.9 108.388 292.152 129.016 264.639 129.078Z" fill="#793333"/>
</svg>
