<svg width="188" height="188" viewBox="0 0 437 437" fill="none" xmlns="http://www.w3.org/2000/svg">
<path d="M141.328 300.105C141.188 300.105 141.047 300.098 140.902 300.09C61.8945 295.27 0 229.422 0 150.188C0 67.375 67.375 0 150.188 0C229.117 0 294.945 61.6328 300.051 140.316C300.297 144.078 297.441 147.328 293.684 147.57C290.027 147.813 286.676 144.965 286.426 141.199C281.785 69.6797 221.945 13.6523 150.188 13.6523C74.9023 13.6523 13.6523 74.9023 13.6523 150.188C13.6523 222.219 69.9141 282.078 141.738 286.461C145.5 286.691 148.363 289.93 148.133 293.691C147.914 297.316 144.906 300.105 141.328 300.105V300.105Z" fill="#793333"/>
<path d="M115.125 238.695C113.457 238.695 111.789 238.094 110.477 236.871C107.711 234.305 107.555 229.984 110.121 227.223C118.926 217.75 133.824 212.098 149.969 212.098C153 212.098 156.035 212.297 158.984 212.691C162.719 213.195 165.344 216.629 164.844 220.367C164.344 224.105 160.898 226.727 157.172 226.227C154.82 225.91 152.398 225.754 149.969 225.754C137.734 225.754 126.297 229.879 120.125 236.52C118.781 237.965 116.953 238.695 115.125 238.695Z" fill="#793333"/>
<path d="M102.398 150.188C102.398 157.727 96.2891 163.84 88.7461 163.84C81.207 163.84 75.0938 157.727 75.0938 150.188C75.0938 142.645 81.207 136.535 88.7461 136.535C96.2891 136.535 102.398 142.645 102.398 150.188Z" fill="#793333"/>
<path d="M225.281 150.188C225.281 157.727 219.168 163.84 211.625 163.84C204.086 163.84 197.973 157.727 197.973 150.188C197.973 142.645 204.086 136.535 211.625 136.535C219.168 136.535 225.281 142.645 225.281 150.188Z" fill="#793333"/>
<path d="M286.719 436.906C203.906 436.906 136.535 369.531 136.535 286.719C136.535 203.906 203.906 136.535 286.719 136.535C369.531 136.535 436.906 203.906 436.906 286.719C436.906 369.531 369.531 436.906 286.719 436.906ZM286.719 150.188C211.438 150.188 150.188 211.434 150.188 286.719C150.188 362.004 211.438 423.254 286.719 423.254C362.004 423.254 423.254 362.004 423.254 286.719C423.254 211.434 362.004 150.188 286.719 150.188Z" fill="#793333"/>
<path d="M286.719 314.027C270.375 314.027 255.379 308.261 246.602 298.609C244.07 295.816 244.277 291.5 247.066 288.965C249.859 286.429 254.184 286.64 256.707 289.429C262.844 296.179 274.344 300.375 286.719 300.375C298.957 300.375 310.395 296.25 316.563 289.609C319.129 286.843 323.457 286.691 326.207 289.254C328.973 291.82 329.129 296.14 326.563 298.902C317.762 308.371 302.871 314.027 286.719 314.027V314.027Z" fill="#793333"/>
<path d="M238.934 225.281C238.934 232.82 232.82 238.934 225.281 238.934C217.738 238.934 211.625 232.82 211.625 225.281C211.625 217.738 217.738 211.625 225.281 211.625C232.82 211.625 238.934 217.738 238.934 225.281Z" fill="#793333"/>
<path d="M361.812 225.281C361.812 232.82 355.699 238.934 348.16 238.934C340.621 238.934 334.508 232.82 334.508 225.281C334.508 217.738 340.621 211.625 348.16 211.625C355.699 211.625 361.812 217.738 361.812 225.281Z" fill="#793333"/>
</svg>
