<svg width="188" height="188" viewBox="0 0 480 472" fill="none" xmlns="http://www.w3.org/2000/svg">
<path d="M57.056 241.376C52.6439 239.912 47.9234 239.639 43.3719 240.584C38.8204 241.53 34.5993 243.66 31.1353 246.761C27.6714 249.861 25.0875 253.821 23.645 258.24C22.2024 262.659 21.9523 267.381 22.92 271.928C32.2297 315.227 56.4039 353.901 91.248 381.24C101.462 392.209 113.826 400.956 127.569 406.937C141.312 412.917 156.14 416.002 171.128 416H260.872C287.498 416.344 313.277 406.647 333.076 388.841C352.874 371.035 365.241 346.425 367.712 319.912C367.904 317.304 368 314.666 368 312C367.728 284.253 357.391 257.548 338.912 236.848C353.859 232.998 367.764 225.877 379.624 216H420C435.908 215.983 451.159 209.656 462.408 198.407C473.656 187.159 479.983 171.907 480 156C480 150.695 477.893 145.608 474.142 141.858C470.391 138.107 465.304 136 460 136H432.312C432.248 135.328 432.312 134.664 432.184 134L425.784 94.2477C425.616 93.21 425.245 92.2157 424.692 91.3215C424.139 90.4273 423.416 89.6508 422.563 89.0364C421.71 88.4219 420.744 87.9816 419.721 87.7406C418.698 87.4996 417.637 87.4626 416.6 87.6317L406.592 89.2317C396.074 68.3168 378.806 51.5625 357.584 41.6795C336.361 31.7966 312.425 29.3631 289.648 34.7729C266.87 40.1826 246.585 53.1191 232.072 71.4893C217.56 89.8595 209.671 112.589 209.68 136C209.65 152.761 213.72 169.276 221.536 184.104C219.664 184 217.824 184 216 184C160.968 184 110.912 208.704 83.896 248.8C76.666 247.381 69.5321 245.511 62.536 243.2L57.056 241.376ZM426.592 157.6C427.845 155.846 428.917 153.97 429.792 152H460C461.061 152 462.078 152.421 462.828 153.171C463.579 153.921 464 154.939 464 156C463.987 167.665 459.347 178.849 451.099 187.098C442.85 195.347 431.666 199.987 420 200H395.488C402.832 190.609 408.489 180.014 412.208 168.688C417.988 166.485 422.991 162.629 426.592 157.6V157.6ZM416.392 136.52C417.057 140.639 416.059 144.853 413.619 148.237C411.178 151.621 407.494 153.898 403.376 154.568L371.264 159.76C369.225 160.09 367.141 160.015 365.13 159.54C363.12 159.064 361.223 158.197 359.548 156.989C357.873 155.78 356.452 154.253 355.367 152.495C354.282 150.737 353.554 148.783 353.224 146.744L348.072 114.896L411.272 104.672L416.392 136.52ZM86.4 265.544C87.972 265.818 89.5901 265.609 91.0411 264.945C92.492 264.281 93.7077 263.192 94.528 261.824C117.872 223.688 164.408 200 216 200C222.653 200.04 229.297 200.486 235.896 201.336C237.45 201.523 239.026 201.25 240.427 200.551C241.827 199.851 242.992 198.756 243.777 197.401C244.561 196.046 244.931 194.491 244.84 192.927C244.748 191.364 244.201 189.862 243.264 188.608C231.833 173.453 225.659 154.982 225.68 136C225.699 116.644 232.099 97.8343 243.889 82.4837C255.679 67.1331 272.201 56.0978 290.897 51.0868C309.593 46.0757 329.42 47.3684 347.307 54.7646C365.194 62.1609 380.143 75.2481 389.84 91.9997L337.6 100.408L274.4 110.624C272.306 110.957 270.43 112.108 269.184 113.824L256 132.192L268.968 141.552L280.272 125.888L332.272 117.48L337.424 149.328C338.622 156.759 342.424 163.522 348.15 168.409C353.876 173.295 361.153 175.985 368.68 176C370.403 175.998 372.123 175.862 373.824 175.592L393.824 172.352C387.361 186.434 377.317 198.574 364.693 207.558C352.07 216.543 337.31 222.058 321.888 223.552C320.348 223.695 318.882 224.282 317.669 225.241C316.456 226.2 315.546 227.491 315.051 228.956C314.556 230.421 314.496 231.999 314.879 233.497C315.262 234.996 316.071 236.351 317.208 237.4C327.894 246.716 336.511 258.167 342.503 271.016C348.496 283.864 351.731 297.825 352 312C352 314.256 351.92 316.496 351.76 318.736C349.595 341.224 339.041 362.073 322.199 377.132C305.357 392.191 283.462 400.355 260.872 400H171.128C158.244 400.005 145.5 397.335 133.701 392.16C121.903 386.985 111.307 379.417 102.584 369.936C102.281 369.605 101.952 369.3 101.6 369.024C69.4502 343.976 47.1346 308.419 38.56 268.576C38.1631 266.788 38.2504 264.927 38.8129 263.185C39.3755 261.442 40.3928 259.882 41.76 258.664C43.1173 257.42 44.7863 256.568 46.5894 256.198C48.3925 255.827 50.2623 255.952 52 256.56L57.496 258.384C66.9288 261.522 76.5931 263.916 86.4 265.544V265.544Z" fill="#793333"/>
<path d="M40 120C44.7468 120 49.3869 118.592 53.3337 115.955C57.2805 113.318 60.3566 109.57 62.1731 105.184C63.9896 100.799 64.4649 95.9734 63.5388 91.3178C62.6128 86.6623 60.327 82.3859 56.9706 79.0294C53.6141 75.673 49.3377 73.3872 44.6822 72.4612C40.0266 71.5351 35.201 72.0104 30.8156 73.8269C26.4302 75.6434 22.6819 78.7195 20.0447 82.6663C17.4076 86.6131 16 91.2533 16 96C16 102.365 18.5286 108.47 23.0294 112.971C27.5303 117.471 33.6348 120 40 120V120ZM40 88C41.5823 88 43.129 88.4692 44.4446 89.3483C45.7602 90.2273 46.7855 91.4767 47.391 92.9385C47.9965 94.4004 48.155 96.0089 47.8463 97.5607C47.5376 99.1126 46.7757 100.538 45.6569 101.657C44.538 102.776 43.1126 103.538 41.5607 103.846C40.0089 104.155 38.4003 103.997 36.9385 103.391C35.4767 102.786 34.2273 101.76 33.3482 100.445C32.4692 99.129 32 97.5823 32 96C32 93.8783 32.8429 91.8435 34.3431 90.3432C35.8434 88.8429 37.8783 88 40 88Z" fill="#793333"/>
<path d="M24 392C28.7468 392 33.3869 390.592 37.3337 387.955C41.2805 385.318 44.3566 381.57 46.1731 377.184C47.9896 372.799 48.4649 367.973 47.5388 363.318C46.6128 358.662 44.327 354.386 40.9706 351.029C37.6141 347.673 33.3377 345.387 28.6822 344.461C24.0266 343.535 19.201 344.01 14.8156 345.827C10.4302 347.643 6.68188 350.72 4.04473 354.666C1.40758 358.613 0 363.253 0 368C0 374.365 2.52856 380.47 7.02944 384.971C11.5303 389.471 17.6348 392 24 392ZM24 360C25.5823 360 27.129 360.469 28.4446 361.348C29.7602 362.227 30.7855 363.477 31.391 364.939C31.9965 366.4 32.155 368.009 31.8463 369.561C31.5376 371.113 30.7757 372.538 29.6569 373.657C28.538 374.776 27.1126 375.538 25.5607 375.846C24.0089 376.155 22.4003 375.997 20.9385 375.391C19.4767 374.786 18.2273 373.76 17.3482 372.445C16.4692 371.129 16 369.582 16 368C16 365.878 16.8429 363.843 18.3431 362.343C19.8434 360.843 21.8783 360 24 360Z" fill="#793333"/>
<path d="M176 48C180.747 48 185.387 46.5924 189.334 43.9553C193.28 41.3181 196.357 37.5698 198.173 33.1844C199.99 28.799 200.465 23.9734 199.539 19.3178C198.613 14.6623 196.327 10.3859 192.971 7.02945C189.614 3.67299 185.338 1.38721 180.682 0.461164C176.027 -0.464881 171.201 0.0103989 166.816 1.8269C162.43 3.64341 158.682 6.71954 156.045 10.6663C153.408 14.6131 152 19.2533 152 24C152 30.3652 154.529 36.4697 159.029 40.9706C163.53 45.4715 169.635 48 176 48ZM176 16C177.582 16 179.129 16.4692 180.445 17.3483C181.76 18.2273 182.786 19.4767 183.391 20.9385C183.997 22.4004 184.155 24.0089 183.846 25.5607C183.538 27.1126 182.776 28.538 181.657 29.6569C180.538 30.7757 179.113 31.5376 177.561 31.8463C176.009 32.155 174.4 31.9965 172.939 31.391C171.477 30.7855 170.227 29.7602 169.348 28.4446C168.469 27.129 168 25.5823 168 24C168 21.8783 168.843 19.8434 170.343 18.3432C171.843 16.8429 173.878 16 176 16V16Z" fill="#793333"/>
<path d="M120 112H136V128H120V112Z" fill="#793333"/>
<path d="M104 128H120V144H104V128Z" fill="#793333"/>
<path d="M136 128H152V144H136V128Z" fill="#793333"/>
<path d="M120 144H136V160H120V144Z" fill="#793333"/>
<path d="M424 248H440V264H424V248Z" fill="#793333"/>
<path d="M408 264H424V280H408V264Z" fill="#793333"/>
<path d="M440 264H456V280H440V264Z" fill="#793333"/>
<path d="M424 280H440V296H424V280Z" fill="#793333"/>
<path d="M472 384C472 375.513 468.629 367.374 462.627 361.373C456.626 355.371 448.487 352 440 352C431.513 352 423.374 355.371 417.373 361.373C411.371 367.374 408 375.513 408 384C408.028 389.725 409.609 395.335 412.576 400.232C411.072 400.088 409.544 400 408 400C398.83 400.011 389.854 402.649 382.136 407.601C374.418 412.553 368.28 419.612 364.448 427.944C358.886 422.284 351.763 418.408 343.99 416.811C336.216 415.215 328.143 415.969 320.8 418.979C313.456 421.989 307.176 427.118 302.759 433.711C298.343 440.305 295.989 448.064 296 456H312C312 449.635 314.529 443.53 319.029 439.029C323.53 434.529 329.635 432 336 432C342.365 432 348.47 434.529 352.971 439.029C357.471 443.53 360 449.635 360 456H376C376.003 453.313 375.735 450.633 375.2 448H376C376 439.513 379.371 431.374 385.373 425.373C391.374 419.371 399.513 416 408 416C416.487 416 424.626 419.371 430.627 425.373C436.629 431.374 440 439.513 440 448H456C455.994 436.016 451.486 424.472 443.368 415.656C451.206 414.843 458.466 411.16 463.751 405.316C469.037 399.472 471.975 391.88 472 384V384ZM440 400C436.836 400 433.742 399.062 431.111 397.304C428.48 395.545 426.429 393.047 425.218 390.123C424.007 387.199 423.69 383.982 424.307 380.879C424.925 377.775 426.449 374.924 428.686 372.686C430.924 370.449 433.775 368.925 436.879 368.307C439.982 367.69 443.199 368.007 446.123 369.218C449.047 370.429 451.545 372.48 453.304 375.111C455.062 377.742 456 380.835 456 384C456 388.243 454.314 392.313 451.314 395.314C448.313 398.314 444.243 400 440 400Z" fill="#793333"/>
<path d="M40 424C46.3652 424 52.4697 426.529 56.9706 431.03C61.4714 435.531 64 441.635 64 448H80C80 443.757 81.6857 439.687 84.6863 436.687C87.6869 433.686 91.7565 432 96 432C100.243 432 104.313 433.686 107.314 436.687C110.314 439.687 112 443.757 112 448H128C128.01 441.641 126.122 435.423 122.577 430.143C119.033 424.863 113.994 420.761 108.104 418.361C102.215 415.962 95.7435 415.374 89.5183 416.674C83.2932 417.973 77.5974 421.101 73.16 425.656C68.3706 418.557 61.429 413.182 53.3565 410.322C45.284 407.463 36.5068 407.269 28.3162 409.771C20.1257 412.272 12.9542 417.336 7.85689 424.218C2.75957 431.1 0.00555199 439.436 0 448H16C16 441.635 18.5286 435.531 23.0294 431.03C27.5303 426.529 33.6348 424 40 424V424Z" fill="#793333"/>
<path d="M240 448C244.243 448 248.313 449.686 251.314 452.686C254.314 455.687 256 459.757 256 464H272C272.009 457.198 269.848 450.571 265.83 445.083C261.812 439.595 256.148 435.532 249.662 433.485C243.175 431.439 236.205 431.516 229.765 433.705C223.325 435.894 217.752 440.081 213.856 445.656C208.517 439.532 201.433 435.187 193.554 433.204C185.675 431.221 177.378 431.694 169.776 434.561C162.174 437.428 155.631 442.551 151.024 449.243C146.416 455.935 143.966 463.876 144 472H160C160 465.635 162.529 459.53 167.029 455.03C171.53 450.529 177.635 448 184 448C190.365 448 196.47 450.529 200.971 455.03C205.471 459.53 208 465.635 208 472H224C224.003 469.313 223.735 466.633 223.2 464H224C224 459.757 225.686 455.687 228.686 452.686C231.687 449.686 235.757 448 240 448V448Z" fill="#793333"/>
<path d="M230.32 368H254.32C264.925 367.987 275.092 363.769 282.59 356.27C290.089 348.772 294.307 338.605 294.32 328H278.32C278.32 334.365 275.791 340.47 271.291 344.971C266.79 349.471 260.685 352 254.32 352H230.32C208.373 351.974 187.226 343.759 171.016 328.962C154.807 314.166 144.702 293.854 142.68 272H262.32V256H134.32C132.198 256 130.163 256.843 128.663 258.343C127.163 259.843 126.32 261.878 126.32 264C126.352 291.573 137.319 318.007 156.816 337.504C176.313 357.001 202.747 367.968 230.32 368V368Z" fill="#793333"/>
</svg>
