<svg width="188" height="188" viewBox="0 0 513 512" fill="none" xmlns="http://www.w3.org/2000/svg">
<path d="M344.991 99.1761C344.991 93.3921 342.738 87.9521 338.647 83.8611C330.204 75.4191 316.464 75.4171 308.018 83.8611C305.089 86.7901 305.089 91.5381 308.017 94.4661C310.946 97.3961 315.694 97.3951 318.623 94.4671C321.219 91.8691 325.443 91.8701 328.04 94.4661C329.298 95.7251 329.991 97.3971 329.991 99.1761C329.991 100.954 329.298 102.626 328.04 103.884C325.111 106.813 325.111 111.561 328.04 114.489C329.505 115.954 331.424 116.686 333.344 116.686C335.263 116.686 337.183 115.954 338.647 114.49C342.737 110.399 344.991 104.961 344.991 99.1761Z" fill="#793333"/>
<path d="M499.549 211.905C506.79 193.938 510.696 174.661 510.915 154.853C511.346 115.88 497.497 79.248 471.77 50.874C479.4 43.646 488.713 38.295 498.816 35.36C502.794 34.205 505.082 30.044 503.926 26.067C502.771 22.089 498.609 19.801 494.633 20.957C482.109 24.595 470.578 31.261 461.164 40.27C416.819 0.0800018 353.957 -9.072 300.173 12.512C289.935 4.404 277.351 0 264.169 0C263.876 0 263.582 0.002 263.29 0.006C248.101 0.232 233.818 6.273 223.075 17.017C204.812 35.28 201.042 62.646 212.466 84.699C207.934 84.491 203.302 85.174 198.825 86.855C165.266 99.45 116.22 132.528 87.168 162.16C71.203 178.442 62.793 200.897 64.093 223.767C64.475 230.48 65.112 237.934 65.977 245.965C46.317 264.173 28.519 287.159 16.812 309.577C9.046 324.45 -2.641 352.148 6.346 370.549C6.381 370.621 6.418 370.696 6.455 370.772C-7.632 409.158 1.715 452.103 30.806 481.193C50.937 501.324 77.697 512.002 104.996 512C117.144 512 129.401 509.876 141.222 505.539C141.297 505.577 141.374 505.618 141.449 505.654C145.85 507.803 151.104 508.86 157.061 508.86C171.871 508.86 191.01 502.325 212.08 489.793C231.577 478.196 250.55 462.691 266.004 446.028C274.065 446.894 281.529 447.526 288.232 447.908C289.776 447.996 291.316 448.039 292.855 448.039C314.103 448.039 334.656 439.721 349.84 424.834C366.823 408.182 385.424 384.564 400.876 360.034C403.084 356.53 402.032 351.9 398.528 349.692C395.023 347.484 390.393 348.535 388.186 352.041C373.329 375.625 355.526 398.253 339.34 414.124C326.065 427.14 307.754 433.998 289.085 432.934C285.563 432.734 281.81 432.459 277.863 432.116C279.858 429.551 281.761 426.978 283.55 424.406C292.962 410.866 297.83 394.821 297.629 378.007C297.287 349.423 293.726 300.213 284.76 247.823C284.672 247.311 284.58 246.786 284.49 246.269C332.807 255.951 373.238 268.87 401.898 283.83C410.595 288.371 414.555 298.722 411.106 307.908C409.442 312.34 407.339 317.192 404.853 322.333C403.05 326.063 404.611 330.546 408.34 332.35C409.392 332.859 410.504 333.1 411.6 333.1C414.386 333.1 417.063 331.54 418.356 328.864C421.04 323.313 423.326 318.037 425.148 313.179C426.828 308.704 427.51 304.074 427.303 299.543C435.661 303.873 444.78 306.027 453.882 306.027C468.792 306.027 483.647 300.268 494.986 288.929C505.73 278.184 511.772 263.902 511.996 248.712C512.192 235.243 507.797 222.356 499.549 211.905ZM233.68 27.622C247.431 13.872 267.928 11.261 284.261 19.945C270.858 27.144 258.249 36.405 246.923 47.731C238.445 56.209 231.012 65.517 224.692 75.526C217.612 59.601 220.76 40.542 233.68 27.622ZM41.411 470.587C18.128 447.304 9.603 413.667 18.403 382.522C29.83 389.874 52.55 400.102 98.971 413.033C104.49 432.811 110.077 450.169 115.428 464.064C120.859 478.166 125.539 487.417 129.53 493.582C98.372 502.407 64.708 493.884 41.411 470.587ZM271.233 415.842C255.414 438.599 230.435 461.424 204.413 476.902C180.033 491.403 158.428 497.252 148.03 492.177C147.798 492.063 147.549 491.91 147.289 491.725C147.012 491.462 146.717 491.222 146.407 491.005C140.256 485.372 127.983 462.389 112.383 405.316C112.329 405.074 112.264 404.836 112.187 404.601C110.419 398.112 108.609 391.187 106.76 383.8C105.754 379.782 101.684 377.338 97.664 378.345C93.646 379.35 91.204 383.423 92.209 387.44C92.946 390.387 93.688 393.283 94.432 396.151C37.534 379.655 23.863 368.812 20.692 365.185C20.64 365.12 20.584 365.059 20.53 364.996C20.104 364.484 19.905 364.139 19.821 363.967C11.833 347.609 31.596 301.987 68.256 264.643C71.836 291.124 77.336 321.901 84.144 352.997C85.03 357.044 89.03 359.602 93.074 358.72C97.12 357.834 99.681 353.836 98.797 349.791C88.211 301.433 80.835 254.003 79.068 222.915C78.007 204.251 84.862 185.934 97.878 172.66C125.625 144.358 172.281 112.837 204.095 100.895C213.279 97.445 223.632 101.405 228.173 110.103C240.006 132.772 256.074 178.702 267.695 237.285C267.737 237.968 267.868 238.632 268.085 239.263C276.176 280.608 282.028 328.135 282.628 378.181C282.793 391.859 278.852 404.881 271.233 415.842ZM419.866 279.652C416.946 275.965 413.235 272.828 408.836 270.531C377.323 254.081 334.53 240.59 281.587 230.408C273.902 190.591 261.251 141.058 241.469 103.164C239.173 98.765 236.035 95.054 232.348 92.133C239.013 79.751 247.462 68.404 257.528 58.338C312.878 2.988 401.898 1.952 455.973 56.027C510.047 110.101 509.011 199.122 453.662 254.47C443.595 264.539 432.248 272.986 419.866 279.652ZM484.378 278.32C471.458 291.239 452.399 294.387 436.475 287.308C446.484 280.989 455.79 273.555 464.269 265.077C475.463 253.883 484.789 241.328 492.09 227.803C500.73 244.124 498.11 264.587 484.378 278.32Z" fill="#793333"/>
<path d="M412.824 167.01C407.038 167.01 401.6 169.263 397.509 173.354C394.58 176.283 394.581 181.031 397.51 183.959C400.44 186.887 405.187 186.888 408.116 183.958C409.374 182.7 411.046 182.008 412.824 182.008C414.602 182.008 416.275 182.7 417.533 183.959C418.791 185.217 419.484 186.889 419.484 188.667C419.484 190.446 418.791 192.118 417.533 193.377C414.604 196.306 414.605 201.054 417.533 203.982C418.998 205.446 420.917 206.178 422.836 206.178C424.755 206.178 426.675 205.446 428.14 203.981C432.231 199.89 434.484 194.452 434.484 188.667C434.484 182.882 432.231 177.443 428.14 173.354C424.047 169.261 418.609 167.01 412.824 167.01Z" fill="#793333"/>
<path d="M366.483 158.76C362.895 159.004 359.378 157.694 356.842 155.158C354.305 152.621 352.992 149.106 353.239 145.516C353.523 141.384 350.403 137.805 346.272 137.521C342.133 137.25 338.561 140.357 338.277 144.489C337.733 152.405 340.635 160.16 346.237 165.763C351.395 170.919 358.373 173.786 365.624 173.786C366.251 173.786 366.881 173.765 367.511 173.722C371.644 173.438 374.762 169.858 374.479 165.727C374.194 161.595 370.617 158.483 366.483 158.76Z" fill="#793333"/>
</svg>
