<svg width="188" height="188" viewBox="0 0 513 432" fill="none" xmlns="http://www.w3.org/2000/svg">
<path d="M335.848 172.477C331.441 172.477 327.406 169.539 326.203 165.082C324.762 159.75 327.914 154.258 333.246 152.82L333.652 152.711C338.996 151.313 344.461 154.512 345.856 159.859C347.254 165.199 344.051 170.664 338.711 172.059L338.465 172.125C337.594 172.363 336.715 172.477 335.848 172.477V172.477Z" fill="#793333"/>
<path d="M403.215 268.477C398.461 268.477 393.769 267.231 389.539 264.789C383.191 261.125 378.652 255.207 376.754 248.129C375.324 242.793 378.492 237.313 383.828 235.883C389.16 234.449 394.644 237.617 396.074 242.953C396.59 244.871 397.82 246.477 399.543 247.469C401.262 248.465 403.269 248.727 405.184 248.211C407.105 247.699 408.711 246.469 409.703 244.746C410.699 243.027 410.961 241.02 410.445 239.102C409.016 233.766 412.184 228.285 417.519 226.856C422.851 225.422 428.336 228.59 429.766 233.926C431.664 241.004 430.687 248.399 427.023 254.746C423.359 261.094 417.441 265.633 410.363 267.531C407.996 268.164 405.598 268.477 403.215 268.477V268.477Z" fill="#793333"/>
<path d="M316.715 291.656C311.961 291.656 307.269 290.406 303.039 287.969C296.691 284.305 292.152 278.387 290.254 271.305C288.824 265.973 291.992 260.488 297.328 259.059C302.66 257.625 308.144 260.793 309.574 266.129C310.09 268.047 311.32 269.652 313.043 270.645C314.762 271.641 316.766 271.902 318.687 271.387C320.605 270.875 322.211 269.645 323.203 267.922C324.199 266.199 324.461 264.195 323.945 262.277C322.516 256.941 325.684 251.461 331.019 250.031C336.351 248.598 341.836 251.766 343.266 257.102C345.164 264.18 344.187 271.574 340.523 277.922C336.859 284.27 330.941 288.809 323.863 290.707C321.496 291.344 319.098 291.656 316.715 291.656V291.656Z" fill="#793333"/>
<path d="M376.941 357.176C369.816 357.176 362.789 355.308 356.453 351.648C346.945 346.16 340.144 337.297 337.305 326.691C335.875 321.355 339.039 315.871 344.375 314.441C349.711 313.012 355.191 316.179 356.621 321.515C358.082 326.957 361.574 331.512 366.457 334.328C371.336 337.144 377.023 337.894 382.469 336.437C393.711 333.426 400.406 321.828 397.394 310.586C395.965 305.254 399.129 299.769 404.465 298.34C409.797 296.906 415.281 300.078 416.711 305.41C422.578 327.304 409.539 349.89 387.644 355.754C384.105 356.707 380.512 357.176 376.941 357.176V357.176Z" fill="#793333"/>
<path d="M507.148 253.203C491.297 194.047 439.602 151.848 378.508 148.191C372.984 147.871 368.258 152.066 367.93 157.578C367.602 163.094 371.801 167.828 377.316 168.16C429.797 171.297 474.211 207.555 487.828 258.379C505.234 323.344 466.543 390.355 401.582 407.762C391.195 410.547 380.668 411.887 370.25 411.887C329.43 411.887 290.238 391.301 267.539 356.164C278.004 336.387 283.945 313.867 283.945 289.98C283.945 266.094 278.008 243.574 267.543 223.801C277.113 208.977 289.918 196.25 304.738 186.871C309.402 183.918 310.793 177.738 307.84 173.07C304.887 168.406 298.707 167.016 294.043 169.969C279.348 179.27 266.359 191.391 255.949 205.43C230.051 170.609 188.605 148.008 141.973 148.008C63.6875 148.008 0 211.695 0 289.98C0 368.266 63.6875 431.953 141.973 431.953C188.617 431.953 230.078 409.34 255.973 374.5C271.23 395.004 292.051 411.34 315.809 421.172C333.195 428.367 351.438 431.988 369.812 431.988C382.141 431.988 394.531 430.359 406.758 427.082C482.371 406.82 527.41 328.816 507.148 253.203V253.203ZM141.973 411.949C74.7148 411.949 20 357.234 20 289.98C20 222.727 74.7148 168.008 141.973 168.008C209.227 168.008 263.941 222.727 263.941 289.98C263.941 357.234 209.227 411.949 141.973 411.949Z" fill="#793333"/>
<path d="M114.637 278.77C109.113 278.77 104.633 274.293 104.633 268.77C104.633 264.668 101.297 261.332 97.1953 261.332C93.0938 261.332 89.7578 264.668 89.7578 268.77C89.7578 274.293 85.2813 278.77 79.7578 278.77C74.2344 278.77 69.7578 274.293 69.7578 268.77C69.7578 253.641 82.0664 241.332 97.1953 241.332C112.324 241.332 124.637 253.641 124.637 268.77C124.637 274.293 120.156 278.77 114.637 278.77Z" fill="#793333"/>
<path d="M204.188 278.77C198.664 278.77 194.188 274.293 194.188 268.77C194.188 264.668 190.852 261.332 186.75 261.332C182.648 261.332 179.312 264.668 179.312 268.77C179.312 274.293 174.832 278.77 169.312 278.77C163.789 278.77 159.309 274.293 159.309 268.77C159.309 253.641 171.621 241.332 186.75 241.332C201.879 241.332 214.188 253.641 214.188 268.77C214.188 274.293 209.711 278.77 204.188 278.77Z" fill="#793333"/>
<path d="M141.973 358.109C119.305 358.109 100.867 339.672 100.867 317.004C100.867 311.484 105.344 307.004 110.867 307.004C116.391 307.004 120.867 311.484 120.867 317.004C120.867 328.645 130.336 338.109 141.973 338.109C153.609 338.109 163.078 328.641 163.078 317.004C163.078 311.484 167.555 307.004 173.078 307.004C178.602 307.004 183.078 311.484 183.078 317.004C183.078 339.672 164.637 358.109 141.973 358.109Z" fill="#793333"/>
<path d="M256.164 67.7422C250.641 67.7422 246.164 63.2617 246.164 57.7422V10C246.164 4.47656 250.641 0 256.164 0C261.688 0 266.164 4.47656 266.164 10V57.7422C266.164 63.2656 261.688 67.7422 256.164 67.7422Z" fill="#793333"/>
<path d="M256.16 109.973C253.527 109.973 250.957 108.902 249.09 107.043C247.227 105.184 246.168 102.605 246.168 99.9727C246.168 97.3438 247.227 94.7617 249.09 92.9023C250.957 91.043 253.527 89.9727 256.16 89.9727C258.797 89.9727 261.367 91.043 263.23 92.9023C265.098 94.7617 266.16 97.3438 266.16 99.9727C266.16 102.605 265.098 105.184 263.23 107.043C261.367 108.902 258.797 109.973 256.16 109.973Z" fill="#793333"/>
<path d="M204.574 92.6406C202.016 92.6406 199.457 91.6641 197.504 89.7109L164.352 56.5586C160.449 52.6562 160.449 46.3242 164.352 42.418C168.258 38.5117 174.59 38.5117 178.496 42.418L211.648 75.5703C215.551 79.4727 215.551 85.8047 211.648 89.7109C209.695 91.6641 207.137 92.6406 204.574 92.6406Z" fill="#793333"/>
<path d="M308.363 91.7617C305.805 91.7617 303.25 90.7852 301.297 88.8359C297.387 84.9297 297.387 78.6016 301.289 74.6914L333.52 42.4414C337.426 38.5391 343.758 38.5352 347.664 42.4375C351.57 46.3438 351.57 52.6758 347.668 56.582L315.438 88.832C313.484 90.7852 310.926 91.7617 308.363 91.7617V91.7617Z" fill="#793333"/>
</svg>
