<svg width="188" height="188" viewBox="0 0 435 512" fill="none" xmlns="http://www.w3.org/2000/svg">
<path d="M325.778 42.21C326.192 42.527 326.603 42.843 327.012 43.162C327.251 43.344 327.489 43.526 327.726 43.711C327.074 43.203 326.432 42.707 325.778 42.21Z" fill="#793333"/>
<path d="M432.922 466.583C431.857 464.792 430.333 463.218 428.916 461.694C428.324 461.065 427.683 460.46 427.029 459.879C425.456 458.475 423.871 457.108 422.226 455.801C418.935 453.186 415.595 450.658 412.509 447.814C409.921 445.437 407.58 442.766 405.392 440.019C405.048 439.511 404.734 439.001 404.445 438.472C404.408 438.338 404.37 438.203 404.335 438.068C404.298 437.139 404.335 436.214 404.411 435.278C405.491 428.892 407.239 422.668 408.625 416.339C410.064 409.756 411.396 403.137 412.8 396.53C415.608 383.232 418.088 369.859 420.061 356.403C422.18 341.931 423.801 327.348 424.793 312.754C425.241 306.002 425.254 299.201 425.325 292.437C425.399 285.612 425.616 278.763 425.361 271.95C424.84 258.022 423.764 244.13 422.252 230.274C421.465 222.977 420.689 215.668 419.686 208.395C419.238 205.104 418.863 201.764 418.113 198.533C417.29 194.999 416.419 191.515 415.474 188.017C413.61 181.155 411.553 174.318 409.265 167.59C406.918 160.704 403.747 154.109 400.735 147.502C399.344 144.464 397.989 141.403 396.657 138.329C395.289 135.146 393.982 131.879 392.446 128.77C389.456 122.695 386.117 116.839 382.631 111.029C379.026 105.026 375.382 99.073 371.487 93.241C367.807 87.722 363.839 82.362 359.869 77.037C357.34 73.624 354.739 70.26 352.016 67.006C349.801 64.379 347.393 61.948 344.985 59.504C340.337 54.76 335.569 50.028 330.403 45.841C329.281 44.934 328.154 44.046 327.014 43.162C315.839 34.586 304.055 26.906 291.934 19.75C289.211 18.14 286.379 16.688 283.547 15.26C280.509 13.711 277.496 12.101 274.459 10.553C268.119 7.322 261.596 4.55 254.722 2.675C247.955 0.839 240.957 0 233.953 0C233.805 0 233.656 0 233.507 0.001C226.719 0.025 219.773 0.546 213.262 2.59C209.668 3.728 206.147 5.179 202.88 7.043C199.976 8.689 197.253 10.625 194.555 12.573C189.05 16.555 183.894 21.237 179.356 26.283C175.665 30.397 172.434 34.814 169.614 39.571C166.782 44.351 164.737 49.664 163.129 54.976C161.676 59.792 161.253 64.887 161.762 69.884C162.015 72.437 162.427 74.966 163.033 77.46C163.189 78.114 163.339 78.762 163.491 79.412C162.921 79.837 162.418 80.331 162.055 80.961C160.24 83.309 158.425 85.657 156.731 88.1C155.327 90.109 154.033 92.19 152.713 94.248C149.978 98.543 147.243 102.84 144.581 107.195C142.245 111.019 140.019 115 138.192 119.09C137.623 120.373 136.946 121.705 136.946 123.132C136.946 123.979 137.199 125.105 137.636 125.843C137.999 126.472 138.931 127.477 139.621 127.778C140.286 128.069 140.916 128.358 141.618 128.541C142.441 128.758 143.3 128.819 144.147 128.916C145.224 129.049 146.325 129.061 147.414 129.085C149.738 129.159 152.06 129.183 154.372 129.303C158.474 129.532 162.577 129.678 166.667 129.981C168.64 130.126 170.6 130.26 172.572 130.453C174.15 130.601 175.723 130.815 177.304 130.919C180.173 137.442 183.428 143.787 186.353 150.27C188.064 154.519 189.671 158.776 191.05 163.147C192.579 167.956 193.615 172.823 194.484 177.792C194.909 181.465 195.138 185.112 195.225 188.826C195.322 192.522 194.937 196.228 194.487 199.901C193.677 204.383 192.697 208.768 191.497 213.173C190.464 216.951 188.987 220.608 187.479 224.233C186.055 227.294 184.627 230.342 183.002 233.309C181.175 236.661 179.239 239.94 177.23 243.195C173.612 249.064 169.69 254.751 165.975 260.561C162.054 266.672 158.352 272.952 154.951 279.366C151.479 285.901 148.549 292.811 146.747 300.01C144.533 308.844 143.287 318.209 144.278 327.322C144.531 329.754 144.81 332.199 145.137 334.631C145.272 335.606 145.472 336.627 145.774 337.61C143.587 338.445 141.397 339.271 139.203 340.079C137.117 340.845 134.997 341.501 132.866 342.122C131.783 336.903 130.909 331.599 129.167 326.553C127.013 320.297 124.665 314.112 121.834 308.135C120.624 305.57 119.026 303.186 117.513 300.802C115.71 297.994 113.653 295.235 111.548 292.646C110.129 290.901 108.686 289.163 107.122 287.538C107.196 287.203 107.251 286.864 107.222 286.525C107.171 285.898 107.087 285.27 106.992 284.643C106.951 284.007 106.98 283.381 107.037 282.744C107.664 278.825 108.801 274.991 109.426 271.06C109.874 268.18 110.418 265.264 110.528 262.346C110.576 261.015 110.383 259.466 109.693 258.292C108.858 256.853 107.393 256.09 105.76 256.054C105.73 256.053 105.7 256.053 105.669 256.053C104.902 256.053 104.158 256.343 103.46 256.61C102.71 256.901 101.983 257.214 101.246 257.529C99.3592 258.328 97.5552 259.32 95.7412 260.276C93.8772 261.268 92.0262 262.297 90.1982 263.373C88.3462 264.463 86.4832 265.539 84.6552 266.677C82.8652 267.803 81.0732 269.001 79.1742 269.956C78.7412 270.17 78.3002 270.382 77.8622 270.595C75.8112 270.149 73.7322 269.824 71.6282 269.556C69.5912 269.298 67.5352 269.175 65.4832 269.175C63.5852 269.175 61.6882 269.28 59.8052 269.484C57.6512 269.713 55.5332 270.076 53.4272 270.596C50.9342 271.202 48.5752 272.218 46.2522 273.259C42.5852 274.893 39.3062 277.277 36.2322 279.83C32.9282 282.589 30.1812 286.05 27.8712 289.668C25.7162 293.044 24.1072 296.783 22.7282 300.523C21.2872 304.432 20.3922 308.486 19.8002 312.6C18.9172 318.687 18.7712 324.822 19.2202 330.957C19.6682 336.996 20.3222 343.01 20.8782 349.048C21.3742 354.494 21.4952 359.952 21.5322 365.421C21.5672 370.418 21.1472 375.393 20.5922 380.356C20.1972 383.252 19.7822 386.146 19.3172 389.03C19.0522 390.761 18.7372 392.479 18.4222 394.198C17.7012 398.217 16.3842 402.116 14.8602 405.898C13.5792 408.855 12.1812 411.756 10.7132 414.625C9.47916 417.057 8.13617 419.442 6.91417 421.886C5.36516 424.984 3.95017 428.13 2.67917 431.362C0.840168 436.057 -0.224832 441.188 0.0401682 446.258C0.221168 449.718 0.644168 453.083 1.26217 456.495C1.85417 459.774 3.02817 462.969 4.33517 466.03C5.81217 469.467 7.67517 472.601 9.98617 475.53C15.7582 482.863 24.2532 487.122 32.8572 490.257C38.1452 492.168 43.5062 494.093 49.0252 495.218C55.2692 496.489 61.5382 497.384 67.9152 497.65C70.8432 497.771 73.7972 497.698 76.7252 497.602C79.7022 497.518 82.7152 497.373 85.6562 496.924C91.6102 496.017 97.5272 494.48 103.082 492.12C105.732 490.994 108.104 489.336 110.306 487.497C111.456 486.541 112.582 485.562 113.646 484.508C116.09 482.052 118.245 479.45 120.351 476.703C124.162 471.778 126.705 466.114 128.967 460.342C131.06 454.981 132.912 449.535 134.231 443.921C135.646 437.846 136.82 431.735 137.135 425.491C137.34 421.328 137.292 417.142 137.207 412.991C137.159 411.042 137.085 409.106 136.954 407.159C136.88 405.949 136.724 404.739 136.457 403.553C136.11 402.04 135.383 400.883 134.32 399.908C134.332 399.903 134.344 399.896 134.356 399.89C134.41 399.933 134.467 399.976 134.521 400.018C134.485 399.982 134.449 399.946 134.412 399.897C134.404 399.889 134.393 399.884 134.384 399.875C137.373 398.446 140.331 396.958 143.267 395.401C147.053 393.395 150.867 391.419 154.546 389.225C154.831 390.499 155.107 391.777 155.342 393.064C155.959 396.464 156.781 399.829 157.69 403.157C158.621 406.594 159.541 410.031 160.508 413.455C160.968 415.089 161.439 416.71 161.9 418.332C162.324 419.797 162.65 421.346 163.207 422.761C164.586 426.319 166.003 429.888 167.6 433.362C169.077 436.556 170.747 439.63 172.465 442.691C174.268 445.91 176.252 449.081 178.527 451.985C179.641 453.4 180.742 454.817 181.856 456.232C182.968 457.649 184.251 458.955 185.437 460.31C190.035 465.514 195.53 470.027 201.097 474.154C206.7 478.317 212.363 482.371 218.439 485.843C219.77 486.593 221.078 487.465 222.469 488.119C224.465 489.075 226.451 490.019 228.434 490.963C230.043 491.726 231.701 492.378 233.347 493.044C235.113 493.758 236.856 494.569 238.647 495.198C245.472 497.606 252.334 499.808 259.28 501.865C272.919 505.895 286.98 508.351 301.078 510.166C308.024 511.061 314.97 511.727 321.989 511.92C329.044 512.101 336.074 511.932 343.129 511.533C350.33 511.134 357.493 510.275 364.609 509.089C371.107 508.012 377.448 505.725 383.632 503.534C390.385 501.15 396.81 498.077 403.248 494.966C409.456 491.976 415.785 489.218 421.908 486.071C423.771 485.103 425.623 484.136 427.426 483.07C428.018 482.719 428.6 482.344 429.168 481.944C430.523 481 432.725 479.427 433.403 477.83C433.779 476.971 434.141 476.112 434.505 475.241C434.711 474.285 434.82 473.317 434.808 472.337C434.846 470.372 433.89 468.241 432.922 466.583ZM170.681 121.706C168.08 121.73 165.477 121.657 162.876 121.657C159.924 121.669 156.971 121.597 154.006 121.5C151.79 121.429 149.554 121.449 147.331 121.348C147.534 121.044 147.735 120.741 147.932 120.436C148.972 118.839 150.025 117.253 151.067 115.656C153.209 112.401 155.339 109.133 157.505 105.903C159.49 102.926 161.462 99.949 163.435 96.972C164.135 95.926 164.851 94.893 165.563 93.855C166.073 97.155 166.702 100.439 167.513 103.685C169.037 109.78 171.128 115.708 173.42 121.555C172.506 121.62 171.594 121.698 170.681 121.706ZM92.3002 270.263C95.5552 268.427 98.8562 266.63 102.243 265.04C101.779 268.292 101.251 271.518 100.565 274.727C100.166 276.615 99.6822 278.491 99.2702 280.366C99.2512 280.458 99.2342 280.549 99.2162 280.64C97.2292 279.192 95.1812 277.888 93.0572 276.651C91.0202 275.467 88.8742 274.497 86.7072 273.573C88.5662 272.464 90.4122 271.332 92.3002 270.263ZM45.7212 297.914C46.1142 295.484 46.7592 293.077 47.6562 290.786C48.4642 289.024 49.4962 287.368 50.5982 285.763C51.3692 285.352 52.1252 284.917 52.9272 284.553C55.1952 283.7 57.5082 283.075 59.8922 282.661C64.0452 282.216 68.2052 282.292 72.3502 282.778C75.8832 283.376 79.2542 284.388 82.5772 285.705C86.6032 287.498 90.4642 289.661 94.0342 292.258C96.3192 294.106 98.4132 296.132 100.476 298.24C102.134 299.929 103.602 301.846 105.074 303.714C106.804 306.06 108.575 308.406 110.049 310.922C110.98 312.519 111.864 314.105 112.688 315.775C113.2 316.815 113.663 317.874 114.117 318.942C115.892 323.469 117.569 327.985 118.896 332.657C120.069 336.742 120.668 340.983 121.514 345.153C116.295 346.504 111.082 347.793 105.77 348.735C103.048 349.219 100.289 349.534 97.5542 349.921C97.2552 349.963 96.9622 350.025 96.6642 350.069C97.5192 347.721 98.2732 345.349 98.7942 342.877C99.0852 341.51 99.2052 340.057 99.2782 338.666C99.3992 336.077 98.8062 333.378 98.0202 330.921C97.2572 328.549 96.0712 326.322 94.4982 324.386C93.0452 322.62 91.3042 321.179 89.3922 319.945C87.4312 318.687 85.2052 317.864 83.0272 317.101C81.3932 316.533 79.6272 316.206 77.9212 315.964C74.0002 315.443 70.0542 314.971 66.1222 314.523C64.9322 314.388 63.7432 314.252 62.5532 314.116C59.8382 313.668 57.2192 313.088 54.6402 312.099C53.2672 311.468 51.9532 310.742 50.7162 309.871C49.8862 309.176 49.1372 308.43 48.4452 307.593C47.6192 306.44 46.9052 305.231 46.3052 303.949C46.0192 303.178 45.7902 302.408 45.6372 301.605C45.5362 300.367 45.5842 299.145 45.7212 297.914ZM124.071 408.142C124.071 410.344 123.962 412.559 123.938 414.761C123.902 419.489 123.889 424.218 123.453 428.923C121.792 440.133 118.675 451.012 114.692 461.603C114.91 461.095 115.128 460.587 115.346 460.078C114.742 461.493 114.148 462.91 113.556 464.326C113.761 463.818 113.979 463.321 114.185 462.814C113.241 464.775 112.297 466.71 111.159 468.574C110.038 470.385 108.84 472.128 107.582 473.849C106.593 475.077 105.572 476.285 104.515 477.457C103.857 477.245 103.195 477.047 102.552 476.801C100.295 475.737 98.2562 474.325 96.2552 472.841C93.7162 470.771 91.4482 468.348 89.3542 465.833C87.4142 463.218 85.7032 460.506 84.2782 457.573C83.3832 455.244 82.6542 452.915 82.2432 450.44C81.8092 446.335 82.1122 442.147 82.5242 438.044C82.8522 435.983 83.2782 433.98 83.8372 431.967C84.3092 430.233 84.9942 428.548 85.6842 426.879C86.2722 425.599 86.8812 424.342 87.5162 423.084C88.0532 422.032 88.7322 421.067 89.4022 420.11C91.2972 417.796 93.3442 415.648 95.6162 413.685C96.2012 413.257 96.7962 412.843 97.4022 412.435C97.6472 412.273 97.8692 412.089 98.0732 411.891C99.8822 411.577 101.685 411.238 103.486 410.882C106.681 410.24 109.875 409.515 112.973 408.51C116.433 407.398 119.835 406.102 123.21 404.771C123.562 404.632 123.906 404.479 124.257 404.338C124.078 405.593 124.076 406.896 124.071 408.142ZM157.612 372.686C155.011 374.538 152.364 376.262 149.599 377.848C146.625 379.555 143.49 381.019 140.428 382.556C137.464 384.044 134.546 385.617 131.571 387.094C128.556 388.613 125.496 389.987 122.404 391.335C115.9 394 109.317 396.545 102.432 397.997C98.7292 398.784 95.0262 399.522 91.2742 400.078C89.4112 400.357 87.5352 400.623 85.6712 400.901C83.9292 401.168 82.1502 401.349 80.4312 401.784C77.7442 402.486 75.8452 405.075 75.8452 407.822C75.8452 411.126 78.6892 414.224 82.1022 414.079C82.8162 414.049 83.5332 413.979 84.2502 413.91C84.0992 414.096 83.9362 414.27 83.7872 414.458C82.4442 416.176 81.2702 417.956 80.2902 419.915C79.3342 421.852 78.4142 423.848 77.6772 425.881C76.9632 427.854 76.3332 429.813 75.7892 431.822C75.2212 433.939 74.9302 436.179 74.7122 438.345C74.1922 443.621 74.0342 448.982 75.2682 454.174C76.2242 458.252 78.2082 462.076 80.4962 465.561C82.4692 468.551 84.7442 471.321 87.2012 473.924C88.3272 475.11 89.4632 476.296 90.6612 477.396C92.0172 478.642 93.5412 479.72 95.0062 480.809C95.9802 481.53 97.0052 482.175 98.0262 482.827C97.4202 483.138 96.8112 483.441 96.1802 483.73C92.0192 485.419 87.6672 487.018 83.2232 487.665C79.4062 488.15 75.5862 488.466 71.7342 488.689C67.5612 488.941 63.3742 488.67 59.2232 488.264C55.1502 487.682 51.0682 487.015 47.1202 485.833C42.7452 484.509 38.4652 482.905 34.2092 481.238C30.0662 479.42 26.0272 477.402 22.3622 474.707C20.8132 473.404 19.4022 471.992 18.1072 470.437C16.7342 468.544 15.5662 466.549 14.5802 464.43C13.4122 461.484 12.5982 458.443 12.1022 455.313C11.7122 451.562 11.8862 447.86 12.2942 444.128C12.7522 441.427 13.4952 438.875 14.4812 436.305C14.7792 435.593 15.0762 434.881 15.3732 434.171C17.8632 428.802 20.6192 423.559 23.1612 418.21C23.7902 416.878 24.3472 415.499 24.9272 414.156C26.3562 410.852 27.6622 407.513 28.6542 404.063C30.0092 399.343 30.4692 394.407 31.0502 389.554C32.4052 378.021 33.0112 366.416 32.2722 354.812C31.8732 348.689 31.2912 342.578 30.8692 336.455C30.6392 333.31 30.5422 330.151 30.4702 326.992C30.3982 324.112 30.5862 321.244 30.8132 318.365C30.9732 317.184 31.1402 316.007 31.3542 314.83C32.0452 310.953 33.1942 307.191 34.6412 303.538C35.9512 300.618 37.5162 297.855 39.3512 295.236C38.8392 297.48 38.5382 299.822 38.6622 302.107C38.8072 304.866 39.8242 307.419 41.0942 309.84C43.5632 314.571 47.8222 317.814 52.6982 319.787C55.2872 320.828 57.9382 321.421 60.6962 321.832C62.6452 322.123 64.6172 322.28 66.5902 322.473C70.0622 322.822 73.5582 323.093 77.0332 323.456C78.1442 323.635 79.2412 323.853 80.3382 324.143C81.4292 324.43 82.4712 324.816 83.5112 325.225C84.8092 325.863 86.0402 326.558 87.2172 327.405C87.9782 328.051 88.6662 328.754 89.3042 329.514C89.9002 330.374 90.4072 331.269 90.8482 332.223C91.4302 333.717 91.8582 335.259 92.1462 336.843C92.2802 338.291 92.1982 339.707 92.0462 341.143C91.5962 343.491 91.0042 345.807 90.1462 348.057C89.7552 348.867 89.3172 349.639 88.7712 350.365C88.5452 350.668 88.4222 351.054 88.3492 351.455C87.1172 351.67 85.8852 351.877 84.6532 352.072C83.5742 352.197 82.4982 352.301 81.4072 352.365C80.7902 352.401 80.1732 352.437 79.5682 352.487C77.7052 352.62 76.6882 352.874 75.0062 353.649C74.0012 354.253 73.1912 355.052 72.5982 356.069C71.6792 357.629 71.4362 359.517 71.9082 361.261C72.3802 362.943 73.5052 364.406 75.0052 365.291C75.5502 365.52 76.0822 365.739 76.6152 365.969C77.6672 366.256 78.7192 366.291 79.7712 366.074C82.1742 365.782 84.5522 365.165 86.9122 364.674C89.4292 364.154 91.9112 363.536 94.4152 362.98C100.223 361.673 106.104 360.656 111.912 359.301C117.393 358.03 122.755 356.094 128.103 354.364C130.85 353.481 133.584 352.573 136.307 351.642C139.538 350.54 142.672 349.125 145.806 347.794C149.438 346.268 153.056 344.623 156.59 342.865C156.962 342.764 157.322 342.656 157.658 342.551C158.687 342.236 159.691 341.813 160.696 341.401C162.572 340.638 164.416 339.81 166.275 339.004C168.39 338.167 170.549 337.423 172.785 337.004C173.294 336.973 173.79 336.971 174.294 336.999C174.614 337.07 174.926 337.151 175.245 337.25C175.427 337.342 175.606 337.437 175.786 337.538C175.926 337.672 176.062 337.811 176.197 337.955C176.502 338.427 176.779 338.901 177.032 339.402C177.238 340.034 177.399 340.668 177.525 341.316C177.6 342.774 177.494 344.195 177.349 345.632C177.034 347.45 176.579 349.173 175.928 350.912C174.747 353.518 173.324 355.944 171.718 358.309C169.535 360.931 167.168 363.351 164.808 365.821C162.502 368.239 160.194 370.565 157.612 372.686ZM80.4152 365.942C80.3412 365.95 80.2682 365.96 80.1952 365.97C80.2002 365.969 80.2052 365.968 80.2092 365.966C80.2812 365.954 80.3412 365.942 80.4152 365.942ZM272.168 475.873C270.534 477.603 268.877 479.273 267.158 480.919C265.778 482.238 264.23 483.448 262.729 484.646C262.32 484.963 261.915 485.284 261.509 485.604C258.115 484.755 254.715 483.944 251.339 483.03C248.5 482.266 245.706 481.359 242.886 480.5C240.411 479.735 237.999 478.73 235.573 477.825C234.714 477.445 233.852 477.061 232.986 476.676C231.884 476.192 230.723 475.769 229.658 475.199C227.214 473.868 224.708 472.598 222.348 471.121C219.65 469.451 216.999 467.757 214.398 465.953C212.305 464.511 210.261 463.001 208.221 461.491C204.778 458.746 201.39 455.96 198.243 452.847C195.02 449.646 192.059 446.256 189.175 442.756C186.074 438.387 183.197 433.899 180.407 429.311C177.742 424.901 175.492 420.249 173.351 415.57C171.224 410.387 169.215 405.154 167.64 399.773C166.695 396.566 165.728 393.359 164.917 390.116C164.347 387.822 163.73 385.542 163.099 383.264C165.089 381.67 167.017 380.03 168.792 378.174C170.874 376.008 172.725 373.612 174.661 371.337C176.827 368.796 179.054 366.254 180.857 363.446C183.145 359.876 185.008 356.137 186.448 352.143C187.259 349.855 187.501 347.363 187.767 344.954C188.154 341.482 187.743 338.104 186.351 334.899C185.094 332.007 183.06 329.538 180.3 327.977C177.699 326.5 174.661 325.896 171.696 326.028C168.465 326.185 165.137 326.947 162.04 327.832C161.51 327.985 160.983 328.148 160.456 328.313C160.503 326.696 160.519 325.084 160.551 323.499C160.655 318.944 160.65 314.422 161.054 309.881C162.012 304.113 163.685 298.595 165.864 293.173C171.944 280.366 179.777 268.579 187.257 256.581C190.924 250.688 194.409 244.613 197.338 238.32C200.533 231.47 203.595 224.368 205.398 217.01C206.245 213.513 207.092 210.028 207.612 206.47C208.254 202.173 208.689 197.939 208.907 193.607C209.282 185.983 208.29 178.324 206.946 170.832C205.688 163.838 203.352 157.097 200.883 150.454C198.342 143.666 195.075 137.215 191.916 130.717C190.135 127.046 188.447 123.354 186.839 119.624C184.783 114.489 182.783 109.359 181.121 104.083C179.487 98.903 178.406 93.666 177.474 88.329C177.041 84.579 176.667 80.834 176.644 77.049C176.621 72.551 176.832 68.065 177.346 63.598C177.936 59.881 178.889 56.231 180.107 52.668C181.737 51.512 183.383 50.406 185.11 49.377C186.922 48.3 188.906 47.467 190.85 46.622C193.159 45.773 195.448 45.035 197.817 44.355C200.171 43.673 202.644 43.361 205.067 43.019C209.306 42.583 213.544 42.693 217.784 42.976C221.046 43.188 224.343 43.355 227.596 43.765C231.621 44.369 235.54 45.348 239.396 46.679C240.983 47.229 242.541 47.899 244.097 48.536C245.32 49.13 246.534 49.714 247.758 50.296C250.3 51.527 252.664 53.081 254.925 54.754C257.268 56.605 259.411 58.608 261.271 60.956C263.121 63.545 264.69 66.268 266.005 69.162C267.329 72.425 268.258 75.764 268.795 79.24C269.22 83.05 269.206 86.782 268.737 90.598C268.077 94.855 267.118 98.956 265.535 102.982C264.259 105.846 262.69 108.477 260.86 111.032C257.046 115.788 252.946 120.25 248.836 124.755C246.574 127.236 244.298 129.704 242.06 132.209C239.784 134.738 237.703 137.425 235.634 140.123C233.735 142.604 232.1 145.217 230.552 147.94C228.967 150.711 227.719 153.64 226.849 156.702C226.257 158.771 226.002 160.913 225.723 163.03C225.372 165.633 225.675 168.198 226.061 170.775C226.641 174.731 228.385 178.653 230.345 182.102C231.81 184.679 233.697 187.027 235.561 189.326C237.412 191.626 239.359 193.852 241.405 195.969C248.216 203.043 255.718 209.401 262.085 216.896C264.701 220.379 267.037 224.05 269.275 227.795C271.507 231.539 273.615 235.315 275.397 239.298C276.922 243.247 278.103 247.264 278.787 251.456C278.938 252.711 279.049 253.962 279.089 255.228C279.128 256.489 279.001 257.757 278.862 259.014C278.334 262.192 277.394 265.185 276.245 268.192C274.92 271.076 273.536 273.938 271.864 276.635C270.022 279.587 268.06 282.424 266.004 285.233C262.247 289.958 258.347 294.534 254.317 299.033C250.337 303.474 246.331 307.903 242.459 312.429C238.175 317.414 233.964 322.46 229.716 327.471C225.844 332.045 221.813 336.523 218.112 341.229C216.89 342.766 215.643 344.303 214.53 345.925C213.465 347.51 213.041 349.387 212.86 351.237C212.751 352.325 212.981 353.379 213.211 354.444C213.61 356.222 214.929 357.76 216.031 359.14C219.782 363.835 224.829 367.296 230.032 370.2C233.045 371.87 236.083 373.588 239.29 374.871C242.146 376.009 245.014 377.002 247.978 377.799C251.039 378.61 254.125 379.166 257.236 379.675C260.455 380.207 263.806 380.558 267.062 380.656C270.111 380.765 273.233 380.909 276.284 380.596C279.744 380.245 283.266 379.93 286.666 379.167C289.38 378.558 292.097 377.925 294.796 377.226C294.867 377.692 294.952 378.156 295.019 378.622C295.954 386.48 296.568 394.328 296.533 402.234C296.497 410.75 296.002 419.205 295.194 427.673C295.032 428.966 294.878 430.265 294.621 431.544C294.223 433.565 293.81 435.55 293.29 437.547C292.412 440.9 291.157 444.096 289.896 447.31C289.066 449.206 288.243 451.099 287.31 452.952C286.088 455.348 284.841 457.696 283.523 460.031C282.203 462.379 280.752 464.605 279.287 466.856C278.204 468.516 276.976 470.083 275.769 471.663C274.584 473.071 273.429 474.53 272.168 475.873ZM412.277 472.767C409.506 474.182 406.674 475.478 403.866 476.809C398.24 479.463 392.655 482.193 386.976 484.74C382.273 486.531 377.473 487.963 372.61 489.286C369.754 490.073 366.898 490.774 364.005 491.416C361.932 491.877 359.836 492.193 357.737 492.491C348.457 493.576 339.132 494.399 329.784 494.611C324.58 494.72 319.413 494.647 314.222 494.417C309.548 494.216 304.897 493.664 300.244 493.13C292.149 492.008 284.087 490.725 276.089 489.069C276.771 488.436 277.456 487.805 278.126 487.151C280.231 485.106 282.059 482.747 283.91 480.472C284.841 479.346 285.7 478.172 286.56 476.975C287.372 475.849 288.267 474.748 288.994 473.562C290.471 471.154 291.958 468.783 293.265 466.289C294.656 463.626 295.952 460.977 297.198 458.253C298.348 455.736 299.425 453.135 300.333 450.52C300.854 449.007 301.386 447.495 301.906 445.982C302.354 444.699 302.634 443.332 302.996 442.025C303.71 439.387 304.024 436.628 304.411 433.93C304.847 430.964 305.029 427.976 305.186 424.999C305.477 419.36 305.573 413.734 305.549 408.094C305.525 402.648 305.296 397.227 304.872 391.794C304.447 386.313 303.589 380.831 302.753 375.397C302.725 375.218 302.691 375.04 302.662 374.861C303.347 374.622 304.042 374.407 304.72 374.149C311.036 371.741 317.149 369.019 322.957 365.533C325.474 364.008 327.979 362.46 330.314 360.668C333.304 358.392 336.22 356.058 339.099 353.65C340.322 352.634 341.435 351.448 342.596 350.346C343.649 349.353 344.641 348.313 345.634 347.272C347.727 345.082 349.845 342.892 351.733 340.532C355.219 336.151 358.715 331.759 361.523 326.894C364.391 321.921 367.199 316.789 369.329 311.441C371.228 306.624 373.153 301.796 374.289 296.738C375.552 291.14 376.455 285.526 377.214 279.839C377.472 277.84 377.711 275.842 377.956 273.842C378.295 270.998 378.828 268.178 377.944 265.371C377.061 262.587 374.64 260.592 371.664 260.592C368.287 260.592 364.935 263.556 365.154 267.102C365.228 268.179 365.094 269.268 365.07 270.345C365.046 271.047 365.046 271.76 365.035 272.462C364.986 273.987 364.925 275.524 364.829 277.061C364.63 279.883 364.339 282.689 363.998 285.5C363.368 289.395 362.597 293.223 361.599 297.039C360.654 300.737 359.293 304.289 357.95 307.857C355.959 312.342 353.882 316.743 351.542 321.06C349.256 325.283 346.489 329.17 343.609 333.006C340.706 336.459 337.772 339.863 334.529 343.012C332.594 344.888 330.657 346.667 328.612 348.421C327.085 349.732 325.506 350.966 323.927 352.202C321.246 354.087 318.581 356.018 315.712 357.617C314.029 358.548 312.371 359.602 310.641 360.437C308.98 361.23 307.309 362.021 305.645 362.822C301.53 364.447 297.406 365.973 293.144 367.19C290.687 367.88 288.231 368.497 285.749 369.077C283.75 369.542 281.741 369.884 279.72 370.235C276.501 370.58 273.299 370.885 270.054 370.795C266.472 370.695 262.941 370.416 259.386 370.008C256.995 369.605 254.639 369.148 252.266 368.617C249.939 368.098 247.665 367.262 245.415 366.455C243.201 365.42 241.087 364.287 239.014 362.966C237.129 361.767 235.339 360.449 233.559 359.115C232.027 357.859 230.554 356.554 229.259 355.056C229.045 354.746 228.839 354.432 228.642 354.116C229.575 352.955 230.49 351.78 231.426 350.611C233.412 348.13 235.42 345.661 237.416 343.193C241.494 338.159 245.56 333.114 249.554 328.006C257.528 317.829 265.939 307.979 273.587 297.547C277.144 292.682 280.521 287.636 283.146 282.19C286.195 275.898 288.895 269.46 289.742 262.453C289.959 260.638 289.887 259.029 289.632 257.201C289.463 255.882 289.088 254.576 288.798 253.269C288.169 250.401 287.552 247.533 286.619 244.75C285.579 241.64 284.417 238.603 283.049 235.614C281.851 233.025 280.291 230.604 278.79 228.196C276.514 224.541 274.094 220.971 271.699 217.389C269.133 213.59 266.084 210.188 262.913 206.897C259.997 203.86 256.839 201.04 253.875 198.026C250.623 194.727 247.535 191.325 244.585 187.75C242.125 184.45 239.8 181.073 238.055 177.326C237.219 175.1 236.632 172.842 236.236 170.503C236.089 168.939 236.095 167.409 236.235 165.853C236.727 163.024 237.478 160.279 238.515 157.603C240.768 152.84 243.826 148.513 246.966 144.303C250.796 139.48 254.758 134.782 258.632 130.006C260.774 127.367 262.843 124.682 264.84 121.934C267.551 118.195 270.129 114.371 271.992 110.123C273.565 106.529 274.751 102.79 275.44 98.929C275.839 96.703 276.058 94.415 276.299 92.165C277.22 83.549 276.009 74.8 272.656 66.802C271.179 63.304 269.34 60.049 267.101 56.988C264.56 53.478 261.389 50.72 257.976 48.093C254.249 45.225 250.002 43.022 245.693 41.171C241.179 39.234 236.628 37.601 231.813 36.56C228.509 35.847 225.097 35.472 221.744 35.157C219.057 34.914 216.371 34.697 213.684 34.528C212.463 34.448 211.241 34.405 210.017 34.405C208.838 34.405 207.659 34.445 206.483 34.528C204.571 34.661 202.684 34.988 200.783 35.254C196.099 35.932 191.405 37.299 187.072 39.223C186.83 39.332 186.587 39.444 186.343 39.551C187.23 38.097 188.159 36.666 189.165 35.277C191.755 32.665 194.485 30.216 197.375 27.872C201.565 24.725 205.991 21.925 210.742 19.675C214.007 18.456 217.325 17.611 220.765 17.057C226.821 16.422 232.906 16.88 238.949 17.538C241.667 17.939 244.346 18.447 246.999 19.226C249.688 20.031 252.328 20.948 254.938 21.977C260.027 24.331 264.799 27.258 269.737 29.912C275.098 32.792 280.482 35.563 285.686 38.71C296.028 44.97 306.232 51.435 315.933 58.663C318.453 60.677 320.922 62.723 323.309 64.897C326.093 67.45 328.802 70.063 331.526 72.678C334.031 75.098 336.511 77.567 338.811 80.204C340.955 82.664 342.999 85.197 345.007 87.763C348.909 92.879 352.819 97.992 356.444 103.304C360.255 108.907 363.824 114.643 367.346 120.439C370.843 126.211 374.485 131.995 377.366 138.118C380.415 144.616 383.308 151.175 386.405 157.649C388.021 161.027 389.594 164.406 391.135 167.813C392.345 170.856 393.529 173.911 394.501 177.048C395.723 180.993 396.921 184.939 398.083 188.907C399.257 192.961 400.381 197.026 401.326 201.141C402.132 204.61 402.689 208.116 403.194 211.636C404.83 224.861 406.543 238.077 407.656 251.361C408.248 258.428 408.793 265.484 409.168 272.574C409.544 279.556 409.326 286.599 409.301 293.581C409.265 302.803 409.048 311.999 408.213 321.183C407.408 330.166 406.389 339.136 405.276 348.086C403.295 361.434 401.059 374.747 398.385 387.968C397.03 394.708 395.687 401.449 394.32 408.188C393.654 411.479 393 414.783 392.189 418.05C391.378 421.317 390.531 424.573 389.865 427.864C389.199 431.095 388.631 434.387 388.582 437.678C388.557 440.341 389.235 442.978 390.373 445.362C391.051 446.801 391.898 448.036 392.842 449.307C395.383 452.744 398.105 456.144 401.227 459.073C404.155 461.82 407.302 464.265 410.437 466.745C412.194 468.143 413.969 469.565 415.649 471.08C414.52 471.652 413.386 472.202 412.277 472.767Z" fill="#793333"/>
<path d="M377.214 279.839C377.204 279.91 377.197 279.98 377.189 280.05C377.225 279.779 377.263 279.507 377.304 279.239C377.277 279.441 377.24 279.637 377.214 279.839Z" fill="#793333"/>
<path d="M229.985 76.8541C229.327 74.1311 226.688 72.3481 223.992 72.3481C223.466 72.3481 222.937 72.4171 222.421 72.5581C219.178 73.4541 217.243 76.8911 218.114 80.1341C218.323 80.8981 218.517 81.6751 218.674 82.4601C218.756 83.7501 218.703 85.0351 218.585 86.3261C218.502 86.7541 218.403 87.1741 218.272 87.5901C218.156 87.8051 218.034 88.0161 217.904 88.2211C217.391 88.7861 216.845 89.3021 216.27 89.7981C215.874 90.0601 215.481 90.2991 215.067 90.5181C214.342 90.7601 213.618 90.9451 212.859 91.0971C211.348 91.2451 209.855 91.2801 208.331 91.1771C207.285 90.9941 206.286 90.7381 205.286 90.3841C204.578 90.0391 203.913 89.6531 203.269 89.2081C202.778 88.7701 202.317 88.3101 201.873 87.8201C201.517 87.2931 201.203 86.7571 200.923 86.1841C200.399 84.7241 199.935 83.2451 199.502 81.7551C198.884 79.6501 196.682 78.3431 194.527 78.9351C192.434 79.5171 191.091 81.7911 191.709 83.9101C192.096 85.2411 192.508 86.5731 192.895 87.9041C193.222 89.0061 193.621 90.0581 194.093 91.1111C194.759 92.6121 195.811 93.9071 196.828 95.1891C197.809 96.3991 199.128 97.3561 200.398 98.2391C201.959 99.3161 203.884 100.043 205.698 100.551C207.707 101.119 209.885 101.229 211.954 101.241C214.12 101.241 216.371 100.902 218.416 100.188C222.01 98.9261 224.975 96.2881 227.225 93.2761C228.664 91.3391 229.246 88.8711 229.73 86.5591C230.42 83.3151 230.783 80.1201 229.985 76.8541Z" fill="#793333"/>
<path d="M80.5172 295.635C79.4402 293.917 78.1942 292.538 76.5842 291.316C75.0112 290.13 73.2442 289.536 71.2722 289.428C70.7762 289.488 70.2802 289.549 69.7842 289.622C69.4332 289.694 69.1062 289.767 68.7672 289.864C68.3682 289.961 67.9682 290.093 67.5812 290.227C66.5412 290.602 65.4882 291.026 64.5442 291.594C62.3542 292.913 60.7072 295.564 60.5742 298.117C60.4292 300.961 61.5792 303.538 62.8362 305.995C63.8282 307.907 66.4532 308.451 68.2332 307.41C70.1572 306.284 70.6292 303.926 69.6482 302.013C69.3492 301.452 69.0572 300.89 68.7872 300.312C68.5182 299.588 68.2852 298.854 68.0982 298.103C68.1752 297.956 68.2572 297.812 68.3452 297.67C68.3472 297.668 68.3512 297.664 68.3532 297.662C68.5712 297.528 68.7962 297.405 69.0292 297.288C69.7902 297.002 70.5632 296.767 71.3622 296.589C71.3782 296.589 71.3932 296.588 71.4092 296.589C71.6242 296.637 71.8342 296.693 72.0442 296.759C72.2722 296.884 72.4952 297.017 72.7122 297.16C73.6172 297.954 74.3542 298.878 75.2042 299.728C76.2682 300.817 77.9872 301.023 79.2942 300.26C80.8562 299.351 81.4852 297.196 80.5172 295.635ZM68.5232 297.484C68.4942 297.496 68.4662 297.507 68.4402 297.518C68.4682 297.506 68.4972 297.495 68.5262 297.483C68.5242 297.483 68.5232 297.484 68.5232 297.484ZM68.5442 297.477L68.5452 297.475C68.6222 297.445 68.6982 297.412 68.7772 297.382C68.6982 297.414 68.6212 297.446 68.5442 297.477Z" fill="#793333"/>
<path d="M121.197 189.405C120.979 185.592 119.83 182.011 117.918 178.732C116.2 175.79 113.876 173.383 110.96 171.641C108.411 170.118 105.325 169.39 102.332 169.39C101.589 169.39 100.852 169.435 100.129 169.524C98.4232 169.729 96.8131 169.984 95.2161 170.612C94.3091 170.975 93.4381 171.362 92.5911 171.822C91.6961 172.306 90.8612 173.02 90.0862 173.637C87.3992 175.768 85.2701 178.454 83.4791 181.358C82.6441 182.714 82.0152 184.19 81.3372 185.618C80.6832 186.985 80.1032 188.402 79.5712 189.817C79.4782 190.054 79.3912 190.295 79.3082 190.541C78.9932 190.449 78.6782 190.362 78.3612 190.278C73.8112 189.068 68.8742 188.681 64.1662 188.656C62.4842 188.644 60.7662 188.765 59.0962 189.055C57.2442 189.382 55.6242 189.974 53.9042 190.725C53.1292 191.076 52.1862 191.827 51.5802 192.395C50.8782 193.073 50.1892 193.799 49.6562 194.622C48.6162 196.195 47.8902 197.974 47.4542 199.8C46.6072 203.37 47.0432 207.145 48.6642 210.425C50.2752 213.644 52.5732 216.476 55.2962 218.824C61.7582 224.415 70.0592 227.053 78.0952 229.545C83.0442 231.081 88.0422 232.461 93.0512 233.756C93.8012 233.95 94.5522 234.143 95.3012 234.336C97.0072 234.784 98.9191 234.638 100.589 234.107C103.772 233.078 106.688 230.828 109.011 228.48C110.342 227.137 111.455 225.54 112.495 223.966C113.5 222.477 114.299 220.88 115.073 219.258C116.223 216.838 117.13 214.309 118.013 211.78C118.872 209.299 119.452 206.77 119.986 204.192C120.325 202.522 120.566 200.708 120.724 199.001C120.846 197.718 121.015 196.423 121.087 195.128C121.186 193.218 121.295 191.329 121.197 189.405ZM108.832 196.21C108.692 197.982 108.509 199.739 108.307 201.501C107.957 203.447 107.583 205.367 107.126 207.307C106.505 209.982 105.611 212.646 104.6 215.211C103.609 217.444 102.472 219.579 101.067 221.575C100.256 222.534 99.3832 223.413 98.4222 224.24C97.9312 224.586 97.4281 224.904 96.8971 225.182C96.8761 225.188 96.8561 225.195 96.8341 225.2C96.0611 225.219 95.3042 225.159 94.5382 225.072C90.4912 224.401 86.4252 223.544 82.4742 222.48C77.8582 221.254 73.2202 219.952 68.7952 218.155C66.5072 217.123 64.3942 215.912 62.3852 214.435C61.0362 213.32 59.8192 212.141 58.7052 210.807C57.9532 209.74 57.3102 208.645 56.7562 207.471C56.5162 206.78 56.3262 206.1 56.1852 205.392C56.1642 204.845 56.1732 204.317 56.2092 203.772C56.3632 202.961 56.5632 202.181 56.8332 201.399C57.0842 200.871 57.3602 200.365 57.6842 199.872C57.8012 199.744 57.9222 199.62 58.0472 199.498C58.3412 199.3 58.6382 199.122 58.9562 198.955C59.8582 198.644 60.7622 198.408 61.7032 198.238C65.3532 197.901 69.0822 198.09 72.7092 198.512C76.6922 199.151 80.4532 200.417 84.1932 201.918C85.2702 202.341 86.7462 202.014 87.7032 201.458C88.7192 200.854 89.4812 199.873 89.7962 198.736C90.1122 197.603 89.9641 196.369 89.3971 195.337C89.5961 194.76 89.7121 194.145 89.7481 193.508C89.7631 193.169 89.7732 192.829 89.7902 192.49C89.9152 191.951 90.0721 191.428 90.2591 190.902C90.9871 189.325 91.8381 187.795 92.8431 186.373C93.8661 185.162 94.9581 184.054 96.1751 183.036C96.8581 182.558 97.5481 182.123 98.2831 181.741C98.7791 181.577 99.2752 181.444 99.7882 181.336C100.709 181.253 101.618 181.23 102.549 181.274C103.16 181.397 103.753 181.55 104.342 181.747C104.763 181.965 105.172 182.199 105.574 182.454C105.967 182.803 106.337 183.169 106.688 183.563C107.277 184.439 107.812 185.337 108.279 186.279C108.584 187.153 108.808 188.035 108.979 188.948C109.179 191.361 109.033 193.793 108.832 196.21Z" fill="#793333"/>
</svg>
