<svg width="188" height="188" viewBox="0 0 188 188" fill="none" xmlns="http://www.w3.org/2000/svg">
<path d="M157 69.5C157 57.3 155.7 46.4 153.2 37.2C150 26 145 17.1 138.3 10.9C137.1 9.70002 135.1 9.80002 134 11.1C132.8 12.3 132.9 14.3 134.2 15.4C148 28.1 150.9 51.8 150.9 69.5C150.9 101.6 136.5 109.6 127.5 111.5C131.9 104.3 134.1 95.8 133.8 87.2C133.5 81.2 133.1 76.1 132.3 71.7C130.5 61.1 126.2 46.5 109.5 42.7C93.2 38.9 82.9 25.7 79.7 21.2C82 12.4 89.9 6.20002 99.1 6.20002H109.4C110.3 6.20002 111.2 6.20002 112 6.30002C112.1 6.30002 112.1 6.30002 112.2 6.30002H112.3H112.4C118.3 6.80002 123.6 8.40002 128.2 11C129.7 11.8 131.6 11.3 132.4 9.90002C133.2 8.40002 132.7 6.50002 131.3 5.70002C126 2.70002 119.8 0.800016 113 0.300016H112.9C111.8 0.200016 110.7 0.100016 109.5 0.100016H99.1C86.6 1.64407e-05 75.8 8.90002 73.4 21.1V21.2C73.1 22.8 72.9 24.5 72.9 26.2V52.9C72.9 70.2 86.2 84.4 103 86V88.7C101.4 89.3 99.1 90.4 96.7 91.8C92.7 94.2 90.4 96.8 89.1 99.1L80.5 90.5C69.1 79.1 50.7 79.1 39.3 90.5C36 93.8 33.6 97.8 32.2 102.2C31.7 103.8 32.6 105.6 34.2 106.1C35.8 106.6 37.6 105.7 38.1 104.1C39.2 100.6 41.1 97.5 43.7 94.9C47.7 90.9 52.8 88.7 58.1 88.3C54.6 91.7 52.5 96.5 52.5 101.6C52.5 111.9 60.9 120.3 71.2 120.3C79.4 120.3 86.4 115 88.9 107.6L104.1 122.8C108.4 127.1 110.8 132.9 110.8 139C110.8 145.1 108.4 150.9 104.1 155.2C99.8 159.5 94 161.9 87.9 161.9C81.8 161.9 76 159.5 71.7 155.2L43.9 127.4C40.4 123.9 38.2 119.5 37.4 114.6C37.1 112.9 35.6 111.8 33.9 112C32.2 112.3 31.1 113.8 31.3 115.5C32.2 121.3 34.7 126.6 38.6 130.9L38.9 141.5C39 144.1 40.2 146.5 42.2 148.1C43.8 149.3 45.7 150 47.6 150C48.2 150 48.7 149.9 49.3 149.8L56.1 148.4L56.7 149C57.9 153.5 64.3 173.4 81.1 183C87 186.3 93.4 188 100.4 188C105.2 188 110.3 187.2 115.6 185.6C124.8 182.8 132.3 177.5 138 170C142.6 163.8 146 156 148.1 146.8C148.5 145.1 147.4 143.5 145.8 143.1C144.1 142.7 142.5 143.8 142.1 145.4C138 163.7 128.5 175.3 113.9 179.7C105.3 182.3 97.4 182.5 90.4 180.3V168C97.2 167.4 103.6 164.5 108.5 159.6C109.2 158.9 123.9 144.1 124.8 126.7C124.9 125 123.6 123.6 121.9 123.5C120.2 123.4 118.8 124.7 118.7 126.4C118.5 129.5 117.8 132.5 116.8 135.3C116 128.9 113.1 123 108.5 118.4L94 103.9C94.8 100.3 99.4 97.3 103.2 95.5V96.7C103.2 98.2 104.2 99.4 105.7 99.7C106.7 99.9 111.9 100.8 117.6 100.8C120.5 100.8 123.5 100.6 126.2 99.9C124.7 104.7 122.3 109.2 118.9 113.1C118.2 114 118 115.2 118.4 116.2C118.8 117.3 119.8 118 120.9 118.1C121 118.1 121.6 118.2 122.6 118.2C126 118.2 134.8 117.5 142.6 110.8C142.9 110.5 143.2 110.3 143.5 110C144.1 116 144.7 125.5 143.6 135.6C143.4 137.3 144.6 138.8 146.3 139C146.4 139 146.5 139 146.6 139C148.2 139 149.5 137.8 149.7 136.2C151.3 121.1 149.5 107.7 148.8 103.6C150.3 101.3 151.7 98.7 152.8 95.9C155.5 88.7 157 79.8 157 69.5ZM71 114.1C64.1 114.1 58.5 108.5 58.5 101.6C58.5 96 62.3 91 67.7 89.5C69 90 70.2 90.5 71.4 91.2C70.7 92 70.4 93.1 70.7 94.1C71.1 95.4 72.3 96.3 73.6 96.3C74.6 96.3 75.6 95.8 76.2 94.9L83.5 102.2C83.2 108.9 77.7 114.1 71 114.1ZM47.9 143.7C46.9 143.9 46.2 143.5 45.8 143.2C45.5 142.9 44.9 142.3 44.8 141.3L44.7 137.2L50.6 143.1L47.9 143.7ZM84 177.7C76.5 173.4 71.3 166.6 67.9 160.4C72.4 164.6 78 167.2 84 168V177.7ZM79 52.9V30.3C82.8 34.6 88.4 40 95.8 44V62.5C95.8 64.2 97.2 65.6 98.9 65.6H105.5C107.2 65.6 108.6 64.2 108.6 62.5C108.6 60.8 107.2 59.4 105.5 59.4H102V46.9C103.9 47.6 106 48.3 108.1 48.8C117.8 51 123.4 58 125.9 71.4C120.8 76.9 113.6 80 106.1 80C91.2 80 79 67.8 79 52.9ZM109.2 94V86C115.7 85.4 121.9 82.9 127 78.8C127.3 81.5 127.5 84.3 127.6 87.5C127.7 89.2 127.6 91 127.5 92.7C123.9 95 115.6 94.9 109.2 94Z" fill="#793333"/>
<path d="M91 45.5L86.5 45.1C84.8 44.9 83.3 46.2 83.2 47.9C83 49.6 84.3 51.1 86 51.2L90.5 51.6C90.6 51.6 90.7 51.6 90.8 51.6C92.4 51.6 93.7 50.4 93.9 48.8C93.9 47.2 92.7 45.7 91 45.5Z" fill="#793333"/>
<path d="M67.1 99.7C66.1 99 64.7 99.1 63.7 99.8C62.6 100.6 62.1 102.1 62.6 103.4C63.1 104.6 64.2 105.4 65.5 105.4C66.9 105.4 68.1 104.4 68.5 103.1C68.8 101.8 68.2 100.4 67.1 99.7Z" fill="#793333"/>
<path d="M79.3 101.9C78.7 101.6 77.9 102.4 75.3 105C72.7 107.6 71.4 108.9 71.5 109.1C72 109.9 79.1 108 79.8 104.2C80 103.3 79.9 102.2 79.3 101.9Z" stroke="#DDCACA" stroke-miterlimit="10"/>
<path d="M96.5 70.2C97 70.8 99 73.1 102.3 73.6C107.4 74.4 110.9 70.4 111.1 70.1" stroke="#DDCACA" stroke-width="2" stroke-miterlimit="10" stroke-linecap="round"/>
</svg>
