<svg width="195" height="188" viewBox="0 0 195 188" fill="none" xmlns="http://www.w3.org/2000/svg">
<path d="M191.369 29C191.269 29 191.269 30.5 190.769 32.5C190.369 34.2 190.069 34.2 189.469 35.8C188.969 37 188.869 38.1 189.169 39.2C189.469 40.1 190.169 41.3 191.369 41.4C192.569 41.5 193.269 40.4 193.369 40.3C193.969 39.5 193.969 38.5 193.969 38.1C193.969 37.5 193.869 37 192.869 34.6C192.069 32.7 191.969 32.6 191.869 31.9C191.369 30.3 191.469 29 191.369 29Z" stroke="#DDCACA" stroke-width="2" stroke-miterlimit="10"/>
<path d="M184.452 41C184.152 41 184.152 44 183.152 47.7C182.252 51.1 181.552 51.1 180.052 54.2C178.952 56.5 178.652 58.6 179.452 60.7C180.052 62.4 181.852 64.7 184.552 64.9C187.252 65.1 189.052 63 189.252 62.8C190.552 61.2 190.652 59.3 190.652 58.6C190.652 57.4 190.452 56.5 188.052 51.7C186.252 48 186.052 47.8 185.652 46.6C184.552 43.4 184.752 41 184.452 41Z" stroke="#DDCACA" stroke-width="2" stroke-miterlimit="10"/>
<path d="M36.8498 76.8963C36.1498 76.1963 35.2498 75.7963 34.2498 75.7963C33.2498 75.7963 32.3498 76.1963 31.6498 76.8963C30.9498 77.5963 30.5498 78.4963 30.5498 79.4963C30.5498 80.4963 30.9498 81.3963 31.6498 82.0963C32.3498 82.7963 33.2498 83.1963 34.2498 83.1963C35.2498 83.1963 36.1498 82.7963 36.8498 82.0963C37.5498 81.3963 37.9498 80.4963 37.9498 79.4963C37.9498 78.4963 37.5498 77.5963 36.8498 76.8963Z" fill="#793333"/>
<path d="M176.15 1.49622C175.55 1.39622 175.05 1.19622 174.55 0.896218C167.95 -1.20378 160.45 0.396218 155.25 5.59622C154.25 6.59622 153.35 7.69622 152.55 8.99622C151.75 10.1962 151.25 11.6962 150.55 13.4962C149.85 15.1962 148.35 19.1962 147.25 19.8962C147.15 19.8962 146.95 19.7962 146.75 19.5962C141.55 16.1962 130.05 10.7962 121.15 12.4962L118.15 9.49622C115.55 6.89622 112.15 5.49622 108.45 5.49622C104.75 5.49622 101.35 6.89622 98.75 9.49622C96.15 12.0962 94.75 15.4962 94.75 19.1962C94.75 21.0962 95.15 22.8962 95.85 24.4962C88.85 24.0962 81.75 26.4962 76.45 31.7962L40.15 68.3962C38.75 69.7962 38.75 72.1962 40.15 73.5962C41.55 74.9962 43.95 74.9962 45.35 73.5962L65.95 52.9962L79.05 65.9962C79.75 66.6962 80.75 67.0962 81.65 67.0962C82.55 67.0962 83.55 66.6962 84.25 65.9962C85.65 64.5962 85.65 62.1962 84.25 60.7962L71.15 47.7962L81.65 37.2962C85.05 33.8962 89.55 31.9962 94.35 31.9962C99.15 31.9962 103.65 33.8962 107.05 37.2962L150.75 80.9962C154.15 84.3962 156.05 88.8962 156.05 93.6962C156.05 98.4962 154.15 102.996 150.75 106.396L79.85 177.296C75.25 181.896 67.85 181.896 63.25 177.296L10.85 124.896C6.25 120.296 6.25 112.896 10.85 108.296L27.75 91.3962C29.15 89.9962 29.15 87.5962 27.75 86.1962C26.35 84.7962 23.95 84.7962 22.55 86.1962L5.55 102.996C-1.85 110.496 -1.85 122.596 5.55 129.996L57.95 182.396C61.65 186.096 66.55 187.996 71.45 187.996C76.35 187.996 81.25 186.096 84.95 182.396L155.85 111.496C161.15 106.196 163.65 98.9962 163.15 92.0962C164.85 92.7962 166.65 93.1962 168.45 93.1962C172.15 93.1962 175.55 91.7962 178.15 89.1962C183.45 83.8962 183.45 75.1962 178.15 69.7962L175.15 66.7962C176.85 57.8962 171.45 46.3962 168.05 41.1962C167.85 40.8962 167.85 40.7962 167.75 40.6962C168.45 39.5962 172.45 38.0962 174.15 37.3962C175.95 36.6962 177.55 36.0962 178.65 35.3962C179.95 34.5962 181.15 33.6962 182.05 32.6962C189.45 25.2962 189.45 13.0962 182.05 5.69622C180.55 3.79622 178.45 2.39622 176.15 1.49622ZM168.65 70.4962L173.05 74.8962C175.55 77.3962 175.55 81.3962 173.05 83.8962C171.85 85.0962 170.25 85.7962 168.55 85.7962C166.85 85.7962 165.25 85.0962 164.05 83.8962L104.05 23.8962C102.85 22.6962 102.15 21.0962 102.15 19.3962C102.15 17.6962 102.85 16.0962 104.05 14.8962C105.25 13.6962 106.95 12.9962 108.55 12.9962C110.15 12.9962 111.85 13.5962 113.05 14.8962L117.45 19.2962L168.65 70.4962ZM177.15 27.3962C176.55 27.9962 175.85 28.4962 174.95 29.0962C174.35 29.4962 172.95 29.9962 171.75 30.4962C167.55 32.0962 162.35 34.0962 160.95 38.3962C160.45 39.8962 160.25 42.2962 162.05 45.1962C164.75 49.2962 167.05 54.6962 167.85 59.3962L128.55 19.9962C133.25 20.8962 138.65 23.1962 142.75 25.7962C145.55 27.5962 147.95 27.3962 149.55 26.8962C153.95 25.4962 155.85 20.2962 157.45 16.0962C157.95 14.7962 158.45 13.3962 158.85 12.8962C159.45 11.9962 159.95 11.2962 160.55 10.6962C165.15 6.09622 172.55 6.09622 177.15 10.6962C181.75 15.3962 181.75 22.7962 177.15 27.3962Z" fill="#793333"/>
<path d="M137.25 101.796L121.95 86.4962C120.55 85.0962 118.15 85.0962 116.75 86.4962C115.35 87.8962 115.35 90.2962 116.75 91.6962L132.05 106.996C132.75 107.696 133.75 108.096 134.65 108.096C135.55 108.096 136.55 107.696 137.25 106.996C138.65 105.596 138.65 103.296 137.25 101.796Z" fill="#793333"/>
<path d="M119.75 119.296L104.45 103.996C103.05 102.596 100.65 102.596 99.2502 103.996C97.8502 105.396 97.8502 107.796 99.2502 109.196L114.55 124.496C115.25 125.196 116.25 125.596 117.15 125.596C118.05 125.596 119.05 125.196 119.75 124.496C121.25 122.996 121.25 120.696 119.75 119.296Z" fill="#793333"/>
<path d="M102.35 136.796L87.0498 121.496C85.6498 120.096 83.2498 120.096 81.8498 121.496C80.4498 122.896 80.4498 125.296 81.8498 126.696L97.1498 141.996C97.8498 142.696 98.8498 143.096 99.7498 143.096C100.65 143.096 101.65 142.696 102.35 141.996C103.75 140.496 103.75 138.196 102.35 136.796Z" fill="#793333"/>
<path d="M84.8498 154.196L69.5498 138.896C68.1498 137.496 65.7498 137.496 64.3498 138.896C62.9498 140.296 62.9498 142.696 64.3498 144.096L79.6498 159.396C80.3498 160.096 81.3498 160.496 82.2498 160.496C83.1498 160.496 84.1498 160.096 84.8498 159.396C86.2498 157.996 86.2498 155.596 84.8498 154.196Z" fill="#793333"/>
<path d="M96.55 73.1962C95.85 72.4962 94.95 72.0962 93.95 72.0962C92.95 72.0962 92.05 72.4962 91.35 73.1962C90.65 73.8962 90.25 74.7962 90.25 75.7962C90.25 76.7962 90.65 77.6962 91.35 78.3962C92.05 79.0962 92.95 79.4962 93.95 79.4962C94.95 79.4962 95.85 79.0962 96.55 78.3962C97.25 77.6962 97.65 76.7962 97.65 75.7962C97.65 74.7962 97.25 73.8962 96.55 73.1962Z" fill="#793333"/>
</svg>
