<?xml version="1.0" encoding="utf-8"?>
<!-- Generator: Adobe Illustrator 21.1.0, SVG Export Plug-In . SVG Version: 6.00 Build 0)  -->
<svg version="1.1" id="Слой_1" xmlns="http://www.w3.org/2000/svg" xmlns:xlink="http://www.w3.org/1999/xlink" x="0px" y="0px"
	 viewBox="0 0 188 188" style="enable-background:new 0 0 188 188;" xml:space="preserve">
<style type="text/css">
	.st0{clip-path:url(#SVGID_2_);}
	.st1{fill:#793333;}
	.st2{fill:#FFFFFF;stroke:#DDCACA;stroke-width:2;stroke-miterlimit:10;}
</style>
<g>
	<defs>
		<rect id="SVGID_1_" width="225.3" height="188"/>
	</defs>
	<use xlink:href="#SVGID_1_"  style="overflow:visible;fill:#FFFFFF;"/>
	<clipPath id="SVGID_2_">
		<use xlink:href="#SVGID_1_"  style="overflow:visible;"/>
	</clipPath>
	<g class="st0">
		<path class="st1" d="M36.9,76.9c-0.7-0.7-1.6-1.1-2.6-1.1c-1,0-1.9,0.4-2.6,1.1c-0.7,0.7-1.1,1.6-1.1,2.6c0,1,0.4,1.9,1.1,2.6
			c0.7,0.7,1.6,1.1,2.6,1.1c1,0,1.9-0.4,2.6-1.1c0.7-0.7,1.1-1.6,1.1-2.6C38,78.5,37.6,77.6,36.9,76.9z"/>
		<path class="st1" d="M176.2,1.5c-0.6-0.1-1.1-0.3-1.6-0.6c-6.6-2.1-14.1-0.5-19.3,4.7c-1,1-1.9,2.1-2.7,3.4
			c-0.8,1.2-1.3,2.7-2,4.5c-0.7,1.7-2.2,5.7-3.3,6.4c-0.1,0-0.3-0.1-0.5-0.3c-5.2-3.4-16.7-8.8-25.6-7.1l-3-3c-2.6-2.6-6-4-9.7-4
			c-3.7,0-7.1,1.4-9.7,4c-2.6,2.6-4,6-4,9.7c0,1.9,0.4,3.7,1.1,5.3c-7-0.4-14.1,2-19.4,7.3L40.2,68.4c-1.4,1.4-1.4,3.8,0,5.2
			c1.4,1.4,3.8,1.4,5.2,0L66,53L79.1,66c0.7,0.7,1.7,1.1,2.6,1.1s1.9-0.4,2.6-1.1c1.4-1.4,1.4-3.8,0-5.2L71.2,47.8l10.5-10.5
			c3.4-3.4,7.9-5.3,12.7-5.3c4.8,0,9.3,1.9,12.7,5.3l43.7,43.7c3.4,3.4,5.3,7.9,5.3,12.7c0,4.8-1.9,9.3-5.3,12.7l-70.9,70.9
			c-4.6,4.6-12,4.6-16.6,0l-52.4-52.4c-4.6-4.6-4.6-12,0-16.6l16.9-16.9c1.4-1.4,1.4-3.8,0-5.2c-1.4-1.4-3.8-1.4-5.2,0L5.6,103
			c-7.4,7.5-7.4,19.6,0,27L58,182.4c3.7,3.7,8.6,5.6,13.5,5.6c4.9,0,9.8-1.9,13.5-5.6l70.9-70.9c5.3-5.3,7.8-12.5,7.3-19.4
			c1.7,0.7,3.5,1.1,5.3,1.1c3.7,0,7.1-1.4,9.7-4c5.3-5.3,5.3-14,0-19.4l-3-3c1.7-8.9-3.7-20.4-7.1-25.6c-0.2-0.3-0.2-0.4-0.3-0.5
			c0.7-1.1,4.7-2.6,6.4-3.3c1.8-0.7,3.4-1.3,4.5-2c1.3-0.8,2.5-1.7,3.4-2.7c7.4-7.4,7.4-19.6,0-27C180.6,3.8,178.5,2.4,176.2,1.5z
			 M168.7,70.5C168.7,70.5,168.7,70.5,168.7,70.5l4.4,4.4c2.5,2.5,2.5,6.5,0,9c-1.2,1.2-2.8,1.9-4.5,1.9c-1.7,0-3.3-0.7-4.5-1.9
			l-60-60c-1.2-1.2-1.9-2.8-1.9-4.5c0-1.7,0.7-3.3,1.9-4.5c1.2-1.2,2.9-1.9,4.5-1.9c1.6,0,3.3,0.6,4.5,1.9l4.4,4.4c0,0,0,0,0,0
			L168.7,70.5z M177.2,27.4c-0.6,0.6-1.3,1.1-2.2,1.7c-0.6,0.4-2,0.9-3.2,1.4c-4.2,1.6-9.4,3.6-10.8,7.9c-0.5,1.5-0.7,3.9,1.1,6.8
			c2.7,4.1,5,9.5,5.8,14.2L128.6,20c4.7,0.9,10.1,3.2,14.2,5.8c2.8,1.8,5.2,1.6,6.8,1.1c4.4-1.4,6.3-6.6,7.9-10.8
			c0.5-1.3,1-2.7,1.4-3.2c0.6-0.9,1.1-1.6,1.7-2.2c4.6-4.6,12-4.6,16.6,0C181.8,15.4,181.8,22.8,177.2,27.4z"/>
		<path class="st1" d="M137.3,101.8L122,86.5c-1.4-1.4-3.8-1.4-5.2,0c-1.4,1.4-1.4,3.8,0,5.2l15.3,15.3c0.7,0.7,1.7,1.1,2.6,1.1
			s1.9-0.4,2.6-1.1C138.7,105.6,138.7,103.3,137.3,101.8z"/>
		<path class="st1" d="M119.8,119.3L104.5,104c-1.4-1.4-3.8-1.4-5.2,0c-1.4,1.4-1.4,3.8,0,5.2l15.3,15.3c0.7,0.7,1.7,1.1,2.6,1.1
			c0.9,0,1.9-0.4,2.6-1.1C121.3,123,121.3,120.7,119.8,119.3z"/>
		<path class="st1" d="M102.4,136.8l-15.3-15.3c-1.4-1.4-3.8-1.4-5.2,0c-1.4,1.4-1.4,3.8,0,5.2l15.3,15.3c0.7,0.7,1.7,1.1,2.6,1.1
			c0.9,0,1.9-0.4,2.6-1.1C103.8,140.5,103.8,138.2,102.4,136.8z"/>
		<path class="st1" d="M84.9,154.2l-15.3-15.3c-1.4-1.4-3.8-1.4-5.2,0c-1.4,1.4-1.4,3.8,0,5.2l15.3,15.3c0.7,0.7,1.7,1.1,2.6,1.1
			c0.9,0,1.9-0.4,2.6-1.1C86.3,158,86.3,155.6,84.9,154.2z"/>
		<path class="st1" d="M96.6,73.2c-0.7-0.7-1.6-1.1-2.6-1.1c-1,0-1.9,0.4-2.6,1.1c-0.7,0.7-1.1,1.6-1.1,2.6c0,1,0.4,1.9,1.1,2.6
			c0.7,0.7,1.6,1.1,2.6,1.1c1,0,1.9-0.4,2.6-1.1c0.7-0.7,1.1-1.6,1.1-2.6C97.7,74.8,97.3,73.9,96.6,73.2z"/>
	</g>
</g>
<path class="st2" d="M190.9,32c-0.1,0-0.1,1.5-0.6,3.5c-0.4,1.7-0.7,1.7-1.3,3.3c-0.5,1.2-0.6,2.3-0.3,3.4c0.3,0.9,1,2.1,2.2,2.2
	c1.2,0.1,1.9-1,2-1.1c0.6-0.8,0.6-1.8,0.6-2.2c0-0.6-0.1-1.1-1.1-3.5c-0.8-1.9-0.9-2-1-2.7C190.9,33.3,191,32,190.9,32z"/>
<path class="st2" d="M184.4,39.5c-0.3,0-0.3,3-1.3,6.7c-0.9,3.4-1.6,3.4-3.1,6.5c-1.1,2.3-1.4,4.4-0.6,6.5c0.6,1.7,2.4,4,5.1,4.2
	c2.7,0.2,4.5-1.9,4.7-2.1c1.3-1.6,1.4-3.5,1.4-4.2c0-1.2-0.2-2.1-2.6-6.9c-1.8-3.7-2-3.9-2.4-5.1C184.5,41.9,184.7,39.5,184.4,39.5z
	"/>
</svg>
