<svg width="189" height="188" viewBox="0 0 189 188" fill="none" xmlns="http://www.w3.org/2000/svg">
<path d="M178.611 0C173.82 0.0140876 169.809 3.63796 169.311 8.4036C159.965 26.5143 138.567 31.3333 128.478 31.3333H112.075C110.602 31.3172 109.336 30.285 109.023 28.8455C108.017 24.6961 106.076 20.8314 103.348 17.5467C103.098 14.4729 101.829 6.6834 95.4117 3.47173C89.6871 0.6016 62.5211 0 40.7444 0C24.0532 0 9.41109 16.1053 9.41109 34.4667C9.41109 42.9016 12.7105 51.1517 15.9002 59.1323C19.0085 66.8998 21.9444 74.2349 21.9444 81.4667C21.9444 95.1155 1.79082 106.847 1.57775 106.947C0.343025 107.653 -0.260964 109.103 0.106839 110.477C0.474643 111.851 1.72194 112.805 3.14442 112.8C3.31772 112.801 3.49076 112.786 3.66142 112.756C14.7595 110.88 25.5815 107.632 35.8783 103.087C49.3987 96.3249 54.1426 79.3391 46.6821 64.4151C43.0474 57.152 40.1867 46.718 43.0412 39.2074C43.8626 37.0478 45.2397 35.1433 47.033 33.6865C47.1928 45.2798 48.465 49.7573 58.5543 53.1131C65.2659 55.3441 65.8111 61.5982 65.8111 68.9333V77.9542C65.8205 81.3807 64.4586 84.6685 62.0291 87.0847C58.4193 90.6726 56.3961 95.5563 56.4111 100.646V107.887C56.386 107.921 56.3547 107.95 56.3328 107.984C47.4341 121.965 48.8127 128.47 50.4295 135.999C51.3317 139.693 51.81 143.477 51.8552 147.279C52.126 152.373 51.061 157.45 48.7657 162.006C47.0507 165.182 46.1547 168.736 46.1588 172.346C46.1588 182.962 50.8118 186.925 51.3414 187.342C51.8951 187.772 52.5769 188.003 53.2778 188H128.478C129.18 188 129.862 187.764 130.414 187.329C130.944 186.913 135.597 182.943 135.597 172.333C135.601 168.724 134.705 165.17 132.99 161.993C130.695 157.437 129.63 152.361 129.9 147.267C129.945 143.465 130.424 139.68 131.326 135.987C132.933 128.467 134.321 121.952 125.423 107.972C125.401 107.937 125.369 107.909 125.344 107.874V104.578C125.35 96.9051 120.775 89.9694 113.72 86.9531L111.235 85.8878C106.486 83.8561 103.408 79.1871 103.411 74.0219V62.6667C103.411 59.2057 106.217 56.4 109.678 56.4H128.478C138.567 56.4 159.965 61.2191 169.311 79.3297C169.827 84.2979 174.147 87.9893 179.135 87.7236C184.123 87.4578 188.026 83.3282 188.011 78.3333V9.4C188.011 4.20852 183.803 0 178.611 0V0ZM99.062 22.2153C100.894 24.6037 102.208 27.3471 102.922 30.2711L102.944 30.3369C91.495 32.8436 70.5549 37.2303 53.6036 39.7714C53.3418 36.7887 53.233 33.7945 53.2778 30.8007L99.062 22.2153ZM37.185 36.9733C32.6855 48.8111 39.0242 63.1116 41.0734 67.21C46.2403 77.55 44.658 91.6813 33.0772 97.4717C27.7769 99.9716 22.2523 101.965 16.577 103.425C22.4144 97.9135 28.2111 90.24 28.2111 81.4667C28.2111 73.0317 24.9117 64.7817 21.722 56.8011C18.6137 49.0335 15.6778 41.6984 15.6778 34.4667C15.6778 21.1531 26.3969 6.26667 40.7444 6.26667C74.8977 6.26667 90.0255 7.77693 92.6105 9.08667C95.0308 10.7244 96.5891 13.3613 96.8562 16.2714L49.5648 25.1199C49.3655 25.1576 49.1704 25.2143 48.9819 25.2891C43.5371 27.2822 39.2302 31.5479 37.185 36.9733V36.9733ZM125.197 134.702C124.2 138.82 123.674 143.039 123.63 147.276C123.361 153.288 124.629 159.269 127.315 164.654C128.635 166.998 129.329 169.643 129.33 172.333C129.534 175.622 128.748 178.896 127.074 181.733H54.694C53.0137 178.898 52.2245 175.623 52.4286 172.333C52.4271 169.64 53.1199 166.992 54.4402 164.644C57.1252 159.259 58.3923 153.278 58.1219 147.267C58.0783 143.029 57.5527 138.811 56.5552 134.693C55.1358 128.044 54.177 123.557 60.7131 112.8H121.039C127.575 123.557 126.617 128.044 125.197 134.693V134.702ZM97.1444 62.6667V74.0219C97.1393 81.6949 101.714 88.6306 108.769 91.6469L111.254 92.7122C116.003 94.7439 119.081 99.4129 119.078 104.578V106.533H62.6778V100.646C62.6684 97.2193 64.0302 93.9315 66.4597 91.5153C70.0695 87.9274 72.0927 83.0437 72.0777 77.9542V68.9333C72.0777 62.6667 72.0777 51.0075 60.5346 47.1598C59.22 46.7689 57.9445 46.257 56.7244 45.6307C74.7818 42.8107 96.4582 38.1891 106.764 35.9174C108.324 37.0144 110.183 37.6041 112.09 37.6063H119.078V50.1396H109.678C102.758 50.1396 97.1479 55.7471 97.1444 62.6667V62.6667ZM128.478 50.1333H125.344V37.6H128.478C138.191 37.6 157.141 33.5768 169.211 19.6147V68.1187C157.141 54.1565 138.191 50.1333 128.478 50.1333V50.1333ZM181.744 78.3333C181.744 80.0638 180.342 81.4667 178.611 81.4667C176.881 81.4667 175.478 80.0638 175.478 78.3333V9.4C175.478 7.66951 176.881 6.26667 178.611 6.26667C180.342 6.26667 181.744 7.66951 181.744 9.4V78.3333Z" fill="#793333"/>
<path d="M62.6787 169.2C60.9483 169.2 59.5454 170.603 59.5454 172.333C59.5454 174.064 60.9483 175.467 62.6787 175.467H119.079C120.809 175.467 122.212 174.064 122.212 172.333C122.212 170.603 120.809 169.2 119.079 169.2H62.6787Z" fill="#793333"/>
<path d="M70.7835 123C70.3508 123 70 123.732 70 124.635C70 125.538 70.3508 126.27 70.7835 126.27H84.8865C85.3192 126.27 85.67 125.538 85.67 124.635C85.67 123.732 85.3192 123 84.8865 123H70.7835Z" fill="#DDCACA"/>
<path d="M59.7835 132C59.3508 132 59 132.732 59 133.635C59 134.538 59.3508 135.27 59.7835 135.27H73.8865C74.3192 135.27 74.67 134.538 74.67 133.635C74.67 132.732 74.3192 132 73.8865 132H59.7835Z" fill="#DDCACA"/>
<path d="M83.7835 132C83.3508 132 83 132.732 83 133.635C83 134.538 83.3508 135.27 83.7835 135.27H97.8865C98.3192 135.27 98.67 134.538 98.67 133.635C98.67 132.732 98.3192 132 97.8865 132H83.7835Z" fill="#DDCACA"/>
<path d="M70.7835 141C70.3508 141 70 141.732 70 142.635C70 143.538 70.3508 144.27 70.7835 144.27H84.8865C85.3192 144.27 85.67 143.538 85.67 142.635C85.67 141.732 85.3192 141 84.8865 141H70.7835Z" fill="#DDCACA"/>
<path d="M59.7835 149C59.3508 149 59 149.732 59 150.635C59 151.538 59.3508 152.27 59.7835 152.27H73.8865C74.3192 152.27 74.67 151.538 74.67 150.635C74.67 149.732 74.3192 149 73.8865 149H59.7835Z" fill="#DDCACA"/>
<path d="M70.7835 159C70.3508 159 70 159.732 70 160.635C70 161.538 70.3508 162.27 70.7835 162.27H84.8865C85.3192 162.27 85.67 161.538 85.67 160.635C85.67 159.732 85.3192 159 84.8865 159H70.7835Z" fill="#DDCACA"/>
<path d="M96.7835 160C96.3508 160 96 160.732 96 161.635C96 162.538 96.3508 163.27 96.7835 163.27H110.887C111.319 163.27 111.67 162.538 111.67 161.635C111.67 160.732 111.319 160 110.887 160H96.7835Z" fill="#DDCACA"/>
<path d="M82.7835 149C82.3508 149 82 149.732 82 150.635C82 151.538 82.3508 152.27 82.7835 152.27H96.8865C97.3192 152.27 97.67 151.538 97.67 150.635C97.67 149.732 97.3192 149 96.8865 149H82.7835Z" fill="#DDCACA"/>
<path d="M105.784 149C105.351 149 105 149.732 105 150.635C105 151.538 105.351 152.27 105.784 152.27H119.887C120.319 152.27 120.67 151.538 120.67 150.635C120.67 149.732 120.319 149 119.887 149H105.784Z" fill="#DDCACA"/>
<path d="M96.7835 141C96.3508 141 96 141.732 96 142.635C96 143.538 96.3508 144.27 96.7835 144.27H110.887C111.319 144.27 111.67 143.538 111.67 142.635C111.67 141.732 111.319 141 110.887 141H96.7835Z" fill="#DDCACA"/>
<path d="M107.784 132C107.351 132 107 132.732 107 133.635C107 134.538 107.351 135.27 107.784 135.27H121.887C122.319 135.27 122.67 134.538 122.67 133.635C122.67 132.732 122.319 132 121.887 132H107.784Z" fill="#DDCACA"/>
<path d="M96.7835 123C96.3508 123 96 123.732 96 124.635C96 125.538 96.3508 126.27 96.7835 126.27H110.887C111.319 126.27 111.67 125.538 111.67 124.635C111.67 123.732 111.319 123 110.887 123H96.7835Z" fill="#DDCACA"/>
</svg>
