<svg width="188" height="188" viewBox="0 0 188 188" fill="none" xmlns="http://www.w3.org/2000/svg">
<path d="M178.676 0C173.876 0 169.876 3.6 169.376 8.4C160.076 26.5 138.676 31.3 128.576 31.3H112.176C110.676 31.3 109.476 30.3 109.076 28.8C108.076 24.7 106.176 20.8 103.376 17.5C103.076 14.4 101.876 6.6 95.4764 3.4C89.7764 0.6 62.5765 0 40.7765 0C24.0765 0 9.47645 16.1 9.47645 34.5C9.47645 42.9 12.7764 51.2 15.9764 59.2C19.0764 67 21.9764 74.3 21.9764 81.5C21.9764 95.1 1.77645 106.9 1.57645 107C0.37645 107.7 -0.22355 109.2 0.0764502 110.5C0.37645 111.8 1.67645 112.8 3.07645 112.8C3.27645 112.8 3.37645 112.8 3.57645 112.8C14.6765 110.9 25.4765 107.7 35.7765 103.1C49.2765 96.3 54.0765 79.4 46.5765 64.4C43.0765 57.2 40.2765 46.7 43.0765 39.2C43.8765 37 45.2765 35.1 47.0765 33.7C47.2765 45.3 48.4764 49.8 58.5765 53.1C65.2765 55.3 65.8764 61.6 65.8764 68.9V77.9C65.8764 81.3 64.4765 84.6 62.0765 87C58.4765 90.6 56.4765 95.5 56.4765 100.6V107.8L56.3764 107.9C47.4764 121.9 48.8765 128.4 50.4765 135.9C51.3765 139.6 51.8764 143.4 51.8764 147.2C52.1764 152.3 51.0765 157.4 48.7765 161.9C47.0765 165.1 46.1764 168.6 46.1764 172.2C46.1764 182.8 50.8764 186.8 51.3764 187.2C51.9764 187.6 52.5765 187.9 53.2765 187.9H128.476C129.176 187.9 129.876 187.7 130.376 187.2C130.876 186.8 135.576 182.8 135.576 172.2C135.576 168.6 134.676 165 132.976 161.9C130.676 157.3 129.576 152.3 129.876 147.2C129.876 143.4 130.376 139.6 131.276 135.9C132.876 128.4 134.276 121.9 125.376 107.9L125.276 107.8V104.5C125.276 96.8 120.676 89.9 113.676 86.9L111.176 85.8C106.476 83.8 103.376 79.1 103.376 73.9V62.7C103.376 59.2 106.176 56.4 109.676 56.4H128.476C138.576 56.4 159.976 61.2 169.276 79.3C169.776 84.3 174.076 88 179.076 87.7C184.076 87.4 187.976 83.3 187.976 78.3V9.4C188.076 4.2 183.876 0 178.676 0ZM99.0764 22.2C100.876 24.6 102.176 27.3 102.976 30.3V30.4C91.5764 32.9 70.5764 37.3 53.6764 39.8C53.3764 36.8 53.2764 33.8 53.3764 30.8L99.0764 22.2ZM37.2765 37C32.7765 48.8 39.0764 63.1 41.1764 67.2C46.3764 77.5 44.7764 91.7 33.1764 97.5C27.8764 100 22.3765 102 16.6765 103.5C22.4765 98 28.2765 90.3 28.2765 81.5C28.2765 73.1 24.9765 64.8 21.7765 56.8C18.6765 49 15.7765 41.7 15.7765 34.5C15.7765 21.2 26.4764 6.3 40.8764 6.3C75.0765 6.3 90.1764 7.8 92.7764 9.1C95.1764 10.7 96.7764 13.4 96.9764 16.3L49.6764 25.1C49.4764 25.1 49.2765 25.2 49.0765 25.3C43.5765 27.3 39.2765 31.5 37.2765 37ZM125.276 134.7C124.276 138.8 123.776 143 123.676 147.3C123.376 153.3 124.676 159.3 127.376 164.7C128.676 167 129.376 169.7 129.376 172.4C129.576 175.7 128.776 179 127.076 181.8H54.7765C53.0765 179 52.2765 175.7 52.4765 172.4C52.4765 169.7 53.1765 167.1 54.4765 164.7C57.1765 159.3 58.4764 153.3 58.1764 147.3C58.1764 143.1 57.5765 138.8 56.5765 134.7C55.1765 128.1 54.1765 123.6 60.7765 112.8H121.076C127.676 123.6 126.676 128 125.276 134.7ZM97.1764 62.7V74C97.1764 81.7 101.776 88.6 108.776 91.6L111.276 92.7C115.976 94.7 119.076 99.4 119.076 104.6V106.6H62.7765V100.7C62.7765 97.3 64.1764 94 66.5764 91.6C70.1764 88 72.1764 83.1 72.1764 78V69C72.1764 62.7 72.1764 51.1 60.6764 47.2C59.3764 46.8 58.0764 46.3 56.8764 45.7C74.9764 42.9 96.5764 38.3 106.876 36C108.476 37.1 110.276 37.7 112.176 37.7H119.176V50.2H109.776C102.776 50.1 97.1764 55.7 97.1764 62.7ZM128.576 50.1H125.476V37.6H128.576C138.276 37.6 157.276 33.6 169.276 19.6V68.1C157.176 54.2 138.276 50.1 128.576 50.1ZM181.776 78.3C181.776 80 180.376 81.4 178.676 81.4C176.976 81.4 175.576 80 175.576 78.3V9.4C175.576 7.7 176.976 6.3 178.676 6.3C180.376 6.3 181.776 7.7 181.776 9.4V78.3Z" fill="#793333"/>
<path d="M62.7765 169.2C61.0765 169.2 59.6765 170.6 59.6765 172.3C59.6765 174 61.0765 175.4 62.7765 175.4H119.177C120.877 175.4 122.277 174 122.277 172.3C122.277 170.6 120.877 169.2 119.177 169.2H62.7765Z" fill="#793333"/>
<path d="M69.7764 121.8H83.4764" stroke="#DDCACA" stroke-miterlimit="10" stroke-linecap="round"/>
<path d="M96.3765 121.8H111.276" stroke="#DDCACA" stroke-miterlimit="10" stroke-linecap="round"/>
<path d="M75.6765 140H90.6765" stroke="#DDCACA" stroke-miterlimit="10" stroke-linecap="round"/>
<path d="M90.6765 147.3H105.677" stroke="#DDCACA" stroke-miterlimit="10" stroke-linecap="round"/>
<path d="M103.177 140H118.177" stroke="#DDCACA" stroke-miterlimit="10" stroke-linecap="round"/>
<path d="M86.3765 132.4H101.376" stroke="#DDCACA" stroke-miterlimit="10" stroke-linecap="round"/>
<path d="M60.0764 132.4H75.0764" stroke="#DDCACA" stroke-miterlimit="10" stroke-linecap="round"/>
<path d="M61.0764 147.3H76.0764" stroke="#DDCACA" stroke-miterlimit="10" stroke-linecap="round"/>
<path d="M73.6765 155.9H88.6765" stroke="#DDCACA" stroke-miterlimit="10" stroke-linecap="round"/>
<path d="M58.0764 163.4H73.0764" stroke="#DDCACA" stroke-miterlimit="10" stroke-linecap="round"/>
<path d="M89.7764 163.4H104.776" stroke="#DDCACA" stroke-miterlimit="10" stroke-linecap="round"/>
<path d="M105.677 155.9H120.677" stroke="#DDCACA" stroke-miterlimit="10" stroke-linecap="round"/>
</svg>
