<svg width="428" height="32" viewBox="0 0 428 32" fill="none" xmlns="http://www.w3.org/2000/svg">
<path d="M180.609 16.2939H178.794V23H176.825V8.07031H178.794V14.6533H180.332L185.551 8.07031H188.002L182.301 15.3096L188.422 23H186.013L180.609 16.2939ZM203.378 16.0171C203.378 17.48 203.132 18.7583 202.64 19.8521C202.148 20.939 201.451 21.7695 200.548 22.3438C199.646 22.918 198.593 23.2051 197.39 23.2051C196.214 23.2051 195.172 22.918 194.263 22.3438C193.353 21.7627 192.646 20.939 192.14 19.8726C191.641 18.7993 191.385 17.5586 191.371 16.1504V15.0737C191.371 13.6382 191.62 12.3701 192.12 11.2695C192.619 10.1689 193.323 9.32812 194.232 8.74707C195.148 8.15918 196.194 7.86523 197.37 7.86523C198.566 7.86523 199.619 8.15576 200.528 8.73682C201.444 9.31104 202.148 10.1484 202.64 11.249C203.132 12.3428 203.378 13.6177 203.378 15.0737V16.0171ZM201.42 15.0532C201.42 13.2827 201.064 11.9258 200.353 10.9824C199.642 10.0322 198.648 9.55713 197.37 9.55713C196.125 9.55713 195.144 10.0322 194.427 10.9824C193.716 11.9258 193.35 13.2383 193.329 14.9199V16.0171C193.329 17.7329 193.688 19.083 194.406 20.0674C195.131 21.0449 196.125 21.5337 197.39 21.5337C198.662 21.5337 199.646 21.0723 200.343 20.1494C201.04 19.2197 201.399 17.8901 201.42 16.1606V15.0532ZM219.801 23H217.822V16.0991H210.295V23H208.326V8.07031H210.295V14.4893H217.822V8.07031H219.801V23ZM233.731 16.0991H227.261V21.3901H234.777V23H225.292V8.07031H234.674V9.69043H227.261V14.4893H233.731V16.0991ZM239.284 8.07031H241.263V21.3901H248.626V8.07031H250.594V21.3491H252.163L251.979 26.5991H250.205V23H239.284V8.07031Z" fill="#793333" fill-opacity="0.53"/>
<line y1="15.5" x2="133" y2="15.5" stroke="#232323" stroke-opacity="0.42"/>
<line x1="295" y1="15.5" x2="428" y2="15.5" stroke="#232323" stroke-opacity="0.42"/>
</svg>
