<svg width="231" height="330" viewBox="0 0 231 330" fill="none" xmlns="http://www.w3.org/2000/svg">
<path d="M164.365 325H186.577C187.16 325 187.738 324.885 188.277 324.661C188.816 324.438 189.306 324.11 189.718 323.697C190.131 323.283 190.458 322.793 190.681 322.253C190.904 321.713 191.019 321.134 191.019 320.55V244.9H226.558C227.141 244.9 227.719 244.785 228.258 244.561C228.797 244.338 229.286 244.01 229.699 243.597C230.111 243.183 230.439 242.693 230.662 242.153C230.885 241.613 231 241.034 231 240.45V160.35C230.987 148.552 226.302 137.241 217.974 128.898C209.646 120.556 198.355 115.863 186.577 115.85H173.25V97.3696L196.192 93.5394C197.229 93.3663 198.171 92.8301 198.851 92.0264C199.531 91.2226 199.904 90.2034 199.904 89.15V71.35C199.904 70.2966 199.531 69.2774 198.851 68.4736C198.171 67.6699 197.229 67.1337 196.192 66.9606L169.959 62.5809C168.177 60.5311 165.813 59.0752 163.183 58.4081C160.553 57.741 157.782 57.8946 155.241 58.8482C152.701 59.8018 150.511 61.5101 148.966 63.7443C147.421 65.9785 146.594 68.6321 146.596 71.35V115.85H84.4038C72.6262 115.863 61.3347 120.556 53.0067 128.898C44.6786 137.241 39.9941 148.552 39.9808 160.35H4.44231C3.85893 160.35 3.28126 160.465 2.74229 160.689C2.20332 160.912 1.71359 161.24 1.30108 161.653C0.888575 162.067 0.561357 162.557 0.338116 163.097C0.114875 163.637 -1.6771e-05 164.216 1.8362e-09 164.8V240.45C-1.6771e-05 241.034 0.114875 241.613 0.338116 242.153C0.561357 242.693 0.888575 243.183 1.30108 243.597C1.71359 244.01 2.20332 244.338 2.74229 244.561C3.28126 244.785 3.85893 244.9 4.44231 244.9H159.923V320.55C159.923 321.134 160.038 321.713 160.261 322.253C160.484 322.793 160.812 323.283 161.224 323.697C161.637 324.11 162.126 324.438 162.665 324.661C163.204 324.885 163.782 325 164.365 325ZM182.135 316.1H168.808V244.9H182.135V316.1ZM173.25 182.6H182.135C183.313 182.6 184.443 183.069 185.276 183.903C186.109 184.738 186.577 185.87 186.577 187.05C186.577 188.23 186.109 189.362 185.276 190.197C184.443 191.031 183.313 191.5 182.135 191.5H172.486C172.992 190.071 173.251 188.566 173.25 187.05V182.6ZM191.019 85.3804L173.25 88.347V72.153L191.019 75.1196V85.3804ZM155.481 71.35C155.481 70.1698 155.949 69.0379 156.782 68.2034C157.615 67.3688 158.745 66.9 159.923 66.9C161.101 66.9 162.231 67.3688 163.064 68.2034C163.897 69.0379 164.365 70.1698 164.365 71.35V187.05C164.365 188.23 163.897 189.362 163.064 190.197C162.231 191.031 161.101 191.5 159.923 191.5C158.745 191.5 157.615 191.031 156.782 190.197C155.949 189.362 155.481 188.23 155.481 187.05V71.35ZM146.596 124.75V187.05C146.6 190.589 148.005 193.983 150.504 196.486C153.002 198.988 156.39 200.396 159.923 200.4H182.135C185.669 200.4 189.059 198.993 191.558 196.49C194.057 193.986 195.462 190.591 195.462 187.05C195.462 183.509 194.057 180.114 191.558 177.61C189.059 175.107 185.669 173.7 182.135 173.7H173.25V124.75H186.577C195.999 124.761 205.032 128.515 211.695 135.189C218.357 141.863 222.105 150.912 222.115 160.35V236H128.827V160.35C128.827 153.438 127.217 146.622 124.128 140.442C121.038 134.263 116.552 128.89 111.027 124.75H146.596ZM23.709 188.157L8.88461 203.007V174.792L23.709 188.157ZM16.0187 169.25H112.808L78.2569 200.4H50.57L16.0187 169.25ZM119.942 174.792V203.007L105.118 188.157L119.942 174.792ZM84.4038 124.75C93.826 124.761 102.859 128.515 109.522 135.189C116.184 141.863 119.932 150.912 119.942 160.35H48.8654C48.8761 150.912 52.6237 141.863 59.2862 135.189C65.9486 128.515 74.9817 124.761 84.4038 124.75ZM8.88461 215.593L30.3219 194.119L45.8937 208.158C46.7094 208.893 47.768 209.3 48.8654 209.3H79.9615C81.059 209.3 82.1175 208.893 82.9332 208.158L98.505 194.119L119.942 215.593V236H8.88461V215.593Z" fill="#793333"/>
<rect x="66" y="318" width="158" height="12" rx="6" fill="#793333"/>
<g clip-path="url(#clip0)">
<path d="M194.061 46.9709L181.666 38.4866C181.472 38.2482 181.244 38.0573 180.992 37.9237C179.778 36.6787 176.165 32.9 171.859 27.7326C169.072 24.3887 165.852 21.9088 162.654 20.6171C162.761 9.78641 148.364 3.79016 138.499 10.1329C136.144 11.6469 134.345 13.7478 133.354 16.1115L127.085 19.6939C125.593 20.5466 125.651 22.7253 127.19 23.4948L134.677 27.2377C135.552 28.4633 136.656 29.5555 137.944 30.4669C134.115 39.4426 139.727 49.0915 151.874 51.4412V57.1449H150.796C149.605 57.1449 148.639 58.1102 148.639 59.3012C148.639 60.4921 149.605 61.4575 150.796 61.4575H154.03C155.221 61.4575 156.186 60.4921 156.186 59.3012V51.9502C158.397 52.0766 160.534 52.0132 162.655 51.7481V57.1449H161.577C160.386 57.1449 159.421 58.1102 159.421 59.3012C159.421 60.4921 160.386 61.4575 161.577 61.4575H164.812C166.003 61.4575 166.968 60.4921 166.968 59.3012V50.9058C172.584 49.3912 177.171 46.4143 180.35 42.8118L191.626 50.5295C192.605 51.2 193.948 50.954 194.623 49.968C195.296 48.9855 195.044 47.6436 194.061 46.9709ZM168.546 30.4936C170.67 33.0422 172.634 35.2653 174.238 37.0287C170.514 36.389 165.744 35.3776 162.045 34.5553C156.772 33.3837 152.053 30.7255 154.792 26.1582C155.156 25.546 155.696 24.8987 156.277 24.4619C158.346 24.1746 158.509 23.9565 158.93 24.018C162.509 24.5453 166.21 27.691 168.546 30.4936ZM147.561 11.8628C153.15 11.8628 157.76 15.2821 158.291 19.6434C157.129 19.6164 155.959 19.8087 154.908 20.286C153.111 20.4605 151.104 20.3874 149.604 19.6375C144.701 17.1861 139.917 18.4493 136.804 19.9089C137.202 15.1509 142.206 11.8628 147.561 11.8628ZM154.282 47.4564C147.717 46.6837 141.092 42.879 141.092 36.1211C141.092 34.2375 141.605 32.4452 142.615 30.7939C143.269 29.7251 142.877 28.3244 141.762 27.7509C140.179 26.9371 138.771 25.7448 137.842 24.2099C140.05 23.0191 143.908 21.6115 147.675 23.4948C148.663 23.9889 149.729 24.2973 150.806 24.4743C149.872 26.2706 149.459 28.3108 149.861 30.2948C151.031 36.0624 157.437 37.9691 163.105 39.2041C166.762 40.0002 171.792 41.0418 175.479 41.6024C169.707 46.7809 162.096 48.3755 154.282 47.4564Z" fill="#7F3C3C"/>
</g>
<g clip-path="url(#clip1)">
<path d="M144.848 319.014H148.606C146.645 313.979 151.712 304.999 151.712 304.999C142.567 310.914 144.848 319.014 144.848 319.014Z" fill="#793333"/>
<path d="M151.712 302.797C144.187 305.508 142.47 309.348 142.47 309.348C142.47 309.348 144.21 312.97 143.726 314.506C145.731 306.401 151.712 302.797 151.712 302.797Z" fill="#793333"/>
<path d="M131 304.505C131 304.505 136.069 313.485 134.106 318.52H137.865C137.865 318.521 140.146 310.421 131 304.505Z" fill="#793333"/>
<path d="M134.559 301.698C134.559 301.698 140.744 312.659 138.35 318.805H142.938C142.938 318.804 145.721 308.917 134.559 301.698Z" fill="#793333"/>
</g>
<path d="M113.103 320.573H122.902C117.79 307.446 131 284.034 131 284.034C107.159 299.455 113.103 320.573 113.103 320.573Z" fill="#793333"/>
<path d="M131 278.293C111.38 285.36 106.904 295.373 106.904 295.373C106.904 295.373 111.44 304.816 110.18 308.821C115.407 287.689 131 278.293 131 278.293Z" fill="#793333"/>
<path d="M77 282.747C77 282.747 90.2151 306.158 85.0978 319.285H94.8996C94.8996 319.288 100.844 298.17 77 282.747Z" fill="#793333"/>
<path d="M86.2786 275.427C86.2786 275.427 102.406 304.005 96.1625 320.028H108.126C108.126 320.025 115.38 294.247 86.2786 275.427Z" fill="#793333"/>
<g clip-path="url(#clip2)">
<path d="M121.558 16.3879L113.165 22.0321C112.602 22.4106 112.452 23.177 112.831 23.7393L116.187 28.73C116.565 29.293 117.332 29.4425 117.894 29.0644L126.287 23.4202C126.849 23.0423 127 22.2762 126.622 21.7129L123.266 16.7223C122.888 16.1601 122.121 16.0092 121.558 16.3879ZM121.988 17.0869C121.932 17.3765 120.741 23.4567 120.702 23.6573C120.658 23.8798 120.443 24.0245 120.22 23.9809C120.02 23.9416 113.939 22.7508 113.65 22.6941L121.988 17.0869ZM116.849 28.2449L113.682 23.5361L117.62 24.3073L116.849 28.2449ZM117.691 28.2128L118.425 24.4649L120.063 24.7857C120.728 24.9161 121.376 24.4806 121.506 23.8149L121.827 22.1767L125.575 22.9107L117.691 28.2128ZM125.923 22.1431L121.985 21.3719L122.756 17.4343L125.923 22.1431L125.923 22.1431Z" fill="#793333"/>
</g>
<defs>
<clipPath id="clip0">
<rect x="126" width="69" height="69" fill="white"/>
</clipPath>
<clipPath id="clip1">
<rect x="131" y="300" width="20.712" height="20.712" fill="white"/>
</clipPath>
<clipPath id="clip2">
<rect x="111" y="21.0171" width="12.575" height="12.575" transform="rotate(-33.9189 111 21.0171)" fill="white"/>
</clipPath>
</defs>
</svg>
