<svg width="5307" height="1031" viewBox="0 0 5307 1031" fill="none" xmlns="http://www.w3.org/2000/svg">
<path d="M80.9609 270.076C69.5722 270.076 60.3066 279.342 60.3066 290.73C60.3066 294.533 63.3892 297.615 67.1914 297.615C70.9936 297.615 74.0762 294.533 74.0762 290.73C74.0762 286.934 77.1647 283.846 80.9609 283.846C84.7572 283.846 87.8457 286.934 87.8457 290.73C87.8457 294.533 90.9282 297.615 94.7305 297.615C98.5327 297.615 101.615 294.533 101.615 290.73C101.615 279.342 92.3497 270.076 80.9609 270.076Z" fill="#957E8B"/>
<path d="M136.039 270.076C124.65 270.076 115.385 279.342 115.385 290.73C115.385 294.533 118.467 297.615 122.27 297.615C126.072 297.615 129.154 294.533 129.154 290.73C129.154 286.934 132.243 283.846 136.039 283.846C139.835 283.846 142.924 286.934 142.924 290.73C142.924 294.533 146.006 297.615 149.809 297.615C153.611 297.615 156.693 294.533 156.693 290.73C156.693 279.342 147.428 270.076 136.039 270.076Z" fill="#957E8B"/>
<path d="M136.039 311.385C132.237 311.385 129.154 314.467 129.154 318.27C129.154 329.658 119.889 338.924 108.5 338.924C97.1112 338.924 87.8457 329.658 87.8457 318.27C87.8457 314.467 84.7632 311.385 80.9609 311.385C77.1587 311.385 74.0762 314.467 74.0762 318.27C74.0762 337.251 89.5187 352.693 108.5 352.693C127.481 352.693 142.924 337.251 142.924 318.27C142.924 314.467 139.841 311.385 136.039 311.385Z" fill="#957E8B"/>
<path d="M108.5 228.768C66.7411 228.768 32.7676 262.741 32.7676 304.5C32.7676 346.259 66.7411 380.232 108.5 380.232C150.259 380.232 184.232 346.259 184.232 304.5C184.232 262.741 150.259 228.768 108.5 228.768ZM108.5 366.463C74.3337 366.463 46.5371 338.666 46.5371 304.5C46.5371 270.334 74.3337 242.537 108.5 242.537C142.666 242.537 170.463 270.334 170.463 304.5C170.463 338.666 142.666 366.463 108.5 366.463Z" fill="#957E8B"/>
<path d="M108.5 187C104.698 187 101.615 190.083 101.615 193.885V208.113C101.615 211.916 104.698 214.998 108.5 214.998C112.302 214.998 115.385 211.916 115.385 208.113V193.885C115.385 190.083 112.302 187 108.5 187Z" fill="#957E8B"/>
<path d="M108.5 394.002C104.698 394.002 101.615 397.084 101.615 400.887V415.115C101.615 418.917 104.698 422 108.5 422C112.302 422 115.385 418.917 115.385 415.115V400.887C115.385 397.084 112.302 394.002 108.5 394.002Z" fill="#957E8B"/>
<path d="M12.1133 297.615H-2.11523C-5.91746 297.615 -9 300.698 -9 304.5C-9 308.302 -5.91746 311.385 -2.11523 311.385H12.1133C15.9155 311.385 18.998 308.302 18.998 304.5C18.998 300.698 15.9155 297.615 12.1133 297.615Z" fill="#957E8B"/>
<path d="M219.115 297.615H204.887C201.084 297.615 198.002 300.698 198.002 304.5C198.002 308.302 201.084 311.385 204.887 311.385H219.115C222.917 311.385 226 308.302 226 304.5C226 300.698 222.917 297.615 219.115 297.615Z" fill="#957E8B"/>
<path d="M66.2688 217.584L59.3841 205.66C57.483 202.367 53.2727 201.238 49.9795 203.14C46.6867 205.041 45.5585 209.252 47.4596 212.544L54.3444 224.469C56.2464 227.764 60.4581 228.889 63.749 226.989C67.0418 225.088 68.1699 220.877 66.2688 217.584Z" fill="#957E8B"/>
<path d="M169.54 396.456L162.656 384.531C160.755 381.238 156.544 380.11 153.251 382.011C149.958 383.912 148.83 388.123 150.731 391.415L157.616 403.34C159.518 406.635 163.73 407.76 167.02 405.86C170.313 403.959 171.441 399.748 169.54 396.456Z" fill="#957E8B"/>
<path d="M30.989 349.251C29.0879 345.958 24.8771 344.83 21.5844 346.731L9.65952 353.616C6.36677 355.517 5.23858 359.728 7.1397 363.021C9.04173 366.315 13.2534 367.441 16.5443 365.54L28.4692 358.656C31.7619 356.755 32.8901 352.544 30.989 349.251Z" fill="#957E8B"/>
<path d="M209.86 245.979C207.959 242.687 203.748 241.558 200.456 243.46L188.531 250.344C185.238 252.245 184.11 256.456 186.011 259.749C187.913 263.044 192.125 264.169 195.416 262.269L207.34 255.384C210.633 253.483 211.761 249.272 209.86 245.979Z" fill="#957E8B"/>
<path d="M28.4692 250.345L16.5443 243.46C13.2511 241.557 9.04035 242.687 7.1397 245.98C5.23858 249.272 6.36677 253.483 9.65952 255.384L21.5844 262.269C24.8758 264.17 29.0879 263.043 30.989 259.749C32.8901 256.456 31.7619 252.246 28.4692 250.345Z" fill="#957E8B"/>
<path d="M207.34 353.616L195.416 346.731C192.122 344.829 187.911 345.958 186.011 349.251C184.11 352.544 185.238 356.754 188.531 358.655L200.456 365.54C203.747 367.441 207.959 366.314 209.86 363.02C211.761 359.728 210.633 355.517 207.34 353.616Z" fill="#957E8B"/>
<path d="M63.749 382.011C60.4558 380.109 56.2451 381.238 54.3444 384.531L47.4596 396.456C45.5585 399.748 46.6867 403.959 49.9795 405.86C53.2708 407.761 57.483 406.634 59.3841 403.34L66.2688 391.416C68.1699 388.123 67.0418 383.912 63.749 382.011Z" fill="#957E8B"/>
<path d="M167.02 203.14C163.727 201.238 159.517 202.366 157.616 205.66L150.731 217.585C148.83 220.877 149.958 225.088 153.251 226.989C156.542 228.89 160.754 227.763 162.656 224.469L169.54 212.544C171.441 209.252 170.313 205.041 167.02 203.14Z" fill="#957E8B"/>
<g clip-path="url(#clip0)">
<path d="M1504.82 59.4392C1503.98 58.7711 1502.92 58.4418 1501.86 58.5163H1485.71L1500.89 41.5581L1502.32 39.9815L1503.05 39.0586C1503.3 38.702 1503.51 38.3141 1503.66 37.905C1503.84 37.4642 1503.93 36.9946 1503.93 36.5207C1504.04 35.3993 1503.48 34.3178 1502.51 33.752C1501.25 33.1723 1499.86 32.9079 1498.47 32.9829H1479.59C1478.58 32.9142 1477.59 33.2151 1476.78 33.8289C1476.12 34.3927 1475.75 35.2281 1475.78 36.0977C1475.78 37.4051 1476.22 38.1997 1477.09 38.4818C1478.34 38.837 1479.64 38.9928 1480.94 38.9433H1493.24C1492.73 39.6609 1492.06 40.5069 1491.24 41.4812L1488.09 45.019L1483.82 49.6335L1478.86 55.1324C1477.14 57.0551 1476.01 58.337 1475.48 58.9778C1474.26 60.4606 1474.41 62.6395 1475.82 63.9383C1476.84 64.7026 1478.09 65.0713 1479.36 64.9766H1501.82C1502.89 65.0607 1503.96 64.7459 1504.82 64.0921C1505.47 63.5216 1505.84 62.6905 1505.82 61.8234C1505.85 60.9202 1505.48 60.0482 1504.82 59.4392Z" fill="#957E8B"/>
<path d="M1538.85 79.0892C1538.18 78.5509 1537.32 78.2899 1536.46 78.3586H1523.54L1535.66 64.8228L1536.81 63.5539L1537.54 62.6694C1537.75 62.3849 1537.92 62.0748 1538.04 61.7465C1538.19 61.3923 1538.27 61.0145 1538.27 60.6314C1538.37 59.7339 1537.93 58.8625 1537.16 58.401C1536.15 57.9367 1535.04 57.7252 1533.93 57.7858H1518.7C1517.9 57.7411 1517.1 57.9867 1516.47 58.4779C1515.94 58.925 1515.64 59.5912 1515.66 60.2853C1515.66 61.3106 1516.01 61.9518 1516.7 62.208C1517.7 62.4853 1518.74 62.6021 1519.78 62.5541H1529.62C1529.24 63.1309 1528.7 63.7846 1528 64.5921L1525.47 67.4377L1522.16 71.2831L1518.31 75.6668C1516.93 77.205 1516.02 78.2562 1515.58 78.8201C1514.68 79.9823 1514.79 81.6407 1515.85 82.6655C1516.66 83.2658 1517.66 83.5528 1518.66 83.473H1536.5C1537.36 83.5412 1538.2 83.2951 1538.89 82.7808C1539.4 82.3199 1539.68 81.6594 1539.66 80.9735C1539.67 80.2578 1539.38 79.5699 1538.85 79.0892Z" fill="#957E8B"/>
<path d="M1579.19 57.478C1578.35 56.8099 1577.29 56.4806 1576.23 56.5551H1559.96L1575.15 39.597L1576.57 38.0204L1577.49 36.9052C1577.75 36.5485 1577.96 36.1606 1578.11 35.7516C1578.28 35.3108 1578.38 34.8412 1578.38 34.3672C1578.49 33.2458 1577.93 32.1643 1576.96 31.5985C1575.69 31.0189 1574.31 30.755 1572.92 30.8295H1553.85C1552.84 30.7607 1551.84 31.0616 1551.04 31.6755C1550.38 32.2393 1550.01 33.0747 1550.04 33.9442C1550.04 35.2517 1550.47 36.0462 1551.35 36.3284C1552.6 36.6836 1553.89 36.8393 1555.19 36.7898H1567.5C1566.98 37.5075 1566.32 38.3535 1565.5 39.3278L1562.31 42.9425L1558.15 47.5569L1553.19 53.0558C1551.47 54.9785 1550.35 56.2605 1549.81 56.9012C1548.59 58.3841 1548.74 60.563 1550.15 61.8618C1551.17 62.626 1552.43 62.9947 1553.69 62.9H1576.11C1577.2 63.0365 1578.29 62.7621 1579.19 62.131C1579.84 61.5604 1580.21 60.7293 1580.19 59.8622C1580.22 58.959 1579.85 58.087 1579.19 57.478Z" fill="#957E8B"/>
<path d="M1565.92 122.234C1564.82 121.1 1563.15 120.75 1561.69 121.35C1520.01 138.603 1472.24 118.803 1454.98 77.1246C1446.22 55.96 1446.75 32.0888 1456.44 11.3333C1457.35 9.41344 1456.53 7.12111 1454.61 6.21312C1453.62 5.74686 1452.49 5.72139 1451.48 6.14198C1405.79 24.9118 1383.96 77.1697 1402.73 122.863C1421.5 168.556 1473.76 190.382 1519.45 171.613C1540.29 163.052 1557.14 146.942 1566.61 126.502C1567.28 125.073 1567.01 123.38 1565.92 122.234ZM1485.51 170.686C1440.34 170.679 1403.73 134.053 1403.74 88.8809C1403.74 59.2194 1419.8 31.8854 1445.71 17.4474C1442.65 26.5543 1441.09 36.1014 1441.1 45.7111C1441.1 95.1306 1481.17 135.191 1530.59 135.189C1538.87 135.189 1547.11 134.038 1555.08 131.771C1540.16 155.884 1513.86 170.596 1485.51 170.686Z" fill="#957E8B"/>
</g>
<path d="M132.636 615.263H141.546C141.546 597.389 156.053 582.882 173.928 582.882V573.972C151.163 573.972 132.636 592.445 132.636 615.263Z" fill="#957E8B"/>
<path d="M321.327 583.154H320.946C318.719 559.9 299.051 541.7 275.254 541.7C270.31 541.7 265.475 542.515 260.802 544.036C249.665 533.604 235.321 527.845 220 527.845C199.626 527.845 180.556 538.44 169.635 555.663C140.08 557.781 116.446 581.415 114.381 610.971C96.1803 613.199 82 628.683 82 647.481C82 667.692 98.4622 684.155 118.673 684.155H275.254C292.369 684.155 306.712 672.365 310.787 656.5H321.327C341.538 656.5 358 640.038 358 619.827C358 599.616 341.538 583.154 321.327 583.154ZM275.254 675.244H118.673C103.352 675.244 90.9102 662.803 90.9102 647.481C90.9102 632.16 103.352 619.718 118.673 619.718H123.128V615.263C123.128 587.229 145.947 564.464 173.928 564.464C198.268 564.464 212.502 582.122 212.502 582.122C212.502 582.122 219.946 578.264 229.182 578.264C249.556 578.264 266.181 594.835 266.181 615.263V619.718H275.254C290.576 619.718 303.017 632.16 303.017 647.481C303.072 662.803 290.576 675.244 275.254 675.244ZM321.327 647.644H311.982C311.982 647.59 311.982 647.536 311.982 647.481C311.982 627.27 295.52 610.808 275.309 610.808H274.874C272.646 587.555 252.979 569.354 229.182 569.354C224.238 569.354 219.402 570.169 214.73 571.69C205.222 562.726 193.269 557.292 180.447 555.934C190.009 544.036 204.516 536.81 219.946 536.81C245.807 536.81 258.52 554.467 258.52 554.467C258.52 554.467 265.094 550.61 275.2 550.61C295.574 550.61 312.199 567.181 312.199 587.609V592.064H321.272C336.594 592.064 349.035 604.506 349.035 619.827C349.09 635.148 336.648 647.644 321.327 647.644Z" fill="#957E8B"/>
<path d="M436.636 334.263H445.546C445.546 316.389 460.053 301.882 477.928 301.882V292.972C455.163 292.972 436.636 311.445 436.636 334.263Z" fill="#957E8B"/>
<path d="M625.327 302.154H624.946C622.719 278.9 603.051 260.7 579.254 260.7C574.31 260.7 569.475 261.515 564.802 263.036C553.665 252.604 539.321 246.845 524 246.845C503.626 246.845 484.556 257.44 473.635 274.663C444.08 276.781 420.446 300.415 418.381 329.971C400.18 332.199 386 347.683 386 366.481C386 386.692 402.462 403.155 422.673 403.155H579.254C596.369 403.155 610.712 391.365 614.787 375.5H625.327C645.538 375.5 662 359.038 662 338.827C662 318.616 645.538 302.154 625.327 302.154ZM579.254 394.244H422.673C407.352 394.244 394.91 381.803 394.91 366.481C394.91 351.16 407.352 338.718 422.673 338.718H427.128V334.263C427.128 306.229 449.947 283.464 477.928 283.464C502.268 283.464 516.502 301.122 516.502 301.122C516.502 301.122 523.946 297.264 533.182 297.264C553.556 297.264 570.181 313.835 570.181 334.263V338.718H579.254C594.576 338.718 607.017 351.16 607.017 366.481C607.072 381.803 594.576 394.244 579.254 394.244ZM625.327 366.644H615.982C615.982 366.59 615.982 366.536 615.982 366.481C615.982 346.27 599.52 329.808 579.309 329.808H578.874C576.646 306.555 556.979 288.354 533.182 288.354C528.238 288.354 523.402 289.169 518.73 290.69C509.222 281.726 497.269 276.292 484.447 274.934C494.009 263.036 508.516 255.81 523.946 255.81C549.807 255.81 562.52 273.467 562.52 273.467C562.52 273.467 569.094 269.61 579.2 269.61C599.574 269.61 616.199 286.181 616.199 306.609V311.064H625.272C640.594 311.064 653.035 323.506 653.035 338.827C653.09 354.148 640.648 366.644 625.327 366.644Z" fill="#957E8B"/>
<path d="M1243.64 314.263H1252.55C1252.55 296.389 1267.05 281.882 1284.93 281.882V272.972C1262.16 272.972 1243.64 291.445 1243.64 314.263Z" fill="#957E8B"/>
<path d="M1432.33 282.154H1431.95C1429.72 258.9 1410.05 240.7 1386.25 240.7C1381.31 240.7 1376.47 241.515 1371.8 243.036C1360.66 232.604 1346.32 226.845 1331 226.845C1310.63 226.845 1291.56 237.44 1280.64 254.663C1251.08 256.781 1227.45 280.415 1225.38 309.971C1207.18 312.199 1193 327.683 1193 346.481C1193 366.692 1209.46 383.155 1229.67 383.155H1386.25C1403.37 383.155 1417.71 371.365 1421.79 355.5H1432.33C1452.54 355.5 1469 339.038 1469 318.827C1469 298.616 1452.54 282.154 1432.33 282.154ZM1386.25 374.244H1229.67C1214.35 374.244 1201.91 361.803 1201.91 346.481C1201.91 331.16 1214.35 318.718 1229.67 318.718H1234.13V314.263C1234.13 286.229 1256.95 263.464 1284.93 263.464C1309.27 263.464 1323.5 281.122 1323.5 281.122C1323.5 281.122 1330.95 277.264 1340.18 277.264C1360.56 277.264 1377.18 293.835 1377.18 314.263V318.718H1386.25C1401.58 318.718 1414.02 331.16 1414.02 346.481C1414.07 361.803 1401.58 374.244 1386.25 374.244ZM1432.33 346.644H1422.98C1422.98 346.59 1422.98 346.536 1422.98 346.481C1422.98 326.27 1406.52 309.808 1386.31 309.808H1385.87C1383.65 286.555 1363.98 268.354 1340.18 268.354C1335.24 268.354 1330.4 269.169 1325.73 270.69C1316.22 261.726 1304.27 256.292 1291.45 254.934C1301.01 243.036 1315.52 235.81 1330.95 235.81C1356.81 235.81 1369.52 253.467 1369.52 253.467C1369.52 253.467 1376.09 249.61 1386.2 249.61C1406.57 249.61 1423.2 266.181 1423.2 286.609V291.064H1432.27C1447.59 291.064 1460.04 303.506 1460.04 318.827C1460.09 334.148 1447.65 346.644 1432.33 346.644Z" fill="#957E8B"/>
<path d="M504.636 755.263H513.546C513.546 737.389 528.053 722.882 545.928 722.882V713.972C523.163 713.972 504.636 732.445 504.636 755.263Z" fill="#957E8B"/>
<path d="M693.327 723.154H692.946C690.719 699.9 671.051 681.7 647.254 681.7C642.31 681.7 637.475 682.515 632.802 684.036C621.665 673.604 607.321 667.845 592 667.845C571.626 667.845 552.556 678.44 541.635 695.663C512.08 697.781 488.446 721.415 486.381 750.971C468.18 753.199 454 768.683 454 787.481C454 807.692 470.462 824.155 490.673 824.155H647.254C664.369 824.155 678.712 812.365 682.787 796.5H693.327C713.538 796.5 730 780.038 730 759.827C730 739.616 713.538 723.154 693.327 723.154ZM647.254 815.244H490.673C475.352 815.244 462.91 802.803 462.91 787.481C462.91 772.16 475.352 759.718 490.673 759.718H495.128V755.263C495.128 727.229 517.947 704.464 545.928 704.464C570.268 704.464 584.502 722.122 584.502 722.122C584.502 722.122 591.946 718.264 601.182 718.264C621.556 718.264 638.181 734.835 638.181 755.263V759.718H647.254C662.576 759.718 675.017 772.16 675.017 787.481C675.072 802.803 662.576 815.244 647.254 815.244ZM693.327 787.644H683.982C683.982 787.59 683.982 787.536 683.982 787.481C683.982 767.27 667.52 750.808 647.309 750.808H646.874C644.646 727.555 624.979 709.354 601.182 709.354C596.238 709.354 591.402 710.169 586.73 711.69C577.222 702.726 565.269 697.292 552.447 695.934C562.009 684.036 576.516 676.81 591.946 676.81C617.807 676.81 630.52 694.467 630.52 694.467C630.52 694.467 637.094 690.61 647.2 690.61C667.574 690.61 684.199 707.181 684.199 727.609V732.064H693.272C708.594 732.064 721.035 744.506 721.035 759.827C721.09 775.148 708.648 787.644 693.327 787.644Z" fill="#957E8B"/>
<path d="M903.636 487.263H912.546C912.546 469.389 927.053 454.882 944.928 454.882V445.972C922.163 445.972 903.636 464.445 903.636 487.263Z" fill="#957E8B"/>
<path d="M1092.33 455.154H1091.95C1089.72 431.9 1070.05 413.7 1046.25 413.7C1041.31 413.7 1036.47 414.515 1031.8 416.036C1020.66 405.604 1006.32 399.845 991 399.845C970.626 399.845 951.556 410.44 940.635 427.663C911.08 429.781 887.446 453.415 885.381 482.971C867.18 485.199 853 500.683 853 519.481C853 539.692 869.462 556.155 889.673 556.155H1046.25C1063.37 556.155 1077.71 544.365 1081.79 528.5H1092.33C1112.54 528.5 1129 512.038 1129 491.827C1129 471.616 1112.54 455.154 1092.33 455.154ZM1046.25 547.244H889.673C874.352 547.244 861.91 534.803 861.91 519.481C861.91 504.16 874.352 491.718 889.673 491.718H894.128V487.263C894.128 459.229 916.947 436.464 944.928 436.464C969.268 436.464 983.502 454.122 983.502 454.122C983.502 454.122 990.946 450.264 1000.18 450.264C1020.56 450.264 1037.18 466.835 1037.18 487.263V491.718H1046.25C1061.58 491.718 1074.02 504.16 1074.02 519.481C1074.07 534.803 1061.58 547.244 1046.25 547.244ZM1092.33 519.644H1082.98C1082.98 519.59 1082.98 519.536 1082.98 519.481C1082.98 499.27 1066.52 482.808 1046.31 482.808H1045.87C1043.65 459.555 1023.98 441.354 1000.18 441.354C995.238 441.354 990.402 442.169 985.73 443.69C976.222 434.726 964.269 429.292 951.447 427.934C961.009 416.036 975.516 408.81 990.946 408.81C1016.81 408.81 1029.52 426.467 1029.52 426.467C1029.52 426.467 1036.09 422.61 1046.2 422.61C1066.57 422.61 1083.2 439.181 1083.2 459.609V464.064H1092.27C1107.59 464.064 1120.04 476.506 1120.04 491.827C1120.09 507.148 1107.65 519.644 1092.33 519.644Z" fill="#957E8B"/>
<path d="M1243.64 804.263H1252.55C1252.55 786.389 1267.05 771.882 1284.93 771.882V762.972C1262.16 762.972 1243.64 781.445 1243.64 804.263Z" fill="#957E8B"/>
<path d="M1432.33 772.154H1431.95C1429.72 748.9 1410.05 730.7 1386.25 730.7C1381.31 730.7 1376.47 731.515 1371.8 733.036C1360.66 722.604 1346.32 716.845 1331 716.845C1310.63 716.845 1291.56 727.44 1280.64 744.663C1251.08 746.781 1227.45 770.415 1225.38 799.971C1207.18 802.199 1193 817.683 1193 836.481C1193 856.692 1209.46 873.155 1229.67 873.155H1386.25C1403.37 873.155 1417.71 861.365 1421.79 845.5H1432.33C1452.54 845.5 1469 829.038 1469 808.827C1469 788.616 1452.54 772.154 1432.33 772.154ZM1386.25 864.244H1229.67C1214.35 864.244 1201.91 851.803 1201.91 836.481C1201.91 821.16 1214.35 808.718 1229.67 808.718H1234.13V804.263C1234.13 776.229 1256.95 753.464 1284.93 753.464C1309.27 753.464 1323.5 771.122 1323.5 771.122C1323.5 771.122 1330.95 767.264 1340.18 767.264C1360.56 767.264 1377.18 783.835 1377.18 804.263V808.718H1386.25C1401.58 808.718 1414.02 821.16 1414.02 836.481C1414.07 851.803 1401.58 864.244 1386.25 864.244ZM1432.33 836.644H1422.98C1422.98 836.59 1422.98 836.536 1422.98 836.481C1422.98 816.27 1406.52 799.808 1386.31 799.808H1385.87C1383.65 776.555 1363.98 758.354 1340.18 758.354C1335.24 758.354 1330.4 759.169 1325.73 760.69C1316.22 751.726 1304.27 746.292 1291.45 744.934C1301.01 733.036 1315.52 725.81 1330.95 725.81C1356.81 725.81 1369.52 743.467 1369.52 743.467C1369.52 743.467 1376.09 739.61 1386.2 739.61C1406.57 739.61 1423.2 756.181 1423.2 776.609V781.064H1432.27C1447.59 781.064 1460.04 793.506 1460.04 808.827C1460.09 824.148 1447.65 836.644 1432.33 836.644Z" fill="#957E8B"/>
<path d="M176.411 433.874C177.415 433.874 178.228 432.976 178.228 431.867V429.579C178.228 428.47 177.415 427.572 176.411 427.572C175.408 427.572 174.595 428.47 174.595 429.579V431.867C174.595 432.976 175.408 433.874 176.411 433.874ZM163.933 435.632C165.718 435.632 167.417 434.778 168.592 433.287C169.251 432.451 169.172 431.184 168.416 430.456C167.659 429.727 166.512 429.815 165.853 430.65C165.368 431.266 164.668 431.618 163.932 431.618C163.197 431.618 162.497 431.266 162.011 430.65C161.352 429.815 160.205 429.728 159.449 430.456C158.693 431.184 158.614 432.451 159.274 433.287C160.449 434.777 162.147 435.632 163.933 435.632ZM151.454 433.874C152.457 433.874 153.27 432.976 153.27 431.867V429.579C153.27 428.47 152.457 427.572 151.454 427.572C150.451 427.572 149.637 428.47 149.637 429.579V431.867C149.637 432.976 150.451 433.874 151.454 433.874ZM163.933 475.97C164.317 475.97 164.702 475.887 165.068 475.723C167.316 474.716 171.098 472.347 174.36 468.983C178.402 464.814 180.539 460.238 180.539 455.749C180.539 449.755 176.124 444.878 170.698 444.878C168.139 444.878 165.738 445.957 163.933 447.85C162.128 445.957 159.726 444.878 157.167 444.878C151.741 444.878 147.327 449.755 147.327 455.749C147.327 460.238 149.463 464.814 153.506 468.983C156.767 472.346 160.55 474.716 162.797 475.723C163.163 475.887 163.548 475.97 163.933 475.97ZM150.96 455.749C150.96 451.967 153.744 448.891 157.167 448.891C159.296 448.891 161.254 450.077 162.402 452.063C162.736 452.64 163.312 452.989 163.932 452.989C164.552 452.989 165.129 452.64 165.463 452.063C166.612 450.077 168.568 448.891 170.698 448.891C174.121 448.891 176.906 451.967 176.906 455.749C176.906 463.344 168.165 469.908 163.932 471.899C159.7 469.909 150.96 463.344 150.96 455.749ZM179.592 495.053C180.806 491.709 183.825 488.322 187.322 484.401C194.674 476.153 203.826 465.89 203.826 448.075C203.826 429.417 193.276 413.43 178.422 407.01C178.324 406.957 178.223 406.914 178.119 406.883C173.709 405.022 168.927 404 163.933 404C153.797 404 144.134 408.205 136.727 415.839C135.993 416.595 135.953 417.865 136.637 418.676C137.322 419.486 138.471 419.531 139.204 418.774C140.666 417.268 142.224 415.909 143.862 414.704C137.914 425.493 135.618 439.849 138.126 452.961C139.576 460.545 143.525 466.604 147.344 472.463C152.021 479.638 156.453 486.44 157 496.066H155.107C153.58 496.066 152.189 495.058 151.644 493.558C150.158 489.467 146.902 485.814 143.13 481.584C136.243 473.859 127.672 464.245 127.672 448.075C127.672 440.007 129.833 432.23 133.921 425.585C134.484 424.668 134.269 423.42 133.439 422.797C132.609 422.174 131.48 422.413 130.916 423.329C126.417 430.643 124.039 439.2 124.039 448.075C124.039 465.89 133.19 476.154 140.542 484.401C144.038 488.322 147.058 491.709 148.272 495.053C149.154 497.48 151.03 499.22 153.29 499.834V514.256H150.933C147.921 514.256 145.471 516.963 145.471 520.291V522.381C145.471 524.537 147.058 526.291 149.01 526.291H149.242V534.482C149.242 538.076 151.889 541 155.141 541H172.723C173.97 541 175.163 540.574 176.173 539.768C176.986 539.119 177.17 537.865 176.582 536.967C175.995 536.068 174.859 535.866 174.046 536.515C173.659 536.823 173.202 536.986 172.722 536.986H155.141C153.892 536.986 152.875 535.864 152.875 534.482V526.291H174.989V529.608C174.989 530.716 175.802 531.615 176.806 531.615C177.808 531.615 178.622 530.716 178.622 529.608V526.291H178.854C180.805 526.291 182.393 524.536 182.393 522.381V520.291C182.393 516.963 179.942 514.256 176.93 514.256H174.574V499.833C176.835 499.219 178.711 497.48 179.592 495.053V495.053ZM150.293 470.118C146.528 464.342 142.972 458.886 141.68 452.132C140.313 444.984 140.499 436.951 142.204 429.512C143.932 421.971 147.067 415.419 151.273 410.525C155.28 408.877 159.557 408.014 163.933 408.014C168.389 408.014 172.658 408.908 176.605 410.54C180.805 415.433 183.935 421.978 185.662 429.512C187.365 436.951 187.552 444.984 186.185 452.132C184.893 458.886 181.337 464.342 177.572 470.118C172.751 477.515 167.777 485.15 167.227 496.066H160.638C160.088 485.15 155.114 477.515 150.293 470.118V470.118ZM156.924 500.079H170.941V514.255H156.924V500.079ZM176.931 518.269C177.94 518.269 178.761 519.175 178.761 520.291V522.277H149.105V520.291C149.105 519.175 149.926 518.269 150.934 518.269H176.931ZM172.758 496.066H170.864C171.41 486.44 175.844 479.638 180.521 472.463C184.34 466.604 188.289 460.545 189.739 452.961C192.244 439.865 189.957 425.526 184.024 414.743C193.764 421.933 200.193 434.189 200.193 448.075C200.193 464.245 191.621 473.859 184.734 481.584C180.963 485.814 177.706 489.466 176.221 493.558C175.676 495.058 174.284 496.066 172.758 496.066V496.066Z" fill="#71606A"/>
<path d="M978.411 825.874C979.415 825.874 980.228 824.976 980.228 823.867V821.579C980.228 820.47 979.415 819.572 978.411 819.572C977.408 819.572 976.595 820.47 976.595 821.579V823.867C976.595 824.976 977.408 825.874 978.411 825.874ZM965.933 827.632C967.718 827.632 969.417 826.778 970.592 825.287C971.251 824.451 971.172 823.184 970.416 822.456C969.659 821.727 968.512 821.815 967.853 822.65C967.368 823.266 966.668 823.618 965.932 823.618C965.197 823.618 964.497 823.266 964.011 822.65C963.352 821.815 962.205 821.728 961.449 822.456C960.693 823.184 960.614 824.451 961.274 825.287C962.449 826.777 964.147 827.632 965.933 827.632ZM953.454 825.874C954.457 825.874 955.27 824.976 955.27 823.867V821.579C955.27 820.47 954.457 819.572 953.454 819.572C952.451 819.572 951.637 820.47 951.637 821.579V823.867C951.637 824.976 952.451 825.874 953.454 825.874ZM965.933 867.97C966.317 867.97 966.702 867.887 967.068 867.723C969.316 866.716 973.098 864.347 976.36 860.983C980.402 856.814 982.539 852.238 982.539 847.749C982.539 841.755 978.125 836.878 972.698 836.878C970.139 836.878 967.738 837.957 965.933 839.85C964.128 837.957 961.726 836.878 959.167 836.878C953.741 836.878 949.327 841.755 949.327 847.749C949.327 852.238 951.463 856.814 955.506 860.983C958.768 864.346 962.55 866.716 964.797 867.723C965.163 867.887 965.548 867.97 965.933 867.97ZM952.96 847.749C952.96 843.967 955.744 840.891 959.167 840.891C961.296 840.891 963.254 842.077 964.402 844.063C964.736 844.64 965.312 844.989 965.932 844.989C966.553 844.989 967.129 844.64 967.463 844.063C968.612 842.077 970.568 840.891 972.698 840.891C976.121 840.891 978.906 843.967 978.906 847.749C978.906 855.344 970.165 861.908 965.932 863.899C961.7 861.909 952.96 855.344 952.96 847.749ZM981.592 887.053C982.807 883.709 985.825 880.322 989.322 876.401C996.675 868.153 1005.83 857.89 1005.83 840.075C1005.83 821.417 995.276 805.43 980.422 799.01C980.324 798.957 980.223 798.914 980.119 798.883C975.709 797.022 970.927 796 965.933 796C955.797 796 946.134 800.205 938.727 807.839C937.993 808.595 937.953 809.865 938.637 810.676C939.322 811.486 940.471 811.531 941.204 810.774C942.666 809.268 944.224 807.909 945.862 806.704C939.914 817.493 937.618 831.849 940.126 844.961C941.576 852.545 945.525 858.604 949.344 864.463C954.021 871.638 958.453 878.44 959 888.066H957.107C955.58 888.066 954.189 887.058 953.644 885.558C952.158 881.467 948.902 877.814 945.13 873.584C938.243 865.859 929.672 856.245 929.672 840.075C929.672 832.007 931.833 824.23 935.921 817.585C936.484 816.668 936.269 815.42 935.439 814.797C934.609 814.174 933.48 814.413 932.916 815.329C928.418 822.643 926.039 831.2 926.039 840.075C926.039 857.89 935.19 868.154 942.542 876.401C946.039 880.322 949.058 883.709 950.272 887.053C951.154 889.48 953.03 891.22 955.29 891.834V906.256H952.933C949.921 906.256 947.471 908.963 947.471 912.291V914.381C947.471 916.537 949.058 918.291 951.01 918.291H951.242V926.482C951.242 930.076 953.889 933 957.141 933H974.723C975.97 933 977.163 932.574 978.173 931.768C978.986 931.119 979.17 929.865 978.582 928.967C977.995 928.068 976.859 927.866 976.046 928.515C975.659 928.823 975.202 928.986 974.722 928.986H957.141C955.892 928.986 954.875 927.864 954.875 926.482V918.291H976.989V921.608C976.989 922.716 977.802 923.615 978.806 923.615C979.808 923.615 980.622 922.716 980.622 921.608V918.291H980.854C982.806 918.291 984.393 916.536 984.393 914.381V912.291C984.393 908.963 981.942 906.256 978.93 906.256H976.574V891.833C978.835 891.219 980.711 889.48 981.592 887.053V887.053ZM952.293 862.118C948.529 856.342 944.972 850.886 943.68 844.132C942.313 836.984 942.499 828.951 944.204 821.512C945.932 813.971 949.067 807.419 953.273 802.525C957.28 800.877 961.557 800.014 965.933 800.014C970.389 800.014 974.658 800.908 978.605 802.54C982.805 807.433 985.935 813.978 987.662 821.512C989.365 828.951 989.552 836.984 988.185 844.132C986.893 850.886 983.337 856.342 979.572 862.118C974.751 869.515 969.777 877.15 969.227 888.066H962.638C962.088 877.15 957.114 869.515 952.293 862.118V862.118ZM958.924 892.079H972.941V906.255H958.924V892.079ZM978.931 910.269C979.94 910.269 980.761 911.175 980.761 912.291V914.277H951.105V912.291C951.105 911.175 951.926 910.269 952.934 910.269H978.931ZM974.759 888.066H972.865C973.41 878.44 977.845 871.638 982.521 864.463C986.34 858.604 990.289 852.545 991.739 844.961C994.244 831.865 991.957 817.526 986.024 806.743C995.764 813.933 1002.19 826.189 1002.19 840.075C1002.19 856.245 993.621 865.859 986.734 873.584C982.964 877.814 979.706 881.466 978.221 885.558C977.676 887.058 976.284 888.066 974.759 888.066V888.066Z" fill="#71606A"/>
<path d="M1930.96 276.076C1919.57 276.076 1910.31 285.342 1910.31 296.73C1910.31 300.533 1913.39 303.615 1917.19 303.615C1920.99 303.615 1924.08 300.533 1924.08 296.73C1924.08 292.934 1927.16 289.846 1930.96 289.846C1934.76 289.846 1937.85 292.934 1937.85 296.73C1937.85 300.533 1940.93 303.615 1944.73 303.615C1948.53 303.615 1951.62 300.533 1951.62 296.73C1951.62 285.342 1942.35 276.076 1930.96 276.076Z" fill="#957E8B"/>
<path d="M1986.04 276.076C1974.65 276.076 1965.38 285.342 1965.38 296.73C1965.38 300.533 1968.47 303.615 1972.27 303.615C1976.07 303.615 1979.15 300.533 1979.15 296.73C1979.15 292.934 1982.24 289.846 1986.04 289.846C1989.84 289.846 1992.92 292.934 1992.92 296.73C1992.92 300.533 1996.01 303.615 1999.81 303.615C2003.61 303.615 2006.69 300.533 2006.69 296.73C2006.69 285.342 1997.43 276.076 1986.04 276.076Z" fill="#957E8B"/>
<path d="M1986.04 317.385C1982.24 317.385 1979.15 320.467 1979.15 324.27C1979.15 335.658 1969.89 344.924 1958.5 344.924C1947.11 344.924 1937.85 335.658 1937.85 324.27C1937.85 320.467 1934.76 317.385 1930.96 317.385C1927.16 317.385 1924.08 320.467 1924.08 324.27C1924.08 343.251 1939.52 358.693 1958.5 358.693C1977.48 358.693 1992.92 343.251 1992.92 324.27C1992.92 320.467 1989.84 317.385 1986.04 317.385Z" fill="#957E8B"/>
<path d="M1958.5 234.768C1916.74 234.768 1882.77 268.741 1882.77 310.5C1882.77 352.259 1916.74 386.232 1958.5 386.232C2000.26 386.232 2034.23 352.259 2034.23 310.5C2034.23 268.741 2000.26 234.768 1958.5 234.768ZM1958.5 372.463C1924.33 372.463 1896.54 344.666 1896.54 310.5C1896.54 276.334 1924.33 248.537 1958.5 248.537C1992.67 248.537 2020.46 276.334 2020.46 310.5C2020.46 344.666 1992.67 372.463 1958.5 372.463Z" fill="#957E8B"/>
<path d="M1958.5 193C1954.7 193 1951.62 196.083 1951.62 199.885V214.113C1951.62 217.916 1954.7 220.998 1958.5 220.998C1962.3 220.998 1965.38 217.916 1965.38 214.113V199.885C1965.38 196.083 1962.3 193 1958.5 193Z" fill="#957E8B"/>
<path d="M1958.5 400.002C1954.7 400.002 1951.62 403.084 1951.62 406.887V421.115C1951.62 424.917 1954.7 428 1958.5 428C1962.3 428 1965.38 424.917 1965.38 421.115V406.887C1965.38 403.084 1962.3 400.002 1958.5 400.002Z" fill="#957E8B"/>
<path d="M1862.11 303.615H1847.88C1844.08 303.615 1841 306.698 1841 310.5C1841 314.302 1844.08 317.385 1847.88 317.385H1862.11C1865.92 317.385 1869 314.302 1869 310.5C1869 306.698 1865.92 303.615 1862.11 303.615Z" fill="#957E8B"/>
<path d="M2069.12 303.615H2054.89C2051.08 303.615 2048 306.698 2048 310.5C2048 314.302 2051.08 317.385 2054.89 317.385H2069.12C2072.92 317.385 2076 314.302 2076 310.5C2076 306.698 2072.92 303.615 2069.12 303.615Z" fill="#957E8B"/>
<path d="M1916.27 223.584L1909.38 211.66C1907.48 208.367 1903.27 207.238 1899.98 209.14C1896.69 211.041 1895.56 215.252 1897.46 218.544L1904.34 230.469C1906.25 233.764 1910.46 234.889 1913.75 232.989C1917.04 231.088 1918.17 226.877 1916.27 223.584Z" fill="#957E8B"/>
<path d="M2019.54 402.456L2012.66 390.531C2010.75 387.238 2006.54 386.11 2003.25 388.011C1999.96 389.912 1998.83 394.123 2000.73 397.415L2007.62 409.34C2009.52 412.635 2013.73 413.76 2017.02 411.86C2020.31 409.959 2021.44 405.748 2019.54 402.456Z" fill="#957E8B"/>
<path d="M1880.99 355.251C1879.09 351.958 1874.88 350.83 1871.58 352.731L1859.66 359.616C1856.37 361.517 1855.24 365.728 1857.14 369.021C1859.04 372.315 1863.25 373.441 1866.54 371.54L1878.47 364.656C1881.76 362.755 1882.89 358.544 1880.99 355.251Z" fill="#957E8B"/>
<path d="M2059.86 251.979C2057.96 248.687 2053.75 247.558 2050.46 249.46L2038.53 256.344C2035.24 258.245 2034.11 262.456 2036.01 265.749C2037.91 269.044 2042.12 270.169 2045.42 268.269L2057.34 261.384C2060.63 259.483 2061.76 255.272 2059.86 251.979Z" fill="#957E8B"/>
<path d="M1878.47 256.345L1866.54 249.46C1863.25 247.557 1859.04 248.687 1857.14 251.98C1855.24 255.272 1856.37 259.483 1859.66 261.384L1871.58 268.269C1874.88 270.17 1879.09 269.043 1880.99 265.749C1882.89 262.456 1881.76 258.246 1878.47 256.345Z" fill="#957E8B"/>
<path d="M2057.34 359.616L2045.42 352.731C2042.12 350.829 2037.91 351.958 2036.01 355.251C2034.11 358.544 2035.24 362.754 2038.53 364.655L2050.46 371.54C2053.75 373.441 2057.96 372.314 2059.86 369.02C2061.76 365.728 2060.63 361.517 2057.34 359.616Z" fill="#957E8B"/>
<path d="M1913.75 388.011C1910.46 386.109 1906.25 387.238 1904.34 390.531L1897.46 402.456C1895.56 405.748 1896.69 409.959 1899.98 411.86C1903.27 413.761 1907.48 412.634 1909.38 409.34L1916.27 397.416C1918.17 394.123 1917.04 389.912 1913.75 388.011Z" fill="#957E8B"/>
<path d="M2017.02 209.14C2013.73 207.238 2009.52 208.366 2007.62 211.66L2000.73 223.585C1998.83 226.877 1999.96 231.088 2003.25 232.989C2006.54 234.89 2010.75 233.763 2012.66 230.469L2019.54 218.544C2021.44 215.252 2020.31 211.041 2017.02 209.14Z" fill="#957E8B"/>
<g clip-path="url(#clip1)">
<path d="M3354.82 65.4392C3353.98 64.7711 3352.92 64.4418 3351.86 64.5163H3335.71L3350.89 47.5581L3352.32 45.9815L3353.05 45.0586C3353.3 44.702 3353.51 44.3141 3353.66 43.905C3353.84 43.4642 3353.93 42.9946 3353.93 42.5207C3354.04 41.3993 3353.48 40.3178 3352.51 39.752C3351.25 39.1723 3349.86 38.9079 3348.47 38.9829H3329.59C3328.58 38.9142 3327.59 39.2151 3326.78 39.8289C3326.12 40.3927 3325.75 41.2281 3325.78 42.0977C3325.78 43.4051 3326.22 44.1997 3327.09 44.4818C3328.34 44.837 3329.64 44.9928 3330.94 44.9433H3343.24C3342.73 45.6609 3342.06 46.5069 3341.24 47.4812L3338.09 51.019L3333.82 55.6335L3328.86 61.1324C3327.14 63.0551 3326.01 64.337 3325.48 64.9778C3324.26 66.4606 3324.41 68.6395 3325.82 69.9383C3326.84 70.7026 3328.09 71.0713 3329.36 70.9766H3351.82C3352.89 71.0607 3353.96 70.7459 3354.82 70.0921C3355.47 69.5216 3355.84 68.6905 3355.82 67.8234C3355.85 66.9202 3355.48 66.0482 3354.82 65.4392Z" fill="#957E8B"/>
<path d="M3388.85 85.0892C3388.18 84.5509 3387.32 84.2899 3386.46 84.3586H3373.54L3385.66 70.8228L3386.81 69.5539L3387.54 68.6694C3387.75 68.3849 3387.92 68.0748 3388.04 67.7465C3388.19 67.3923 3388.27 67.0145 3388.27 66.6314C3388.37 65.7339 3387.93 64.8625 3387.16 64.401C3386.15 63.9367 3385.04 63.7252 3383.93 63.7858H3368.7C3367.9 63.7411 3367.1 63.9867 3366.47 64.4779C3365.94 64.925 3365.64 65.5912 3365.66 66.2853C3365.66 67.3106 3366.01 67.9518 3366.7 68.208C3367.7 68.4853 3368.74 68.6021 3369.78 68.5541H3379.62C3379.24 69.1309 3378.7 69.7846 3378 70.5921L3375.47 73.4377L3372.16 77.2831L3368.31 81.6668C3366.93 83.205 3366.02 84.2562 3365.58 84.8201C3364.68 85.9823 3364.79 87.6407 3365.85 88.6655C3366.66 89.2658 3367.66 89.5528 3368.66 89.473H3386.5C3387.36 89.5412 3388.2 89.2951 3388.89 88.7808C3389.4 88.3199 3389.68 87.6594 3389.66 86.9735C3389.67 86.2578 3389.38 85.5699 3388.85 85.0892Z" fill="#957E8B"/>
<path d="M3429.19 63.478C3428.35 62.8099 3427.29 62.4806 3426.23 62.5551H3409.96L3425.15 45.597L3426.57 44.0204L3427.49 42.9052C3427.75 42.5485 3427.96 42.1606 3428.11 41.7516C3428.28 41.3108 3428.38 40.8412 3428.38 40.3672C3428.49 39.2458 3427.93 38.1643 3426.96 37.5985C3425.69 37.0189 3424.31 36.755 3422.92 36.8295H3403.85C3402.84 36.7607 3401.84 37.0616 3401.04 37.6755C3400.38 38.2393 3400.01 39.0747 3400.04 39.9442C3400.04 41.2517 3400.47 42.0462 3401.35 42.3284C3402.6 42.6836 3403.89 42.8393 3405.19 42.7898H3417.5C3416.98 43.5075 3416.32 44.3535 3415.5 45.3278L3412.31 48.9425L3408.15 53.5569L3403.19 59.0558C3401.47 60.9785 3400.35 62.2605 3399.81 62.9012C3398.59 64.3841 3398.74 66.563 3400.15 67.8618C3401.17 68.626 3402.43 68.9947 3403.69 68.9H3426.11C3427.2 69.0365 3428.29 68.7621 3429.19 68.131C3429.84 67.5604 3430.21 66.7293 3430.19 65.8622C3430.22 64.959 3429.85 64.087 3429.19 63.478Z" fill="#957E8B"/>
<path d="M3415.92 128.234C3414.82 127.1 3413.15 126.75 3411.69 127.35C3370.01 144.603 3322.24 124.803 3304.98 83.1246C3296.22 61.96 3296.75 38.0888 3306.44 17.3333C3307.35 15.4134 3306.53 13.1211 3304.61 12.2131C3303.62 11.7469 3302.49 11.7214 3301.48 12.142C3255.79 30.9118 3233.96 83.1697 3252.73 128.863C3271.5 174.556 3323.76 196.382 3369.45 177.613C3390.29 169.052 3407.14 152.942 3416.61 132.502C3417.28 131.073 3417.01 129.38 3415.92 128.234ZM3335.51 176.686C3290.34 176.679 3253.73 140.053 3253.74 94.8809C3253.74 65.2194 3269.8 37.8854 3295.71 23.4474C3292.65 32.5543 3291.09 42.1014 3291.1 51.7111C3291.1 101.131 3331.17 141.191 3380.59 141.189C3388.87 141.189 3397.11 140.038 3405.08 137.771C3390.16 161.884 3363.86 176.596 3335.51 176.686Z" fill="#957E8B"/>
</g>
<path d="M1982.64 621.263H1991.55C1991.55 603.389 2006.05 588.882 2023.93 588.882V579.972C2001.16 579.972 1982.64 598.445 1982.64 621.263Z" fill="#957E8B"/>
<path d="M2171.33 589.154H2170.95C2168.72 565.9 2149.05 547.7 2125.25 547.7C2120.31 547.7 2115.47 548.515 2110.8 550.036C2099.66 539.604 2085.32 533.845 2070 533.845C2049.63 533.845 2030.56 544.44 2019.64 561.663C1990.08 563.781 1966.45 587.415 1964.38 616.971C1946.18 619.199 1932 634.683 1932 653.481C1932 673.692 1948.46 690.155 1968.67 690.155H2125.25C2142.37 690.155 2156.71 678.365 2160.79 662.5H2171.33C2191.54 662.5 2208 646.038 2208 625.827C2208 605.616 2191.54 589.154 2171.33 589.154ZM2125.25 681.244H1968.67C1953.35 681.244 1940.91 668.803 1940.91 653.481C1940.91 638.16 1953.35 625.718 1968.67 625.718H1973.13V621.263C1973.13 593.229 1995.95 570.464 2023.93 570.464C2048.27 570.464 2062.5 588.122 2062.5 588.122C2062.5 588.122 2069.95 584.264 2079.18 584.264C2099.56 584.264 2116.18 600.835 2116.18 621.263V625.718H2125.25C2140.58 625.718 2153.02 638.16 2153.02 653.481C2153.07 668.803 2140.58 681.244 2125.25 681.244ZM2171.33 653.644H2161.98C2161.98 653.59 2161.98 653.536 2161.98 653.481C2161.98 633.27 2145.52 616.808 2125.31 616.808H2124.87C2122.65 593.555 2102.98 575.354 2079.18 575.354C2074.24 575.354 2069.4 576.169 2064.73 577.69C2055.22 568.726 2043.27 563.292 2030.45 561.934C2040.01 550.036 2054.52 542.81 2069.95 542.81C2095.81 542.81 2108.52 560.467 2108.52 560.467C2108.52 560.467 2115.09 556.61 2125.2 556.61C2145.57 556.61 2162.2 573.181 2162.2 593.609V598.064H2171.27C2186.59 598.064 2199.04 610.506 2199.04 625.827C2199.09 641.148 2186.65 653.644 2171.33 653.644Z" fill="#957E8B"/>
<path d="M2286.64 340.263H2295.55C2295.55 322.389 2310.05 307.882 2327.93 307.882V298.972C2305.16 298.972 2286.64 317.445 2286.64 340.263Z" fill="#957E8B"/>
<path d="M2475.33 308.154H2474.95C2472.72 284.9 2453.05 266.7 2429.25 266.7C2424.31 266.7 2419.47 267.515 2414.8 269.036C2403.66 258.604 2389.32 252.845 2374 252.845C2353.63 252.845 2334.56 263.44 2323.64 280.663C2294.08 282.781 2270.45 306.415 2268.38 335.971C2250.18 338.199 2236 353.683 2236 372.481C2236 392.692 2252.46 409.155 2272.67 409.155H2429.25C2446.37 409.155 2460.71 397.365 2464.79 381.5H2475.33C2495.54 381.5 2512 365.038 2512 344.827C2512 324.616 2495.54 308.154 2475.33 308.154ZM2429.25 400.244H2272.67C2257.35 400.244 2244.91 387.803 2244.91 372.481C2244.91 357.16 2257.35 344.718 2272.67 344.718H2277.13V340.263C2277.13 312.229 2299.95 289.464 2327.93 289.464C2352.27 289.464 2366.5 307.122 2366.5 307.122C2366.5 307.122 2373.95 303.264 2383.18 303.264C2403.56 303.264 2420.18 319.835 2420.18 340.263V344.718H2429.25C2444.58 344.718 2457.02 357.16 2457.02 372.481C2457.07 387.803 2444.58 400.244 2429.25 400.244ZM2475.33 372.644H2465.98C2465.98 372.59 2465.98 372.536 2465.98 372.481C2465.98 352.27 2449.52 335.808 2429.31 335.808H2428.87C2426.65 312.555 2406.98 294.354 2383.18 294.354C2378.24 294.354 2373.4 295.169 2368.73 296.69C2359.22 287.726 2347.27 282.292 2334.45 280.934C2344.01 269.036 2358.52 261.81 2373.95 261.81C2399.81 261.81 2412.52 279.467 2412.52 279.467C2412.52 279.467 2419.09 275.61 2429.2 275.61C2449.57 275.61 2466.2 292.181 2466.2 312.609V317.064H2475.27C2490.59 317.064 2503.04 329.506 2503.04 344.827C2503.09 360.148 2490.65 372.644 2475.33 372.644Z" fill="#957E8B"/>
<path d="M3093.64 320.263H3102.55C3102.55 302.389 3117.05 287.882 3134.93 287.882V278.972C3112.16 278.972 3093.64 297.445 3093.64 320.263Z" fill="#957E8B"/>
<path d="M3282.33 288.154H3281.95C3279.72 264.9 3260.05 246.7 3236.25 246.7C3231.31 246.7 3226.47 247.515 3221.8 249.036C3210.66 238.604 3196.32 232.845 3181 232.845C3160.63 232.845 3141.56 243.44 3130.64 260.663C3101.08 262.781 3077.45 286.415 3075.38 315.971C3057.18 318.199 3043 333.683 3043 352.481C3043 372.692 3059.46 389.155 3079.67 389.155H3236.25C3253.37 389.155 3267.71 377.365 3271.79 361.5H3282.33C3302.54 361.5 3319 345.038 3319 324.827C3319 304.616 3302.54 288.154 3282.33 288.154ZM3236.25 380.244H3079.67C3064.35 380.244 3051.91 367.803 3051.91 352.481C3051.91 337.16 3064.35 324.718 3079.67 324.718H3084.13V320.263C3084.13 292.229 3106.95 269.464 3134.93 269.464C3159.27 269.464 3173.5 287.122 3173.5 287.122C3173.5 287.122 3180.95 283.264 3190.18 283.264C3210.56 283.264 3227.18 299.835 3227.18 320.263V324.718H3236.25C3251.58 324.718 3264.02 337.16 3264.02 352.481C3264.07 367.803 3251.58 380.244 3236.25 380.244ZM3282.33 352.644H3272.98C3272.98 352.59 3272.98 352.536 3272.98 352.481C3272.98 332.27 3256.52 315.808 3236.31 315.808H3235.87C3233.65 292.555 3213.98 274.354 3190.18 274.354C3185.24 274.354 3180.4 275.169 3175.73 276.69C3166.22 267.726 3154.27 262.292 3141.45 260.934C3151.01 249.036 3165.52 241.81 3180.95 241.81C3206.81 241.81 3219.52 259.467 3219.52 259.467C3219.52 259.467 3226.09 255.61 3236.2 255.61C3256.57 255.61 3273.2 272.181 3273.2 292.609V297.064H3282.27C3297.59 297.064 3310.04 309.506 3310.04 324.827C3310.09 340.148 3297.65 352.644 3282.33 352.644Z" fill="#957E8B"/>
<path d="M2354.64 761.263H2363.55C2363.55 743.389 2378.05 728.882 2395.93 728.882V719.972C2373.16 719.972 2354.64 738.445 2354.64 761.263Z" fill="#957E8B"/>
<path d="M2543.33 729.154H2542.95C2540.72 705.9 2521.05 687.7 2497.25 687.7C2492.31 687.7 2487.47 688.515 2482.8 690.036C2471.66 679.604 2457.32 673.845 2442 673.845C2421.63 673.845 2402.56 684.44 2391.64 701.663C2362.08 703.781 2338.45 727.415 2336.38 756.971C2318.18 759.199 2304 774.683 2304 793.481C2304 813.692 2320.46 830.155 2340.67 830.155H2497.25C2514.37 830.155 2528.71 818.365 2532.79 802.5H2543.33C2563.54 802.5 2580 786.038 2580 765.827C2580 745.616 2563.54 729.154 2543.33 729.154ZM2497.25 821.244H2340.67C2325.35 821.244 2312.91 808.803 2312.91 793.481C2312.91 778.16 2325.35 765.718 2340.67 765.718H2345.13V761.263C2345.13 733.229 2367.95 710.464 2395.93 710.464C2420.27 710.464 2434.5 728.122 2434.5 728.122C2434.5 728.122 2441.95 724.264 2451.18 724.264C2471.56 724.264 2488.18 740.835 2488.18 761.263V765.718H2497.25C2512.58 765.718 2525.02 778.16 2525.02 793.481C2525.07 808.803 2512.58 821.244 2497.25 821.244ZM2543.33 793.644H2533.98C2533.98 793.59 2533.98 793.536 2533.98 793.481C2533.98 773.27 2517.52 756.808 2497.31 756.808H2496.87C2494.65 733.555 2474.98 715.354 2451.18 715.354C2446.24 715.354 2441.4 716.169 2436.73 717.69C2427.22 708.726 2415.27 703.292 2402.45 701.934C2412.01 690.036 2426.52 682.81 2441.95 682.81C2467.81 682.81 2480.52 700.467 2480.52 700.467C2480.52 700.467 2487.09 696.61 2497.2 696.61C2517.57 696.61 2534.2 713.181 2534.2 733.609V738.064H2543.27C2558.59 738.064 2571.04 750.506 2571.04 765.827C2571.09 781.148 2558.65 793.644 2543.33 793.644Z" fill="#957E8B"/>
<path d="M2753.64 493.263H2762.55C2762.55 475.389 2777.05 460.882 2794.93 460.882V451.972C2772.16 451.972 2753.64 470.445 2753.64 493.263Z" fill="#957E8B"/>
<path d="M2942.33 461.154H2941.95C2939.72 437.9 2920.05 419.7 2896.25 419.7C2891.31 419.7 2886.47 420.515 2881.8 422.036C2870.66 411.604 2856.32 405.845 2841 405.845C2820.63 405.845 2801.56 416.44 2790.64 433.663C2761.08 435.781 2737.45 459.415 2735.38 488.971C2717.18 491.199 2703 506.683 2703 525.481C2703 545.692 2719.46 562.155 2739.67 562.155H2896.25C2913.37 562.155 2927.71 550.365 2931.79 534.5H2942.33C2962.54 534.5 2979 518.038 2979 497.827C2979 477.616 2962.54 461.154 2942.33 461.154ZM2896.25 553.244H2739.67C2724.35 553.244 2711.91 540.803 2711.91 525.481C2711.91 510.16 2724.35 497.718 2739.67 497.718H2744.13V493.263C2744.13 465.229 2766.95 442.464 2794.93 442.464C2819.27 442.464 2833.5 460.122 2833.5 460.122C2833.5 460.122 2840.95 456.264 2850.18 456.264C2870.56 456.264 2887.18 472.835 2887.18 493.263V497.718H2896.25C2911.58 497.718 2924.02 510.16 2924.02 525.481C2924.07 540.803 2911.58 553.244 2896.25 553.244ZM2942.33 525.644H2932.98C2932.98 525.59 2932.98 525.536 2932.98 525.481C2932.98 505.27 2916.52 488.808 2896.31 488.808H2895.87C2893.65 465.555 2873.98 447.354 2850.18 447.354C2845.24 447.354 2840.4 448.169 2835.73 449.69C2826.22 440.726 2814.27 435.292 2801.45 433.934C2811.01 422.036 2825.52 414.81 2840.95 414.81C2866.81 414.81 2879.52 432.467 2879.52 432.467C2879.52 432.467 2886.09 428.61 2896.2 428.61C2916.57 428.61 2933.2 445.181 2933.2 465.609V470.064H2942.27C2957.59 470.064 2970.04 482.506 2970.04 497.827C2970.09 513.148 2957.65 525.644 2942.33 525.644Z" fill="#957E8B"/>
<path d="M1864.64 902.263H1873.55C1873.55 884.389 1888.05 869.882 1905.93 869.882V860.972C1883.16 860.972 1864.64 879.445 1864.64 902.263Z" fill="#957E8B"/>
<path d="M2053.33 870.154H2052.95C2050.72 846.9 2031.05 828.7 2007.25 828.7C2002.31 828.7 1997.47 829.515 1992.8 831.036C1981.66 820.604 1967.32 814.845 1952 814.845C1931.63 814.845 1912.56 825.44 1901.64 842.663C1872.08 844.781 1848.45 868.415 1846.38 897.971C1828.18 900.199 1814 915.683 1814 934.481C1814 954.692 1830.46 971.155 1850.67 971.155H2007.25C2024.37 971.155 2038.71 959.365 2042.79 943.5H2053.33C2073.54 943.5 2090 927.038 2090 906.827C2090 886.616 2073.54 870.154 2053.33 870.154ZM2007.25 962.244H1850.67C1835.35 962.244 1822.91 949.803 1822.91 934.481C1822.91 919.16 1835.35 906.718 1850.67 906.718H1855.13V902.263C1855.13 874.229 1877.95 851.464 1905.93 851.464C1930.27 851.464 1944.5 869.122 1944.5 869.122C1944.5 869.122 1951.95 865.264 1961.18 865.264C1981.56 865.264 1998.18 881.835 1998.18 902.263V906.718H2007.25C2022.58 906.718 2035.02 919.16 2035.02 934.481C2035.07 949.803 2022.58 962.244 2007.25 962.244ZM2053.33 934.644H2043.98C2043.98 934.59 2043.98 934.536 2043.98 934.481C2043.98 914.27 2027.52 897.808 2007.31 897.808H2006.87C2004.65 874.555 1984.98 856.354 1961.18 856.354C1956.24 856.354 1951.4 857.169 1946.73 858.69C1937.22 849.726 1925.27 844.292 1912.45 842.934C1922.01 831.036 1936.52 823.81 1951.95 823.81C1977.81 823.81 1990.52 841.467 1990.52 841.467C1990.52 841.467 1997.09 837.61 2007.2 837.61C2027.57 837.61 2044.2 854.181 2044.2 874.609V879.064H2053.27C2068.59 879.064 2081.04 891.506 2081.04 906.827C2081.09 922.148 2068.65 934.644 2053.33 934.644Z" fill="#957E8B"/>
<path d="M1610.64 519.263H1619.55C1619.55 501.389 1634.05 486.882 1651.93 486.882V477.972C1629.16 477.972 1610.64 496.445 1610.64 519.263Z" fill="#957E8B"/>
<path d="M1799.33 487.154H1798.95C1796.72 463.9 1777.05 445.7 1753.25 445.7C1748.31 445.7 1743.47 446.515 1738.8 448.036C1727.66 437.604 1713.32 431.845 1698 431.845C1677.63 431.845 1658.56 442.44 1647.64 459.663C1618.08 461.781 1594.45 485.415 1592.38 514.971C1574.18 517.199 1560 532.683 1560 551.481C1560 571.692 1576.46 588.155 1596.67 588.155H1753.25C1770.37 588.155 1784.71 576.365 1788.79 560.5H1799.33C1819.54 560.5 1836 544.038 1836 523.827C1836 503.616 1819.54 487.154 1799.33 487.154ZM1753.25 579.244H1596.67C1581.35 579.244 1568.91 566.803 1568.91 551.481C1568.91 536.16 1581.35 523.718 1596.67 523.718H1601.13V519.263C1601.13 491.229 1623.95 468.464 1651.93 468.464C1676.27 468.464 1690.5 486.122 1690.5 486.122C1690.5 486.122 1697.95 482.264 1707.18 482.264C1727.56 482.264 1744.18 498.835 1744.18 519.263V523.718H1753.25C1768.58 523.718 1781.02 536.16 1781.02 551.481C1781.07 566.803 1768.58 579.244 1753.25 579.244ZM1799.33 551.644H1789.98C1789.98 551.59 1789.98 551.536 1789.98 551.481C1789.98 531.27 1773.52 514.808 1753.31 514.808H1752.87C1750.65 491.555 1730.98 473.354 1707.18 473.354C1702.24 473.354 1697.4 474.169 1692.73 475.69C1683.22 466.726 1671.27 461.292 1658.45 459.934C1668.01 448.036 1682.52 440.81 1697.95 440.81C1723.81 440.81 1736.52 458.467 1736.52 458.467C1736.52 458.467 1743.09 454.61 1753.2 454.61C1773.57 454.61 1790.2 471.181 1790.2 491.609V496.064H1799.27C1814.59 496.064 1827.04 508.506 1827.04 523.827C1827.09 539.148 1814.65 551.644 1799.33 551.644Z" fill="#957E8B"/>
<path d="M3093.64 810.263H3102.55C3102.55 792.389 3117.05 777.882 3134.93 777.882V768.972C3112.16 768.972 3093.64 787.445 3093.64 810.263Z" fill="#957E8B"/>
<path d="M3282.33 778.154H3281.95C3279.72 754.9 3260.05 736.7 3236.25 736.7C3231.31 736.7 3226.47 737.515 3221.8 739.036C3210.66 728.604 3196.32 722.845 3181 722.845C3160.63 722.845 3141.56 733.44 3130.64 750.663C3101.08 752.781 3077.45 776.415 3075.38 805.971C3057.18 808.199 3043 823.683 3043 842.481C3043 862.692 3059.46 879.155 3079.67 879.155H3236.25C3253.37 879.155 3267.71 867.365 3271.79 851.5H3282.33C3302.54 851.5 3319 835.038 3319 814.827C3319 794.616 3302.54 778.154 3282.33 778.154ZM3236.25 870.244H3079.67C3064.35 870.244 3051.91 857.803 3051.91 842.481C3051.91 827.16 3064.35 814.718 3079.67 814.718H3084.13V810.263C3084.13 782.229 3106.95 759.464 3134.93 759.464C3159.27 759.464 3173.5 777.122 3173.5 777.122C3173.5 777.122 3180.95 773.264 3190.18 773.264C3210.56 773.264 3227.18 789.835 3227.18 810.263V814.718H3236.25C3251.58 814.718 3264.02 827.16 3264.02 842.481C3264.07 857.803 3251.58 870.244 3236.25 870.244ZM3282.33 842.644H3272.98C3272.98 842.59 3272.98 842.536 3272.98 842.481C3272.98 822.27 3256.52 805.808 3236.31 805.808H3235.87C3233.65 782.555 3213.98 764.354 3190.18 764.354C3185.24 764.354 3180.4 765.169 3175.73 766.69C3166.22 757.726 3154.27 752.292 3141.45 750.934C3151.01 739.036 3165.52 731.81 3180.95 731.81C3206.81 731.81 3219.52 749.467 3219.52 749.467C3219.52 749.467 3226.09 745.61 3236.2 745.61C3256.57 745.61 3273.2 762.181 3273.2 782.609V787.064H3282.27C3297.59 787.064 3310.04 799.506 3310.04 814.827C3310.09 830.148 3297.65 842.644 3282.33 842.644Z" fill="#957E8B"/>
<path d="M2026.41 439.874C2027.41 439.874 2028.23 438.976 2028.23 437.867V435.579C2028.23 434.47 2027.41 433.572 2026.41 433.572C2025.41 433.572 2024.59 434.47 2024.59 435.579V437.867C2024.59 438.976 2025.41 439.874 2026.41 439.874ZM2013.93 441.632C2015.72 441.632 2017.42 440.778 2018.59 439.287C2019.25 438.451 2019.17 437.184 2018.42 436.456C2017.66 435.727 2016.51 435.815 2015.85 436.65C2015.37 437.266 2014.67 437.618 2013.93 437.618C2013.2 437.618 2012.5 437.266 2012.01 436.65C2011.35 435.815 2010.21 435.728 2009.45 436.456C2008.69 437.184 2008.61 438.451 2009.27 439.287C2010.45 440.777 2012.15 441.632 2013.93 441.632ZM2001.45 439.874C2002.46 439.874 2003.27 438.976 2003.27 437.867V435.579C2003.27 434.47 2002.46 433.572 2001.45 433.572C2000.45 433.572 1999.64 434.47 1999.64 435.579V437.867C1999.64 438.976 2000.45 439.874 2001.45 439.874ZM2013.93 481.97C2014.32 481.97 2014.7 481.887 2015.07 481.723C2017.32 480.716 2021.1 478.347 2024.36 474.983C2028.4 470.814 2030.54 466.238 2030.54 461.749C2030.54 455.755 2026.12 450.878 2020.7 450.878C2018.14 450.878 2015.74 451.957 2013.93 453.85C2012.13 451.957 2009.73 450.878 2007.17 450.878C2001.74 450.878 1997.33 455.755 1997.33 461.749C1997.33 466.238 1999.46 470.814 2003.51 474.983C2006.77 478.346 2010.55 480.716 2012.8 481.723C2013.16 481.887 2013.55 481.97 2013.93 481.97ZM2000.96 461.749C2000.96 457.967 2003.74 454.891 2007.17 454.891C2009.3 454.891 2011.25 456.077 2012.4 458.063C2012.74 458.64 2013.31 458.989 2013.93 458.989C2014.55 458.989 2015.13 458.64 2015.46 458.063C2016.61 456.077 2018.57 454.891 2020.7 454.891C2024.12 454.891 2026.91 457.967 2026.91 461.749C2026.91 469.344 2018.17 475.908 2013.93 477.899C2009.7 475.909 2000.96 469.344 2000.96 461.749ZM2029.59 501.053C2030.81 497.709 2033.83 494.322 2037.32 490.401C2044.67 482.153 2053.83 471.89 2053.83 454.075C2053.83 435.417 2043.28 419.43 2028.42 413.01C2028.32 412.957 2028.22 412.914 2028.12 412.883C2023.71 411.022 2018.93 410 2013.93 410C2003.8 410 1994.13 414.205 1986.73 421.839C1985.99 422.595 1985.95 423.865 1986.64 424.676C1987.32 425.486 1988.47 425.531 1989.2 424.774C1990.67 423.268 1992.22 421.909 1993.86 420.704C1987.91 431.493 1985.62 445.849 1988.13 458.961C1989.58 466.545 1993.52 472.604 1997.34 478.463C2002.02 485.638 2006.45 492.44 2007 502.066H2005.11C2003.58 502.066 2002.19 501.058 2001.64 499.558C2000.16 495.467 1996.9 491.814 1993.13 487.584C1986.24 479.859 1977.67 470.245 1977.67 454.075C1977.67 446.007 1979.83 438.23 1983.92 431.585C1984.48 430.668 1984.27 429.42 1983.44 428.797C1982.61 428.174 1981.48 428.413 1980.92 429.329C1976.42 436.643 1974.04 445.2 1974.04 454.075C1974.04 471.89 1983.19 482.154 1990.54 490.401C1994.04 494.322 1997.06 497.709 1998.27 501.053C1999.15 503.48 2001.03 505.22 2003.29 505.834V520.256H2000.93C1997.92 520.256 1995.47 522.963 1995.47 526.291V528.381C1995.47 530.537 1997.06 532.291 1999.01 532.291H1999.24V540.482C1999.24 544.076 2001.89 547 2005.14 547H2022.72C2023.97 547 2025.16 546.574 2026.17 545.768C2026.99 545.119 2027.17 543.865 2026.58 542.967C2025.99 542.068 2024.86 541.866 2024.05 542.515C2023.66 542.823 2023.2 542.986 2022.72 542.986H2005.14C2003.89 542.986 2002.87 541.864 2002.87 540.482V532.291H2024.99V535.608C2024.99 536.716 2025.8 537.615 2026.81 537.615C2027.81 537.615 2028.62 536.716 2028.62 535.608V532.291H2028.85C2030.81 532.291 2032.39 530.536 2032.39 528.381V526.291C2032.39 522.963 2029.94 520.256 2026.93 520.256H2024.57V505.833C2026.83 505.219 2028.71 503.48 2029.59 501.053V501.053ZM2000.29 476.118C1996.53 470.342 1992.97 464.886 1991.68 458.132C1990.31 450.984 1990.5 442.951 1992.2 435.512C1993.93 427.971 1997.07 421.419 2001.27 416.525C2005.28 414.877 2009.56 414.014 2013.93 414.014C2018.39 414.014 2022.66 414.908 2026.61 416.54C2030.8 421.433 2033.93 427.978 2035.66 435.512C2037.37 442.951 2037.55 450.984 2036.18 458.132C2034.89 464.886 2031.34 470.342 2027.57 476.118C2022.75 483.515 2017.78 491.15 2017.23 502.066H2010.64C2010.09 491.15 2005.11 483.515 2000.29 476.118V476.118ZM2006.92 506.079H2020.94V520.255H2006.92V506.079ZM2026.93 524.269C2027.94 524.269 2028.76 525.175 2028.76 526.291V528.277H1999.1V526.291C1999.1 525.175 1999.93 524.269 2000.93 524.269H2026.93ZM2022.76 502.066H2020.86C2021.41 492.44 2025.84 485.638 2030.52 478.463C2034.34 472.604 2038.29 466.545 2039.74 458.961C2042.24 445.865 2039.96 431.526 2034.02 420.743C2043.76 427.933 2050.19 440.189 2050.19 454.075C2050.19 470.245 2041.62 479.859 2034.73 487.584C2030.96 491.814 2027.71 495.466 2026.22 499.558C2025.68 501.058 2024.28 502.066 2022.76 502.066V502.066Z" fill="#71606A"/>
<path d="M2828.41 831.874C2829.41 831.874 2830.23 830.976 2830.23 829.867V827.579C2830.23 826.47 2829.41 825.572 2828.41 825.572C2827.41 825.572 2826.59 826.47 2826.59 827.579V829.867C2826.59 830.976 2827.41 831.874 2828.41 831.874ZM2815.93 833.632C2817.72 833.632 2819.42 832.778 2820.59 831.287C2821.25 830.451 2821.17 829.184 2820.42 828.456C2819.66 827.727 2818.51 827.815 2817.85 828.65C2817.37 829.266 2816.67 829.618 2815.93 829.618C2815.2 829.618 2814.5 829.266 2814.01 828.65C2813.35 827.815 2812.21 827.728 2811.45 828.456C2810.69 829.184 2810.61 830.451 2811.27 831.287C2812.45 832.777 2814.15 833.632 2815.93 833.632ZM2803.45 831.874C2804.46 831.874 2805.27 830.976 2805.27 829.867V827.579C2805.27 826.47 2804.46 825.572 2803.45 825.572C2802.45 825.572 2801.64 826.47 2801.64 827.579V829.867C2801.64 830.976 2802.45 831.874 2803.45 831.874ZM2815.93 873.97C2816.32 873.97 2816.7 873.887 2817.07 873.723C2819.32 872.716 2823.1 870.347 2826.36 866.983C2830.4 862.814 2832.54 858.238 2832.54 853.749C2832.54 847.755 2828.12 842.878 2822.7 842.878C2820.14 842.878 2817.74 843.957 2815.93 845.85C2814.13 843.957 2811.73 842.878 2809.17 842.878C2803.74 842.878 2799.33 847.755 2799.33 853.749C2799.33 858.238 2801.46 862.814 2805.51 866.983C2808.77 870.346 2812.55 872.716 2814.8 873.723C2815.16 873.887 2815.55 873.97 2815.93 873.97ZM2802.96 853.749C2802.96 849.967 2805.74 846.891 2809.17 846.891C2811.3 846.891 2813.25 848.077 2814.4 850.063C2814.74 850.64 2815.31 850.989 2815.93 850.989C2816.55 850.989 2817.13 850.64 2817.46 850.063C2818.61 848.077 2820.57 846.891 2822.7 846.891C2826.12 846.891 2828.91 849.967 2828.91 853.749C2828.91 861.344 2820.17 867.908 2815.93 869.899C2811.7 867.909 2802.96 861.344 2802.96 853.749ZM2831.59 893.053C2832.81 889.709 2835.83 886.322 2839.32 882.401C2846.67 874.153 2855.83 863.89 2855.83 846.075C2855.83 827.417 2845.28 811.43 2830.42 805.01C2830.32 804.957 2830.22 804.914 2830.12 804.883C2825.71 803.022 2820.93 802 2815.93 802C2805.8 802 2796.13 806.205 2788.73 813.839C2787.99 814.595 2787.95 815.865 2788.64 816.676C2789.32 817.486 2790.47 817.531 2791.2 816.774C2792.67 815.268 2794.22 813.909 2795.86 812.704C2789.91 823.493 2787.62 837.849 2790.13 850.961C2791.58 858.545 2795.52 864.604 2799.34 870.463C2804.02 877.638 2808.45 884.44 2809 894.066H2807.11C2805.58 894.066 2804.19 893.058 2803.64 891.558C2802.16 887.467 2798.9 883.814 2795.13 879.584C2788.24 871.859 2779.67 862.245 2779.67 846.075C2779.67 838.007 2781.83 830.23 2785.92 823.585C2786.48 822.668 2786.27 821.42 2785.44 820.797C2784.61 820.174 2783.48 820.413 2782.92 821.329C2778.42 828.643 2776.04 837.2 2776.04 846.075C2776.04 863.89 2785.19 874.154 2792.54 882.401C2796.04 886.322 2799.06 889.709 2800.27 893.053C2801.15 895.48 2803.03 897.22 2805.29 897.834V912.256H2802.93C2799.92 912.256 2797.47 914.963 2797.47 918.291V920.381C2797.47 922.537 2799.06 924.291 2801.01 924.291H2801.24V932.482C2801.24 936.076 2803.89 939 2807.14 939H2824.72C2825.97 939 2827.16 938.574 2828.17 937.768C2828.99 937.119 2829.17 935.865 2828.58 934.967C2827.99 934.068 2826.86 933.866 2826.05 934.515C2825.66 934.823 2825.2 934.986 2824.72 934.986H2807.14C2805.89 934.986 2804.87 933.864 2804.87 932.482V924.291H2826.99V927.608C2826.99 928.716 2827.8 929.615 2828.81 929.615C2829.81 929.615 2830.62 928.716 2830.62 927.608V924.291H2830.85C2832.81 924.291 2834.39 922.536 2834.39 920.381V918.291C2834.39 914.963 2831.94 912.256 2828.93 912.256H2826.57V897.833C2828.83 897.219 2830.71 895.48 2831.59 893.053V893.053ZM2802.29 868.118C2798.53 862.342 2794.97 856.886 2793.68 850.132C2792.31 842.984 2792.5 834.951 2794.2 827.512C2795.93 819.971 2799.07 813.419 2803.27 808.525C2807.28 806.877 2811.56 806.014 2815.93 806.014C2820.39 806.014 2824.66 806.908 2828.61 808.54C2832.8 813.433 2835.93 819.978 2837.66 827.512C2839.37 834.951 2839.55 842.984 2838.18 850.132C2836.89 856.886 2833.34 862.342 2829.57 868.118C2824.75 875.515 2819.78 883.15 2819.23 894.066H2812.64C2812.09 883.15 2807.11 875.515 2802.29 868.118V868.118ZM2808.92 898.079H2822.94V912.255H2808.92V898.079ZM2828.93 916.269C2829.94 916.269 2830.76 917.175 2830.76 918.291V920.277H2801.1V918.291C2801.1 917.175 2801.93 916.269 2802.93 916.269H2828.93ZM2824.76 894.066H2822.86C2823.41 884.44 2827.84 877.638 2832.52 870.463C2836.34 864.604 2840.29 858.545 2841.74 850.961C2844.24 837.865 2841.96 823.526 2836.02 812.743C2845.76 819.933 2852.19 832.189 2852.19 846.075C2852.19 862.245 2843.62 871.859 2836.73 879.584C2832.96 883.814 2829.71 887.466 2828.22 891.558C2827.68 893.058 2826.28 894.066 2824.76 894.066V894.066Z" fill="#71606A"/>
<path d="M3807.96 270.076C3796.57 270.076 3787.31 279.342 3787.31 290.73C3787.31 294.533 3790.39 297.615 3794.19 297.615C3797.99 297.615 3801.08 294.533 3801.08 290.73C3801.08 286.934 3804.16 283.846 3807.96 283.846C3811.76 283.846 3814.85 286.934 3814.85 290.73C3814.85 294.533 3817.93 297.615 3821.73 297.615C3825.53 297.615 3828.62 294.533 3828.62 290.73C3828.62 279.342 3819.35 270.076 3807.96 270.076Z" fill="#957E8B"/>
<path d="M3863.04 270.076C3851.65 270.076 3842.38 279.342 3842.38 290.73C3842.38 294.533 3845.47 297.615 3849.27 297.615C3853.07 297.615 3856.15 294.533 3856.15 290.73C3856.15 286.934 3859.24 283.846 3863.04 283.846C3866.84 283.846 3869.92 286.934 3869.92 290.73C3869.92 294.533 3873.01 297.615 3876.81 297.615C3880.61 297.615 3883.69 294.533 3883.69 290.73C3883.69 279.342 3874.43 270.076 3863.04 270.076Z" fill="#957E8B"/>
<path d="M3863.04 311.385C3859.24 311.385 3856.15 314.467 3856.15 318.27C3856.15 329.658 3846.89 338.924 3835.5 338.924C3824.11 338.924 3814.85 329.658 3814.85 318.27C3814.85 314.467 3811.76 311.385 3807.96 311.385C3804.16 311.385 3801.08 314.467 3801.08 318.27C3801.08 337.251 3816.52 352.693 3835.5 352.693C3854.48 352.693 3869.92 337.251 3869.92 318.27C3869.92 314.467 3866.84 311.385 3863.04 311.385Z" fill="#957E8B"/>
<path d="M3835.5 228.768C3793.74 228.768 3759.77 262.741 3759.77 304.5C3759.77 346.259 3793.74 380.232 3835.5 380.232C3877.26 380.232 3911.23 346.259 3911.23 304.5C3911.23 262.741 3877.26 228.768 3835.5 228.768ZM3835.5 366.463C3801.33 366.463 3773.54 338.666 3773.54 304.5C3773.54 270.334 3801.33 242.537 3835.5 242.537C3869.67 242.537 3897.46 270.334 3897.46 304.5C3897.46 338.666 3869.67 366.463 3835.5 366.463Z" fill="#957E8B"/>
<path d="M3835.5 187C3831.7 187 3828.62 190.083 3828.62 193.885V208.113C3828.62 211.916 3831.7 214.998 3835.5 214.998C3839.3 214.998 3842.38 211.916 3842.38 208.113V193.885C3842.38 190.083 3839.3 187 3835.5 187Z" fill="#957E8B"/>
<path d="M3835.5 394.002C3831.7 394.002 3828.62 397.084 3828.62 400.887V415.115C3828.62 418.917 3831.7 422 3835.5 422C3839.3 422 3842.38 418.917 3842.38 415.115V400.887C3842.38 397.084 3839.3 394.002 3835.5 394.002Z" fill="#957E8B"/>
<path d="M3739.11 297.615H3724.88C3721.08 297.615 3718 300.698 3718 304.5C3718 308.302 3721.08 311.385 3724.88 311.385H3739.11C3742.92 311.385 3746 308.302 3746 304.5C3746 300.698 3742.92 297.615 3739.11 297.615Z" fill="#957E8B"/>
<path d="M3946.12 297.615H3931.89C3928.08 297.615 3925 300.698 3925 304.5C3925 308.302 3928.08 311.385 3931.89 311.385H3946.12C3949.92 311.385 3953 308.302 3953 304.5C3953 300.698 3949.92 297.615 3946.12 297.615Z" fill="#957E8B"/>
<path d="M3793.27 217.584L3786.38 205.66C3784.48 202.367 3780.27 201.238 3776.98 203.14C3773.69 205.041 3772.56 209.252 3774.46 212.544L3781.34 224.469C3783.25 227.764 3787.46 228.889 3790.75 226.989C3794.04 225.088 3795.17 220.877 3793.27 217.584Z" fill="#957E8B"/>
<path d="M3896.54 396.456L3889.66 384.531C3887.75 381.238 3883.54 380.11 3880.25 382.011C3876.96 383.912 3875.83 388.123 3877.73 391.415L3884.62 403.34C3886.52 406.635 3890.73 407.76 3894.02 405.86C3897.31 403.959 3898.44 399.748 3896.54 396.456Z" fill="#957E8B"/>
<path d="M3757.99 349.251C3756.09 345.958 3751.88 344.83 3748.58 346.731L3736.66 353.616C3733.37 355.517 3732.24 359.728 3734.14 363.021C3736.04 366.315 3740.25 367.441 3743.54 365.54L3755.47 358.656C3758.76 356.755 3759.89 352.544 3757.99 349.251Z" fill="#957E8B"/>
<path d="M3936.86 245.979C3934.96 242.687 3930.75 241.558 3927.46 243.46L3915.53 250.344C3912.24 252.245 3911.11 256.456 3913.01 259.749C3914.91 263.044 3919.12 264.169 3922.42 262.269L3934.34 255.384C3937.63 253.483 3938.76 249.272 3936.86 245.979Z" fill="#957E8B"/>
<path d="M3755.47 250.345L3743.54 243.46C3740.25 241.557 3736.04 242.687 3734.14 245.98C3732.24 249.272 3733.37 253.483 3736.66 255.384L3748.58 262.269C3751.88 264.17 3756.09 263.043 3757.99 259.749C3759.89 256.456 3758.76 252.246 3755.47 250.345Z" fill="#957E8B"/>
<path d="M3934.34 353.616L3922.42 346.731C3919.12 344.829 3914.91 345.958 3913.01 349.251C3911.11 352.544 3912.24 356.754 3915.53 358.655L3927.46 365.54C3930.75 367.441 3934.96 366.314 3936.86 363.02C3938.76 359.728 3937.63 355.517 3934.34 353.616Z" fill="#957E8B"/>
<path d="M3790.75 382.011C3787.46 380.109 3783.25 381.238 3781.34 384.531L3774.46 396.456C3772.56 399.748 3773.69 403.959 3776.98 405.86C3780.27 407.761 3784.48 406.634 3786.38 403.34L3793.27 391.416C3795.17 388.123 3794.04 383.912 3790.75 382.011Z" fill="#957E8B"/>
<path d="M3894.02 203.14C3890.73 201.238 3886.52 202.366 3884.62 205.66L3877.73 217.585C3875.83 220.877 3876.96 225.088 3880.25 226.989C3883.54 228.89 3887.75 227.763 3889.66 224.469L3896.54 212.544C3898.44 209.252 3897.31 205.041 3894.02 203.14Z" fill="#957E8B"/>
<g clip-path="url(#clip2)">
<path d="M5231.82 59.4392C5230.98 58.7711 5229.92 58.4418 5228.86 58.5163H5212.71L5227.89 41.5581L5229.32 39.9815L5230.05 39.0586C5230.3 38.702 5230.51 38.3141 5230.66 37.905C5230.84 37.4642 5230.93 36.9946 5230.93 36.5207C5231.04 35.3993 5230.48 34.3178 5229.51 33.752C5228.25 33.1723 5226.86 32.9079 5225.47 32.9829H5206.59C5205.58 32.9142 5204.59 33.2151 5203.78 33.8289C5203.12 34.3927 5202.75 35.2281 5202.78 36.0977C5202.78 37.4051 5203.22 38.1997 5204.09 38.4818C5205.34 38.837 5206.64 38.9928 5207.94 38.9433H5220.24C5219.73 39.6609 5219.06 40.5069 5218.24 41.4812L5215.09 45.019L5210.82 49.6335L5205.86 55.1324C5204.14 57.0551 5203.01 58.337 5202.48 58.9778C5201.26 60.4606 5201.41 62.6395 5202.82 63.9383C5203.84 64.7026 5205.09 65.0713 5206.36 64.9766H5228.82C5229.89 65.0607 5230.96 64.7459 5231.82 64.0921C5232.47 63.5216 5232.84 62.6905 5232.82 61.8234C5232.85 60.9202 5232.48 60.0482 5231.82 59.4392Z" fill="#957E8B"/>
<path d="M5265.85 79.0892C5265.18 78.5509 5264.32 78.2899 5263.46 78.3586H5250.54L5262.66 64.8228L5263.81 63.5539L5264.54 62.6694C5264.75 62.3849 5264.92 62.0748 5265.04 61.7465C5265.19 61.3923 5265.27 61.0145 5265.27 60.6314C5265.37 59.7339 5264.93 58.8625 5264.16 58.401C5263.15 57.9367 5262.04 57.7252 5260.93 57.7858H5245.7C5244.9 57.7411 5244.1 57.9867 5243.47 58.4779C5242.94 58.925 5242.64 59.5912 5242.66 60.2853C5242.66 61.3106 5243.01 61.9518 5243.7 62.208C5244.7 62.4853 5245.74 62.6021 5246.78 62.5541H5256.62C5256.24 63.1309 5255.7 63.7846 5255 64.5921L5252.47 67.4377L5249.16 71.2831L5245.31 75.6668C5243.93 77.205 5243.02 78.2562 5242.58 78.8201C5241.68 79.9823 5241.79 81.6407 5242.85 82.6655C5243.66 83.2658 5244.66 83.5528 5245.66 83.473H5263.5C5264.36 83.5412 5265.2 83.2951 5265.89 82.7808C5266.4 82.3199 5266.68 81.6594 5266.66 80.9735C5266.67 80.2578 5266.38 79.5699 5265.85 79.0892Z" fill="#957E8B"/>
<path d="M5306.19 57.478C5305.35 56.8099 5304.29 56.4806 5303.23 56.5551H5286.96L5302.15 39.597L5303.57 38.0204L5304.49 36.9052C5304.75 36.5485 5304.96 36.1606 5305.11 35.7516C5305.28 35.3108 5305.38 34.8412 5305.38 34.3672C5305.49 33.2458 5304.93 32.1643 5303.96 31.5985C5302.69 31.0189 5301.31 30.755 5299.92 30.8295H5280.85C5279.84 30.7607 5278.84 31.0616 5278.04 31.6755C5277.38 32.2393 5277.01 33.0747 5277.04 33.9442C5277.04 35.2517 5277.47 36.0462 5278.35 36.3284C5279.6 36.6836 5280.89 36.8393 5282.19 36.7898H5294.5C5293.98 37.5075 5293.32 38.3535 5292.5 39.3278L5289.31 42.9425L5285.15 47.5569L5280.19 53.0558C5278.47 54.9785 5277.35 56.2605 5276.81 56.9012C5275.59 58.3841 5275.74 60.563 5277.15 61.8618C5278.17 62.626 5279.43 62.9947 5280.69 62.9H5303.11C5304.2 63.0365 5305.29 62.7621 5306.19 62.131C5306.84 61.5604 5307.21 60.7293 5307.19 59.8622C5307.22 58.959 5306.85 58.087 5306.19 57.478Z" fill="#957E8B"/>
<path d="M5292.92 122.234C5291.82 121.1 5290.15 120.75 5288.69 121.35C5247.01 138.603 5199.24 118.803 5181.98 77.1246C5173.22 55.96 5173.75 32.0888 5183.44 11.3333C5184.35 9.41344 5183.53 7.12111 5181.61 6.21312C5180.62 5.74686 5179.49 5.72139 5178.48 6.14198C5132.79 24.9118 5110.96 77.1697 5129.73 122.863C5148.5 168.556 5200.76 190.382 5246.45 171.613C5267.29 163.052 5284.14 146.942 5293.61 126.502C5294.28 125.073 5294.01 123.38 5292.92 122.234ZM5212.51 170.686C5167.34 170.679 5130.73 134.053 5130.74 88.8809C5130.74 59.2194 5146.8 31.8854 5172.71 17.4474C5169.65 26.5543 5168.09 36.1014 5168.1 45.7111C5168.1 95.1306 5208.17 135.191 5257.59 135.189C5265.87 135.189 5274.11 134.038 5282.08 131.771C5267.16 155.884 5240.86 170.596 5212.51 170.686Z" fill="#957E8B"/>
</g>
<path d="M3859.64 615.263H3868.55C3868.55 597.389 3883.05 582.882 3900.93 582.882V573.972C3878.16 573.972 3859.64 592.445 3859.64 615.263Z" fill="#957E8B"/>
<path d="M4048.33 583.154H4047.95C4045.72 559.9 4026.05 541.7 4002.25 541.7C3997.31 541.7 3992.47 542.515 3987.8 544.036C3976.66 533.604 3962.32 527.845 3947 527.845C3926.63 527.845 3907.56 538.44 3896.64 555.663C3867.08 557.781 3843.45 581.415 3841.38 610.971C3823.18 613.199 3809 628.683 3809 647.481C3809 667.692 3825.46 684.155 3845.67 684.155H4002.25C4019.37 684.155 4033.71 672.365 4037.79 656.5H4048.33C4068.54 656.5 4085 640.038 4085 619.827C4085 599.616 4068.54 583.154 4048.33 583.154ZM4002.25 675.244H3845.67C3830.35 675.244 3817.91 662.803 3817.91 647.481C3817.91 632.16 3830.35 619.718 3845.67 619.718H3850.13V615.263C3850.13 587.229 3872.95 564.464 3900.93 564.464C3925.27 564.464 3939.5 582.122 3939.5 582.122C3939.5 582.122 3946.95 578.264 3956.18 578.264C3976.56 578.264 3993.18 594.835 3993.18 615.263V619.718H4002.25C4017.58 619.718 4030.02 632.16 4030.02 647.481C4030.07 662.803 4017.58 675.244 4002.25 675.244ZM4048.33 647.644H4038.98C4038.98 647.59 4038.98 647.536 4038.98 647.481C4038.98 627.27 4022.52 610.808 4002.31 610.808H4001.87C3999.65 587.555 3979.98 569.354 3956.18 569.354C3951.24 569.354 3946.4 570.169 3941.73 571.69C3932.22 562.726 3920.27 557.292 3907.45 555.934C3917.01 544.036 3931.52 536.81 3946.95 536.81C3972.81 536.81 3985.52 554.467 3985.52 554.467C3985.52 554.467 3992.09 550.61 4002.2 550.61C4022.57 550.61 4039.2 567.181 4039.2 587.609V592.064H4048.27C4063.59 592.064 4076.04 604.506 4076.04 619.827C4076.09 635.148 4063.65 647.644 4048.33 647.644Z" fill="#957E8B"/>
<path d="M4163.64 334.263H4172.55C4172.55 316.389 4187.05 301.882 4204.93 301.882V292.972C4182.16 292.972 4163.64 311.445 4163.64 334.263Z" fill="#957E8B"/>
<path d="M4352.33 302.154H4351.95C4349.72 278.9 4330.05 260.7 4306.25 260.7C4301.31 260.7 4296.47 261.515 4291.8 263.036C4280.66 252.604 4266.32 246.845 4251 246.845C4230.63 246.845 4211.56 257.44 4200.64 274.663C4171.08 276.781 4147.45 300.415 4145.38 329.971C4127.18 332.199 4113 347.683 4113 366.481C4113 386.692 4129.46 403.155 4149.67 403.155H4306.25C4323.37 403.155 4337.71 391.365 4341.79 375.5H4352.33C4372.54 375.5 4389 359.038 4389 338.827C4389 318.616 4372.54 302.154 4352.33 302.154ZM4306.25 394.244H4149.67C4134.35 394.244 4121.91 381.803 4121.91 366.481C4121.91 351.16 4134.35 338.718 4149.67 338.718H4154.13V334.263C4154.13 306.229 4176.95 283.464 4204.93 283.464C4229.27 283.464 4243.5 301.122 4243.5 301.122C4243.5 301.122 4250.95 297.264 4260.18 297.264C4280.56 297.264 4297.18 313.835 4297.18 334.263V338.718H4306.25C4321.58 338.718 4334.02 351.16 4334.02 366.481C4334.07 381.803 4321.58 394.244 4306.25 394.244ZM4352.33 366.644H4342.98C4342.98 366.59 4342.98 366.536 4342.98 366.481C4342.98 346.27 4326.52 329.808 4306.31 329.808H4305.87C4303.65 306.555 4283.98 288.354 4260.18 288.354C4255.24 288.354 4250.4 289.169 4245.73 290.69C4236.22 281.726 4224.27 276.292 4211.45 274.934C4221.01 263.036 4235.52 255.81 4250.95 255.81C4276.81 255.81 4289.52 273.467 4289.52 273.467C4289.52 273.467 4296.09 269.61 4306.2 269.61C4326.57 269.61 4343.2 286.181 4343.2 306.609V311.064H4352.27C4367.59 311.064 4380.04 323.506 4380.04 338.827C4380.09 354.148 4367.65 366.644 4352.33 366.644Z" fill="#957E8B"/>
<path d="M4970.64 314.263H4979.55C4979.55 296.389 4994.05 281.882 5011.93 281.882V272.972C4989.16 272.972 4970.64 291.445 4970.64 314.263Z" fill="#957E8B"/>
<path d="M5159.33 282.154H5158.95C5156.72 258.9 5137.05 240.7 5113.25 240.7C5108.31 240.7 5103.47 241.515 5098.8 243.036C5087.66 232.604 5073.32 226.845 5058 226.845C5037.63 226.845 5018.56 237.44 5007.64 254.663C4978.08 256.781 4954.45 280.415 4952.38 309.971C4934.18 312.199 4920 327.683 4920 346.481C4920 366.692 4936.46 383.155 4956.67 383.155H5113.25C5130.37 383.155 5144.71 371.365 5148.79 355.5H5159.33C5179.54 355.5 5196 339.038 5196 318.827C5196 298.616 5179.54 282.154 5159.33 282.154ZM5113.25 374.244H4956.67C4941.35 374.244 4928.91 361.803 4928.91 346.481C4928.91 331.16 4941.35 318.718 4956.67 318.718H4961.13V314.263C4961.13 286.229 4983.95 263.464 5011.93 263.464C5036.27 263.464 5050.5 281.122 5050.5 281.122C5050.5 281.122 5057.95 277.264 5067.18 277.264C5087.56 277.264 5104.18 293.835 5104.18 314.263V318.718H5113.25C5128.58 318.718 5141.02 331.16 5141.02 346.481C5141.07 361.803 5128.58 374.244 5113.25 374.244ZM5159.33 346.644H5149.98C5149.98 346.59 5149.98 346.536 5149.98 346.481C5149.98 326.27 5133.52 309.808 5113.31 309.808H5112.87C5110.65 286.555 5090.98 268.354 5067.18 268.354C5062.24 268.354 5057.4 269.169 5052.73 270.69C5043.22 261.726 5031.27 256.292 5018.45 254.934C5028.01 243.036 5042.52 235.81 5057.95 235.81C5083.81 235.81 5096.52 253.467 5096.52 253.467C5096.52 253.467 5103.09 249.61 5113.2 249.61C5133.57 249.61 5150.2 266.181 5150.2 286.609V291.064H5159.27C5174.59 291.064 5187.04 303.506 5187.04 318.827C5187.09 334.148 5174.65 346.644 5159.33 346.644Z" fill="#957E8B"/>
<path d="M4231.64 755.263H4240.55C4240.55 737.389 4255.05 722.882 4272.93 722.882V713.972C4250.16 713.972 4231.64 732.445 4231.64 755.263Z" fill="#957E8B"/>
<path d="M4420.33 723.154H4419.95C4417.72 699.9 4398.05 681.7 4374.25 681.7C4369.31 681.7 4364.47 682.515 4359.8 684.036C4348.66 673.604 4334.32 667.845 4319 667.845C4298.63 667.845 4279.56 678.44 4268.64 695.663C4239.08 697.781 4215.45 721.415 4213.38 750.971C4195.18 753.199 4181 768.683 4181 787.481C4181 807.692 4197.46 824.155 4217.67 824.155H4374.25C4391.37 824.155 4405.71 812.365 4409.79 796.5H4420.33C4440.54 796.5 4457 780.038 4457 759.827C4457 739.616 4440.54 723.154 4420.33 723.154ZM4374.25 815.244H4217.67C4202.35 815.244 4189.91 802.803 4189.91 787.481C4189.91 772.16 4202.35 759.718 4217.67 759.718H4222.13V755.263C4222.13 727.229 4244.95 704.464 4272.93 704.464C4297.27 704.464 4311.5 722.122 4311.5 722.122C4311.5 722.122 4318.95 718.264 4328.18 718.264C4348.56 718.264 4365.18 734.835 4365.18 755.263V759.718H4374.25C4389.58 759.718 4402.02 772.16 4402.02 787.481C4402.07 802.803 4389.58 815.244 4374.25 815.244ZM4420.33 787.644H4410.98C4410.98 787.59 4410.98 787.536 4410.98 787.481C4410.98 767.27 4394.52 750.808 4374.31 750.808H4373.87C4371.65 727.555 4351.98 709.354 4328.18 709.354C4323.24 709.354 4318.4 710.169 4313.73 711.69C4304.22 702.726 4292.27 697.292 4279.45 695.934C4289.01 684.036 4303.52 676.81 4318.95 676.81C4344.81 676.81 4357.52 694.467 4357.52 694.467C4357.52 694.467 4364.09 690.61 4374.2 690.61C4394.57 690.61 4411.2 707.181 4411.2 727.609V732.064H4420.27C4435.59 732.064 4448.04 744.506 4448.04 759.827C4448.09 775.148 4435.65 787.644 4420.33 787.644Z" fill="#957E8B"/>
<path d="M4630.64 487.263H4639.55C4639.55 469.389 4654.05 454.882 4671.93 454.882V445.972C4649.16 445.972 4630.64 464.445 4630.64 487.263Z" fill="#957E8B"/>
<path d="M4819.33 455.154H4818.95C4816.72 431.9 4797.05 413.7 4773.25 413.7C4768.31 413.7 4763.47 414.515 4758.8 416.036C4747.66 405.604 4733.32 399.845 4718 399.845C4697.63 399.845 4678.56 410.44 4667.64 427.663C4638.08 429.781 4614.45 453.415 4612.38 482.971C4594.18 485.199 4580 500.683 4580 519.481C4580 539.692 4596.46 556.155 4616.67 556.155H4773.25C4790.37 556.155 4804.71 544.365 4808.79 528.5H4819.33C4839.54 528.5 4856 512.038 4856 491.827C4856 471.616 4839.54 455.154 4819.33 455.154ZM4773.25 547.244H4616.67C4601.35 547.244 4588.91 534.803 4588.91 519.481C4588.91 504.16 4601.35 491.718 4616.67 491.718H4621.13V487.263C4621.13 459.229 4643.95 436.464 4671.93 436.464C4696.27 436.464 4710.5 454.122 4710.5 454.122C4710.5 454.122 4717.95 450.264 4727.18 450.264C4747.56 450.264 4764.18 466.835 4764.18 487.263V491.718H4773.25C4788.58 491.718 4801.02 504.16 4801.02 519.481C4801.07 534.803 4788.58 547.244 4773.25 547.244ZM4819.33 519.644H4809.98C4809.98 519.59 4809.98 519.536 4809.98 519.481C4809.98 499.27 4793.52 482.808 4773.31 482.808H4772.87C4770.65 459.555 4750.98 441.354 4727.18 441.354C4722.24 441.354 4717.4 442.169 4712.73 443.69C4703.22 434.726 4691.27 429.292 4678.45 427.934C4688.01 416.036 4702.52 408.81 4717.95 408.81C4743.81 408.81 4756.52 426.467 4756.52 426.467C4756.52 426.467 4763.09 422.61 4773.2 422.61C4793.57 422.61 4810.2 439.181 4810.2 459.609V464.064H4819.27C4834.59 464.064 4847.04 476.506 4847.04 491.827C4847.09 507.148 4834.65 519.644 4819.33 519.644Z" fill="#957E8B"/>
<path d="M3741.64 896.263H3750.55C3750.55 878.389 3765.05 863.882 3782.93 863.882V854.972C3760.16 854.972 3741.64 873.445 3741.64 896.263Z" fill="#957E8B"/>
<path d="M3930.33 864.154H3929.95C3927.72 840.9 3908.05 822.7 3884.25 822.7C3879.31 822.7 3874.47 823.515 3869.8 825.036C3858.66 814.604 3844.32 808.845 3829 808.845C3808.63 808.845 3789.56 819.44 3778.64 836.663C3749.08 838.781 3725.45 862.415 3723.38 891.971C3705.18 894.199 3691 909.683 3691 928.481C3691 948.692 3707.46 965.155 3727.67 965.155H3884.25C3901.37 965.155 3915.71 953.365 3919.79 937.5H3930.33C3950.54 937.5 3967 921.038 3967 900.827C3967 880.616 3950.54 864.154 3930.33 864.154ZM3884.25 956.244H3727.67C3712.35 956.244 3699.91 943.803 3699.91 928.481C3699.91 913.16 3712.35 900.718 3727.67 900.718H3732.13V896.263C3732.13 868.229 3754.95 845.464 3782.93 845.464C3807.27 845.464 3821.5 863.122 3821.5 863.122C3821.5 863.122 3828.95 859.264 3838.18 859.264C3858.56 859.264 3875.18 875.835 3875.18 896.263V900.718H3884.25C3899.58 900.718 3912.02 913.16 3912.02 928.481C3912.07 943.803 3899.58 956.244 3884.25 956.244ZM3930.33 928.644H3920.98C3920.98 928.59 3920.98 928.536 3920.98 928.481C3920.98 908.27 3904.52 891.808 3884.31 891.808H3883.87C3881.65 868.555 3861.98 850.354 3838.18 850.354C3833.24 850.354 3828.4 851.169 3823.73 852.69C3814.22 843.726 3802.27 838.292 3789.45 836.934C3799.01 825.036 3813.52 817.81 3828.95 817.81C3854.81 817.81 3867.52 835.467 3867.52 835.467C3867.52 835.467 3874.09 831.61 3884.2 831.61C3904.57 831.61 3921.2 848.181 3921.2 868.609V873.064H3930.27C3945.59 873.064 3958.04 885.506 3958.04 900.827C3958.09 916.148 3945.65 928.644 3930.33 928.644Z" fill="#957E8B"/>
<path d="M3487.64 513.263H3496.55C3496.55 495.389 3511.05 480.882 3528.93 480.882V471.972C3506.16 471.972 3487.64 490.445 3487.64 513.263Z" fill="#957E8B"/>
<path d="M3676.33 481.154H3675.95C3673.72 457.9 3654.05 439.7 3630.25 439.7C3625.31 439.7 3620.47 440.515 3615.8 442.036C3604.66 431.604 3590.32 425.845 3575 425.845C3554.63 425.845 3535.56 436.44 3524.64 453.663C3495.08 455.781 3471.45 479.415 3469.38 508.971C3451.18 511.199 3437 526.683 3437 545.481C3437 565.692 3453.46 582.155 3473.67 582.155H3630.25C3647.37 582.155 3661.71 570.365 3665.79 554.5H3676.33C3696.54 554.5 3713 538.038 3713 517.827C3713 497.616 3696.54 481.154 3676.33 481.154ZM3630.25 573.244H3473.67C3458.35 573.244 3445.91 560.803 3445.91 545.481C3445.91 530.16 3458.35 517.718 3473.67 517.718H3478.13V513.263C3478.13 485.229 3500.95 462.464 3528.93 462.464C3553.27 462.464 3567.5 480.122 3567.5 480.122C3567.5 480.122 3574.95 476.264 3584.18 476.264C3604.56 476.264 3621.18 492.835 3621.18 513.263V517.718H3630.25C3645.58 517.718 3658.02 530.16 3658.02 545.481C3658.07 560.803 3645.58 573.244 3630.25 573.244ZM3676.33 545.644H3666.98C3666.98 545.59 3666.98 545.536 3666.98 545.481C3666.98 525.27 3650.52 508.808 3630.31 508.808H3629.87C3627.65 485.555 3607.98 467.354 3584.18 467.354C3579.24 467.354 3574.4 468.169 3569.73 469.69C3560.22 460.726 3548.27 455.292 3535.45 453.934C3545.01 442.036 3559.52 434.81 3574.95 434.81C3600.81 434.81 3613.52 452.467 3613.52 452.467C3613.52 452.467 3620.09 448.61 3630.2 448.61C3650.57 448.61 3667.2 465.181 3667.2 485.609V490.064H3676.27C3691.59 490.064 3704.04 502.506 3704.04 517.827C3704.09 533.148 3691.65 545.644 3676.33 545.644Z" fill="#957E8B"/>
<path d="M4970.64 804.263H4979.55C4979.55 786.389 4994.05 771.882 5011.93 771.882V762.972C4989.16 762.972 4970.64 781.445 4970.64 804.263Z" fill="#957E8B"/>
<path d="M5159.33 772.154H5158.95C5156.72 748.9 5137.05 730.7 5113.25 730.7C5108.31 730.7 5103.47 731.515 5098.8 733.036C5087.66 722.604 5073.32 716.845 5058 716.845C5037.63 716.845 5018.56 727.44 5007.64 744.663C4978.08 746.781 4954.45 770.415 4952.38 799.971C4934.18 802.199 4920 817.683 4920 836.481C4920 856.692 4936.46 873.155 4956.67 873.155H5113.25C5130.37 873.155 5144.71 861.365 5148.79 845.5H5159.33C5179.54 845.5 5196 829.038 5196 808.827C5196 788.616 5179.54 772.154 5159.33 772.154ZM5113.25 864.244H4956.67C4941.35 864.244 4928.91 851.803 4928.91 836.481C4928.91 821.16 4941.35 808.718 4956.67 808.718H4961.13V804.263C4961.13 776.229 4983.95 753.464 5011.93 753.464C5036.27 753.464 5050.5 771.122 5050.5 771.122C5050.5 771.122 5057.95 767.264 5067.18 767.264C5087.56 767.264 5104.18 783.835 5104.18 804.263V808.718H5113.25C5128.58 808.718 5141.02 821.16 5141.02 836.481C5141.07 851.803 5128.58 864.244 5113.25 864.244ZM5159.33 836.644H5149.98C5149.98 836.59 5149.98 836.536 5149.98 836.481C5149.98 816.27 5133.52 799.808 5113.31 799.808H5112.87C5110.65 776.555 5090.98 758.354 5067.18 758.354C5062.24 758.354 5057.4 759.169 5052.73 760.69C5043.22 751.726 5031.27 746.292 5018.45 744.934C5028.01 733.036 5042.52 725.81 5057.95 725.81C5083.81 725.81 5096.52 743.467 5096.52 743.467C5096.52 743.467 5103.09 739.61 5113.2 739.61C5133.57 739.61 5150.2 756.181 5150.2 776.609V781.064H5159.27C5174.59 781.064 5187.04 793.506 5187.04 808.827C5187.09 824.148 5174.65 836.644 5159.33 836.644Z" fill="#957E8B"/>
<path d="M3903.41 433.874C3904.41 433.874 3905.23 432.976 3905.23 431.867V429.579C3905.23 428.47 3904.41 427.572 3903.41 427.572C3902.41 427.572 3901.59 428.47 3901.59 429.579V431.867C3901.59 432.976 3902.41 433.874 3903.41 433.874ZM3890.93 435.632C3892.72 435.632 3894.42 434.778 3895.59 433.287C3896.25 432.451 3896.17 431.184 3895.42 430.456C3894.66 429.727 3893.51 429.815 3892.85 430.65C3892.37 431.266 3891.67 431.618 3890.93 431.618C3890.2 431.618 3889.5 431.266 3889.01 430.65C3888.35 429.815 3887.21 429.728 3886.45 430.456C3885.69 431.184 3885.61 432.451 3886.27 433.287C3887.45 434.777 3889.15 435.632 3890.93 435.632ZM3878.45 433.874C3879.46 433.874 3880.27 432.976 3880.27 431.867V429.579C3880.27 428.47 3879.46 427.572 3878.45 427.572C3877.45 427.572 3876.64 428.47 3876.64 429.579V431.867C3876.64 432.976 3877.45 433.874 3878.45 433.874ZM3890.93 475.97C3891.32 475.97 3891.7 475.887 3892.07 475.723C3894.32 474.716 3898.1 472.347 3901.36 468.983C3905.4 464.814 3907.54 460.238 3907.54 455.749C3907.54 449.755 3903.12 444.878 3897.7 444.878C3895.14 444.878 3892.74 445.957 3890.93 447.85C3889.13 445.957 3886.73 444.878 3884.17 444.878C3878.74 444.878 3874.33 449.755 3874.33 455.749C3874.33 460.238 3876.46 464.814 3880.51 468.983C3883.77 472.346 3887.55 474.716 3889.8 475.723C3890.16 475.887 3890.55 475.97 3890.93 475.97ZM3877.96 455.749C3877.96 451.967 3880.74 448.891 3884.17 448.891C3886.3 448.891 3888.25 450.077 3889.4 452.063C3889.74 452.64 3890.31 452.989 3890.93 452.989C3891.55 452.989 3892.13 452.64 3892.46 452.063C3893.61 450.077 3895.57 448.891 3897.7 448.891C3901.12 448.891 3903.91 451.967 3903.91 455.749C3903.91 463.344 3895.17 469.908 3890.93 471.899C3886.7 469.909 3877.96 463.344 3877.96 455.749ZM3906.59 495.053C3907.81 491.709 3910.83 488.322 3914.32 484.401C3921.67 476.153 3930.83 465.89 3930.83 448.075C3930.83 429.417 3920.28 413.43 3905.42 407.01C3905.32 406.957 3905.22 406.914 3905.12 406.883C3900.71 405.022 3895.93 404 3890.93 404C3880.8 404 3871.13 408.205 3863.73 415.839C3862.99 416.595 3862.95 417.865 3863.64 418.676C3864.32 419.486 3865.47 419.531 3866.2 418.774C3867.67 417.268 3869.22 415.909 3870.86 414.704C3864.91 425.493 3862.62 439.849 3865.13 452.961C3866.58 460.545 3870.52 466.604 3874.34 472.463C3879.02 479.638 3883.45 486.44 3884 496.066H3882.11C3880.58 496.066 3879.19 495.058 3878.64 493.558C3877.16 489.467 3873.9 485.814 3870.13 481.584C3863.24 473.859 3854.67 464.245 3854.67 448.075C3854.67 440.007 3856.83 432.23 3860.92 425.585C3861.48 424.668 3861.27 423.42 3860.44 422.797C3859.61 422.174 3858.48 422.413 3857.92 423.329C3853.42 430.643 3851.04 439.2 3851.04 448.075C3851.04 465.89 3860.19 476.154 3867.54 484.401C3871.04 488.322 3874.06 491.709 3875.27 495.053C3876.15 497.48 3878.03 499.22 3880.29 499.834V514.256H3877.93C3874.92 514.256 3872.47 516.963 3872.47 520.291V522.381C3872.47 524.537 3874.06 526.291 3876.01 526.291H3876.24V534.482C3876.24 538.076 3878.89 541 3882.14 541H3899.72C3900.97 541 3902.16 540.574 3903.17 539.768C3903.99 539.119 3904.17 537.865 3903.58 536.967C3902.99 536.068 3901.86 535.866 3901.05 536.515C3900.66 536.823 3900.2 536.986 3899.72 536.986H3882.14C3880.89 536.986 3879.87 535.864 3879.87 534.482V526.291H3901.99V529.608C3901.99 530.716 3902.8 531.615 3903.81 531.615C3904.81 531.615 3905.62 530.716 3905.62 529.608V526.291H3905.85C3907.81 526.291 3909.39 524.536 3909.39 522.381V520.291C3909.39 516.963 3906.94 514.256 3903.93 514.256H3901.57V499.833C3903.83 499.219 3905.71 497.48 3906.59 495.053V495.053ZM3877.29 470.118C3873.53 464.342 3869.97 458.886 3868.68 452.132C3867.31 444.984 3867.5 436.951 3869.2 429.512C3870.93 421.971 3874.07 415.419 3878.27 410.525C3882.28 408.877 3886.56 408.014 3890.93 408.014C3895.39 408.014 3899.66 408.908 3903.61 410.54C3907.8 415.433 3910.93 421.978 3912.66 429.512C3914.37 436.951 3914.55 444.984 3913.18 452.132C3911.89 458.886 3908.34 464.342 3904.57 470.118C3899.75 477.515 3894.78 485.15 3894.23 496.066H3887.64C3887.09 485.15 3882.11 477.515 3877.29 470.118V470.118ZM3883.92 500.079H3897.94V514.255H3883.92V500.079ZM3903.93 518.269C3904.94 518.269 3905.76 519.175 3905.76 520.291V522.277H3876.1V520.291C3876.1 519.175 3876.93 518.269 3877.93 518.269H3903.93ZM3899.76 496.066H3897.86C3898.41 486.44 3902.84 479.638 3907.52 472.463C3911.34 466.604 3915.29 460.545 3916.74 452.961C3919.24 439.865 3916.96 425.526 3911.02 414.743C3920.76 421.933 3927.19 434.189 3927.19 448.075C3927.19 464.245 3918.62 473.859 3911.73 481.584C3907.96 485.814 3904.71 489.466 3903.22 493.558C3902.68 495.058 3901.28 496.066 3899.76 496.066V496.066Z" fill="#71606A"/>
<path d="M4705.41 825.874C4706.41 825.874 4707.23 824.976 4707.23 823.867V821.579C4707.23 820.47 4706.41 819.572 4705.41 819.572C4704.41 819.572 4703.59 820.47 4703.59 821.579V823.867C4703.59 824.976 4704.41 825.874 4705.41 825.874ZM4692.93 827.632C4694.72 827.632 4696.42 826.778 4697.59 825.287C4698.25 824.451 4698.17 823.184 4697.42 822.456C4696.66 821.727 4695.51 821.815 4694.85 822.65C4694.37 823.266 4693.67 823.618 4692.93 823.618C4692.2 823.618 4691.5 823.266 4691.01 822.65C4690.35 821.815 4689.21 821.728 4688.45 822.456C4687.69 823.184 4687.61 824.451 4688.27 825.287C4689.45 826.777 4691.15 827.632 4692.93 827.632ZM4680.45 825.874C4681.46 825.874 4682.27 824.976 4682.27 823.867V821.579C4682.27 820.47 4681.46 819.572 4680.45 819.572C4679.45 819.572 4678.64 820.47 4678.64 821.579V823.867C4678.64 824.976 4679.45 825.874 4680.45 825.874ZM4692.93 867.97C4693.32 867.97 4693.7 867.887 4694.07 867.723C4696.32 866.716 4700.1 864.347 4703.36 860.983C4707.4 856.814 4709.54 852.238 4709.54 847.749C4709.54 841.755 4705.12 836.878 4699.7 836.878C4697.14 836.878 4694.74 837.957 4692.93 839.85C4691.13 837.957 4688.73 836.878 4686.17 836.878C4680.74 836.878 4676.33 841.755 4676.33 847.749C4676.33 852.238 4678.46 856.814 4682.51 860.983C4685.77 864.346 4689.55 866.716 4691.8 867.723C4692.16 867.887 4692.55 867.97 4692.93 867.97ZM4679.96 847.749C4679.96 843.967 4682.74 840.891 4686.17 840.891C4688.3 840.891 4690.25 842.077 4691.4 844.063C4691.74 844.64 4692.31 844.989 4692.93 844.989C4693.55 844.989 4694.13 844.64 4694.46 844.063C4695.61 842.077 4697.57 840.891 4699.7 840.891C4703.12 840.891 4705.91 843.967 4705.91 847.749C4705.91 855.344 4697.17 861.908 4692.93 863.899C4688.7 861.909 4679.96 855.344 4679.96 847.749ZM4708.59 887.053C4709.81 883.709 4712.83 880.322 4716.32 876.401C4723.67 868.153 4732.83 857.89 4732.83 840.075C4732.83 821.417 4722.28 805.43 4707.42 799.01C4707.32 798.957 4707.22 798.914 4707.12 798.883C4702.71 797.022 4697.93 796 4692.93 796C4682.8 796 4673.13 800.205 4665.73 807.839C4664.99 808.595 4664.95 809.865 4665.64 810.676C4666.32 811.486 4667.47 811.531 4668.2 810.774C4669.67 809.268 4671.22 807.909 4672.86 806.704C4666.91 817.493 4664.62 831.849 4667.13 844.961C4668.58 852.545 4672.52 858.604 4676.34 864.463C4681.02 871.638 4685.45 878.44 4686 888.066H4684.11C4682.58 888.066 4681.19 887.058 4680.64 885.558C4679.16 881.467 4675.9 877.814 4672.13 873.584C4665.24 865.859 4656.67 856.245 4656.67 840.075C4656.67 832.007 4658.83 824.23 4662.92 817.585C4663.48 816.668 4663.27 815.42 4662.44 814.797C4661.61 814.174 4660.48 814.413 4659.92 815.329C4655.42 822.643 4653.04 831.2 4653.04 840.075C4653.04 857.89 4662.19 868.154 4669.54 876.401C4673.04 880.322 4676.06 883.709 4677.27 887.053C4678.15 889.48 4680.03 891.22 4682.29 891.834V906.256H4679.93C4676.92 906.256 4674.47 908.963 4674.47 912.291V914.381C4674.47 916.537 4676.06 918.291 4678.01 918.291H4678.24V926.482C4678.24 930.076 4680.89 933 4684.14 933H4701.72C4702.97 933 4704.16 932.574 4705.17 931.768C4705.99 931.119 4706.17 929.865 4705.58 928.967C4704.99 928.068 4703.86 927.866 4703.05 928.515C4702.66 928.823 4702.2 928.986 4701.72 928.986H4684.14C4682.89 928.986 4681.87 927.864 4681.87 926.482V918.291H4703.99V921.608C4703.99 922.716 4704.8 923.615 4705.81 923.615C4706.81 923.615 4707.62 922.716 4707.62 921.608V918.291H4707.85C4709.81 918.291 4711.39 916.536 4711.39 914.381V912.291C4711.39 908.963 4708.94 906.256 4705.93 906.256H4703.57V891.833C4705.83 891.219 4707.71 889.48 4708.59 887.053V887.053ZM4679.29 862.118C4675.53 856.342 4671.97 850.886 4670.68 844.132C4669.31 836.984 4669.5 828.951 4671.2 821.512C4672.93 813.971 4676.07 807.419 4680.27 802.525C4684.28 800.877 4688.56 800.014 4692.93 800.014C4697.39 800.014 4701.66 800.908 4705.61 802.54C4709.8 807.433 4712.93 813.978 4714.66 821.512C4716.37 828.951 4716.55 836.984 4715.18 844.132C4713.89 850.886 4710.34 856.342 4706.57 862.118C4701.75 869.515 4696.78 877.15 4696.23 888.066H4689.64C4689.09 877.15 4684.11 869.515 4679.29 862.118V862.118ZM4685.92 892.079H4699.94V906.255H4685.92V892.079ZM4705.93 910.269C4706.94 910.269 4707.76 911.175 4707.76 912.291V914.277H4678.1V912.291C4678.1 911.175 4678.93 910.269 4679.93 910.269H4705.93ZM4701.76 888.066H4699.86C4700.41 878.44 4704.84 871.638 4709.52 864.463C4713.34 858.604 4717.29 852.545 4718.74 844.961C4721.24 831.865 4718.96 817.526 4713.02 806.743C4722.76 813.933 4729.19 826.189 4729.19 840.075C4729.19 856.245 4720.62 865.859 4713.73 873.584C4709.96 877.814 4706.71 881.466 4705.22 885.558C4704.68 887.058 4703.28 888.066 4701.76 888.066V888.066Z" fill="#71606A"/>
<defs>
<clipPath id="clip0">
<rect x="1396" width="184.189" height="184.189" fill="white"/>
</clipPath>
<clipPath id="clip1">
<rect x="3246" y="6" width="184.189" height="184.189" fill="white"/>
</clipPath>
<clipPath id="clip2">
<rect x="5123" width="184.189" height="184.189" fill="white"/>
</clipPath>
</defs>
</svg>
