<svg width="1581" height="933" viewBox="0 0 1581 933" fill="none" xmlns="http://www.w3.org/2000/svg">
<path d="M80.9609 270.076C69.5722 270.076 60.3066 279.342 60.3066 290.73C60.3066 294.533 63.3892 297.615 67.1914 297.615C70.9936 297.615 74.0762 294.533 74.0762 290.73C74.0762 286.934 77.1647 283.846 80.9609 283.846C84.7572 283.846 87.8457 286.934 87.8457 290.73C87.8457 294.533 90.9282 297.615 94.7305 297.615C98.5327 297.615 101.615 294.533 101.615 290.73C101.615 279.342 92.3497 270.076 80.9609 270.076Z" fill="#957E8B"/>
<path d="M136.039 270.076C124.65 270.076 115.385 279.342 115.385 290.73C115.385 294.533 118.467 297.615 122.27 297.615C126.072 297.615 129.154 294.533 129.154 290.73C129.154 286.934 132.243 283.846 136.039 283.846C139.835 283.846 142.924 286.934 142.924 290.73C142.924 294.533 146.006 297.615 149.809 297.615C153.611 297.615 156.693 294.533 156.693 290.73C156.693 279.342 147.428 270.076 136.039 270.076Z" fill="#957E8B"/>
<path d="M136.039 311.385C132.237 311.385 129.154 314.467 129.154 318.27C129.154 329.658 119.889 338.924 108.5 338.924C97.1112 338.924 87.8457 329.658 87.8457 318.27C87.8457 314.467 84.7632 311.385 80.9609 311.385C77.1587 311.385 74.0762 314.467 74.0762 318.27C74.0762 337.251 89.5187 352.693 108.5 352.693C127.481 352.693 142.924 337.251 142.924 318.27C142.924 314.467 139.841 311.385 136.039 311.385Z" fill="#957E8B"/>
<path d="M108.5 228.768C66.7411 228.768 32.7676 262.741 32.7676 304.5C32.7676 346.259 66.7411 380.232 108.5 380.232C150.259 380.232 184.232 346.259 184.232 304.5C184.232 262.741 150.259 228.768 108.5 228.768ZM108.5 366.463C74.3337 366.463 46.5371 338.666 46.5371 304.5C46.5371 270.334 74.3337 242.537 108.5 242.537C142.666 242.537 170.463 270.334 170.463 304.5C170.463 338.666 142.666 366.463 108.5 366.463Z" fill="#957E8B"/>
<path d="M108.5 187C104.698 187 101.615 190.083 101.615 193.885V208.113C101.615 211.916 104.698 214.998 108.5 214.998C112.302 214.998 115.385 211.916 115.385 208.113V193.885C115.385 190.083 112.302 187 108.5 187Z" fill="#957E8B"/>
<path d="M108.5 394.002C104.698 394.002 101.615 397.084 101.615 400.887V415.115C101.615 418.917 104.698 422 108.5 422C112.302 422 115.385 418.917 115.385 415.115V400.887C115.385 397.084 112.302 394.002 108.5 394.002Z" fill="#957E8B"/>
<path d="M12.1133 297.615H-2.11523C-5.91746 297.615 -9 300.698 -9 304.5C-9 308.302 -5.91746 311.385 -2.11523 311.385H12.1133C15.9155 311.385 18.998 308.302 18.998 304.5C18.998 300.698 15.9155 297.615 12.1133 297.615Z" fill="#957E8B"/>
<path d="M219.115 297.615H204.887C201.084 297.615 198.002 300.698 198.002 304.5C198.002 308.302 201.084 311.385 204.887 311.385H219.115C222.917 311.385 226 308.302 226 304.5C226 300.698 222.917 297.615 219.115 297.615Z" fill="#957E8B"/>
<path d="M66.2689 217.584L59.3841 205.66C57.483 202.367 53.2727 201.238 49.9795 203.14C46.6867 205.041 45.5586 209.252 47.4597 212.544L54.3444 224.469C56.2465 227.764 60.4581 228.889 63.749 226.989C67.0418 225.088 68.17 220.877 66.2689 217.584Z" fill="#957E8B"/>
<path d="M169.54 396.456L162.656 384.531C160.755 381.238 156.544 380.11 153.251 382.011C149.958 383.912 148.83 388.123 150.731 391.416L157.616 403.34C159.518 406.635 163.73 407.76 167.02 405.86C170.313 403.959 171.441 399.748 169.54 396.456Z" fill="#957E8B"/>
<path d="M30.989 349.251C29.0879 345.958 24.8771 344.83 21.5844 346.731L9.65952 353.616C6.36677 355.517 5.23858 359.728 7.1397 363.02C9.04173 366.315 13.2534 367.44 16.5443 365.54L28.4692 358.656C31.7619 356.754 32.8901 352.544 30.989 349.251Z" fill="#957E8B"/>
<path d="M209.86 245.979C207.959 242.687 203.748 241.558 200.456 243.46L188.531 250.344C185.238 252.246 184.11 256.456 186.011 259.749C187.913 263.044 192.125 264.169 195.416 262.269L207.34 255.384C210.633 253.483 211.761 249.272 209.86 245.979Z" fill="#957E8B"/>
<path d="M28.4692 250.344L16.5443 243.46C13.2511 241.557 9.04035 242.687 7.1397 245.979C5.23858 249.272 6.36677 253.483 9.65952 255.384L21.5844 262.269C24.8758 264.17 29.0879 263.043 30.989 259.749C32.8901 256.456 31.7619 252.246 28.4692 250.344Z" fill="#957E8B"/>
<path d="M207.34 353.616L195.416 346.731C192.122 344.829 187.911 345.958 186.011 349.251C184.11 352.544 185.238 356.754 188.531 358.656L200.456 365.54C203.747 367.441 207.959 366.314 209.86 363.021C211.761 359.728 210.633 355.517 207.34 353.616Z" fill="#957E8B"/>
<path d="M63.749 382.011C60.4558 380.109 56.2451 381.238 54.3444 384.531L47.4597 396.456C45.5586 399.748 46.6867 403.959 49.9795 405.86C53.2709 407.761 57.483 406.634 59.3841 403.34L66.2689 391.416C68.17 388.123 67.0418 383.912 63.749 382.011Z" fill="#957E8B"/>
<path d="M167.02 203.14C163.727 201.238 159.517 202.366 157.616 205.66L150.731 217.584C148.83 220.877 149.958 225.088 153.251 226.989C156.542 228.89 160.754 227.763 162.656 224.469L169.54 212.544C171.441 209.252 170.313 205.041 167.02 203.14Z" fill="#957E8B"/>
<g clip-path="url(#clip0)">
<path d="M1504.82 59.4392C1503.98 58.771 1502.92 58.4418 1501.86 58.5163H1485.71L1500.89 41.5581L1502.32 39.9815L1503.05 39.0586C1503.3 38.702 1503.51 38.314 1503.66 37.905C1503.84 37.4642 1503.93 36.9946 1503.93 36.5207C1504.04 35.3992 1503.48 34.3177 1502.51 33.752C1501.25 33.1723 1499.86 32.9079 1498.47 32.9829H1479.59C1478.58 32.9142 1477.59 33.2151 1476.78 33.8289C1476.12 34.3927 1475.75 35.2281 1475.78 36.0977C1475.78 37.4051 1476.22 38.1996 1477.09 38.4818C1478.34 38.837 1479.64 38.9928 1480.94 38.9432H1493.24C1492.73 39.6609 1492.06 40.5069 1491.24 41.4812L1488.09 45.019L1483.82 49.6334L1478.86 55.1323C1477.14 57.055 1476.01 58.337 1475.48 58.9777C1474.26 60.4606 1474.41 62.6395 1475.82 63.9383C1476.84 64.7026 1478.09 65.0712 1479.36 64.9765H1501.82C1502.89 65.0607 1503.96 64.7458 1504.82 64.0921C1505.47 63.5215 1505.84 62.6905 1505.82 61.8233C1505.85 60.9201 1505.48 60.0482 1504.82 59.4392Z" fill="#957E8B"/>
<path d="M1538.85 79.0891C1538.18 78.5508 1537.32 78.2898 1536.46 78.3585H1523.54L1535.66 64.8227L1536.81 63.5538L1537.54 62.6693C1537.75 62.3848 1537.92 62.0747 1538.04 61.7464C1538.19 61.3922 1538.27 61.0144 1538.27 60.6313C1538.37 59.7338 1537.93 58.8624 1537.16 58.4009C1536.15 57.9366 1535.04 57.7251 1533.93 57.7857H1518.7C1517.9 57.741 1517.1 57.9866 1516.47 58.4778C1515.94 58.9249 1515.64 59.5911 1515.66 60.2852C1515.66 61.3105 1516.01 61.9517 1516.7 62.2079C1517.7 62.4852 1518.74 62.602 1519.78 62.554H1529.62C1529.24 63.1308 1528.7 63.7845 1528 64.592L1525.47 67.4376L1522.16 71.283L1518.31 75.6667C1516.93 77.2049 1516.02 78.2561 1515.58 78.82C1514.68 79.9822 1514.79 81.6406 1515.85 82.6654C1516.66 83.2657 1517.66 83.5527 1518.66 83.4729H1536.5C1537.36 83.5412 1538.2 83.295 1538.89 82.7807C1539.4 82.3198 1539.68 81.6593 1539.66 80.9734C1539.67 80.2577 1539.38 79.5698 1538.85 79.0891Z" fill="#957E8B"/>
<path d="M1579.19 57.478C1578.35 56.8099 1577.29 56.4806 1576.23 56.5551H1559.96L1575.15 39.597L1576.57 38.0204L1577.49 36.9052C1577.75 36.5485 1577.96 36.1606 1578.11 35.7516C1578.28 35.3108 1578.38 34.8412 1578.38 34.3672C1578.49 33.2458 1577.93 32.1643 1576.96 31.5986C1575.69 31.0189 1574.31 30.755 1572.92 30.8295H1553.85C1552.84 30.7607 1551.84 31.0616 1551.04 31.6755C1550.38 32.2393 1550.01 33.0747 1550.04 33.9442C1550.04 35.2517 1550.47 36.0462 1551.35 36.3284C1552.6 36.6836 1553.89 36.8393 1555.19 36.7898H1567.5C1566.98 37.5075 1566.32 38.3535 1565.5 39.3278L1562.31 42.9425L1558.15 47.5569L1553.19 53.0558C1551.47 54.9785 1550.35 56.2605 1549.81 56.9012C1548.59 58.3841 1548.74 60.563 1550.15 61.8618C1551.17 62.6261 1552.43 62.9947 1553.69 62.9H1576.11C1577.2 63.0366 1578.29 62.7621 1579.19 62.131C1579.84 61.5604 1580.21 60.7293 1580.19 59.8622C1580.22 58.959 1579.85 58.087 1579.19 57.478Z" fill="#957E8B"/>
<path d="M1565.92 122.234C1564.82 121.101 1563.15 120.75 1561.69 121.35C1520.01 138.603 1472.24 118.803 1454.98 77.1246C1446.22 55.9601 1446.75 32.0888 1456.44 11.3333C1457.35 9.41352 1456.53 7.12119 1454.61 6.21319C1453.62 5.74694 1452.49 5.72146 1451.48 6.14205C1405.79 24.9119 1383.96 77.1698 1402.73 122.863C1421.5 168.557 1473.76 190.382 1519.45 171.613C1540.29 163.052 1557.14 146.942 1566.61 126.502C1567.28 125.073 1567.01 123.38 1565.92 122.234ZM1485.51 170.686C1440.34 170.679 1403.73 134.053 1403.74 88.881C1403.74 59.2195 1419.8 31.8855 1445.71 17.4475C1442.65 26.5544 1441.09 36.1015 1441.1 45.7111C1441.1 95.1307 1481.17 135.191 1530.59 135.189C1538.87 135.189 1547.11 134.038 1555.08 131.771C1540.16 155.884 1513.86 170.596 1485.51 170.686Z" fill="#957E8B"/>
</g>
<path d="M132.636 615.263H141.546C141.546 597.389 156.053 582.882 173.928 582.882V573.972C151.163 573.972 132.636 592.444 132.636 615.263Z" fill="#957E8B"/>
<path d="M321.327 583.154H320.946C318.719 559.9 299.051 541.7 275.254 541.7C270.31 541.7 265.475 542.515 260.802 544.036C249.665 533.604 235.321 527.845 220 527.845C199.626 527.845 180.556 538.44 169.635 555.663C140.08 557.782 116.446 581.415 114.381 610.971C96.1803 613.199 82 628.683 82 647.482C82 667.693 98.4622 684.155 118.673 684.155H275.254C292.368 684.155 306.712 672.365 310.787 656.5H321.327C341.538 656.5 358 640.038 358 619.827C358 599.616 341.538 583.154 321.327 583.154ZM275.254 675.245H118.673C103.352 675.245 90.9102 662.803 90.9102 647.482C90.9102 632.16 103.352 619.719 118.673 619.719H123.128V615.263C123.128 587.229 145.947 564.464 173.928 564.464C198.268 564.464 212.502 582.122 212.502 582.122C212.502 582.122 219.946 578.264 229.182 578.264C249.556 578.264 266.181 594.835 266.181 615.263V619.719H275.254C290.576 619.719 303.017 632.16 303.017 647.482C303.072 662.803 290.576 675.245 275.254 675.245ZM321.327 647.645H311.982C311.982 647.59 311.982 647.536 311.982 647.482C311.982 627.271 295.52 610.808 275.309 610.808H274.874C272.646 587.555 252.979 569.354 229.182 569.354C224.238 569.354 219.402 570.169 214.73 571.69C205.222 562.726 193.269 557.293 180.447 555.934C190.009 544.036 204.516 536.81 219.946 536.81C245.807 536.81 258.52 554.467 258.52 554.467C258.52 554.467 265.094 550.61 275.2 550.61C295.574 550.61 312.199 567.181 312.199 587.609V592.064H321.272C336.594 592.064 349.035 604.506 349.035 619.827C349.09 635.148 336.648 647.645 321.327 647.645Z" fill="#957E8B"/>
<path d="M436.636 334.263H445.546C445.546 316.389 460.053 301.882 477.928 301.882V292.972C455.163 292.972 436.636 311.444 436.636 334.263Z" fill="#957E8B"/>
<path d="M625.327 302.154H624.946C622.719 278.9 603.051 260.7 579.254 260.7C574.31 260.7 569.475 261.515 564.802 263.036C553.665 252.604 539.321 246.845 524 246.845C503.626 246.845 484.556 257.44 473.635 274.663C444.08 276.782 420.446 300.415 418.381 329.971C400.18 332.199 386 347.683 386 366.482C386 386.693 402.462 403.155 422.673 403.155H579.254C596.368 403.155 610.712 391.365 614.787 375.5H625.327C645.538 375.5 662 359.038 662 338.827C662 318.616 645.538 302.154 625.327 302.154ZM579.254 394.245H422.673C407.352 394.245 394.91 381.803 394.91 366.482C394.91 351.16 407.352 338.719 422.673 338.719H427.128V334.263C427.128 306.229 449.947 283.464 477.928 283.464C502.268 283.464 516.502 301.122 516.502 301.122C516.502 301.122 523.946 297.264 533.182 297.264C553.556 297.264 570.181 313.835 570.181 334.263V338.719H579.254C594.576 338.719 607.017 351.16 607.017 366.482C607.072 381.803 594.576 394.245 579.254 394.245ZM625.327 366.645H615.982C615.982 366.59 615.982 366.536 615.982 366.482C615.982 346.271 599.52 329.808 579.309 329.808H578.874C576.646 306.555 556.979 288.354 533.182 288.354C528.238 288.354 523.402 289.169 518.73 290.69C509.222 281.726 497.269 276.293 484.447 274.934C494.009 263.036 508.516 255.81 523.946 255.81C549.807 255.81 562.52 273.467 562.52 273.467C562.52 273.467 569.094 269.61 579.2 269.61C599.574 269.61 616.199 286.181 616.199 306.609V311.064H625.272C640.594 311.064 653.035 323.506 653.035 338.827C653.09 354.148 640.648 366.645 625.327 366.645Z" fill="#957E8B"/>
<path d="M1243.64 314.263H1252.55C1252.55 296.389 1267.05 281.882 1284.93 281.882V272.972C1262.16 272.972 1243.64 291.444 1243.64 314.263Z" fill="#957E8B"/>
<path d="M1432.33 282.154H1431.95C1429.72 258.9 1410.05 240.7 1386.25 240.7C1381.31 240.7 1376.47 241.515 1371.8 243.036C1360.66 232.604 1346.32 226.845 1331 226.845C1310.63 226.845 1291.56 237.44 1280.64 254.663C1251.08 256.782 1227.45 280.415 1225.38 309.971C1207.18 312.199 1193 327.683 1193 346.482C1193 366.693 1209.46 383.155 1229.67 383.155H1386.25C1403.37 383.155 1417.71 371.365 1421.79 355.5H1432.33C1452.54 355.5 1469 339.038 1469 318.827C1469 298.616 1452.54 282.154 1432.33 282.154ZM1386.25 374.245H1229.67C1214.35 374.245 1201.91 361.803 1201.91 346.482C1201.91 331.16 1214.35 318.719 1229.67 318.719H1234.13V314.263C1234.13 286.229 1256.95 263.464 1284.93 263.464C1309.27 263.464 1323.5 281.122 1323.5 281.122C1323.5 281.122 1330.95 277.264 1340.18 277.264C1360.56 277.264 1377.18 293.835 1377.18 314.263V318.719H1386.25C1401.58 318.719 1414.02 331.16 1414.02 346.482C1414.07 361.803 1401.58 374.245 1386.25 374.245ZM1432.33 346.645H1422.98C1422.98 346.59 1422.98 346.536 1422.98 346.482C1422.98 326.271 1406.52 309.808 1386.31 309.808H1385.87C1383.65 286.555 1363.98 268.354 1340.18 268.354C1335.24 268.354 1330.4 269.169 1325.73 270.69C1316.22 261.726 1304.27 256.293 1291.45 254.934C1301.01 243.036 1315.52 235.81 1330.95 235.81C1356.81 235.81 1369.52 253.467 1369.52 253.467C1369.52 253.467 1376.09 249.61 1386.2 249.61C1406.57 249.61 1423.2 266.181 1423.2 286.609V291.064H1432.27C1447.59 291.064 1460.04 303.506 1460.04 318.827C1460.09 334.148 1447.65 346.645 1432.33 346.645Z" fill="#957E8B"/>
<path d="M504.636 755.263H513.546C513.546 737.389 528.053 722.882 545.928 722.882V713.972C523.163 713.972 504.636 732.444 504.636 755.263Z" fill="#957E8B"/>
<path d="M693.327 723.154H692.946C690.719 699.9 671.051 681.7 647.254 681.7C642.31 681.7 637.475 682.515 632.802 684.036C621.665 673.604 607.321 667.845 592 667.845C571.626 667.845 552.556 678.44 541.635 695.663C512.08 697.782 488.446 721.415 486.381 750.971C468.18 753.199 454 768.683 454 787.482C454 807.693 470.462 824.155 490.673 824.155H647.254C664.368 824.155 678.712 812.365 682.787 796.5H693.327C713.538 796.5 730 780.038 730 759.827C730 739.616 713.538 723.154 693.327 723.154ZM647.254 815.245H490.673C475.352 815.245 462.91 802.803 462.91 787.482C462.91 772.16 475.352 759.719 490.673 759.719H495.128V755.263C495.128 727.229 517.947 704.464 545.928 704.464C570.268 704.464 584.502 722.122 584.502 722.122C584.502 722.122 591.946 718.264 601.182 718.264C621.556 718.264 638.181 734.835 638.181 755.263V759.719H647.254C662.576 759.719 675.017 772.16 675.017 787.482C675.072 802.803 662.576 815.245 647.254 815.245ZM693.327 787.645H683.982C683.982 787.59 683.982 787.536 683.982 787.482C683.982 767.271 667.52 750.808 647.309 750.808H646.874C644.646 727.555 624.979 709.354 601.182 709.354C596.238 709.354 591.402 710.169 586.73 711.69C577.222 702.726 565.269 697.293 552.447 695.934C562.009 684.036 576.516 676.81 591.946 676.81C617.807 676.81 630.52 694.467 630.52 694.467C630.52 694.467 637.094 690.61 647.2 690.61C667.574 690.61 684.199 707.181 684.199 727.609V732.064H693.272C708.594 732.064 721.035 744.506 721.035 759.827C721.09 775.148 708.648 787.645 693.327 787.645Z" fill="#957E8B"/>
<path d="M903.636 487.263H912.546C912.546 469.389 927.053 454.882 944.928 454.882V445.972C922.163 445.972 903.636 464.444 903.636 487.263Z" fill="#957E8B"/>
<path d="M1092.33 455.154H1091.95C1089.72 431.9 1070.05 413.7 1046.25 413.7C1041.31 413.7 1036.47 414.515 1031.8 416.036C1020.66 405.604 1006.32 399.845 991 399.845C970.626 399.845 951.556 410.44 940.635 427.663C911.08 429.782 887.446 453.415 885.381 482.971C867.18 485.199 853 500.683 853 519.482C853 539.693 869.462 556.155 889.673 556.155H1046.25C1063.37 556.155 1077.71 544.365 1081.79 528.5H1092.33C1112.54 528.5 1129 512.038 1129 491.827C1129 471.616 1112.54 455.154 1092.33 455.154ZM1046.25 547.245H889.673C874.352 547.245 861.91 534.803 861.91 519.482C861.91 504.16 874.352 491.719 889.673 491.719H894.128V487.263C894.128 459.229 916.947 436.464 944.928 436.464C969.268 436.464 983.502 454.122 983.502 454.122C983.502 454.122 990.946 450.264 1000.18 450.264C1020.56 450.264 1037.18 466.835 1037.18 487.263V491.719H1046.25C1061.58 491.719 1074.02 504.16 1074.02 519.482C1074.07 534.803 1061.58 547.245 1046.25 547.245ZM1092.33 519.645H1082.98C1082.98 519.59 1082.98 519.536 1082.98 519.482C1082.98 499.271 1066.52 482.808 1046.31 482.808H1045.87C1043.65 459.555 1023.98 441.354 1000.18 441.354C995.238 441.354 990.402 442.169 985.73 443.69C976.222 434.726 964.269 429.293 951.447 427.934C961.009 416.036 975.516 408.81 990.946 408.81C1016.81 408.81 1029.52 426.467 1029.52 426.467C1029.52 426.467 1036.09 422.61 1046.2 422.61C1066.57 422.61 1083.2 439.181 1083.2 459.609V464.064H1092.27C1107.59 464.064 1120.04 476.506 1120.04 491.827C1120.09 507.148 1107.65 519.645 1092.33 519.645Z" fill="#957E8B"/>
<path d="M1243.64 804.263H1252.55C1252.55 786.389 1267.05 771.882 1284.93 771.882V762.972C1262.16 762.972 1243.64 781.444 1243.64 804.263Z" fill="#957E8B"/>
<path d="M1432.33 772.154H1431.95C1429.72 748.9 1410.05 730.7 1386.25 730.7C1381.31 730.7 1376.47 731.515 1371.8 733.036C1360.66 722.604 1346.32 716.845 1331 716.845C1310.63 716.845 1291.56 727.44 1280.64 744.663C1251.08 746.782 1227.45 770.415 1225.38 799.971C1207.18 802.199 1193 817.683 1193 836.482C1193 856.693 1209.46 873.155 1229.67 873.155H1386.25C1403.37 873.155 1417.71 861.365 1421.79 845.5H1432.33C1452.54 845.5 1469 829.038 1469 808.827C1469 788.616 1452.54 772.154 1432.33 772.154ZM1386.25 864.245H1229.67C1214.35 864.245 1201.91 851.803 1201.91 836.482C1201.91 821.16 1214.35 808.719 1229.67 808.719H1234.13V804.263C1234.13 776.229 1256.95 753.464 1284.93 753.464C1309.27 753.464 1323.5 771.122 1323.5 771.122C1323.5 771.122 1330.95 767.264 1340.18 767.264C1360.56 767.264 1377.18 783.835 1377.18 804.263V808.719H1386.25C1401.58 808.719 1414.02 821.16 1414.02 836.482C1414.07 851.803 1401.58 864.245 1386.25 864.245ZM1432.33 836.645H1422.98C1422.98 836.59 1422.98 836.536 1422.98 836.482C1422.98 816.271 1406.52 799.808 1386.31 799.808H1385.87C1383.65 776.555 1363.98 758.354 1340.18 758.354C1335.24 758.354 1330.4 759.169 1325.73 760.69C1316.22 751.726 1304.27 746.293 1291.45 744.934C1301.01 733.036 1315.52 725.81 1330.95 725.81C1356.81 725.81 1369.52 743.467 1369.52 743.467C1369.52 743.467 1376.09 739.61 1386.2 739.61C1406.57 739.61 1423.2 756.181 1423.2 776.609V781.064H1432.27C1447.59 781.064 1460.04 793.506 1460.04 808.827C1460.09 824.148 1447.65 836.645 1432.33 836.645Z" fill="#957E8B"/>
<path d="M176.411 433.874C177.415 433.874 178.228 432.976 178.228 431.867V429.579C178.228 428.47 177.415 427.572 176.411 427.572C175.408 427.572 174.595 428.47 174.595 429.579V431.867C174.595 432.976 175.408 433.874 176.411 433.874ZM163.933 435.632C165.718 435.632 167.417 434.778 168.592 433.287C169.251 432.451 169.172 431.184 168.416 430.456C167.659 429.727 166.512 429.815 165.853 430.65C165.368 431.266 164.668 431.618 163.932 431.618C163.197 431.618 162.497 431.266 162.011 430.65C161.352 429.815 160.205 429.728 159.449 430.456C158.693 431.184 158.614 432.451 159.274 433.287C160.449 434.777 162.147 435.632 163.933 435.632ZM151.454 433.874C152.457 433.874 153.27 432.976 153.27 431.867V429.579C153.27 428.47 152.457 427.572 151.454 427.572C150.451 427.572 149.637 428.47 149.637 429.579V431.867C149.637 432.976 150.451 433.874 151.454 433.874ZM163.933 475.97C164.317 475.97 164.702 475.887 165.068 475.723C167.316 474.716 171.098 472.347 174.36 468.983C178.402 464.814 180.539 460.238 180.539 455.749C180.539 449.755 176.124 444.878 170.698 444.878C168.139 444.878 165.738 445.957 163.933 447.85C162.128 445.957 159.726 444.878 157.167 444.878C151.741 444.878 147.327 449.755 147.327 455.749C147.327 460.238 149.463 464.814 153.506 468.983C156.768 472.346 160.55 474.716 162.797 475.723C163.163 475.887 163.548 475.97 163.933 475.97ZM150.96 455.749C150.96 451.967 153.744 448.891 157.167 448.891C159.296 448.891 161.254 450.077 162.402 452.063C162.736 452.64 163.312 452.989 163.932 452.989C164.552 452.989 165.129 452.64 165.463 452.063C166.612 450.077 168.568 448.891 170.698 448.891C174.121 448.891 176.906 451.967 176.906 455.749C176.906 463.344 168.165 469.908 163.932 471.899C159.7 469.909 150.96 463.344 150.96 455.749ZM179.592 495.053C180.806 491.709 183.825 488.322 187.322 484.401C194.674 476.153 203.826 465.89 203.826 448.075C203.826 429.417 193.276 413.43 178.422 407.01C178.324 406.957 178.223 406.914 178.119 406.883C173.709 405.022 168.927 404 163.933 404C153.797 404 144.134 408.205 136.727 415.839C135.993 416.595 135.953 417.865 136.637 418.676C137.322 419.486 138.471 419.531 139.204 418.774C140.666 417.268 142.224 415.909 143.862 414.704C137.914 425.493 135.618 439.849 138.126 452.961C139.576 460.545 143.525 466.604 147.344 472.463C152.021 479.638 156.453 486.44 157 496.066H155.107C153.58 496.066 152.189 495.058 151.644 493.558C150.158 489.467 146.902 485.814 143.13 481.584C136.243 473.859 127.672 464.245 127.672 448.075C127.672 440.007 129.833 432.23 133.921 425.585C134.484 424.668 134.269 423.42 133.439 422.797C132.609 422.174 131.48 422.413 130.916 423.329C126.417 430.643 124.039 439.2 124.039 448.075C124.039 465.89 133.19 476.154 140.542 484.401C144.038 488.322 147.058 491.709 148.272 495.053C149.154 497.48 151.03 499.22 153.29 499.834V514.256H150.933C147.921 514.256 145.471 516.963 145.471 520.291V522.381C145.471 524.537 147.058 526.291 149.01 526.291H149.242V534.482C149.242 538.076 151.889 541 155.141 541H172.723C173.97 541 175.163 540.574 176.173 539.768C176.986 539.119 177.17 537.865 176.582 536.967C175.995 536.068 174.859 535.866 174.046 536.515C173.659 536.823 173.202 536.986 172.722 536.986H155.141C153.892 536.986 152.875 535.864 152.875 534.482V526.291H174.989V529.608C174.989 530.716 175.802 531.615 176.806 531.615C177.808 531.615 178.622 530.716 178.622 529.608V526.291H178.854C180.806 526.291 182.393 524.536 182.393 522.381V520.291C182.393 516.963 179.942 514.256 176.93 514.256H174.574V499.833C176.835 499.219 178.711 497.48 179.592 495.053ZM150.293 470.118C146.528 464.342 142.972 458.886 141.68 452.132C140.313 444.984 140.499 436.951 142.204 429.512C143.932 421.971 147.067 415.419 151.273 410.525C155.28 408.877 159.557 408.014 163.933 408.014C168.389 408.014 172.658 408.908 176.605 410.54C180.805 415.433 183.935 421.978 185.662 429.512C187.365 436.951 187.552 444.984 186.185 452.132C184.893 458.886 181.337 464.342 177.572 470.118C172.751 477.515 167.777 485.15 167.227 496.066H160.638C160.088 485.15 155.114 477.515 150.293 470.118ZM156.924 500.079H170.941V514.255H156.924V500.079ZM176.931 518.269C177.94 518.269 178.761 519.175 178.761 520.291V522.277H149.105V520.291C149.105 519.175 149.926 518.269 150.934 518.269H176.931ZM172.758 496.066H170.864C171.41 486.44 175.844 479.638 180.521 472.463C184.34 466.604 188.289 460.545 189.739 452.961C192.244 439.865 189.957 425.526 184.024 414.743C193.764 421.933 200.193 434.189 200.193 448.075C200.193 464.245 191.621 473.859 184.734 481.584C180.964 485.814 177.706 489.466 176.221 493.558C175.676 495.058 174.284 496.066 172.758 496.066Z" fill="#71606A"/>
<path d="M978.411 825.874C979.415 825.874 980.228 824.976 980.228 823.867V821.579C980.228 820.47 979.415 819.572 978.411 819.572C977.408 819.572 976.595 820.47 976.595 821.579V823.867C976.595 824.976 977.408 825.874 978.411 825.874ZM965.933 827.632C967.718 827.632 969.417 826.778 970.592 825.287C971.251 824.451 971.172 823.184 970.416 822.456C969.659 821.727 968.512 821.815 967.853 822.65C967.368 823.266 966.668 823.618 965.932 823.618C965.197 823.618 964.497 823.266 964.011 822.65C963.352 821.815 962.205 821.728 961.449 822.456C960.693 823.184 960.614 824.451 961.274 825.287C962.449 826.777 964.147 827.632 965.933 827.632ZM953.454 825.874C954.457 825.874 955.27 824.976 955.27 823.867V821.579C955.27 820.47 954.457 819.572 953.454 819.572C952.451 819.572 951.637 820.47 951.637 821.579V823.867C951.637 824.976 952.451 825.874 953.454 825.874ZM965.933 867.97C966.317 867.97 966.702 867.887 967.068 867.723C969.316 866.716 973.098 864.347 976.36 860.983C980.402 856.814 982.539 852.238 982.539 847.749C982.539 841.755 978.124 836.878 972.698 836.878C970.139 836.878 967.738 837.957 965.933 839.85C964.128 837.957 961.726 836.878 959.167 836.878C953.741 836.878 949.327 841.755 949.327 847.749C949.327 852.238 951.463 856.814 955.506 860.983C958.767 864.346 962.55 866.716 964.797 867.723C965.163 867.887 965.548 867.97 965.933 867.97ZM952.96 847.749C952.96 843.967 955.744 840.891 959.167 840.891C961.296 840.891 963.254 842.077 964.402 844.063C964.736 844.64 965.312 844.989 965.932 844.989C966.552 844.989 967.129 844.64 967.463 844.063C968.612 842.077 970.568 840.891 972.698 840.891C976.121 840.891 978.906 843.967 978.906 847.749C978.906 855.344 970.165 861.908 965.932 863.899C961.7 861.909 952.96 855.344 952.96 847.749ZM981.592 887.053C982.806 883.709 985.825 880.322 989.322 876.401C996.674 868.153 1005.83 857.89 1005.83 840.075C1005.83 821.417 995.276 805.43 980.422 799.01C980.324 798.957 980.223 798.914 980.119 798.883C975.709 797.022 970.927 796 965.933 796C955.797 796 946.134 800.205 938.727 807.839C937.993 808.595 937.953 809.865 938.637 810.676C939.322 811.486 940.471 811.531 941.204 810.774C942.666 809.268 944.224 807.909 945.862 806.704C939.914 817.493 937.618 831.849 940.126 844.961C941.576 852.545 945.525 858.604 949.344 864.463C954.021 871.638 958.453 878.44 959 888.066H957.107C955.58 888.066 954.189 887.058 953.644 885.558C952.158 881.467 948.902 877.814 945.13 873.584C938.243 865.859 929.672 856.245 929.672 840.075C929.672 832.007 931.833 824.23 935.921 817.585C936.484 816.668 936.269 815.42 935.439 814.797C934.609 814.174 933.48 814.413 932.916 815.329C928.417 822.643 926.039 831.2 926.039 840.075C926.039 857.89 935.19 868.154 942.542 876.401C946.038 880.322 949.058 883.709 950.272 887.053C951.154 889.48 953.03 891.22 955.29 891.834V906.256H952.933C949.921 906.256 947.471 908.963 947.471 912.291V914.381C947.471 916.537 949.058 918.291 951.01 918.291H951.242V926.482C951.242 930.076 953.889 933 957.141 933H974.723C975.97 933 977.163 932.574 978.173 931.768C978.986 931.119 979.17 929.865 978.582 928.967C977.995 928.068 976.859 927.866 976.046 928.515C975.659 928.823 975.202 928.986 974.722 928.986H957.141C955.892 928.986 954.875 927.864 954.875 926.482V918.291H976.989V921.608C976.989 922.716 977.802 923.615 978.806 923.615C979.808 923.615 980.622 922.716 980.622 921.608V918.291H980.854C982.805 918.291 984.393 916.536 984.393 914.381V912.291C984.393 908.963 981.942 906.256 978.93 906.256H976.574V891.833C978.835 891.219 980.711 889.48 981.592 887.053ZM952.293 862.118C948.528 856.342 944.972 850.886 943.68 844.132C942.313 836.984 942.499 828.951 944.204 821.512C945.932 813.971 949.067 807.419 953.273 802.525C957.28 800.877 961.557 800.014 965.933 800.014C970.389 800.014 974.658 800.908 978.605 802.54C982.805 807.433 985.935 813.978 987.662 821.512C989.365 828.951 989.552 836.984 988.185 844.132C986.893 850.886 983.337 856.342 979.572 862.118C974.751 869.515 969.777 877.15 969.227 888.066H962.638C962.088 877.15 957.114 869.515 952.293 862.118ZM958.924 892.079H972.941V906.255H958.924V892.079ZM978.931 910.269C979.94 910.269 980.761 911.175 980.761 912.291V914.277H951.105V912.291C951.105 911.175 951.926 910.269 952.934 910.269H978.931ZM974.758 888.066H972.864C973.41 878.44 977.844 871.638 982.521 864.463C986.34 858.604 990.289 852.545 991.739 844.961C994.244 831.865 991.957 817.526 986.024 806.743C995.764 813.933 1002.19 826.189 1002.19 840.075C1002.19 856.245 993.621 865.859 986.734 873.584C982.963 877.814 979.706 881.466 978.221 885.558C977.676 887.058 976.284 888.066 974.758 888.066Z" fill="#71606A"/>
<defs>
<clipPath id="clip0">
<rect x="1396" width="184.189" height="184.189" fill="white"/>
</clipPath>
</defs>
</svg>
