<svg width="1600" height="377" viewBox="0 0 1600 377" fill="none" xmlns="http://www.w3.org/2000/svg">
<path d="M0 249L111.5 213.875L158.5 201.5L225 188L295.5 179L372.5 171H424.5H476.5L539.5 175L555.5 176L563.125 176.5L565.062 176.75L567 177H571H586.5L604 178.5L618 181.812L639 186L664.5 190.25L726.5 201.5L786 214.75L808 219.5L832.5 223L867.5 226L905 228H964.5H1008.75H1053L1096.75 223L1140.5 218L1183.25 213.875L1226 209.75L1268.75 205.625L1311.5 201.5L1352 197.5L1410.5 190.25L1439 184.5L1458 180.5L1474 179H1491L1506 180.5L1518.75 183.25L1531.5 186L1600 208V377H0V249Z" fill="#957E8B"/>
<g clip-path="url(#clip0)">
<path d="M1085.54 225.72H1074.47V225.623C1074.47 222.225 1071.71 219.461 1068.31 219.461C1067.74 219.461 1067.19 219.541 1066.65 219.696V214.493C1070.32 214.171 1073.83 212.68 1076.6 210.195C1080.23 206.95 1082.3 202.301 1082.3 197.441C1082.3 194.418 1081.5 191.443 1079.98 188.838C1079.27 187.63 1078.97 186.163 1079.12 184.596C1079.27 182.899 1079.11 181.184 1078.63 179.5C1077.19 174.359 1072.87 170.461 1067.63 169.569C1063.5 168.865 1059.32 169.991 1056.16 172.656C1053 175.323 1051.19 179.221 1051.19 183.35C1051.19 183.728 1051.21 184.111 1051.24 184.488C1051.37 186.136 1051.07 187.659 1050.36 188.892C1050.07 189.378 1049.82 189.879 1049.58 190.391L1033.29 179.526C1031.74 178.495 1029.74 178.495 1028.19 179.526L1021.24 184.156V180.118H1021.34C1022.15 180.118 1022.81 179.463 1022.81 178.653C1022.81 177.844 1022.15 177.188 1021.34 177.188H1010.38C1009.57 177.188 1008.92 177.844 1008.92 178.653C1008.92 179.463 1009.57 180.118 1010.38 180.118H1010.48V191.179C1010.48 191.227 1010.49 191.276 1010.49 191.323L1007.33 193.43L1002.42 170.518C1002.28 169.843 1001.68 169.36 1000.99 169.36C1000.3 169.36 999.703 169.843 999.558 170.518L990.164 214.352C990.071 214.785 990.179 215.236 990.457 215.58C990.735 215.924 991.154 216.124 991.596 216.124H999.525V225.72H988.465C987.656 225.72 987 226.375 987 227.184C987 227.994 987.656 228.649 988.465 228.649H1085.54C1086.34 228.649 1087 227.994 1087 227.184C1087 226.375 1086.34 225.72 1085.54 225.72ZM1013.41 180.118H1018.31V186.109L1013.41 189.375V180.118ZM1005.79 225.72H1002.45V216.124H1005.79V225.72ZM1002.45 213.194V209.962C1002.45 209.153 1001.8 208.497 1000.99 208.497C1000.18 208.497 999.525 209.153 999.525 209.962V213.194H993.408L1000.99 177.816L1008.57 213.194H1002.45ZM1054.22 200.673C1053.89 200.673 1053.57 200.577 1053.3 200.393L1039.38 191.115C1038.71 190.666 1037.8 190.848 1037.35 191.521C1036.9 192.194 1037.08 193.104 1037.76 193.552L1051.67 202.83C1052.01 203.057 1052.38 203.233 1052.76 203.361V225.719H1008.72V216.124H1010.38C1010.83 216.124 1011.24 215.924 1011.52 215.58C1011.8 215.236 1011.91 214.785 1011.82 214.352L1009.4 203.1L1030.74 188.874L1033.06 190.421C1033.73 190.87 1034.64 190.688 1035.09 190.015C1035.54 189.342 1035.36 188.432 1034.68 187.983L1031.55 185.894C1031.06 185.566 1030.42 185.566 1029.92 185.894L1008.74 200.019L1007.99 196.511L1029.81 181.964C1030.37 181.59 1031.1 181.59 1031.66 181.964L1055.15 197.62C1055.52 197.867 1055.77 198.243 1055.86 198.68C1055.94 199.116 1055.86 199.561 1055.61 199.931C1055.3 200.396 1054.78 200.673 1054.22 200.673ZM1055.69 203.363C1056.64 203.043 1057.47 202.417 1058.05 201.557C1058.73 200.535 1058.97 199.31 1058.73 198.105C1058.49 196.902 1057.79 195.863 1056.77 195.183L1052.06 192.043C1052.3 191.466 1052.58 190.902 1052.89 190.361C1053.91 188.607 1054.34 186.493 1054.16 184.247C1054.13 183.95 1054.12 183.648 1054.12 183.35C1054.12 180.085 1055.55 177.003 1058.05 174.895C1060.58 172.757 1063.81 171.891 1067.14 172.457C1071.27 173.16 1074.68 176.235 1075.81 180.291C1076.19 181.632 1076.32 182.991 1076.2 184.332C1076 186.509 1076.43 188.579 1077.45 190.316C1078.71 192.473 1079.37 194.937 1079.37 197.441C1079.37 201.47 1077.65 205.323 1074.65 208.013C1072.38 210.049 1069.61 211.262 1066.65 211.561V205.27C1066.65 204.461 1065.99 203.805 1065.18 203.805C1064.37 203.805 1063.72 204.461 1063.72 205.27V211.557C1063.67 211.552 1063.62 211.55 1063.57 211.544C1060.67 211.226 1057.89 209.962 1055.69 207.968V203.363ZM1063.72 214.501V218.607C1062.72 218.143 1061.62 217.896 1060.48 217.896C1058.67 217.896 1057.01 218.524 1055.69 219.572V211.67C1057.96 213.191 1060.56 214.161 1063.25 214.456C1063.41 214.473 1063.56 214.488 1063.72 214.501ZM1071.55 225.72H1055.69V225.623C1055.69 222.978 1057.84 220.825 1060.48 220.825C1062 220.825 1063.39 221.534 1064.32 222.769C1064.55 223.081 1064.9 223.288 1065.28 223.343C1065.67 223.397 1066.06 223.295 1066.37 223.059C1066.95 222.622 1067.62 222.391 1068.31 222.391C1070.1 222.391 1071.55 223.841 1071.55 225.623V225.72Z" fill="#7E6975"/>
<path d="M1041.6 213.439V203.704C1041.6 202.895 1040.94 202.239 1040.13 202.239H1021.34C1020.53 202.239 1019.88 202.895 1019.88 203.704V213.439C1018.06 214.052 1016.75 215.772 1016.75 217.795C1016.75 220.329 1018.81 222.391 1021.34 222.391C1022.15 222.391 1022.81 221.735 1022.81 220.926C1022.81 220.117 1022.15 219.461 1021.34 219.461C1020.42 219.461 1019.68 218.714 1019.68 217.795C1019.68 216.876 1020.42 216.128 1021.34 216.128H1040.13C1041.05 216.128 1041.8 216.876 1041.8 217.795C1041.8 218.714 1041.05 219.461 1040.13 219.461H1027.61C1026.8 219.461 1026.14 220.117 1026.14 220.926C1026.14 221.735 1026.8 222.391 1027.61 222.391H1040.13C1042.67 222.391 1044.73 220.329 1044.73 217.795C1044.73 215.772 1043.41 214.053 1041.6 213.439ZM1029.27 213.198H1022.81V205.169H1029.27V213.198ZM1038.67 213.198H1032.2V205.169H1038.67V213.198Z" fill="#8D767F"/>
<path d="M1052.66 133.351C1047.53 133.351 1042.85 135.805 1039.94 139.972C1038.97 139.734 1037.99 139.613 1037 139.613C1031.27 139.613 1026.29 143.601 1024.95 149.071C1020.34 149.614 1016.75 153.546 1016.75 158.3C1016.75 158.97 1016.82 159.633 1016.96 160.284C1014.13 161.161 1012.05 163.82 1012.05 166.911C1012.05 167.951 1012.27 168.951 1012.72 169.885C1013.06 170.615 1013.94 170.927 1014.67 170.58C1015.4 170.234 1015.71 169.36 1015.36 168.629C1015.11 168.091 1014.98 167.513 1014.98 166.911C1014.98 164.749 1016.74 162.953 1018.91 162.907C1019.4 162.897 1019.85 162.643 1020.11 162.231C1020.38 161.818 1020.42 161.301 1020.22 160.853C1019.86 160.033 1019.68 159.174 1019.68 158.3C1019.68 154.817 1022.49 151.978 1025.96 151.937C1026.01 151.942 1026.07 151.948 1026.14 151.949C1026.15 151.949 1026.16 151.949 1026.16 151.949C1026.89 151.949 1027.51 151.413 1027.61 150.69C1028.27 146.045 1032.31 142.543 1037 142.543C1038.04 142.543 1039.08 142.72 1040.09 143.07C1040.75 143.296 1041.47 143.032 1041.83 142.438C1044.14 138.582 1048.19 136.28 1052.66 136.28C1059.62 136.28 1065.28 141.944 1065.28 148.906C1065.28 155.868 1059.62 161.532 1052.66 161.532C1049.94 161.532 1047.35 160.671 1045.15 159.04C1044.59 158.627 1043.82 158.661 1043.3 159.122C1041.56 160.677 1039.32 161.532 1037 161.532C1035.75 161.532 1034.53 161.29 1033.37 160.811C1032.69 160.528 1031.91 160.797 1031.54 161.436C1030.4 163.427 1028.29 164.664 1026.04 164.664C1025.6 164.664 1025.16 164.614 1024.69 164.511C1024.21 164.408 1023.71 164.549 1023.36 164.889C1023.01 165.228 1022.85 165.72 1022.94 166.201C1022.99 166.486 1023.01 166.712 1023.01 166.912C1023.01 168.896 1021.53 170.605 1019.57 170.886C1018.77 171.001 1018.21 171.743 1018.33 172.543C1018.43 173.274 1019.06 173.801 1019.78 173.801C1019.85 173.801 1019.92 173.796 1019.99 173.786C1023.15 173.332 1025.59 170.729 1025.91 167.592C1025.95 167.593 1026 167.594 1026.04 167.594C1028.93 167.594 1031.65 166.214 1033.39 163.928C1034.56 164.283 1035.77 164.462 1037 164.462C1039.65 164.462 1042.22 163.61 1044.35 162.042C1046.84 163.629 1049.69 164.462 1052.66 164.462C1061.23 164.462 1068.21 157.484 1068.21 148.906C1068.21 140.329 1061.23 133.351 1052.66 133.351Z" fill="#7E6975"/>
</g>
<path d="M1021.34 74.6337C1021.34 78.3296 1018.65 80.5774 1016.69 82.2269C1015.94 82.8517 1014.56 83.9917 1014.56 84.4175C1014.57 86.0879 1013.23 87.4218 1011.56 87.4218C1011.55 87.4218 1011.54 87.4218 1011.54 87.4218C1009.88 87.4218 1008.52 86.1289 1008.51 84.4669C1008.48 81.1911 1010.88 79.2293 1012.8 77.6164C1014.3 76.3507 1015.29 75.4601 1015.29 74.6451C1015.29 72.9952 1013.95 71.6529 1012.3 71.6529C1010.65 71.6529 1009.31 72.9952 1009.31 74.6451C1009.31 76.3158 1007.95 77.6699 1006.28 77.6699C1004.61 77.6699 1003.26 76.3158 1003.26 74.6451C1003.26 69.6595 1007.31 65.6033 1012.3 65.6033C1017.29 65.603 1021.34 69.6478 1021.34 74.6337ZM1011.62 90.214C1009.95 90.214 1008.66 91.5681 1008.66 93.2388V93.262C1008.66 94.9327 1009.95 96.2754 1011.62 96.2754C1013.29 96.2754 1014.64 94.9095 1014.64 93.2388C1014.64 91.5681 1013.29 90.214 1011.62 90.214ZM950.65 111.284C948.979 111.284 947.625 112.639 947.625 114.309C947.625 115.98 948.979 117.334 950.65 117.334H950.902C952.572 117.334 953.927 115.98 953.927 114.309C953.927 112.639 952.572 111.284 950.902 111.284H950.65ZM961.162 111.284C959.491 111.284 958.137 112.639 958.137 114.309C958.137 115.98 959.491 117.334 961.162 117.334H961.414C963.085 117.334 964.439 115.98 964.439 114.309C964.439 112.639 963.085 111.284 961.414 111.284H961.162ZM1050 62.9721V97.0181C1050 105.079 1043.54 111.62 1035.48 111.62H996.248C995.481 111.62 994.85 111.616 994.321 111.605C993.768 111.594 993.145 111.589 992.902 111.616C992.649 111.784 992.028 112.352 991.43 112.903C991.193 113.121 990.925 113.361 990.636 113.626L979.537 123.741C978.652 124.549 977.342 124.758 976.246 124.275C975.15 123.791 974.38 122.705 974.38 121.507V89.4387H942.694C937.968 89.4387 934.05 93.3114 934.05 98.0368V132.083C934.05 136.809 937.968 140.524 942.694 140.524H986.511C987.265 140.524 987.971 140.871 988.528 141.379L997.57 149.716V120.967C997.57 119.296 998.924 117.942 1000.6 117.942C1002.27 117.942 1003.62 119.296 1003.62 120.967V156.572C1003.62 157.77 1002.93 158.839 1001.84 159.323C1001.45 159.496 1001.05 159.564 1000.64 159.564C999.898 159.564 999.168 159.26 998.599 158.741L985.338 146.573H942.694C934.632 146.573 928 140.144 928 132.083V98.0368C928 89.9757 934.632 83.3891 942.694 83.3891H974.38V62.9721C974.38 54.9107 981.063 48.4359 989.125 48.4359H1035.48C1043.54 48.4359 1050 54.9107 1050 62.9721ZM1043.95 62.9721C1043.95 58.2463 1040.2 54.4855 1035.48 54.4855H989.125C984.399 54.4855 980.43 58.2463 980.43 62.9721V86.4421V114.651L986.511 109.155C986.793 108.898 987.108 108.663 987.339 108.451C990.116 105.892 990.826 105.483 994.449 105.557C994.943 105.568 995.531 105.571 996.248 105.571H1035.48C1040.2 105.571 1043.95 101.744 1043.95 97.0185V62.9721Z" fill="#7E6975"/>
<g clip-path="url(#clip1)">
<path d="M501.333 16.9958C482.953 16.9958 468 30.1571 468 46.3348C468 52.8505 470.477 59.2001 474.996 64.3249C474.876 66.8811 473.852 69.0886 471.944 70.896L468.98 73.7027L472.838 75.0382C474.055 75.4597 475.344 75.6729 476.671 75.6729C480.641 75.6729 484.165 73.7597 486.123 72.4407C490.813 74.5589 496.039 75.6721 501.334 75.6721C519.714 75.6721 534.668 62.5109 534.668 46.3348C534.667 30.1571 519.713 16.9958 501.333 16.9958ZM501.333 70.7134C496.284 70.7134 491.32 69.5514 486.976 67.3539L485.552 66.6332L484.307 67.6307C483.766 68.063 481.283 69.9489 478.364 70.5382C479.728 67.9076 480.022 65.2977 479.958 63.2894L479.927 62.3506L479.283 61.6679C475.145 57.2828 472.958 51.9803 472.958 46.3348C472.958 32.8918 485.687 21.9545 501.332 21.9545C516.979 21.9545 529.708 32.8918 529.708 46.3348C529.708 59.7778 516.98 70.7134 501.333 70.7134Z" fill="#957E8B"/>
<path d="M498.707 49.5947C498.724 48.5488 498.843 47.7227 499.062 47.1162C499.282 46.5098 499.73 45.8374 500.407 45.0991L502.134 43.3193C502.873 42.4844 503.242 41.5879 503.242 40.6299C503.242 39.707 503 38.9863 502.517 38.4678C502.033 37.9404 501.33 37.6768 500.407 37.6768C499.511 37.6768 498.79 37.9141 498.245 38.3887C497.7 38.8633 497.428 39.5005 497.428 40.3003H494.989C495.006 38.8765 495.512 37.7295 496.505 36.8594C497.507 35.9805 498.808 35.541 500.407 35.541C502.068 35.541 503.36 35.9893 504.283 36.8857C505.215 37.7734 505.681 38.9951 505.681 40.5508C505.681 42.0889 504.969 43.605 503.545 45.0991L502.108 46.5229C501.466 47.2349 501.146 48.2588 501.146 49.5947H498.707ZM498.601 53.7739C498.601 53.3784 498.72 53.0488 498.957 52.7852C499.203 52.5127 499.563 52.3765 500.038 52.3765C500.513 52.3765 500.873 52.5127 501.119 52.7852C501.365 53.0488 501.488 53.3784 501.488 53.7739C501.488 54.1694 501.365 54.499 501.119 54.7627C500.873 55.0176 500.513 55.145 500.038 55.145C499.563 55.145 499.203 55.0176 498.957 54.7627C498.72 54.499 498.601 54.1694 498.601 53.7739Z" fill="#5A4C54"/>
</g>
<path d="M365 144.32C363.038 144.32 361.445 145.913 361.445 147.875C361.445 149.837 363.038 151.43 365 151.43C366.962 151.43 368.555 149.837 368.555 147.875C368.555 145.913 366.962 144.32 365 144.32Z" fill="#957E8B"/>
<path d="M452.445 115.883H448.891V73.2266H452.445C454.409 73.2266 456 71.6348 456 69.6719C456 67.709 454.409 66.1172 452.445 66.1172C442.772 66.1172 419.565 66.1172 411.211 66.1172V46.2109C411.211 40.3308 406.427 35.5469 400.547 35.5469H387.479C389.047 32.241 389.883 28.6067 389.883 24.8828C389.883 11.1624 378.72 0 365 0C351.28 0 340.117 11.1624 340.117 24.8828C340.117 28.6067 340.953 32.241 342.521 35.5469H329.453C323.573 35.5469 318.789 40.3308 318.789 46.2109V66.1172C310.41 66.1172 287.152 66.1172 277.555 66.1172C275.591 66.1172 274 67.709 274 69.6719C274 71.6348 275.591 73.2266 277.555 73.2266H281.109V115.883H277.555C275.591 115.883 274 117.475 274 119.438C274 121.4 275.591 122.992 277.555 122.992H281.109V178.445C281.109 180.408 282.701 182 284.664 182C343.986 182 385.363 182 445.336 182C447.299 182 448.891 180.408 448.891 178.445V122.992H452.445C454.409 122.992 456 121.4 456 119.438C456 117.475 454.409 115.883 452.445 115.883ZM318.789 174.891H288.219V122.992H318.789V174.891ZM318.789 115.883H288.219V73.2266H318.789V115.883ZM365 7.10938C374.8 7.10938 382.773 15.0825 382.773 24.8828C382.773 29.2192 381.196 33.3906 378.33 36.6417C378.302 36.6712 378.275 36.7007 378.248 36.7309C374.878 40.4968 370.049 42.6562 365 42.6562C359.951 42.6562 355.122 40.4968 351.752 36.7309C351.725 36.7007 351.698 36.6712 351.67 36.6417C348.804 33.3906 347.227 29.2192 347.227 24.8828C347.227 15.0825 355.2 7.10938 365 7.10938ZM382.773 174.891H368.555V162.094C368.555 160.131 366.963 158.539 365 158.539C363.037 158.539 361.445 160.131 361.445 162.094V174.891H347.227V140.766C347.227 138.806 348.821 137.211 350.781 137.211H379.219C381.179 137.211 382.773 138.806 382.773 140.766V174.891ZM404.102 69.6719V174.891H389.883V140.766C389.883 134.885 385.099 130.102 379.219 130.102H350.781C344.901 130.102 340.117 134.885 340.117 140.766V174.891H325.898V69.6719V46.2109C325.898 44.2509 327.493 42.6562 329.453 42.6562H347.593C352.226 47.191 358.48 49.7656 365 49.7656C371.52 49.7656 377.774 47.191 382.407 42.6562H400.547C402.507 42.6562 404.102 44.2509 404.102 46.2109V69.6719ZM441.781 174.891H411.211V122.992H441.781V174.891ZM441.781 115.883H411.211V73.2266H441.781V115.883Z" fill="#957E8B"/>
<path d="M431.117 80.3359H421.875C419.912 80.3359 418.32 81.9277 418.32 83.8906C418.32 85.8535 419.912 87.4453 421.875 87.4453H431.117C433.08 87.4453 434.672 85.8535 434.672 83.8906C434.672 81.9277 433.08 80.3359 431.117 80.3359Z" fill="#957E8B"/>
<path d="M431.117 101.664H421.875C419.912 101.664 418.32 103.256 418.32 105.219C418.32 107.182 419.912 108.773 421.875 108.773H431.117C433.08 108.773 434.672 107.182 434.672 105.219C434.672 103.256 433.08 101.664 431.117 101.664Z" fill="#957E8B"/>
<path d="M431.117 130.102H421.875C419.912 130.102 418.32 131.693 418.32 133.656C418.32 135.619 419.912 137.211 421.875 137.211H431.117C433.08 137.211 434.672 135.619 434.672 133.656C434.672 131.693 433.08 130.102 431.117 130.102Z" fill="#957E8B"/>
<path d="M431.117 151.43H421.875C419.912 151.43 418.32 153.021 418.32 154.984C418.32 156.947 419.912 158.539 421.875 158.539H431.117C433.08 158.539 434.672 156.947 434.672 154.984C434.672 153.021 433.08 151.43 431.117 151.43Z" fill="#957E8B"/>
<path d="M308.125 151.43H298.883C296.92 151.43 295.328 153.021 295.328 154.984C295.328 156.947 296.92 158.539 298.883 158.539H308.125C310.088 158.539 311.68 156.947 311.68 154.984C311.68 153.021 310.088 151.43 308.125 151.43Z" fill="#957E8B"/>
<path d="M308.125 130.102H298.883C296.92 130.102 295.328 131.693 295.328 133.656C295.328 135.619 296.92 137.211 298.883 137.211H308.125C310.088 137.211 311.68 135.619 311.68 133.656C311.68 131.693 310.088 130.102 308.125 130.102Z" fill="#957E8B"/>
<path d="M308.125 101.664H298.883C296.92 101.664 295.328 103.256 295.328 105.219C295.328 107.182 296.92 108.773 298.883 108.773H308.125C310.088 108.773 311.68 107.182 311.68 105.219C311.68 103.256 310.088 101.664 308.125 101.664Z" fill="#957E8B"/>
<path d="M308.125 80.3359H298.883C296.92 80.3359 295.328 81.9277 295.328 83.8906C295.328 85.8535 296.92 87.4453 298.883 87.4453H308.125C310.088 87.4453 311.68 85.8535 311.68 83.8906C311.68 81.9277 310.088 80.3359 308.125 80.3359Z" fill="#957E8B"/>
<path d="M343.672 66.1172H336.562C334.599 66.1172 333.008 67.709 333.008 69.6719C333.008 71.6348 334.599 73.2266 336.562 73.2266H343.672C345.635 73.2266 347.227 71.6348 347.227 69.6719C347.227 67.709 345.635 66.1172 343.672 66.1172Z" fill="#957E8B"/>
<path d="M372.109 66.1172H357.891C355.927 66.1172 354.336 67.709 354.336 69.6719C354.336 71.6348 355.927 73.2266 357.891 73.2266H372.109C374.073 73.2266 375.664 71.6348 375.664 69.6719C375.664 67.709 374.073 66.1172 372.109 66.1172Z" fill="#957E8B"/>
<path d="M393.438 66.1172H386.328C384.365 66.1172 382.773 67.709 382.773 69.6719C382.773 71.6348 384.365 73.2266 386.328 73.2266H393.438C395.401 73.2266 396.992 71.6348 396.992 69.6719C396.992 67.709 395.401 66.1172 393.438 66.1172Z" fill="#957E8B"/>
<path d="M343.672 87.4453H336.562C334.599 87.4453 333.008 89.0371 333.008 91C333.008 92.9629 334.599 94.5547 336.562 94.5547H343.672C345.635 94.5547 347.227 92.9629 347.227 91C347.227 89.0371 345.635 87.4453 343.672 87.4453Z" fill="#957E8B"/>
<path d="M372.109 87.4453H357.891C355.927 87.4453 354.336 89.0371 354.336 91C354.336 92.9629 355.927 94.5547 357.891 94.5547H372.109C374.073 94.5547 375.664 92.9629 375.664 91C375.664 89.0371 374.073 87.4453 372.109 87.4453Z" fill="#957E8B"/>
<path d="M393.438 87.4453H386.328C384.365 87.4453 382.773 89.0371 382.773 91C382.773 92.9629 384.365 94.5547 386.328 94.5547H393.438C395.401 94.5547 396.992 92.9629 396.992 91C396.992 89.0371 395.401 87.4453 393.438 87.4453Z" fill="#957E8B"/>
<path d="M343.672 108.773H336.562C334.599 108.773 333.008 110.365 333.008 112.328C333.008 114.291 334.599 115.883 336.562 115.883H343.672C345.635 115.883 347.227 114.291 347.227 112.328C347.227 110.365 345.635 108.773 343.672 108.773Z" fill="#957E8B"/>
<path d="M372.109 108.773H357.891C355.927 108.773 354.336 110.365 354.336 112.328C354.336 114.291 355.927 115.883 357.891 115.883H372.109C374.073 115.883 375.664 114.291 375.664 112.328C375.664 110.365 374.073 108.773 372.109 108.773Z" fill="#957E8B"/>
<path d="M393.438 108.773H386.328C384.365 108.773 382.773 110.365 382.773 112.328C382.773 114.291 384.365 115.883 386.328 115.883H393.438C395.401 115.883 396.992 114.291 396.992 112.328C396.992 110.365 395.401 108.773 393.438 108.773Z" fill="#957E8B"/>
<path d="M372.109 21.3281H368.555V17.7734C368.555 15.8105 366.963 14.2188 365 14.2188C363.037 14.2188 361.445 15.8105 361.445 17.7734V21.3281H357.891C355.927 21.3281 354.336 22.9199 354.336 24.8828C354.336 26.8457 355.927 28.4375 357.891 28.4375H361.445V31.9922C361.445 33.9551 363.037 35.5469 365 35.5469C366.963 35.5469 368.555 33.9551 368.555 31.9922V28.4375H372.109C374.073 28.4375 375.664 26.8457 375.664 24.8828C375.664 22.9199 374.073 21.3281 372.109 21.3281Z" fill="#957E8B"/>
<g clip-path="url(#clip2)">
<path d="M695.145 186.065C693.46 185.695 691.785 186.782 691.411 188.487C691.037 190.192 692.104 191.88 693.789 192.249C695.474 192.619 697.149 191.532 697.523 189.827C697.896 188.122 696.83 186.434 695.145 186.065ZM694.103 190.815C693.2 190.617 692.628 189.712 692.828 188.797C693.029 187.883 693.927 187.3 694.831 187.498C695.734 187.697 696.306 188.602 696.106 189.516C695.905 190.431 695.007 191.014 694.103 190.815Z" fill="#71606A"/>
<path d="M694.711 188.044C694.32 187.958 693.932 188.209 693.845 188.605L693.672 189.397C693.585 189.793 693.832 190.184 694.223 190.27C694.614 190.355 695.002 190.104 695.089 189.708L695.262 188.916C695.349 188.52 695.102 188.129 694.711 188.044Z" fill="#71606A"/>
<path d="M720.183 191.556C718.498 191.186 716.823 192.273 716.449 193.978C716.075 195.683 717.141 197.371 718.826 197.74C720.511 198.11 722.186 197.023 722.56 195.318C722.934 193.613 721.867 191.925 720.183 191.556ZM719.141 196.306C718.237 196.108 717.665 195.203 717.866 194.288C718.066 193.374 718.964 192.791 719.868 192.989C720.772 193.188 721.344 194.093 721.143 195.007C720.943 195.922 720.044 196.505 719.141 196.306Z" fill="#71606A"/>
<path d="M719.748 193.535C719.357 193.449 718.97 193.7 718.883 194.096L718.709 194.888C718.622 195.284 718.869 195.675 719.26 195.76C719.652 195.846 720.039 195.595 720.126 195.199L720.3 194.407C720.387 194.011 720.14 193.62 719.748 193.535Z" fill="#71606A"/>
<path d="M730.963 194.749L730.106 194.562L730.469 192.909C730.469 192.907 730.47 192.905 730.47 192.903C730.471 192.901 730.471 192.899 730.471 192.898L730.887 191.004C731.324 189.01 730.211 187.025 728.297 186.387L716.909 182.587L715.42 175.469C715.102 173.949 713.926 172.755 712.425 172.426L703.116 170.384C702.725 170.298 702.337 170.55 702.251 170.946C702.164 171.342 702.411 171.732 702.802 171.818L712.111 173.86C712.864 174.025 713.485 174.535 713.81 175.219L712.354 174.9C712.118 174.848 711.871 174.919 711.696 175.089C711.521 175.259 711.441 175.505 711.482 175.746L712.639 182.501L710.917 190.353L702.38 188.481C702.127 185.296 699.994 182.488 696.888 181.501L697.276 179.735L710.092 182.546C710.328 182.598 710.575 182.527 710.75 182.357C710.925 182.187 711.005 181.941 710.964 181.7L709.782 174.802C709.732 174.509 709.512 174.277 709.225 174.213L700.282 172.252C700.028 172.197 699.763 172.283 699.588 172.479L694.622 178.029C694.448 178.223 694.389 178.496 694.468 178.745C694.546 178.994 694.749 179.181 695.002 179.236L695.859 179.424L695.321 181.875C695.234 182.271 695.481 182.661 695.872 182.747C698.563 183.337 700.492 185.55 700.881 188.152L699.871 187.93C699.421 185.873 697.833 184.164 695.666 183.689C693.499 183.213 691.342 184.102 690.072 185.781L684.726 184.609L684.845 184.064L687.267 184.595C687.658 184.681 688.046 184.429 688.132 184.033L688.653 181.657C688.74 181.261 688.493 180.871 688.102 180.785L685.742 180.267C685.939 179.976 686.296 179.818 686.655 179.896C686.656 179.896 686.656 179.896 686.656 179.896C686.657 179.896 686.658 179.896 686.659 179.896L692.917 181.269C693.308 181.355 693.695 181.103 693.782 180.707C693.869 180.311 693.622 179.921 693.231 179.835L688.192 178.73L688.93 177.905L691.426 178.452C691.68 178.508 691.945 178.422 692.12 178.226L697.086 172.675C697.26 172.481 697.318 172.208 697.24 171.959C697.162 171.711 696.958 171.523 696.706 171.468L695.051 171.105C695.634 170.617 696.415 170.417 697.164 170.582L700.157 171.238C700.548 171.324 700.936 171.072 701.023 170.676C701.11 170.28 700.863 169.89 700.472 169.804L697.478 169.148C696.104 168.846 694.663 169.316 693.717 170.374L686.527 178.41C685.436 178.386 684.439 179.147 684.193 180.265L683.151 185.016C683.151 185.017 683.151 185.018 683.151 185.019L682.457 188.183C682.37 188.579 682.617 188.969 683.008 189.055L689.063 190.383C689.513 192.44 691.1 194.15 693.268 194.625C695.435 195.1 697.592 194.212 698.862 192.532L700.996 193C700.999 193.001 701.001 193.002 701.004 193.002C701.007 193.003 701.009 193.003 701.012 193.004L710.609 195.108C710.612 195.109 710.614 195.11 710.616 195.11C710.619 195.111 710.621 195.111 710.624 195.112L714.1 195.874C714.55 197.931 716.138 199.641 718.305 200.116C720.472 200.591 722.63 199.703 723.899 198.023L729.954 199.351C730.345 199.437 730.733 199.185 730.819 198.789L731.514 195.622C731.601 195.226 731.354 194.835 730.963 194.749ZM696.537 178.07L700.379 173.777L708.435 175.543L709.349 180.88L696.537 178.07ZM693.896 172.355L695.171 172.634L691.329 176.928L690.054 176.649L693.896 172.355ZM685.366 181.688L687.079 182.064L686.873 183.006L685.16 182.63L685.366 181.688ZM688.943 188.854L684.031 187.776L684.411 186.043L689.323 187.12C689.216 187.393 689.129 187.677 689.064 187.972C688.999 188.267 688.96 188.561 688.943 188.854ZM693.582 193.191C691.384 192.709 689.993 190.507 690.481 188.283C690.969 186.058 693.154 184.641 695.352 185.123C697.55 185.605 698.941 187.807 698.453 190.031C697.965 192.255 695.78 193.673 693.582 193.191ZM700.61 191.412L699.611 191.193C699.718 190.921 699.805 190.637 699.87 190.342C699.935 190.047 699.974 189.752 699.991 189.46L700.931 189.666C700.907 189.958 700.865 190.252 700.8 190.546L700.61 191.412ZM710.223 193.521L702.027 191.723L702.217 190.857C702.281 190.563 702.327 190.271 702.358 189.979L710.603 191.787L710.223 193.521ZM713.097 176.566L714.216 176.811L715.342 182.195L714.011 181.903L713.097 176.566ZM713.98 194.345L711.64 193.831L712.02 192.098L714.36 192.611C714.254 192.884 714.166 193.168 714.101 193.463C714.037 193.758 713.997 194.052 713.98 194.345ZM718.62 198.682C716.422 198.2 715.03 195.998 715.518 193.774C716.006 191.549 718.191 190.132 720.389 190.614C722.587 191.096 723.978 193.298 723.49 195.522C723.003 197.746 720.818 199.164 718.62 198.682ZM724.908 193.422C724.458 191.365 722.871 189.655 720.703 189.18C718.536 188.705 716.379 189.593 715.109 191.273L712.334 190.664L713.93 183.388L713.93 183.388L716.09 183.862L727.836 187.781C728.629 188.045 729.203 188.675 729.427 189.433L727.31 188.969C727.122 188.927 726.926 188.963 726.763 189.069C726.601 189.174 726.486 189.34 726.445 189.53L725.924 191.906C725.837 192.302 726.084 192.693 726.475 192.778L728.896 193.309L728.689 194.251L724.908 193.422ZM729.417 190.934L729.21 191.875L727.498 191.5L727.704 190.558L729.417 190.934ZM729.56 197.761L724.649 196.684C724.755 196.412 724.843 196.128 724.907 195.833C724.972 195.538 725.012 195.243 725.029 194.951L729.94 196.028L729.56 197.761Z" fill="#71606A"/>
<path d="M705.402 184.164L703.837 183.821C703.446 183.735 703.059 183.987 702.972 184.383C702.885 184.779 703.132 185.169 703.523 185.255L705.088 185.598C705.479 185.684 705.867 185.433 705.953 185.037C706.04 184.641 705.794 184.25 705.402 184.164Z" fill="#71606A"/>
</g>
<line x1="702.885" y1="167.487" x2="685.885" y2="163.487" stroke="#705C67"/>
<line x1="677.108" y1="166.512" x2="686.108" y2="168.512" stroke="#705C67"/>
<line x1="669.112" y1="172.513" x2="682.112" y2="175.513" stroke="#705C67"/>
<line x1="679.892" y1="184.488" x2="670.892" y2="182.488" stroke="#705C67"/>
<line x1="673.894" y1="178.489" x2="650.894" y2="173.489" stroke="#705C67"/>
<path d="M622.104 169.073C620.504 169.073 619.343 171.06 619.343 173.797C619.343 176.535 620.504 178.522 622.104 178.522C623.704 178.522 624.865 176.535 624.865 173.797C624.865 171.06 623.704 169.073 622.104 169.073ZM622.104 176.391C621.858 176.144 621.429 175.249 621.429 173.797C621.429 172.345 621.858 171.451 622.104 171.203C622.351 171.451 622.779 172.346 622.779 173.797C622.779 175.249 622.351 176.144 622.104 176.391Z" fill="#957E8B"/>
<path d="M647.156 151.884C647.156 150.106 646.495 148.405 645.294 147.095C644.338 146.052 643.107 145.328 641.754 144.997C641.703 143.359 640.742 141.937 639.302 141.269C639.302 141.249 639.302 141.228 639.302 141.208C639.302 137.772 636.506 134.976 633.07 134.976C632.055 134.976 631.057 135.226 630.167 135.694C629.373 134.648 628.12 134 626.762 134C625.392 134 624.121 134.666 623.328 135.736C622.554 135.401 621.716 135.227 620.859 135.227C619.408 135.227 618.014 135.734 616.906 136.643C615.658 135.692 614.142 135.178 612.546 135.178C609.197 135.178 606.348 137.476 605.55 140.613C605.343 140.578 605.133 140.56 604.921 140.56C602.835 140.56 601.138 142.257 601.138 144.344C601.138 144.497 601.148 144.65 601.166 144.802C598.151 145.693 596 148.483 596 151.724C596 153.599 596.736 155.391 598.016 156.724C597.338 157.488 596.946 158.484 596.946 159.536C596.946 160.711 597.42 161.798 598.234 162.581C597.498 163.621 597.103 164.858 597.103 166.164C597.103 168.844 598.81 171.186 601.275 172.047C601.275 172.049 601.275 172.051 601.275 172.054C601.275 175.491 604.071 178.287 607.508 178.287C610.321 178.287 612.741 176.389 613.496 173.779C613.718 173.815 613.943 173.833 614.169 173.833C614.572 173.833 614.968 173.775 615.347 173.665C615.547 174.416 615.623 175.205 615.556 176.005L615.094 181.551C614.878 184.148 613.336 186.492 611.051 187.726H602.961C602.385 187.726 601.918 188.193 601.918 188.769C601.918 189.345 602.385 189.812 602.961 189.812H632.898C632.9 189.812 632.901 189.812 632.902 189.812C632.904 189.812 632.905 189.812 632.906 189.812H640.696C641.272 189.812 641.739 189.345 641.739 188.769C641.739 188.193 641.272 187.726 640.696 187.726H633.146C630.655 186.464 628.947 184.081 628.56 181.305L627.956 176.979C629.647 176.314 630.441 174.824 630.739 173.593C633.339 173.545 635.575 171.767 636.276 169.34C636.489 169.363 636.705 169.375 636.922 169.375C640.16 169.375 642.795 166.74 642.795 163.502C642.795 163.462 642.794 163.422 642.793 163.382C644.478 162.803 645.683 161.196 645.683 159.343C645.683 158.498 645.434 157.685 644.979 156.995C646.358 155.668 647.156 153.829 647.156 151.884ZM629.595 187.725H614.448C615.994 186.115 616.984 183.996 617.173 181.724L617.635 176.178C617.887 173.16 616.613 170.246 614.228 168.381L609.077 164.354L614.162 166.134C615.352 166.551 616.638 166.391 617.69 165.696C618.742 165.001 619.393 163.881 619.477 162.623L619.708 159.153C619.834 157.268 619.376 155.41 618.425 153.819C620.01 154.397 621.821 154.069 623.101 152.936C622.679 154.582 622.572 156.314 622.781 158.094L622.989 159.864C623.067 160.526 623.503 161.085 624.126 161.321C624.75 161.557 625.447 161.428 625.944 160.984L628.311 158.871L626.556 161.584C625.042 163.923 624.421 166.732 624.806 169.492L626.494 181.593C626.825 183.966 627.931 186.107 629.595 187.725ZM642.895 156.01C642.626 156.195 642.46 156.494 642.444 156.82C642.428 157.145 642.565 157.459 642.815 157.669C643.312 158.087 643.597 158.697 643.597 159.343C643.597 160.478 642.712 161.434 641.581 161.518C641.283 161.54 641.008 161.689 640.827 161.927C640.647 162.166 640.577 162.47 640.636 162.763C640.684 163.004 640.708 163.252 640.708 163.502C640.708 165.59 639.01 167.289 636.921 167.289C636.526 167.289 636.137 167.228 635.765 167.108C635.461 167.01 635.129 167.057 634.864 167.235C634.599 167.413 634.43 167.702 634.405 168.02C634.253 169.976 632.596 171.508 630.632 171.508C630.425 171.508 630.216 171.491 630.011 171.457C629.712 171.409 629.407 171.492 629.174 171.687C628.942 171.881 628.806 172.167 628.8 172.469C628.799 172.547 628.758 174.026 627.651 174.789L626.871 169.204C626.555 166.94 627.065 164.636 628.307 162.717L634.27 153.502C634.553 153.064 634.469 152.483 634.072 152.143C633.676 151.804 633.089 151.81 632.699 152.157L624.992 159.037L624.852 157.85C624.653 156.155 624.788 154.519 625.252 152.986C625.365 152.616 625.496 152.247 625.644 151.89L627.365 147.722C627.563 147.244 627.38 146.693 626.935 146.428C626.491 146.163 625.919 146.264 625.592 146.666L622.006 151.074C621.161 152.113 619.642 152.321 618.548 151.548L611.662 146.684C611.219 146.371 610.611 146.45 610.262 146.864C609.913 147.278 609.939 147.89 610.322 148.273L615.559 153.51C617.01 154.961 617.763 156.967 617.627 159.013L617.395 162.483C617.355 163.086 617.043 163.622 616.54 163.955C616.036 164.288 615.42 164.364 614.851 164.164L603.796 160.295C603.314 160.127 602.781 160.332 602.536 160.78C602.291 161.228 602.407 161.787 602.809 162.102L612.942 170.024C613.56 170.507 614.079 171.084 614.49 171.723C614.384 171.739 614.277 171.746 614.169 171.746C613.817 171.746 613.481 171.663 613.17 171.499C612.858 171.334 612.484 171.338 612.176 171.51C611.868 171.681 611.667 171.996 611.642 172.348C611.49 174.508 609.674 176.2 607.508 176.2C605.222 176.2 603.362 174.34 603.362 172.053C603.362 171.843 603.378 171.63 603.41 171.42C603.495 170.864 603.123 170.341 602.57 170.238C600.611 169.872 599.189 168.159 599.189 166.163C599.189 165.015 599.649 163.946 600.485 163.154C600.732 162.919 600.85 162.578 600.799 162.241C600.748 161.904 600.535 161.613 600.229 161.462C599.491 161.097 599.032 160.359 599.032 159.535C599.032 158.757 599.456 158.038 600.137 157.658C600.45 157.484 600.651 157.163 600.671 156.806C600.691 156.449 600.527 156.107 600.237 155.899C598.89 154.935 598.086 153.374 598.086 151.723C598.086 149.125 600.029 146.935 602.606 146.628C602.946 146.588 603.244 146.384 603.404 146.082C603.564 145.78 603.567 145.419 603.41 145.115C603.287 144.875 603.224 144.615 603.224 144.343C603.224 143.407 603.985 142.646 604.921 142.646C605.242 142.646 605.554 142.736 605.825 142.907C606.137 143.104 606.53 143.121 606.858 142.953C607.186 142.785 607.401 142.455 607.423 142.087C607.584 139.383 609.834 137.264 612.546 137.264C613.928 137.264 615.225 137.807 616.199 138.793C616.403 138.999 616.683 139.112 616.975 139.102C617.265 139.093 617.538 138.963 617.729 138.744C618.518 137.835 619.659 137.313 620.859 137.313C621.683 137.313 622.478 137.554 623.158 138.01C623.423 138.187 623.755 138.233 624.058 138.135C624.362 138.038 624.604 137.806 624.715 137.507C625.033 136.657 625.855 136.086 626.762 136.086C627.681 136.086 628.507 136.667 628.817 137.532C628.932 137.85 629.193 138.093 629.519 138.184C629.845 138.275 630.195 138.202 630.457 137.989C631.193 137.391 632.121 137.062 633.07 137.062C635.356 137.062 637.216 138.922 637.216 141.208C637.216 141.413 637.2 141.625 637.169 141.836C637.088 142.376 637.438 142.887 637.971 143.007C638.956 143.229 639.67 144.125 639.67 145.136C639.67 145.3 639.651 145.466 639.614 145.627C639.546 145.921 639.608 146.229 639.784 146.473C639.961 146.717 640.234 146.873 640.534 146.901C643.12 147.142 645.07 149.284 645.07 151.884C645.07 153.533 644.257 155.075 642.895 156.01Z" fill="#957E8B"/>
<path d="M954.104 209.073C952.504 209.073 951.343 211.06 951.343 213.797C951.343 216.535 952.504 218.522 954.104 218.522C955.704 218.522 956.865 216.535 956.865 213.797C956.865 211.06 955.704 209.073 954.104 209.073ZM954.104 216.391C953.858 216.144 953.429 215.249 953.429 213.797C953.429 212.345 953.858 211.451 954.104 211.203C954.351 211.451 954.779 212.346 954.779 213.797C954.779 215.249 954.351 216.144 954.104 216.391Z" fill="#957E8B"/>
<path d="M979.156 191.884C979.156 190.106 978.495 188.405 977.294 187.095C976.338 186.052 975.107 185.328 973.754 184.997C973.703 183.359 972.742 181.937 971.302 181.269C971.302 181.249 971.302 181.228 971.302 181.208C971.302 177.772 968.506 174.976 965.07 174.976C964.055 174.976 963.057 175.226 962.167 175.694C961.373 174.648 960.12 174 958.762 174C957.392 174 956.121 174.666 955.328 175.736C954.554 175.401 953.716 175.227 952.859 175.227C951.408 175.227 950.014 175.734 948.906 176.643C947.658 175.692 946.142 175.178 944.546 175.178C941.197 175.178 938.348 177.476 937.55 180.613C937.343 180.578 937.133 180.56 936.921 180.56C934.835 180.56 933.138 182.257 933.138 184.344C933.138 184.497 933.148 184.65 933.166 184.802C930.151 185.693 928 188.483 928 191.724C928 193.599 928.736 195.391 930.016 196.724C929.338 197.488 928.946 198.484 928.946 199.536C928.946 200.711 929.42 201.798 930.234 202.581C929.498 203.621 929.103 204.858 929.103 206.164C929.103 208.844 930.81 211.186 933.275 212.047C933.275 212.049 933.275 212.051 933.275 212.054C933.275 215.491 936.071 218.287 939.508 218.287C942.321 218.287 944.741 216.389 945.496 213.779C945.718 213.815 945.943 213.833 946.169 213.833C946.572 213.833 946.968 213.775 947.347 213.665C947.547 214.416 947.623 215.205 947.556 216.005L947.094 221.551C946.878 224.148 945.336 226.492 943.051 227.726H934.961C934.385 227.726 933.918 228.193 933.918 228.769C933.918 229.345 934.385 229.812 934.961 229.812H964.898C964.9 229.812 964.901 229.812 964.902 229.812C964.904 229.812 964.905 229.812 964.906 229.812H972.696C973.272 229.812 973.739 229.345 973.739 228.769C973.739 228.193 973.272 227.726 972.696 227.726H965.146C962.655 226.464 960.947 224.081 960.56 221.305L959.956 216.979C961.647 216.314 962.441 214.824 962.739 213.593C965.339 213.545 967.575 211.767 968.276 209.34C968.489 209.363 968.705 209.375 968.922 209.375C972.16 209.375 974.795 206.74 974.795 203.502C974.795 203.462 974.794 203.422 974.793 203.382C976.478 202.803 977.683 201.196 977.683 199.343C977.683 198.498 977.434 197.685 976.979 196.995C978.358 195.668 979.156 193.829 979.156 191.884ZM961.595 227.725H946.448C947.994 226.115 948.984 223.996 949.173 221.724L949.635 216.178C949.887 213.16 948.613 210.246 946.228 208.381L941.077 204.354L946.162 206.134C947.352 206.551 948.638 206.391 949.69 205.696C950.742 205.001 951.393 203.881 951.477 202.623L951.708 199.153C951.834 197.268 951.376 195.41 950.425 193.819C952.01 194.397 953.821 194.069 955.101 192.936C954.679 194.582 954.572 196.314 954.781 198.094L954.989 199.864C955.067 200.526 955.503 201.085 956.126 201.321C956.75 201.557 957.447 201.428 957.944 200.984L960.311 198.871L958.556 201.584C957.042 203.923 956.421 206.732 956.806 209.492L958.494 221.593C958.825 223.966 959.931 226.107 961.595 227.725ZM974.895 196.01C974.626 196.195 974.46 196.494 974.444 196.82C974.428 197.145 974.565 197.459 974.815 197.669C975.312 198.087 975.597 198.697 975.597 199.343C975.597 200.478 974.712 201.434 973.581 201.518C973.283 201.54 973.008 201.689 972.827 201.927C972.647 202.166 972.577 202.47 972.636 202.763C972.684 203.004 972.708 203.252 972.708 203.502C972.708 205.59 971.01 207.289 968.921 207.289C968.526 207.289 968.137 207.228 967.765 207.108C967.461 207.01 967.129 207.057 966.864 207.235C966.599 207.413 966.43 207.702 966.405 208.02C966.253 209.976 964.596 211.508 962.632 211.508C962.425 211.508 962.216 211.491 962.011 211.457C961.712 211.409 961.407 211.492 961.174 211.687C960.942 211.881 960.806 212.167 960.8 212.469C960.799 212.547 960.758 214.026 959.651 214.789L958.871 209.204C958.555 206.94 959.065 204.636 960.307 202.717L966.27 193.502C966.553 193.064 966.469 192.483 966.072 192.143C965.676 191.804 965.089 191.81 964.699 192.157L956.992 199.037L956.852 197.85C956.653 196.155 956.788 194.519 957.252 192.986C957.365 192.616 957.496 192.247 957.644 191.89L959.365 187.722C959.563 187.244 959.38 186.693 958.935 186.428C958.491 186.163 957.919 186.264 957.592 186.666L954.006 191.074C953.161 192.113 951.642 192.321 950.548 191.548L943.662 186.684C943.219 186.371 942.611 186.45 942.262 186.864C941.913 187.278 941.939 187.89 942.322 188.273L947.559 193.51C949.01 194.961 949.763 196.967 949.627 199.013L949.395 202.483C949.355 203.086 949.043 203.622 948.54 203.955C948.036 204.288 947.42 204.364 946.851 204.164L935.796 200.295C935.314 200.127 934.781 200.332 934.536 200.78C934.291 201.228 934.407 201.787 934.809 202.102L944.942 210.024C945.56 210.507 946.079 211.084 946.49 211.723C946.384 211.739 946.277 211.746 946.169 211.746C945.817 211.746 945.481 211.663 945.17 211.499C944.858 211.334 944.484 211.338 944.176 211.51C943.868 211.681 943.667 211.996 943.642 212.348C943.49 214.508 941.674 216.2 939.508 216.2C937.222 216.2 935.362 214.34 935.362 212.053C935.362 211.843 935.378 211.63 935.41 211.42C935.495 210.864 935.123 210.341 934.57 210.238C932.611 209.872 931.189 208.159 931.189 206.163C931.189 205.015 931.649 203.946 932.485 203.154C932.732 202.919 932.85 202.578 932.799 202.241C932.748 201.904 932.535 201.613 932.229 201.462C931.491 201.097 931.032 200.359 931.032 199.535C931.032 198.757 931.456 198.038 932.137 197.658C932.45 197.484 932.651 197.163 932.671 196.806C932.691 196.449 932.527 196.107 932.237 195.899C930.89 194.935 930.086 193.374 930.086 191.723C930.086 189.125 932.029 186.935 934.606 186.628C934.946 186.588 935.244 186.384 935.404 186.082C935.564 185.78 935.567 185.419 935.41 185.115C935.287 184.875 935.224 184.615 935.224 184.343C935.224 183.407 935.985 182.646 936.921 182.646C937.242 182.646 937.554 182.736 937.825 182.907C938.137 183.104 938.53 183.121 938.858 182.953C939.186 182.785 939.401 182.455 939.423 182.087C939.584 179.383 941.834 177.264 944.546 177.264C945.928 177.264 947.225 177.807 948.199 178.793C948.403 178.999 948.683 179.112 948.975 179.102C949.265 179.093 949.538 178.963 949.729 178.744C950.518 177.835 951.659 177.313 952.859 177.313C953.683 177.313 954.478 177.554 955.158 178.01C955.423 178.187 955.755 178.233 956.058 178.135C956.362 178.038 956.604 177.806 956.715 177.507C957.033 176.657 957.855 176.086 958.762 176.086C959.681 176.086 960.507 176.667 960.817 177.532C960.932 177.85 961.193 178.093 961.519 178.184C961.845 178.275 962.195 178.202 962.457 177.989C963.193 177.391 964.121 177.062 965.07 177.062C967.356 177.062 969.216 178.922 969.216 181.208C969.216 181.413 969.2 181.625 969.169 181.836C969.088 182.376 969.438 182.887 969.971 183.007C970.956 183.229 971.67 184.125 971.67 185.136C971.67 185.3 971.651 185.466 971.614 185.627C971.546 185.921 971.608 186.229 971.784 186.473C971.961 186.717 972.234 186.873 972.534 186.901C975.12 187.142 977.07 189.284 977.07 191.884C977.07 193.533 976.257 195.075 974.895 196.01Z" fill="#957E8B"/>
<path d="M1487.1 161.073C1485.5 161.073 1484.34 163.06 1484.34 165.797C1484.34 168.535 1485.5 170.522 1487.1 170.522C1488.7 170.522 1489.87 168.535 1489.87 165.797C1489.87 163.06 1488.7 161.073 1487.1 161.073ZM1487.1 168.391C1486.86 168.144 1486.43 167.249 1486.43 165.797C1486.43 164.345 1486.86 163.451 1487.1 163.203C1487.35 163.451 1487.78 164.346 1487.78 165.797C1487.78 167.249 1487.35 168.144 1487.1 168.391Z" fill="#957E8B"/>
<path d="M1512.16 143.884C1512.16 142.106 1511.49 140.405 1510.29 139.095C1509.34 138.052 1508.11 137.328 1506.75 136.997C1506.7 135.359 1505.74 133.937 1504.3 133.269C1504.3 133.249 1504.3 133.228 1504.3 133.208C1504.3 129.772 1501.51 126.976 1498.07 126.976C1497.06 126.976 1496.06 127.226 1495.17 127.694C1494.37 126.648 1493.12 126 1491.76 126C1490.39 126 1489.12 126.666 1488.33 127.736C1487.55 127.401 1486.72 127.227 1485.86 127.227C1484.41 127.227 1483.01 127.734 1481.91 128.643C1480.66 127.692 1479.14 127.178 1477.55 127.178C1474.2 127.178 1471.35 129.476 1470.55 132.613C1470.34 132.578 1470.13 132.56 1469.92 132.56C1467.84 132.56 1466.14 134.257 1466.14 136.344C1466.14 136.497 1466.15 136.65 1466.17 136.802C1463.15 137.693 1461 140.483 1461 143.724C1461 145.599 1461.74 147.391 1463.02 148.724C1462.34 149.488 1461.95 150.484 1461.95 151.536C1461.95 152.711 1462.42 153.798 1463.23 154.581C1462.5 155.621 1462.1 156.858 1462.1 158.164C1462.1 160.844 1463.81 163.186 1466.28 164.047C1466.28 164.049 1466.28 164.051 1466.28 164.054C1466.28 167.491 1469.07 170.287 1472.51 170.287C1475.32 170.287 1477.74 168.389 1478.5 165.779C1478.72 165.815 1478.94 165.833 1479.17 165.833C1479.57 165.833 1479.97 165.775 1480.35 165.665C1480.55 166.416 1480.62 167.205 1480.56 168.005L1480.09 173.551C1479.88 176.148 1478.34 178.492 1476.05 179.726H1467.96C1467.38 179.726 1466.92 180.193 1466.92 180.769C1466.92 181.345 1467.38 181.812 1467.96 181.812H1497.9C1497.9 181.812 1497.9 181.812 1497.9 181.812C1497.9 181.812 1497.9 181.812 1497.91 181.812H1505.7C1506.27 181.812 1506.74 181.345 1506.74 180.769C1506.74 180.193 1506.27 179.726 1505.7 179.726H1498.15C1495.66 178.464 1493.95 176.081 1493.56 173.305L1492.96 168.979C1494.65 168.314 1495.44 166.824 1495.74 165.593C1498.34 165.545 1500.58 163.767 1501.28 161.34C1501.49 161.363 1501.71 161.375 1501.92 161.375C1505.16 161.375 1507.79 158.74 1507.79 155.502C1507.79 155.462 1507.79 155.422 1507.79 155.382C1509.48 154.803 1510.68 153.196 1510.68 151.343C1510.68 150.498 1510.43 149.685 1509.98 148.995C1511.36 147.668 1512.16 145.829 1512.16 143.884ZM1494.6 179.725H1479.45C1480.99 178.115 1481.98 175.996 1482.17 173.724L1482.64 168.178C1482.89 165.16 1481.61 162.246 1479.23 160.381L1474.08 156.354L1479.16 158.134C1480.35 158.551 1481.64 158.391 1482.69 157.696C1483.74 157.001 1484.39 155.881 1484.48 154.623L1484.71 151.153C1484.83 149.268 1484.38 147.41 1483.42 145.819C1485.01 146.397 1486.82 146.069 1488.1 144.936C1487.68 146.582 1487.57 148.314 1487.78 150.094L1487.99 151.864C1488.07 152.526 1488.5 153.085 1489.13 153.321C1489.75 153.557 1490.45 153.428 1490.94 152.984L1493.31 150.871L1491.56 153.584C1490.04 155.923 1489.42 158.732 1489.81 161.492L1491.49 173.593C1491.82 175.966 1492.93 178.107 1494.6 179.725ZM1507.9 148.01C1507.63 148.195 1507.46 148.494 1507.44 148.82C1507.43 149.145 1507.57 149.459 1507.81 149.669C1508.31 150.087 1508.6 150.697 1508.6 151.343C1508.6 152.478 1507.71 153.434 1506.58 153.518C1506.28 153.54 1506.01 153.689 1505.83 153.927C1505.65 154.166 1505.58 154.47 1505.64 154.763C1505.68 155.004 1505.71 155.252 1505.71 155.502C1505.71 157.59 1504.01 159.289 1501.92 159.289C1501.53 159.289 1501.14 159.228 1500.76 159.108C1500.46 159.01 1500.13 159.057 1499.86 159.235C1499.6 159.413 1499.43 159.702 1499.41 160.02C1499.25 161.976 1497.6 163.508 1495.63 163.508C1495.43 163.508 1495.22 163.491 1495.01 163.457C1494.71 163.409 1494.41 163.492 1494.17 163.687C1493.94 163.881 1493.81 164.167 1493.8 164.469C1493.8 164.547 1493.76 166.026 1492.65 166.789L1491.87 161.204C1491.56 158.94 1492.07 156.636 1493.31 154.717L1499.27 145.502C1499.55 145.064 1499.47 144.483 1499.07 144.143C1498.68 143.804 1498.09 143.81 1497.7 144.157L1489.99 151.037L1489.85 149.85C1489.65 148.155 1489.79 146.519 1490.25 144.986C1490.36 144.616 1490.5 144.247 1490.64 143.89L1492.37 139.722C1492.56 139.244 1492.38 138.693 1491.94 138.428C1491.49 138.163 1490.92 138.264 1490.59 138.666L1487.01 143.074C1486.16 144.113 1484.64 144.321 1483.55 143.548L1476.66 138.684C1476.22 138.371 1475.61 138.45 1475.26 138.864C1474.91 139.278 1474.94 139.89 1475.32 140.273L1480.56 145.51C1482.01 146.961 1482.76 148.967 1482.63 151.013L1482.4 154.483C1482.36 155.086 1482.04 155.622 1481.54 155.955C1481.04 156.288 1480.42 156.364 1479.85 156.164L1468.8 152.295C1468.31 152.127 1467.78 152.332 1467.54 152.78C1467.29 153.228 1467.41 153.787 1467.81 154.102L1477.94 162.024C1478.56 162.507 1479.08 163.084 1479.49 163.723C1479.38 163.739 1479.28 163.746 1479.17 163.746C1478.82 163.746 1478.48 163.663 1478.17 163.499C1477.86 163.334 1477.48 163.338 1477.18 163.51C1476.87 163.681 1476.67 163.996 1476.64 164.348C1476.49 166.508 1474.67 168.2 1472.51 168.2C1470.22 168.2 1468.36 166.34 1468.36 164.053C1468.36 163.843 1468.38 163.63 1468.41 163.42C1468.49 162.864 1468.12 162.341 1467.57 162.238C1465.61 161.872 1464.19 160.159 1464.19 158.163C1464.19 157.015 1464.65 155.946 1465.48 155.154C1465.73 154.919 1465.85 154.578 1465.8 154.241C1465.75 153.904 1465.54 153.613 1465.23 153.462C1464.49 153.097 1464.03 152.359 1464.03 151.535C1464.03 150.757 1464.46 150.038 1465.14 149.658C1465.45 149.484 1465.65 149.163 1465.67 148.806C1465.69 148.449 1465.53 148.107 1465.24 147.899C1463.89 146.935 1463.09 145.374 1463.09 143.723C1463.09 141.125 1465.03 138.935 1467.61 138.628C1467.95 138.588 1468.24 138.384 1468.4 138.082C1468.56 137.78 1468.57 137.419 1468.41 137.115C1468.29 136.875 1468.22 136.615 1468.22 136.343C1468.22 135.407 1468.99 134.646 1469.92 134.646C1470.24 134.646 1470.55 134.736 1470.83 134.907C1471.14 135.104 1471.53 135.121 1471.86 134.953C1472.19 134.785 1472.4 134.455 1472.42 134.087C1472.58 131.383 1474.83 129.264 1477.55 129.264C1478.93 129.264 1480.23 129.807 1481.2 130.793C1481.4 130.999 1481.68 131.112 1481.97 131.102C1482.26 131.093 1482.54 130.963 1482.73 130.744C1483.52 129.835 1484.66 129.313 1485.86 129.313C1486.68 129.313 1487.48 129.554 1488.16 130.01C1488.42 130.187 1488.76 130.233 1489.06 130.135C1489.36 130.038 1489.6 129.806 1489.72 129.507C1490.03 128.657 1490.86 128.086 1491.76 128.086C1492.68 128.086 1493.51 128.667 1493.82 129.532C1493.93 129.85 1494.19 130.093 1494.52 130.184C1494.84 130.275 1495.19 130.202 1495.46 129.989C1496.19 129.391 1497.12 129.062 1498.07 129.062C1500.36 129.062 1502.22 130.922 1502.22 133.208C1502.22 133.413 1502.2 133.625 1502.17 133.836C1502.09 134.376 1502.44 134.887 1502.97 135.007C1503.96 135.229 1504.67 136.125 1504.67 137.136C1504.67 137.3 1504.65 137.466 1504.61 137.627C1504.55 137.921 1504.61 138.229 1504.78 138.473C1504.96 138.717 1505.23 138.873 1505.53 138.901C1508.12 139.142 1510.07 141.284 1510.07 143.884C1510.07 145.533 1509.26 147.075 1507.9 148.01Z" fill="#957E8B"/>
<g clip-path="url(#clip3)">
<path d="M164.494 198.366C164.494 198.296 164.494 198.155 164.435 198.085L155.761 179.9C156.289 179.76 156.758 179.549 157.109 179.338C157.695 178.987 157.871 178.847 158.633 179.409C158.985 179.689 159.395 179.549 159.688 179.338C159.805 179.268 159.981 179.198 160.04 178.987C160.098 178.917 160.04 178.777 160.098 178.706C160.157 178.566 160.157 178.496 160.157 178.355C160.157 178.215 160.157 178.074 160.098 177.934C160.098 177.864 160.098 177.723 160.04 177.653L151.542 159.749C152.011 159.609 152.479 159.398 152.772 159.257C153.359 158.906 153.534 158.766 154.296 159.328C154.413 159.398 154.531 159.398 154.706 159.398C154.765 159.398 154.824 159.538 154.882 159.538C154.941 159.538 155 159.468 155.058 159.468C155.117 159.468 155.175 159.468 155.234 159.398C155.293 159.398 155.351 159.398 155.41 159.328C155.468 159.257 155.527 159.187 155.586 159.047C155.644 158.977 155.761 158.977 155.82 158.836C155.82 158.766 155.82 158.696 155.82 158.626C155.82 158.555 155.82 158.415 155.82 158.274C155.82 158.134 155.82 157.994 155.761 157.783C155.761 157.713 155.761 157.643 155.761 157.572L146.208 137.562C146.15 137.421 146.033 137.421 145.974 137.351C145.915 137.281 145.915 137.14 145.798 137.07C145.74 137.07 145.681 137.07 145.681 137.07C145.564 137 145.447 137 145.271 137C145.153 137 145.036 137 144.86 137.07C144.802 137.07 144.743 137.07 144.743 137.07C144.626 137.14 144.626 137.281 144.567 137.351C144.509 137.421 144.392 137.421 144.333 137.562L134.78 157.572C134.78 157.643 134.78 157.713 134.78 157.783C134.721 157.923 134.721 158.064 134.721 158.274C134.721 158.415 134.721 158.555 134.78 158.766C134.78 158.836 134.78 158.906 134.78 158.977C134.839 159.047 134.956 159.117 135.014 159.187C135.073 159.257 135.073 159.398 135.19 159.468C135.249 159.538 135.307 159.538 135.366 159.538C135.425 159.538 135.483 159.609 135.542 159.609C135.6 159.609 135.659 159.679 135.718 159.679C135.776 159.679 135.835 159.609 135.894 159.538C136.011 159.538 136.187 159.538 136.304 159.468C137.066 158.906 137.241 159.047 137.828 159.398C138.121 159.609 138.589 159.819 139.058 159.889L130.443 177.653C130.384 177.723 130.443 177.864 130.384 177.934C130.326 178.074 130.326 178.215 130.326 178.355C130.326 178.496 130.326 178.636 130.384 178.706C130.384 178.777 130.384 178.917 130.443 178.987C130.502 179.128 130.677 179.198 130.795 179.338C131.146 179.549 131.498 179.689 131.85 179.409C132.612 178.847 132.787 178.987 133.373 179.338C133.725 179.549 134.194 179.76 134.721 179.9L126.165 198.015C126.106 198.085 126.165 198.226 126.106 198.296C126.047 198.436 126.047 198.577 126.047 198.717C126.047 198.857 126.047 198.998 126.106 199.068C126.106 199.138 126.106 199.279 126.165 199.349C126.223 199.489 126.399 199.56 126.516 199.7C126.868 199.911 127.22 200.051 127.571 199.77C128.333 199.209 128.509 199.349 129.095 199.7C129.564 200.051 130.15 200.402 130.971 200.402C131.439 200.402 132.025 200.262 132.729 199.911L132.787 199.84H132.846C133.608 199.279 133.784 199.419 134.37 199.77C134.839 200.051 135.425 200.402 136.245 200.402C136.714 200.402 137.3 200.262 138.003 199.911L138.062 199.84H138.121C138.882 199.279 139.058 199.419 139.644 199.77C139.937 199.981 140.406 200.191 140.934 200.332V208.336C140.934 209.038 141.403 209.6 141.989 209.6H148.787C149.373 209.6 149.842 209.038 149.842 208.336V200.262C150.252 200.121 150.663 199.981 150.956 199.77C151.542 199.419 151.659 199.279 152.479 199.84H152.538L152.597 199.911C153.3 200.262 153.827 200.402 154.355 200.402C155.175 200.402 155.761 200.051 156.23 199.77C156.816 199.419 156.992 199.279 157.754 199.84H157.813L157.871 199.911C158.575 200.262 159.102 200.402 159.629 200.402C160.45 200.402 161.036 200.051 161.505 199.77C162.091 199.419 162.267 199.279 163.029 199.84C163.38 200.121 163.791 199.981 164.084 199.77C164.201 199.7 164.377 199.63 164.435 199.419C164.494 199.349 164.435 199.209 164.494 199.138C164.553 198.998 164.553 198.928 164.553 198.787C164.553 198.647 164.553 198.506 164.494 198.366ZM160.45 197.594C159.864 197.945 159.571 198.155 158.692 197.664C156.992 196.54 155.937 197.102 155.234 197.594C154.648 197.945 154.355 198.155 153.476 197.664C151.718 196.47 150.663 197.102 149.959 197.523C149.549 197.804 149.315 197.945 148.904 197.874H148.846H148.787C148.67 197.874 148.611 197.945 148.494 198.015C148.318 198.085 148.201 198.085 148.084 198.226C147.967 198.296 147.967 198.506 147.908 198.647C147.849 198.787 147.732 198.857 147.732 198.998V199.068V199.138V207.072H143.044V199.068C143.044 198.998 142.985 198.998 142.985 198.928C142.985 198.857 142.985 198.857 142.985 198.787C142.985 198.647 142.868 198.577 142.809 198.506C142.751 198.366 142.692 198.226 142.575 198.085C142.458 197.945 142.34 197.945 142.223 197.874C142.106 197.804 142.047 197.734 141.93 197.734C141.871 197.734 141.871 197.804 141.813 197.804C141.754 197.804 141.754 197.804 141.696 197.804C141.227 197.945 140.934 197.734 140.523 197.453C139.82 197.032 138.765 196.4 137.066 197.523C136.187 198.015 135.835 197.804 135.307 197.453C134.604 197.032 133.549 196.4 131.85 197.523C130.971 198.015 130.619 197.804 130.091 197.453C129.798 197.243 129.447 197.102 129.036 196.962L137.535 179.198C137.593 179.057 137.535 178.987 137.593 178.847C137.593 178.777 137.593 178.706 137.593 178.636C137.593 178.496 137.652 178.355 137.593 178.145C137.593 178.004 137.652 177.934 137.593 177.794C137.359 177.162 136.714 176.881 136.187 177.091C135.307 177.583 134.956 177.372 134.428 177.021C134.135 176.951 133.784 176.74 133.373 176.67L141.871 158.906V158.836C141.93 158.696 141.93 158.555 141.93 158.345C141.93 158.204 141.989 157.994 141.93 157.853V157.783C141.871 157.643 141.754 157.572 141.696 157.502C141.637 157.432 141.578 157.221 141.461 157.151H141.403C141.285 157.081 141.168 157.081 140.992 157.081C140.875 157.081 140.758 157.011 140.582 157.081H140.523C139.644 157.572 139.293 157.362 138.765 157.011C138.472 156.87 138.179 156.66 137.769 156.519L145.271 140.721L152.772 156.519C152.362 156.66 152.011 156.8 151.776 157.011C151.19 157.362 150.897 157.572 150.018 157.081H149.959C149.842 157.011 149.725 157.081 149.549 157.081C149.432 157.081 149.256 157.081 149.139 157.151H149.08C148.963 157.221 148.963 157.362 148.846 157.502C148.787 157.572 148.67 157.643 148.611 157.783V157.853C148.553 157.994 148.611 158.134 148.611 158.345C148.611 158.485 148.611 158.696 148.67 158.836V158.906L157.168 176.67C156.758 176.811 156.406 176.951 156.113 177.162C155.527 177.513 155.234 177.723 154.355 177.232C153.827 176.951 153.183 177.232 152.948 177.934C152.89 178.074 152.948 178.145 152.948 178.285C152.89 178.426 152.948 178.566 152.948 178.777C152.948 178.847 152.948 178.917 152.948 178.987C152.948 179.128 152.948 179.198 153.007 179.338L161.505 197.102C161.095 197.243 160.743 197.383 160.45 197.594Z" fill="#957E8B"/>
</g>
<path d="M916.494 217.681C916.494 217.585 916.494 217.394 916.435 217.298L907.761 192.5C908.289 192.309 908.758 192.021 909.109 191.734C909.695 191.255 909.871 191.064 910.633 191.83C910.985 192.213 911.395 192.021 911.688 191.734C911.805 191.638 911.981 191.543 912.04 191.255C912.098 191.16 912.04 190.968 912.098 190.872C912.157 190.681 912.157 190.585 912.157 190.394C912.157 190.202 912.157 190.011 912.098 189.819C912.098 189.723 912.098 189.532 912.04 189.436L903.542 165.021C904.011 164.83 904.479 164.543 904.772 164.351C905.359 163.872 905.534 163.681 906.296 164.447C906.413 164.543 906.531 164.543 906.706 164.543C906.765 164.543 906.824 164.734 906.882 164.734C906.941 164.734 907 164.638 907.058 164.638C907.117 164.638 907.175 164.638 907.234 164.543C907.293 164.543 907.351 164.543 907.41 164.447C907.468 164.351 907.527 164.255 907.586 164.064C907.644 163.968 907.761 163.968 907.82 163.777C907.82 163.681 907.82 163.585 907.82 163.489C907.82 163.394 907.82 163.202 907.82 163.011C907.82 162.819 907.82 162.628 907.761 162.34C907.761 162.245 907.761 162.149 907.761 162.053L898.208 134.766C898.15 134.574 898.033 134.574 897.974 134.479C897.915 134.383 897.915 134.191 897.798 134.096C897.74 134.096 897.681 134.096 897.681 134.096C897.564 134 897.447 134 897.271 134C897.153 134 897.036 134 896.86 134.096C896.802 134.096 896.743 134.096 896.743 134.096C896.626 134.191 896.626 134.383 896.567 134.479C896.509 134.574 896.392 134.574 896.333 134.766L886.78 162.053C886.78 162.149 886.78 162.245 886.78 162.34C886.721 162.532 886.721 162.723 886.721 163.011C886.721 163.202 886.721 163.394 886.78 163.681C886.78 163.777 886.78 163.872 886.78 163.968C886.839 164.064 886.956 164.16 887.014 164.255C887.073 164.351 887.073 164.543 887.19 164.638C887.249 164.734 887.307 164.734 887.366 164.734C887.425 164.734 887.483 164.83 887.542 164.83C887.6 164.83 887.659 164.926 887.718 164.926C887.776 164.926 887.835 164.83 887.894 164.734C888.011 164.734 888.187 164.734 888.304 164.638C889.066 163.872 889.241 164.064 889.828 164.543C890.121 164.83 890.589 165.117 891.058 165.213L882.443 189.436C882.384 189.532 882.443 189.723 882.384 189.819C882.326 190.011 882.326 190.202 882.326 190.394C882.326 190.585 882.326 190.777 882.384 190.872C882.384 190.968 882.384 191.16 882.443 191.255C882.502 191.447 882.677 191.543 882.795 191.734C883.146 192.021 883.498 192.213 883.85 191.83C884.612 191.064 884.787 191.255 885.373 191.734C885.725 192.021 886.194 192.309 886.721 192.5L878.165 217.202C878.106 217.298 878.165 217.489 878.106 217.585C878.047 217.777 878.047 217.968 878.047 218.16C878.047 218.351 878.047 218.543 878.106 218.638C878.106 218.734 878.106 218.926 878.165 219.021C878.223 219.213 878.399 219.309 878.516 219.5C878.868 219.787 879.22 219.979 879.571 219.596C880.333 218.83 880.509 219.021 881.095 219.5C881.564 219.979 882.15 220.457 882.971 220.457C883.439 220.457 884.025 220.266 884.729 219.787L884.787 219.691H884.846C885.608 218.926 885.784 219.117 886.37 219.596C886.839 219.979 887.425 220.457 888.245 220.457C888.714 220.457 889.3 220.266 890.003 219.787L890.062 219.691H890.121C890.882 218.926 891.058 219.117 891.644 219.596C891.937 219.883 892.406 220.17 892.934 220.362V231.277C892.934 232.234 893.403 233 893.989 233H900.787C901.373 233 901.842 232.234 901.842 231.277V220.266C902.252 220.074 902.663 219.883 902.956 219.596C903.542 219.117 903.659 218.926 904.479 219.691H904.538L904.597 219.787C905.3 220.266 905.827 220.457 906.355 220.457C907.175 220.457 907.761 219.979 908.23 219.596C908.816 219.117 908.992 218.926 909.754 219.691H909.813L909.871 219.787C910.575 220.266 911.102 220.457 911.629 220.457C912.45 220.457 913.036 219.979 913.505 219.596C914.091 219.117 914.267 218.926 915.029 219.691C915.38 220.074 915.791 219.883 916.084 219.596C916.201 219.5 916.377 219.404 916.435 219.117C916.494 219.021 916.435 218.83 916.494 218.734C916.553 218.543 916.553 218.447 916.553 218.255C916.553 218.064 916.553 217.872 916.494 217.681ZM912.45 216.628C911.864 217.106 911.571 217.394 910.692 216.723C908.992 215.191 907.937 215.957 907.234 216.628C906.648 217.106 906.355 217.394 905.476 216.723C903.718 215.096 902.663 215.957 901.959 216.532C901.549 216.915 901.315 217.106 900.904 217.011H900.846H900.787C900.67 217.011 900.611 217.106 900.494 217.202C900.318 217.298 900.201 217.298 900.084 217.489C899.967 217.585 899.967 217.872 899.908 218.064C899.849 218.255 899.732 218.351 899.732 218.543V218.638V218.734V229.553H895.044V218.638C895.044 218.543 894.985 218.543 894.985 218.447C894.985 218.351 894.985 218.351 894.985 218.255C894.985 218.064 894.868 217.968 894.809 217.872C894.751 217.681 894.692 217.489 894.575 217.298C894.458 217.106 894.34 217.106 894.223 217.011C894.106 216.915 894.047 216.819 893.93 216.819C893.871 216.819 893.871 216.915 893.813 216.915C893.754 216.915 893.754 216.915 893.696 216.915C893.227 217.106 892.934 216.819 892.523 216.436C891.82 215.862 890.765 215 889.066 216.532C888.187 217.202 887.835 216.915 887.307 216.436C886.604 215.862 885.549 215 883.85 216.532C882.971 217.202 882.619 216.915 882.091 216.436C881.798 216.149 881.447 215.957 881.036 215.766L889.535 191.543C889.593 191.351 889.535 191.255 889.593 191.064C889.593 190.968 889.593 190.872 889.593 190.777C889.593 190.585 889.652 190.394 889.593 190.106C889.593 189.915 889.652 189.819 889.593 189.628C889.359 188.766 888.714 188.383 888.187 188.67C887.307 189.34 886.956 189.053 886.428 188.574C886.135 188.479 885.784 188.191 885.373 188.096L893.871 163.872V163.777C893.93 163.585 893.93 163.394 893.93 163.106C893.93 162.915 893.989 162.628 893.93 162.436V162.34C893.871 162.149 893.754 162.053 893.696 161.957C893.637 161.862 893.578 161.574 893.461 161.479H893.403C893.285 161.383 893.168 161.383 892.992 161.383C892.875 161.383 892.758 161.287 892.582 161.383H892.523C891.644 162.053 891.293 161.766 890.765 161.287C890.472 161.096 890.179 160.809 889.769 160.617L897.271 139.074L904.772 160.617C904.362 160.809 904.011 161 903.776 161.287C903.19 161.766 902.897 162.053 902.018 161.383H901.959C901.842 161.287 901.725 161.383 901.549 161.383C901.432 161.383 901.256 161.383 901.139 161.479H901.08C900.963 161.574 900.963 161.766 900.846 161.957C900.787 162.053 900.67 162.149 900.611 162.34V162.436C900.553 162.628 900.611 162.819 900.611 163.106C900.611 163.298 900.611 163.585 900.67 163.777V163.872L909.168 188.096C908.758 188.287 908.406 188.479 908.113 188.766C907.527 189.245 907.234 189.532 906.355 188.862C905.827 188.479 905.183 188.862 904.948 189.819C904.89 190.011 904.948 190.106 904.948 190.298C904.89 190.489 904.948 190.681 904.948 190.968C904.948 191.064 904.948 191.16 904.948 191.255C904.948 191.447 904.948 191.543 905.007 191.734L913.505 215.957C913.095 216.149 912.743 216.34 912.45 216.628Z" fill="#957E8B"/>
<path d="M1585.08 196.12C1585.08 196.083 1585.08 196.01 1585.04 195.973L1579.95 186.455C1580.26 186.381 1580.53 186.271 1580.74 186.161C1581.08 185.977 1581.19 185.903 1581.63 186.197C1581.84 186.344 1582.08 186.271 1582.25 186.161C1582.32 186.124 1582.42 186.087 1582.46 185.977C1582.49 185.94 1582.46 185.867 1582.49 185.83C1582.53 185.756 1582.53 185.72 1582.53 185.646C1582.53 185.573 1582.53 185.499 1582.49 185.426C1582.49 185.389 1582.49 185.315 1582.46 185.279L1577.47 175.907C1577.74 175.834 1578.02 175.723 1578.19 175.65C1578.53 175.466 1578.64 175.393 1579.08 175.687C1579.15 175.723 1579.22 175.723 1579.33 175.723C1579.36 175.723 1579.39 175.797 1579.43 175.797C1579.46 175.797 1579.5 175.76 1579.53 175.76C1579.57 175.76 1579.6 175.76 1579.64 175.723C1579.67 175.723 1579.7 175.723 1579.74 175.687C1579.77 175.65 1579.81 175.613 1579.84 175.54C1579.88 175.503 1579.95 175.503 1579.98 175.429C1579.98 175.393 1579.98 175.356 1579.98 175.319C1579.98 175.282 1579.98 175.209 1579.98 175.135C1579.98 175.062 1579.98 174.988 1579.95 174.878C1579.95 174.841 1579.95 174.805 1579.95 174.768L1574.33 164.294C1574.3 164.221 1574.23 164.221 1574.2 164.184C1574.16 164.147 1574.16 164.074 1574.09 164.037C1574.06 164.037 1574.02 164.037 1574.02 164.037C1573.95 164 1573.89 164 1573.78 164C1573.71 164 1573.65 164 1573.54 164.037C1573.51 164.037 1573.47 164.037 1573.47 164.037C1573.4 164.074 1573.4 164.147 1573.37 164.184C1573.34 164.221 1573.27 164.221 1573.23 164.294L1567.62 174.768C1567.62 174.805 1567.62 174.841 1567.62 174.878C1567.59 174.952 1567.59 175.025 1567.59 175.135C1567.59 175.209 1567.59 175.282 1567.62 175.393C1567.62 175.429 1567.62 175.466 1567.62 175.503C1567.65 175.54 1567.72 175.576 1567.76 175.613C1567.79 175.65 1567.79 175.723 1567.86 175.76C1567.9 175.797 1567.93 175.797 1567.96 175.797C1568 175.797 1568.03 175.834 1568.07 175.834C1568.1 175.834 1568.14 175.87 1568.17 175.87C1568.21 175.87 1568.24 175.834 1568.27 175.797C1568.34 175.797 1568.45 175.797 1568.52 175.76C1568.96 175.466 1569.07 175.54 1569.41 175.723C1569.58 175.834 1569.86 175.944 1570.13 175.981L1565.07 185.279C1565.04 185.315 1565.07 185.389 1565.04 185.426C1565 185.499 1565 185.573 1565 185.646C1565 185.72 1565 185.793 1565.04 185.83C1565.04 185.867 1565.04 185.94 1565.07 185.977C1565.11 186.05 1565.21 186.087 1565.28 186.161C1565.49 186.271 1565.69 186.344 1565.9 186.197C1566.35 185.903 1566.45 185.977 1566.79 186.161C1567 186.271 1567.28 186.381 1567.59 186.455L1562.56 195.936C1562.52 195.973 1562.56 196.046 1562.52 196.083C1562.49 196.157 1562.49 196.23 1562.49 196.304C1562.49 196.377 1562.49 196.451 1562.52 196.487C1562.52 196.524 1562.52 196.598 1562.56 196.634C1562.59 196.708 1562.7 196.745 1562.77 196.818C1562.97 196.928 1563.18 197.002 1563.39 196.855C1563.83 196.561 1563.94 196.634 1564.28 196.818C1564.56 197.002 1564.9 197.186 1565.38 197.186C1565.66 197.186 1566 197.112 1566.41 196.928L1566.45 196.892H1566.48C1566.93 196.598 1567.03 196.671 1567.38 196.855C1567.65 197.002 1568 197.186 1568.48 197.186C1568.76 197.186 1569.1 197.112 1569.51 196.928L1569.55 196.892H1569.58C1570.03 196.598 1570.13 196.671 1570.48 196.855C1570.65 196.965 1570.93 197.075 1571.24 197.149V201.338C1571.24 201.706 1571.51 202 1571.85 202H1575.85C1576.19 202 1576.47 201.706 1576.47 201.338V197.112C1576.71 197.039 1576.95 196.965 1577.12 196.855C1577.47 196.671 1577.54 196.598 1578.02 196.892H1578.05L1578.09 196.928C1578.5 197.112 1578.81 197.186 1579.12 197.186C1579.6 197.186 1579.95 197.002 1580.22 196.855C1580.57 196.671 1580.67 196.598 1581.12 196.892H1581.15L1581.19 196.928C1581.6 197.112 1581.91 197.186 1582.22 197.186C1582.7 197.186 1583.04 197.002 1583.32 196.855C1583.66 196.671 1583.77 196.598 1584.21 196.892C1584.42 197.039 1584.66 196.965 1584.83 196.855C1584.9 196.818 1585.01 196.781 1585.04 196.671C1585.08 196.634 1585.04 196.561 1585.08 196.524C1585.11 196.451 1585.11 196.414 1585.11 196.34C1585.11 196.267 1585.11 196.193 1585.08 196.12ZM1582.7 195.716C1582.36 195.899 1582.18 196.01 1581.67 195.752C1580.67 195.164 1580.05 195.458 1579.64 195.716C1579.29 195.899 1579.12 196.01 1578.6 195.752C1577.57 195.128 1576.95 195.458 1576.54 195.679C1576.3 195.826 1576.16 195.899 1575.92 195.863H1575.88H1575.85C1575.78 195.863 1575.75 195.899 1575.68 195.936C1575.57 195.973 1575.5 195.973 1575.44 196.046C1575.37 196.083 1575.37 196.193 1575.33 196.267C1575.3 196.34 1575.23 196.377 1575.23 196.451V196.487V196.524V200.677H1572.47V196.487C1572.47 196.451 1572.44 196.451 1572.44 196.414C1572.44 196.377 1572.44 196.377 1572.44 196.34C1572.44 196.267 1572.37 196.23 1572.34 196.193C1572.3 196.12 1572.27 196.046 1572.2 195.973C1572.13 195.899 1572.06 195.899 1571.99 195.863C1571.92 195.826 1571.89 195.789 1571.82 195.789C1571.79 195.789 1571.79 195.826 1571.75 195.826C1571.72 195.826 1571.72 195.826 1571.68 195.826C1571.41 195.899 1571.24 195.789 1570.99 195.642C1570.58 195.422 1569.96 195.091 1568.96 195.679C1568.45 195.936 1568.24 195.826 1567.93 195.642C1567.52 195.422 1566.9 195.091 1565.9 195.679C1565.38 195.936 1565.18 195.826 1564.87 195.642C1564.69 195.532 1564.49 195.458 1564.25 195.385L1569.24 186.087C1569.27 186.014 1569.24 185.977 1569.27 185.903C1569.27 185.867 1569.27 185.83 1569.27 185.793C1569.27 185.72 1569.31 185.646 1569.27 185.536C1569.27 185.462 1569.31 185.426 1569.27 185.352C1569.13 185.021 1568.76 184.874 1568.45 184.985C1567.93 185.242 1567.72 185.132 1567.41 184.948C1567.24 184.911 1567.03 184.801 1566.79 184.764L1571.79 175.466V175.429C1571.82 175.356 1571.82 175.282 1571.82 175.172C1571.82 175.099 1571.85 174.988 1571.82 174.915V174.878C1571.79 174.805 1571.72 174.768 1571.68 174.731C1571.65 174.694 1571.61 174.584 1571.54 174.547H1571.51C1571.44 174.511 1571.37 174.511 1571.27 174.511C1571.2 174.511 1571.13 174.474 1571.03 174.511H1570.99C1570.48 174.768 1570.27 174.658 1569.96 174.474C1569.79 174.4 1569.62 174.29 1569.38 174.217L1573.78 165.948L1578.19 174.217C1577.95 174.29 1577.74 174.364 1577.6 174.474C1577.26 174.658 1577.09 174.768 1576.57 174.511H1576.54C1576.47 174.474 1576.4 174.511 1576.3 174.511C1576.23 174.511 1576.12 174.511 1576.06 174.547H1576.02C1575.95 174.584 1575.95 174.658 1575.88 174.731C1575.85 174.768 1575.78 174.805 1575.75 174.878V174.915C1575.71 174.988 1575.75 175.062 1575.75 175.172C1575.75 175.246 1575.75 175.356 1575.78 175.429V175.466L1580.77 184.764C1580.53 184.838 1580.32 184.911 1580.15 185.021C1579.81 185.205 1579.64 185.315 1579.12 185.058C1578.81 184.911 1578.43 185.058 1578.29 185.426C1578.26 185.499 1578.29 185.536 1578.29 185.609C1578.26 185.683 1578.29 185.756 1578.29 185.867C1578.29 185.903 1578.29 185.94 1578.29 185.977C1578.29 186.05 1578.29 186.087 1578.33 186.161L1583.32 195.458C1583.08 195.532 1582.87 195.605 1582.7 195.716Z" fill="#957E8B"/>
<defs>
<clipPath id="clip0">
<rect x="987" y="131" width="100" height="100" fill="white"/>
</clipPath>
<clipPath id="clip1">
<rect x="468" y="13" width="66.668" height="66.668" fill="white"/>
</clipPath>
<clipPath id="clip2">
<rect x="689.734" y="155" width="49.5119" height="50.1084" transform="rotate(12.3698 689.734 155)" fill="white"/>
</clipPath>
<clipPath id="clip3">
<rect x="115" y="137" width="60.6" height="72.6" fill="white"/>
</clipPath>
</defs>
</svg>
