<svg width="252" height="49" viewBox="0 0 252 49" fill="none" xmlns="http://www.w3.org/2000/svg">
<g filter="url(#filter0_d)">
<path d="M50.08 33V32.433L52.564 32.028V12.372L50.08 11.994V11.4H71.005V11.994L68.494 12.372V32.028L71.005 32.433V33H63.013V32.433L65.524 32.028V12.075H55.534V32.028L58.018 32.433V33H50.08ZM79.8467 33.27C78.6947 33.27 77.7497 32.973 77.0117 32.379C76.2737 31.767 75.9047 30.867 75.9047 29.679C75.9047 27.987 76.6157 26.79 78.0377 26.088C79.4597 25.368 81.1067 25.008 82.9787 25.008H84.7877V22.929C84.7877 21.993 84.6797 21.273 84.4637 20.769C84.2657 20.247 83.9507 19.887 83.5187 19.689C83.0867 19.473 82.5017 19.365 81.7637 19.365C80.9177 19.365 80.2877 19.536 79.8737 19.878C79.4597 20.202 79.2527 20.643 79.2527 21.201C79.2527 21.723 79.5047 22.065 80.0087 22.227C80.0087 22.677 79.8377 23.073 79.4957 23.415C79.1537 23.757 78.7487 23.928 78.2807 23.928C77.7767 23.928 77.3717 23.793 77.0657 23.523C76.7597 23.235 76.6067 22.803 76.6067 22.227C76.6067 21.183 77.1287 20.346 78.1727 19.716C79.2167 19.086 80.5217 18.771 82.0877 18.771C85.6877 18.771 87.4877 20.337 87.4877 23.469V31.191C87.4877 31.587 87.5687 31.893 87.7307 32.109C87.9107 32.307 88.1627 32.406 88.4867 32.406C88.7927 32.406 89.0357 32.307 89.2157 32.109C89.3957 31.893 89.4857 31.605 89.4857 31.245H90.0527C90.0527 31.875 89.8457 32.37 89.4317 32.73C89.0357 33.09 88.4777 33.27 87.7577 33.27C86.9297 33.27 86.2277 33.036 85.6517 32.568C85.0937 32.082 84.8057 31.335 84.7877 30.327C84.3557 31.245 83.6897 31.965 82.7897 32.487C81.9077 33.009 80.9267 33.27 79.8467 33.27ZM81.3317 32.082C81.8177 32.082 82.3127 31.938 82.8167 31.65C83.3387 31.362 83.7797 30.948 84.1397 30.408C84.4997 29.85 84.7157 29.184 84.7877 28.41V25.602H82.9787C81.5027 25.602 80.3957 25.935 79.6577 26.601C78.9377 27.249 78.5777 28.167 78.5777 29.355C78.5777 30.345 78.8117 31.047 79.2797 31.461C79.7477 31.875 80.4317 32.082 81.3317 32.082ZM96.381 33V32.46L98.541 32.19V19.689H96.219L93.87 24.144H93.114L93.519 19.014H106.263L106.668 24.144H105.912L103.536 19.689H101.241V32.19L103.401 32.46V33H96.381ZM110.366 40.101L112.256 39.831V19.851L110.366 19.581V19.041H114.956V21.876C115.406 20.904 116.009 20.148 116.765 19.608C117.539 19.05 118.457 18.771 119.519 18.771C120.797 18.771 121.922 19.077 122.894 19.689C123.866 20.283 124.622 21.129 125.162 22.227C125.702 23.307 125.972 24.576 125.972 26.034C125.972 27.492 125.702 28.77 125.162 29.868C124.622 30.948 123.866 31.785 122.894 32.379C121.922 32.973 120.797 33.27 119.519 33.27C118.457 33.27 117.539 33 116.765 32.46C116.009 31.902 115.406 31.146 114.956 30.192V39.831L117.494 40.101V40.641H110.366V40.101ZM119.249 32.595C121.751 32.595 123.002 30.858 123.002 27.384V24.684C123.002 21.192 121.751 19.446 119.249 19.446C118.457 19.446 117.737 19.68 117.089 20.148C116.441 20.598 115.928 21.21 115.55 21.984C115.172 22.758 114.974 23.595 114.956 24.495V27.384C114.956 28.302 115.136 29.166 115.496 29.976C115.874 30.768 116.387 31.407 117.035 31.893C117.701 32.361 118.439 32.595 119.249 32.595ZM137.841 33.27C136.545 33.27 135.366 32.973 134.304 32.379C133.242 31.767 132.396 30.912 131.766 29.814C131.154 28.698 130.848 27.429 130.848 26.007C130.848 24.585 131.154 23.325 131.766 22.227C132.396 21.129 133.242 20.283 134.304 19.689C135.366 19.077 136.545 18.771 137.841 18.771C139.137 18.771 140.316 19.077 141.378 19.689C142.44 20.283 143.277 21.129 143.889 22.227C144.519 23.325 144.834 24.585 144.834 26.007C144.834 27.429 144.519 28.698 143.889 29.814C143.277 30.912 142.44 31.767 141.378 32.379C140.316 32.973 139.137 33.27 137.841 33.27ZM137.841 32.676C139.173 32.676 140.172 32.19 140.838 31.218C141.522 30.246 141.864 28.959 141.864 27.357V24.657C141.864 23.055 141.522 21.777 140.838 20.823C140.172 19.851 139.173 19.365 137.841 19.365C136.509 19.365 135.501 19.851 134.817 20.823C134.151 21.777 133.818 23.055 133.818 24.657V27.357C133.818 28.959 134.151 30.246 134.817 31.218C135.501 32.19 136.509 32.676 137.841 32.676ZM149.276 33V32.46L151.166 32.19V19.824L149.276 19.554V19.014H155.486V19.554L153.866 19.824V25.575H160.535V19.824L158.915 19.554V19.014H165.125V19.554L163.235 19.824V32.19L165.125 32.46V33H158.915V32.46L160.535 32.19V26.25H153.866V32.19L155.486 32.46V33H149.276ZM173.593 33.27C172.441 33.27 171.496 32.973 170.758 32.379C170.02 31.767 169.651 30.867 169.651 29.679C169.651 27.987 170.362 26.79 171.784 26.088C173.206 25.368 174.853 25.008 176.725 25.008H178.534V22.929C178.534 21.993 178.426 21.273 178.21 20.769C178.012 20.247 177.697 19.887 177.265 19.689C176.833 19.473 176.248 19.365 175.51 19.365C174.664 19.365 174.034 19.536 173.62 19.878C173.206 20.202 172.999 20.643 172.999 21.201C172.999 21.723 173.251 22.065 173.755 22.227C173.755 22.677 173.584 23.073 173.242 23.415C172.9 23.757 172.495 23.928 172.027 23.928C171.523 23.928 171.118 23.793 170.812 23.523C170.506 23.235 170.353 22.803 170.353 22.227C170.353 21.183 170.875 20.346 171.919 19.716C172.963 19.086 174.268 18.771 175.834 18.771C179.434 18.771 181.234 20.337 181.234 23.469V31.191C181.234 31.587 181.315 31.893 181.477 32.109C181.657 32.307 181.909 32.406 182.233 32.406C182.539 32.406 182.782 32.307 182.962 32.109C183.142 31.893 183.232 31.605 183.232 31.245H183.799C183.799 31.875 183.592 32.37 183.178 32.73C182.782 33.09 182.224 33.27 181.504 33.27C180.676 33.27 179.974 33.036 179.398 32.568C178.84 32.082 178.552 31.335 178.534 30.327C178.102 31.245 177.436 31.965 176.536 32.487C175.654 33.009 174.673 33.27 173.593 33.27ZM175.078 32.082C175.564 32.082 176.059 31.938 176.563 31.65C177.085 31.362 177.526 30.948 177.886 30.408C178.246 29.85 178.462 29.184 178.534 28.41V25.602H176.725C175.249 25.602 174.142 25.935 173.404 26.601C172.684 27.249 172.324 28.167 172.324 29.355C172.324 30.345 172.558 31.047 173.026 31.461C173.494 31.875 174.178 32.082 175.078 32.082ZM188.75 33.324C188.3 33.324 187.841 33.216 187.373 33C186.905 32.802 186.5 32.505 186.158 32.109L186.563 31.704C186.887 32.028 187.202 32.19 187.508 32.19C187.778 32.19 187.985 32.091 188.129 31.893C188.273 31.677 188.399 31.281 188.507 30.705L188.966 28.329C189.128 27.375 189.479 26.664 190.019 26.196C190.577 25.728 191.45 25.44 192.638 25.332C192.242 24.972 191.945 24.378 191.747 23.55L191.234 21.606C191.09 21.102 190.802 20.85 190.37 20.85C190.154 20.85 189.974 20.931 189.83 21.093C189.686 21.255 189.614 21.453 189.614 21.687C189.614 21.831 189.641 21.984 189.695 22.146C189.443 22.236 189.182 22.281 188.912 22.281C188.408 22.281 188.003 22.119 187.697 21.795C187.409 21.453 187.265 21.048 187.265 20.58C187.265 20.076 187.445 19.653 187.805 19.311C188.165 18.951 188.669 18.771 189.317 18.771C190.091 18.771 190.658 18.996 191.018 19.446C191.396 19.878 191.693 20.535 191.909 21.417L192.395 23.361C192.557 24.027 192.773 24.504 193.043 24.792C193.313 25.08 193.673 25.242 194.123 25.278H196.418V19.851L194.474 19.581V19.014H201.062V19.581L199.118 19.851V25.278H201.359C201.809 25.26 202.169 25.107 202.439 24.819C202.727 24.531 202.961 24.045 203.141 23.361L203.627 21.417C203.843 20.535 204.131 19.878 204.491 19.446C204.869 18.996 205.445 18.771 206.219 18.771C206.867 18.771 207.371 18.951 207.731 19.311C208.091 19.653 208.271 20.076 208.271 20.58C208.271 21.048 208.118 21.453 207.812 21.795C207.524 22.119 207.128 22.281 206.624 22.281C206.354 22.281 206.093 22.236 205.841 22.146C205.895 21.984 205.922 21.831 205.922 21.687C205.922 21.453 205.85 21.255 205.706 21.093C205.562 20.931 205.382 20.85 205.166 20.85C204.734 20.85 204.446 21.102 204.302 21.606L203.789 23.55C203.591 24.36 203.285 24.954 202.871 25.332C204.059 25.44 204.932 25.728 205.49 26.196C206.048 26.664 206.408 27.375 206.57 28.329L207.029 30.705C207.137 31.281 207.263 31.677 207.407 31.893C207.551 32.091 207.758 32.19 208.028 32.19C208.334 32.19 208.649 32.028 208.973 31.704L209.378 32.109C209.036 32.505 208.631 32.802 208.163 33C207.695 33.216 207.236 33.324 206.786 33.324C205.994 33.324 205.409 33.162 205.031 32.838C204.653 32.496 204.392 31.929 204.248 31.137L203.708 28.221C203.546 27.339 203.267 26.736 202.871 26.412C202.475 26.07 201.926 25.899 201.224 25.899H199.118V32.163L201.062 32.46V33H194.474V32.46L196.418 32.163V25.899H194.177C193.511 25.917 192.989 26.097 192.611 26.439C192.233 26.781 191.972 27.375 191.828 28.221L191.288 31.137C191.144 31.929 190.883 32.496 190.505 32.838C190.127 33.162 189.542 33.324 188.75 33.324ZM212.526 33V32.46L214.416 32.19V19.824L212.526 19.554V19.014H218.736V19.554L217.116 19.824V30.327L223.947 20.364V19.824L222.327 19.554V19.014H228.537V19.554L226.647 19.824V32.19L228.537 32.46V33H222.327V32.46L223.947 32.19V21.498L217.116 31.488V32.19L218.736 32.46V33H212.526ZM245.155 33.27C244.363 33.27 243.778 33.108 243.4 32.784C243.022 32.442 242.761 31.875 242.617 31.083L242.077 28.221C241.915 27.375 241.645 26.781 241.267 26.439C240.889 26.097 240.376 25.917 239.728 25.899H237.217V32.163L239.161 32.46V33H232.573V32.46L234.517 32.163V19.851L232.573 19.581V19.014H239.161V19.581L237.217 19.851V25.278H239.755C240.205 25.242 240.565 25.089 240.835 24.819C241.105 24.531 241.33 24.045 241.51 23.361L241.996 21.417C242.212 20.535 242.5 19.878 242.86 19.446C243.238 18.996 243.814 18.771 244.588 18.771C245.236 18.771 245.74 18.951 246.1 19.311C246.46 19.653 246.64 20.076 246.64 20.58C246.64 21.048 246.487 21.453 246.181 21.795C245.893 22.119 245.497 22.281 244.993 22.281C244.723 22.281 244.462 22.236 244.21 22.146C244.264 21.984 244.291 21.831 244.291 21.687C244.291 21.453 244.219 21.255 244.075 21.093C243.931 20.931 243.751 20.85 243.535 20.85C243.103 20.85 242.815 21.102 242.671 21.606L242.158 23.55C241.924 24.396 241.618 24.99 241.24 25.332C242.428 25.44 243.292 25.728 243.832 26.196C244.39 26.664 244.759 27.375 244.939 28.329L245.398 30.651C245.524 31.245 245.65 31.641 245.776 31.839C245.92 32.037 246.127 32.136 246.397 32.136C246.703 32.136 247.018 31.974 247.342 31.65L247.747 32.055C247.405 32.451 247 32.757 246.532 32.973C246.064 33.171 245.605 33.27 245.155 33.27Z" fill="#793333"/>
</g>
<g clip-path="url(#clip0)">
<path d="M40.768 20.8492H35.6626L36.9587 15.1117C37.0376 15.115 37.1165 15.1317 37.1954 15.1317C40.2438 15.156 42.7828 12.8003 42.9869 9.75859C43.1909 6.71689 40.989 4.04334 37.9646 3.66021C34.9403 3.27709 32.1415 5.31754 31.581 8.31397L31.5773 8.33261C31.1619 10.5149 32.045 12.7407 33.8431 14.0449L32.035 17.8478C31.3144 13.8435 27.8636 10.907 23.7957 10.8361H23.6026C21.8501 10.8228 20.1379 11.3617 18.7092 12.3769C18.3144 12.1006 17.8994 11.854 17.4676 11.6399C18.1364 10.5085 18.42 9.19106 18.2752 7.88491C18.2908 7.88125 18.3058 7.88025 18.3214 7.87625C19.9471 7.49213 21.0902 6.03352 21.0749 4.36322C21.0596 2.69292 19.8899 1.25561 18.2575 0.901449C16.6248 0.54695 14.9648 1.37012 14.2582 2.88365C11.2734 1.75557 7.90216 2.56743 5.75852 4.93075C4.5246 3.97843 2.81569 3.93682 1.53649 4.82723C0.257636 5.71797 -0.295915 7.33535 0.169427 8.82291C0.634769 10.3105 2.01116 11.3244 3.56962 11.3274C3.85422 11.327 4.13782 11.2931 4.41409 11.2265C4.42974 11.2225 4.44272 11.2165 4.45836 11.2129C4.9247 12.4411 5.77683 13.4853 6.88693 14.188C6.57004 14.6157 6.28877 15.0687 6.04512 15.5421C3.45844 14.7888 1.10078 15.3627 0.414081 16.9804C-0.100857 18.199 0.457686 19.6662 1.7695 20.8872C0.747277 21.0693 0.00233004 21.9567 0 22.9949V34.4387C0.00499294 38.7816 3.52435 42.3012 7.86754 42.3059H35.0461C39.3893 42.3012 42.9087 38.7816 42.9137 34.4387V22.9949C42.9123 21.8102 41.9527 20.8506 40.768 20.8492ZM35.3151 5.54721C36.779 4.83489 38.5199 5.0133 39.8087 6.00723C41.0979 7.00149 41.7127 8.63984 41.3958 10.2362L41.0789 10.3191C40.7993 10.3927 40.5031 10.2902 40.3286 10.0598L39.9229 9.52559C39.3996 8.83523 38.5115 8.52766 37.6731 8.74702L37.0236 8.91611C36.744 8.98968 36.4478 8.88716 36.2734 8.65682L35.8663 8.1219C35.343 7.43221 34.4563 7.12498 33.6185 7.34334L33.4141 7.3966C33.8338 6.59273 34.5002 5.94465 35.3151 5.54721ZM32.9228 9.00166L33.9783 8.72772C34.2576 8.65449 34.5538 8.75701 34.7279 8.98768L35.135 9.52259C35.6582 10.2133 36.546 10.5202 37.3841 10.3008L38.0336 10.1314C38.3132 10.0568 38.6101 10.1597 38.7838 10.391L39.1902 10.9256C39.5677 11.4196 40.1426 11.7238 40.7637 11.7581C39.6979 13.4074 37.6414 14.1118 35.7881 13.4627C33.9197 12.8129 32.7367 10.9712 32.9228 9.00166ZM35.3201 14.8141C35.3943 14.8397 35.4712 14.8494 35.5461 14.872L34.1956 20.8492H32.1925L35.1034 14.7269C35.1759 14.7555 35.2455 14.7885 35.3201 14.8141ZM23.6096 17.6115L23.6322 17.6042L23.6392 17.6018C25.5798 16.8645 27.9012 16.9125 30.5355 17.73C30.8004 18.7502 30.8257 19.8177 30.6094 20.8492H19.7291C20.4128 19.7944 21.3165 18.9 22.378 18.2269C22.7668 17.9803 23.1792 17.7743 23.6096 17.6115ZM20.3156 13.0649C21.3312 12.538 22.4586 12.2644 23.6026 12.2664H23.7857C26.3707 12.3276 28.7194 13.7856 29.9217 16.0747C27.6809 15.4359 25.2969 15.5061 23.0977 16.2764L23.0794 16.2844L23.0687 16.289C22.5621 16.4824 22.0758 16.7257 21.6174 17.0157C20.1225 17.9706 18.8946 19.2898 18.0491 20.8492H16.6115C16.5087 20.3792 16.4547 19.8999 16.4504 19.4186C16.4437 17.2324 17.4447 15.1649 19.1639 13.8142C19.5207 13.5253 19.9068 13.2743 20.3156 13.0649ZM6.28445 20.8492C6.24417 19.4269 6.51212 18.0126 7.07 16.7034C7.36059 16.0404 7.73473 15.4173 8.18343 14.8494C9.03389 15.1736 9.93628 15.339 10.8463 15.3374C11.4734 15.3364 12.0982 15.2615 12.708 15.114C14.2119 14.7605 15.573 13.9587 16.6112 12.8143C16.9377 12.9644 17.2539 13.1365 17.5575 13.3292C15.572 15.2908 14.6706 18.0985 15.1433 20.8492H6.28445ZM16.981 2.31378C17.7283 2.12905 18.5171 2.35872 19.0484 2.91527C19.5796 3.47215 19.772 4.27068 19.5527 5.00864C19.333 5.74626 18.7355 6.3098 17.9862 6.48555C17.9699 6.48955 17.9556 6.49054 17.94 6.49387C17.4763 5.27426 16.6318 4.23673 15.5317 3.53472C15.7967 2.92292 16.3332 2.4709 16.981 2.31378ZM2.45719 9.58051C1.77183 9.16576 1.37506 8.40317 1.42931 7.60364C1.48357 6.80443 1.9792 6.10209 2.71449 5.78355C3.44946 5.465 4.30092 5.58383 4.92104 6.09078C4.26197 7.21552 3.98237 8.52267 4.12417 9.81851C4.10752 9.82317 4.09621 9.83149 4.0789 9.83581C3.52601 9.97062 2.94217 9.87842 2.45719 9.58051ZM5.63803 10.1956C5.33479 8.8765 5.61806 7.4908 6.4146 6.39668C7.2837 5.17873 8.56922 4.32161 10.0278 3.98842C10.5274 3.86725 11.0397 3.80601 11.554 3.80534C12.525 3.80035 13.4823 4.03468 14.3411 4.48771C15.5483 5.09918 16.4314 6.20362 16.7626 7.51576H16.7633C17.0659 8.83523 16.7823 10.2209 15.9857 11.3151C15.117 12.5333 13.8311 13.3901 12.3725 13.7237C10.9222 14.0908 9.38772 13.9134 8.05994 13.2244C6.85231 12.6129 5.96889 11.5081 5.63803 10.196V10.1956ZM1.73089 17.5386C2.06175 16.761 3.58693 16.3722 5.47026 16.8705C5.02523 18.1487 4.81053 19.4958 4.83616 20.8492H4.1934C2.24416 19.8164 1.3917 18.3415 1.73089 17.5386ZM2.14563 22.2796H31.1673L31.1696 22.2799L31.1719 22.2796H40.768C41.1628 22.2799 41.483 22.6001 41.4833 22.9949V23.7102H1.43031V22.9949C1.43098 22.6001 1.75086 22.2799 2.14563 22.2796ZM41.4833 26.5711H1.43031V25.1405H41.4833V26.5711ZM35.0461 40.8756H7.86754C4.3139 40.8716 1.43431 37.992 1.43031 34.4387V28.0015H41.4833V34.4387C41.4793 37.992 38.5998 40.8716 35.0461 40.8756Z" fill="#793333"/>
<path d="M10.6719 9.7183C10.7641 10.1028 11.1502 10.3394 11.5343 10.2472C11.9188 10.155 12.1555 9.7689 12.0633 9.38444L11.8962 8.68909C11.8366 8.44077 11.6489 8.24272 11.4039 8.17016C11.1589 8.09759 10.8936 8.16117 10.7082 8.33725C10.5228 8.51301 10.4452 8.77464 10.5048 9.02295L10.6719 9.7183Z" fill="#793333"/>
<path d="M8.94668 8.66314C9.33081 8.5706 9.56714 8.18448 9.4746 7.80036C9.38207 7.41657 8.99595 7.18024 8.61183 7.27244C8.2277 7.36498 7.99137 7.75143 8.08391 8.13522C8.12851 8.31963 8.24435 8.47907 8.40612 8.57793C8.56789 8.67712 8.76228 8.70774 8.94668 8.66314Z" fill="#793333"/>
<path d="M13.1188 7.65826C13.4001 7.59035 13.6128 7.36001 13.6577 7.07408C13.703 6.78849 13.5711 6.50356 13.3245 6.35277C13.0778 6.20165 12.7643 6.2143 12.5303 6.38473C12.2966 6.55482 12.1881 6.84907 12.256 7.13034C12.3485 7.51446 12.7347 7.75079 13.1188 7.65826Z" fill="#793333"/>
</g>
<defs>
<filter id="filter0_d" x="46.08" y="11.4" width="205.667" height="37.241" filterUnits="userSpaceOnUse" color-interpolation-filters="sRGB">
<feFlood flood-opacity="0" result="BackgroundImageFix"/>
<feColorMatrix in="SourceAlpha" type="matrix" values="0 0 0 0 0 0 0 0 0 0 0 0 0 0 0 0 0 0 127 0"/>
<feOffset dy="4"/>
<feGaussianBlur stdDeviation="2"/>
<feColorMatrix type="matrix" values="0 0 0 0 0 0 0 0 0 0 0 0 0 0 0 0 0 0 0.25 0"/>
<feBlend mode="normal" in2="BackgroundImageFix" result="effect1_dropShadow"/>
<feBlend mode="normal" in="SourceGraphic" in2="effect1_dropShadow" result="shape"/>
</filter>
<clipPath id="clip0">
<rect width="43" height="43" fill="white"/>
</clipPath>
</defs>
</svg>
