<svg width="31" height="32" viewBox="0 0 31 32" fill="none" xmlns="http://www.w3.org/2000/svg">
<path d="M30.1154 14.4358L16.802 0.584802C16.0494 -0.194934 14.8262 -0.194934 14.0737 0.584802C13.3192 1.36454 13.3192 2.63103 14.0737 3.41077L26.0288 15.8487L14.0737 28.2867C13.3192 29.0664 13.3192 30.3329 14.0737 31.1126C14.8281 31.8924 16.0494 31.8924 16.802 31.1126L30.1135 17.2616C30.8409 16.5118 30.8428 15.1879 30.1154 14.4358Z" fill="#DDCACA"/>
<path d="M16.6076 14.4358L3.29609 0.584802C2.54163 -0.194934 1.32029 -0.194934 0.567765 0.584802C-0.186689 1.36454 -0.186689 2.63103 0.567765 3.41077L12.521 15.8487L0.565841 28.2867C-0.188614 29.0664 -0.188614 30.3329 0.565841 31.1126C1.32029 31.8924 2.54163 31.8924 3.29416 31.1126L16.6057 17.2616C17.333 16.5118 17.335 15.1879 16.6076 14.4358Z" fill="#DDCACA"/>
</svg>
