<svg width="14" height="14" viewBox="0 0 14 14" fill="none" xmlns="http://www.w3.org/2000/svg">
<g clip-path="url(#clip0)">
<path d="M6.78021 3.20224C9.04028 3.22441 10.4561 3.0838 10.6473 5.58884H13.4034C13.4034 1.70814 10.0189 1.18506 6.70847 1.18506C3.39781 1.18506 0.0135803 1.70814 0.0135803 5.58884H2.7482C2.95978 3.03605 4.53893 3.18032 6.78021 3.20224Z" fill="#793333"/>
<path d="M1.38035 6.83651C2.05162 6.83651 2.61018 6.87668 2.73436 6.21638C2.75106 6.12663 2.76071 6.02489 2.76071 5.90723H2.72888H0C0 6.88947 0.618042 6.83651 1.38035 6.83651Z" fill="#793333"/>
<path d="M10.6651 5.90723H10.6393C10.6393 6.02567 10.6494 6.12768 10.6685 6.21638C10.7994 6.82529 11.3572 6.78746 12.0261 6.78746C12.7921 6.78746 13.413 6.83781 13.413 5.90723H10.6651Z" fill="#793333"/>
<path d="M9.31865 5.23813V4.84784C9.31865 4.67331 9.1175 4.66235 8.86914 4.66235H8.46346C8.21535 4.66235 8.01421 4.67331 8.01421 4.84784V5.18413V5.44502H5.14445V5.18413V4.84784C5.14445 4.67331 4.9433 4.66235 4.6952 4.66235H4.28926C4.04116 4.66235 3.84001 4.67331 3.84001 4.84784V5.23813V5.57885C3.18623 6.2582 1.04695 9.15014 0.969208 9.50025L0.970251 11.8365C0.970251 12.0522 1.14583 12.2278 1.36158 12.2278H11.7971C12.0128 12.2278 12.1884 12.0522 12.1884 11.8365V9.48851C12.1114 9.14857 9.97269 6.25794 9.31865 5.57859V5.23813ZM5.00305 9.81461C4.79303 9.81461 4.62267 9.64452 4.62267 9.43424C4.62267 9.22397 4.79303 9.05387 5.00305 9.05387C5.21306 9.05387 5.38342 9.22397 5.38342 9.43424C5.38342 9.64452 5.21306 9.81461 5.00305 9.81461ZM5.00305 8.51018C4.79303 8.51018 4.62267 8.34008 4.62267 8.12981C4.62267 7.91953 4.79303 7.74943 5.00305 7.74943C5.21306 7.74943 5.38342 7.91953 5.38342 8.12981C5.38342 8.34008 5.21306 8.51018 5.00305 8.51018ZM5.00305 7.206C4.79303 7.206 4.62267 7.03591 4.62267 6.82563C4.62267 6.61562 4.79303 6.44526 5.00305 6.44526C5.21306 6.44526 5.38342 6.61562 5.38342 6.82563C5.38342 7.03591 5.21306 7.206 5.00305 7.206ZM6.56837 9.81461C6.35836 9.81461 6.188 9.64452 6.188 9.43424C6.188 9.22397 6.35836 9.05387 6.56837 9.05387C6.77865 9.05387 6.94874 9.22397 6.94874 9.43424C6.94874 9.64452 6.77865 9.81461 6.56837 9.81461ZM6.56837 8.51018C6.35836 8.51018 6.188 8.34008 6.188 8.12981C6.188 7.91953 6.35836 7.74943 6.56837 7.74943C6.77865 7.74943 6.94874 7.91953 6.94874 8.12981C6.94874 8.34008 6.77865 8.51018 6.56837 8.51018ZM6.56837 7.206C6.35836 7.206 6.188 7.03591 6.188 6.82563C6.188 6.61562 6.35836 6.44526 6.56837 6.44526C6.77865 6.44526 6.94874 6.61562 6.94874 6.82563C6.94874 7.03591 6.77865 7.206 6.56837 7.206ZM8.13369 9.81461C7.92342 9.81461 7.75332 9.64452 7.75332 9.43424C7.75332 9.22397 7.92342 9.05387 8.13369 9.05387C8.34397 9.05387 8.51407 9.22397 8.51407 9.43424C8.51407 9.64452 8.34397 9.81461 8.13369 9.81461ZM8.13369 8.51018C7.92342 8.51018 7.75332 8.34008 7.75332 8.12981C7.75332 7.91953 7.92342 7.74943 8.13369 7.74943C8.34397 7.74943 8.51407 7.91953 8.51407 8.12981C8.51407 8.34008 8.34397 8.51018 8.13369 8.51018ZM8.13369 7.206C7.92342 7.206 7.75332 7.03591 7.75332 6.82563C7.75332 6.61562 7.92342 6.44526 8.13369 6.44526C8.34397 6.44526 8.51407 6.61562 8.51407 6.82563C8.51407 7.03591 8.34397 7.206 8.13369 7.206Z" fill="#793333"/>
</g>
<defs>
<clipPath id="clip0">
<rect width="13.413" height="13.413" fill="white"/>
</clipPath>
</defs>
</svg>
