<svg width="305" height="185" viewBox="0 0 305 185" fill="none" xmlns="http://www.w3.org/2000/svg">
<path d="M304.024 167.663C298.195 156.615 289.226 146.118 281.603 135.622C280.706 134.241 277.118 134.241 275.773 135.069C268.151 140.041 259.631 145.013 254.698 151.09H254.249C199.543 153.576 146.631 124.849 108.964 103.857C65.4681 79.8262 26.0079 50.5474 10.3135 15.4681C9.41665 11.0486 8.51982 6.35295 8.51982 1.65729C8.51982 -0.552431 3.58729 -0.552431 3.13888 1.65729C3.13888 2.48594 3.13888 3.31458 3.13888 4.14323C1.34524 4.14323 0 4.97188 0 6.35295C0.448412 9.39132 1.79365 12.4297 2.69047 15.4681C6.27776 90.3224 127.349 162.415 245.73 167.11C241.694 171.53 238.107 176.225 233.623 180.645C231.38 182.578 234.968 184.511 238.107 184.235C260.528 182.302 280.707 175.672 301.333 170.701C303.126 170.425 304.92 169.32 304.024 167.663ZM243.936 178.711C246.627 175.12 248.42 171.53 251.559 167.939C252.457 166.557 251.111 165.453 249.765 165.177C249.765 164.348 248.869 163.795 247.523 163.519C140.353 152.471 53.361 107.448 21.0754 46.4037C42.1507 70.4345 74.4364 91.4268 106.274 109.105C129.591 122.087 154.254 133.688 181.158 143.355C202.234 150.813 228.69 157.718 252.904 153.023C251.559 155.233 256.94 156.338 258.734 154.681C264.563 149.985 270.392 145.565 276.67 141.422C282.947 149.985 289.674 158.547 294.606 167.386C278.015 171.253 261.424 176.225 243.936 178.711Z" fill="#793333" fill-opacity="0.5"/>
</svg>
