<svg width="337" height="352" viewBox="0 0 337 352" fill="none" xmlns="http://www.w3.org/2000/svg">
<path d="M12.9202 244.465C25.1435 247.041 38.9483 246.849 51.8936 247.692C53.529 247.885 55.8213 245.125 56.0434 243.561C57.0896 234.521 58.7094 224.79 57.1874 217.113L57.4739 216.768C90.5188 173.099 146.427 150.754 186.643 135.195C232.921 117.093 280.658 105.448 317.67 115.792C321.642 117.926 325.827 120.237 329.439 123.237C331.139 124.649 334.291 120.855 332.878 119.098C332.24 118.569 331.603 118.039 330.965 117.51C332.112 116.13 332.334 114.566 331.271 113.683C328.648 112.086 325.451 111.18 322.541 109.928C262.67 64.8558 129.852 111.918 50.595 199.977C49.7743 194.049 48.4545 188.29 47.92 182.016C47.8662 179.056 44.0862 180.58 42.2929 183.171C29.4532 201.653 21.6587 221.411 12.3023 240.454C11.3691 242.009 11.0728 244.095 12.9202 244.465ZM42.8175 191.185C43.8599 195.549 45.4763 199.223 46.2326 203.932C46.7218 205.505 48.4314 205.175 49.5034 204.317C50.1408 204.847 51.1392 204.51 52.2109 203.651C129.191 128.275 219.411 90.1296 286.997 104.302C255.045 105.158 218.267 116.578 184.325 129.772C159.439 139.412 134.757 150.97 110.128 165.488C90.9247 176.934 68.7075 192.872 56.8463 214.498C56.0061 212.051 51.7179 215.484 51.8465 217.923C51.7336 225.407 51.4081 232.715 50.5836 240.191C39.9861 239.548 29.1015 239.251 19.1512 237.397C26.7775 222.164 33.5549 206.225 42.8175 191.185Z" fill="#793333" fill-opacity="0.5"/>
</svg>
