<svg width="512" height="512" viewBox="0 0 512 512" fill="none" xmlns="http://www.w3.org/2000/svg">
<path d="M226 330H135C126.716 330 120 336.716 120 345C120 353.284 126.716 360 135 360H226C234.284 360 241 353.284 241 345C241 336.716 234.284 330 226 330Z" fill="#793333"/>
<path d="M196 270H135C126.716 270 120 276.716 120 285C120 293.284 126.716 300 135 300H196C204.284 300 211 293.284 211 285C211 276.716 204.284 270 196 270Z" fill="#793333"/>
<path d="M497 240H482V225C482 167.103 434.449 120 376 120H180V75V15C180 6.716 173.284 0 165 0H75C66.716 0 60 6.716 60 15V75C60 83.284 66.716 90 75 90H150V120H105C47.103 120 0 167.103 0 225V405C0 413.284 6.716 420 15 420H181V497C181 505.284 187.716 512 196 512H316C324.284 512 331 505.284 331 497V420C344.015 420 493.852 420 497 420C505.284 420 512 413.284 512 405V255C512 246.8 505.32 240 497 240ZM376 150C417.907 150 452 183.645 452 225V240H301V225C301 183.645 334.645 150 376 150ZM456.158 270L391.047 325.283L326.549 270H456.158ZM90 60V30H150V60H90ZM30 390V225C30 183.645 63.645 150 105 150H150V195C150 203.284 156.716 210 165 210C173.284 210 180 203.284 180 195V149.9H302.596C283.113 168.973 271 195.646 271 225V255V390C263.462 390 40.448 390 30 390ZM241 482H211V420H241V482ZM301 482H271V420C281.856 420 290.144 420 301 420V482ZM482 390C466.279 390 307.628 390 301 390V287.613L381.238 356.389C386.835 361.187 395.089 361.206 400.708 356.434L482 287.413V390Z" fill="#793333"/>
</svg>
