<svg width="480" height="481" viewBox="0 0 480 481" fill="none" xmlns="http://www.w3.org/2000/svg">
<path d="M472 336H467.764C475.67 327.22 480.031 315.815 480 304C480 276.5 459.492 262.7 445.794 258.131C444.353 255.426 442.283 253.107 439.758 251.37C437.233 249.632 434.328 248.527 431.286 248.147C428.245 247.768 425.157 248.125 422.283 249.189C419.408 250.252 416.832 251.991 414.77 254.259L412.259 257.021C408.026 257.504 403.891 258.633 400 260.368V235.314L410.343 224.97C412.925 222.388 414.722 219.127 415.526 215.566C416.33 212.004 416.108 208.287 414.886 204.846C413.664 201.406 411.491 198.382 408.62 196.126C405.749 193.87 402.297 192.474 398.665 192.1C397.02 187.4 393.955 183.326 389.895 180.442C385.835 177.558 380.98 176.006 376 176H368C361.637 176.007 355.537 178.538 351.038 183.038C346.538 187.537 344.007 193.637 344 200V256H328V239.826C328.005 233.562 326.169 227.435 322.721 222.206C319.273 216.977 314.364 212.876 308.605 210.413L270.454 194.062L266.768 183.007C265.592 179.473 263.536 176.297 260.792 173.777C258.049 171.258 254.709 169.479 251.088 168.608C247.466 167.737 243.683 167.803 240.094 168.799C236.505 169.795 233.229 171.689 230.575 174.302C228.422 173.329 226.079 172.85 223.717 172.901C221.354 172.951 219.034 173.529 216.924 174.593V174.593L205.056 179.72C202.399 177.686 199.229 176.429 195.899 176.09C192.57 175.751 189.212 176.343 186.199 177.801C183.187 179.258 180.638 181.524 178.837 184.345C177.036 187.165 176.054 190.431 176 193.777L164.31 196.746L158.243 166.435L152.2 136.213L155.059 124.991L171.907 132.1C177.136 134.325 182.987 134.616 188.411 132.922C193.836 131.228 198.481 127.659 201.515 122.854L208.4 112H216C218.002 112 219.931 111.25 221.406 109.897C222.882 108.545 223.796 106.688 223.97 104.694L225.97 81.726C227.549 77.264 232 63.979 232 56C232 55.536 231.987 55.083 231.976 54.63C231.976 54.53 232 54.43 232 54.32C231.984 39.9185 226.255 26.1115 216.072 15.9281C205.888 5.74466 192.082 0.0164096 177.68 0H167.71C156.658 0.00091169 145.794 2.86354 136.177 8.3092C126.559 13.7549 118.516 21.598 112.829 31.075C108.852 37.7036 102.634 42.6897 95.3 45.131L62.892 55.931C54.8218 58.6249 47.6756 63.5413 42.2746 70.1151C36.8737 76.6889 33.4372 84.6532 32.3602 93.0927C31.2833 101.532 32.6095 110.104 36.1865 117.824C39.7634 125.543 45.446 132.097 52.581 136.731L28.829 186.531C9.84429 226.318 -0.00558535 269.846 2.37606e-06 313.93V480H16V400H55.24L48.033 479.276L63.967 480.724L71.306 400H103.24L96.033 479.276L111.967 480.724L119.306 400H144C145.28 400 146.54 399.693 147.677 399.105C148.813 398.517 149.792 397.665 150.531 396.62C151.27 395.576 151.748 394.369 151.924 393.102C152.1 391.835 151.97 390.544 151.544 389.337L124.252 312H220C225.302 311.994 230.386 309.885 234.135 306.135C237.885 302.386 239.994 297.302 240 292V276C239.994 270.698 237.885 265.614 234.135 261.865C230.386 258.115 225.302 256.006 220 256H216V254.24C216.007 251.81 215.521 249.404 214.572 247.167C213.623 244.93 212.231 242.908 210.479 241.224L224.805 235.494C225.674 237.285 227.181 238.688 229.029 239.428L264 253.417V312C263.991 320.66 266.807 329.086 272.022 336H224C221.878 336 219.843 336.843 218.343 338.343C216.843 339.843 216 341.878 216 344V376C216 378.122 216.843 380.157 218.343 381.657C219.843 383.157 221.878 384 224 384H240V464C240 466.122 240.843 468.157 242.343 469.657C243.843 471.157 245.878 472 248 472H472C474.122 472 476.157 471.157 477.657 469.657C479.157 468.157 480 466.122 480 464V344C480 341.878 479.157 339.843 477.657 338.343C476.157 336.843 474.122 336 472 336ZM415.86 272.8H416C417.115 272.8 418.217 272.567 419.237 272.116C420.256 271.665 421.17 271.006 421.92 270.181L426.609 265.022C426.902 264.7 427.259 264.444 427.657 264.268C428.055 264.092 428.485 264 428.92 264C431.246 264 432.148 266.479 432.982 268.225C433.443 269.324 434.162 270.295 435.078 271.057C435.994 271.819 437.08 272.35 438.244 272.604C442.936 273.901 447.359 276.025 451.304 278.877C459.729 284.984 464.004 293.437 464.004 304C464 312.486 460.627 320.623 454.627 326.623C448.627 332.623 440.49 335.996 432.004 336H424.004C419.036 335.984 414.14 334.818 409.698 332.592C405.257 330.367 401.391 327.143 398.404 323.174C399.464 319.544 400.001 315.782 400 312V279.474C404.298 275.393 409.937 273.02 415.86 272.8V272.8ZM185.969 207.754C187.693 207.316 189.223 206.316 190.315 204.912C191.407 203.507 192 201.779 192 200V194.073C192 193.614 192.152 193.168 192.434 192.804C192.715 192.441 193.108 192.182 193.553 192.066C193.997 191.951 194.468 191.987 194.89 192.168C195.312 192.349 195.662 192.665 195.885 193.066C196.827 194.762 198.354 196.058 200.181 196.713C202.008 197.367 204.011 197.335 205.816 196.622L218.938 191.441C219.155 191.355 219.369 191.26 219.578 191.155L224 188.944V218.583L116.226 261.693C111.333 263.651 106.035 264.379 100.795 263.815C95.5548 263.25 90.5331 261.41 86.169 258.456C81.805 255.501 78.2315 251.522 75.7614 246.867C73.2913 242.211 71.9998 237.021 72 231.751V144C72 139.757 73.6857 135.687 76.6863 132.686C79.6869 129.686 83.7565 128 88 128C92.2435 128 96.3131 129.686 99.3137 132.686C102.314 135.687 104 139.757 104 144V218.286C104 219.504 104.278 220.706 104.813 221.801C105.349 222.895 106.127 223.853 107.088 224.601C108.05 225.349 109.17 225.867 110.362 226.117C111.555 226.366 112.788 226.34 113.969 226.04L185.969 207.754ZM120 208V165.319C126.677 171.143 134.98 174.777 143.789 175.729L148.789 200.69L120 208ZM210.12 79.306L208.667 96H204C202.652 95.9999 201.326 96.3405 200.145 96.9899C198.964 97.6394 197.966 98.5768 197.244 99.715L188.006 114.282C186.993 115.883 185.443 117.072 183.634 117.636C181.824 118.2 179.874 118.101 178.13 117.359L161.29 110.254C159.169 109.355 156.878 108.925 154.575 108.994C152.273 109.063 150.012 109.629 147.948 110.652C145.884 111.676 144.066 113.134 142.618 114.926C141.17 116.718 140.126 118.801 139.558 121.034L136.248 134.024C135.952 135.184 135.921 136.395 136.155 137.569L140.4 158.79C133.818 156.755 128.254 152.299 124.828 146.322L119.028 136.168C118.612 134.522 118.065 132.912 117.391 131.354C118.832 129.977 120.182 128.507 121.431 126.954L154.831 84.983C155.623 83.9871 156.167 82.8165 156.416 81.5685C156.665 80.3204 156.613 79.0309 156.264 77.807L153.993 69.864C153.69 68.7824 153.682 67.6396 153.97 66.5539C154.257 65.4682 154.83 64.4791 155.628 63.689L155.818 63.499C156.93 62.3921 158.435 61.7706 160.003 61.7706C161.572 61.7706 163.077 62.3921 164.189 63.499L170.339 69.659C171.272 70.5934 172.421 71.2824 173.685 71.6645C174.949 72.0466 176.288 72.11 177.582 71.849L214.537 64.4C213.415 68.823 211.847 73.766 210.573 77.273C210.334 77.9281 210.182 78.6115 210.12 79.306V79.306ZM53.507 81.742C57.0854 76.7647 62.1432 73.0437 67.96 71.109L100.36 60.309C111.319 56.6611 120.61 49.212 126.554 39.309C130.819 32.2017 136.85 26.3195 144.063 22.2348C151.275 18.1502 159.421 16.0022 167.71 16H176C185.22 15.9628 194.166 19.1269 201.312 24.9521C208.459 30.7772 213.362 38.9023 215.184 47.94L178.628 55.309L175.5 52.178C171.383 48.0773 165.809 45.7752 159.999 45.7762C154.188 45.7771 148.615 48.0809 144.5 52.183L144.31 52.373C141.495 55.1826 139.483 58.6935 138.481 62.5422C137.478 66.3908 137.523 70.4374 138.61 74.263L139.747 78.24L108.918 116.98C108.46 117.554 107.983 118.108 107.488 118.643C100.817 113.499 92.3833 111.201 84.0247 112.248C75.6662 113.295 68.0602 117.603 62.864 124.233C59.2859 122.218 56.1734 119.47 53.73 116.17C51.2865 112.869 49.567 109.09 48.6839 105.08C47.8009 101.069 47.7741 96.9176 48.6054 92.896C49.4367 88.8745 51.1073 85.0737 53.508 81.742H53.507ZM16 384V313.93C15.9927 272.228 25.3103 231.051 43.271 193.415L56 166.728V231.751C56.0158 243.063 59.9999 254.01 67.2579 262.686C74.5159 271.362 84.5879 277.217 95.719 279.23L132.693 384H16ZM220 272C221.061 272 222.078 272.421 222.828 273.172C223.579 273.922 224 274.939 224 276V292C224 293.061 223.579 294.078 222.828 294.828C222.078 295.579 221.061 296 220 296H124.1C122.197 295.994 120.298 295.823 118.425 295.489L112.693 279.248C115.935 278.674 119.11 277.769 122.168 276.548L133.54 272H184C185.679 272 187.315 271.472 188.677 270.49C190.039 269.509 191.058 268.124 191.589 266.531L195.907 253.585C196.047 253.165 196.316 252.8 196.674 252.541C197.033 252.281 197.464 252.141 197.907 252.14C198.231 252.141 198.55 252.218 198.839 252.365C199.186 252.54 199.479 252.808 199.684 253.139C199.888 253.47 199.998 253.851 200 254.24V264C200 266.122 200.843 268.157 202.343 269.657C203.843 271.157 205.878 272 208 272H220ZM178.235 256H173.535L178.953 253.833L178.235 256ZM280 312V248C280 246.401 279.521 244.839 278.625 243.515C277.728 242.191 276.456 241.166 274.971 240.572L240 226.583V189.947C240 188.535 240.502 187.169 241.417 186.093C242.332 185.017 243.6 184.302 244.994 184.076C246.388 183.85 247.817 184.127 249.026 184.858C250.234 185.589 251.143 186.726 251.589 188.066L256.411 202.53C256.768 203.602 257.348 204.586 258.113 205.417C258.878 206.248 259.811 206.908 260.849 207.353L302.3 225.119C305.18 226.35 307.635 228.401 309.359 231.015C311.084 233.63 312.002 236.694 312 239.826V264C312 266.122 312.843 268.157 314.343 269.657C315.843 271.157 317.878 272 320 272H352C354.122 272 356.157 271.157 357.657 269.657C359.157 268.157 360 266.122 360 264V200C360.002 197.879 360.846 195.846 362.346 194.346C363.846 192.846 365.879 192.002 368 192H376C378.121 192.002 380.154 192.846 381.654 194.346C383.154 195.846 383.998 197.879 384 200C384 202.122 384.843 204.157 386.343 205.657C387.843 207.157 389.878 208 392 208H396.687C397.342 208 397.983 208.195 398.528 208.559C399.073 208.923 399.497 209.44 399.748 210.046C399.999 210.651 400.064 211.318 399.937 211.96C399.809 212.603 399.493 213.194 399.03 213.657L386.343 226.343C385.6 227.086 385.011 227.968 384.609 228.938C384.207 229.909 384 230.949 384 232V312C383.993 318.363 381.462 324.463 376.962 328.962C372.463 333.462 366.363 335.993 360 336H304C297.637 335.993 291.537 333.462 287.038 328.962C282.538 324.463 280.007 318.363 280 312V312ZM232 352H464V368H232V352ZM464 456H256V384H464V456Z" fill="#793333"/>
</svg>
