<svg width="512" height="512" viewBox="0 0 512 512" fill="none" xmlns="http://www.w3.org/2000/svg">
<path d="M394.449 345.034C398.407 345.034 401.616 341.825 401.616 337.867C401.616 333.909 398.407 330.7 394.449 330.7C390.491 330.7 387.282 333.909 387.282 337.867C387.282 341.825 390.491 345.034 394.449 345.034Z" fill="#793333"/>
<path d="M167.027 455.006C170.985 455.006 174.194 451.797 174.194 447.839C174.194 443.881 170.985 440.672 167.027 440.672C163.069 440.672 159.86 443.881 159.86 447.839C159.86 451.797 163.069 455.006 167.027 455.006Z" fill="#793333"/>
<path d="M498.925 232.523C498.747 232.416 498.564 232.323 498.385 232.22C503.545 211.897 500.99 195.404 490.93 185.344C479.345 173.757 458.886 172.176 434.903 180.607C435.314 136.821 419.642 94.095 390.419 60.832C356.455 22.173 307.46 0 255.999 0C209.163 0 164.903 17.946 131.373 50.534C128.402 53.421 128.335 58.169 131.222 61.139C134.11 64.11 138.858 64.178 141.827 61.289C172.542 31.44 213.089 15 256 15C303.146 15 348.033 35.313 379.15 70.732C410.268 106.151 424.632 153.279 418.562 200.033L410.203 264.414L401.434 269.025C394.64 272.597 386.487 272.681 379.623 269.247L281.391 220.113C265.492 212.162 246.508 212.162 230.609 220.113L132.376 269.247C125.513 272.682 117.359 272.6 110.565 269.025L101.796 264.414L93.437 200.033C93.065 197.171 92.777 194.314 92.552 191.461C92.551 191.44 92.548 191.418 92.547 191.397C89.859 157.053 97.814 123.543 115.772 93.985C117.923 90.445 116.796 85.832 113.256 83.68C109.717 81.531 105.103 82.656 102.952 86.196C85.433 115.032 76.634 147.306 77.048 180.592C53.086 172.18 32.647 173.766 21.069 185.344C11.009 195.404 8.454 211.898 13.614 232.221C13.435 232.324 13.252 232.417 13.074 232.524C4.892 237.464 0.004 246.12 0 255.682V256C0 324.38 26.629 388.668 74.98 437.02C123.332 485.371 187.62 512 256 512C285.74 512 314.884 506.944 342.621 496.972C369.426 487.336 394.309 473.345 416.578 455.388C419.803 452.787 420.309 448.066 417.709 444.841C415.109 441.615 410.387 441.112 407.163 443.71C364.545 478.075 310.861 497 256 497C191.626 497 131.106 471.932 85.587 426.413C40.068 380.895 15 320.374 15 256V255.685C15.002 251.362 17.125 247.6 20.827 245.366C24.528 243.131 28.846 243.004 32.672 245.016L103.585 282.303C114.641 288.116 127.913 288.251 139.086 282.663L237.319 233.529C249.015 227.677 262.983 227.677 274.68 233.529L372.913 282.663C384.086 288.251 397.357 288.116 408.415 282.303L479.327 245.015C483.154 243.004 487.472 243.13 491.172 245.366C494.874 247.6 496.997 251.362 496.999 255.682V256C496.999 314.44 475.819 370.807 437.36 414.716C434.631 417.832 434.945 422.571 438.061 425.299C441.177 428.029 445.915 427.716 448.644 424.599C489.5 377.954 512 318.078 512 256V255.679C511.996 246.12 507.108 237.464 498.925 232.523ZM39.654 231.739C36.015 229.824 32.102 228.794 28.173 228.628C24.461 213.936 25.674 201.952 31.676 195.95C39.623 188.001 57.534 188.497 77.996 197.02C78.165 198.667 78.349 200.315 78.563 201.965L85.563 255.879L39.654 231.739ZM483.826 228.629C479.898 228.795 475.985 229.826 472.346 231.738L426.437 255.878L433.437 201.965C433.651 200.316 433.84 198.667 434.007 197.018C454.465 188.497 472.376 188.003 480.323 195.951C486.325 201.953 487.538 213.937 483.826 228.629Z" fill="#793333"/>
<path d="M420.287 384.635C424.245 384.635 427.454 381.426 427.454 377.468C427.454 373.51 424.245 370.301 420.287 370.301C416.329 370.301 413.12 373.51 413.12 377.468C413.12 381.426 416.329 384.635 420.287 384.635Z" fill="#793333"/>
<path d="M225.773 184.457L241.248 196.912C245.522 200.353 250.76 202.073 256 202.073C261.238 202.072 266.478 200.352 270.751 196.913L286.227 184.456C293.988 178.209 295.449 167.023 289.552 158.993L267.241 128.603C264.624 125.039 260.422 122.911 256 122.911C251.578 122.911 247.376 125.039 244.759 128.603H244.76L222.448 158.993C216.551 167.023 218.012 178.209 225.773 184.457ZM234.539 167.87L256 138.639L277.461 167.87C278.596 169.416 278.314 171.569 276.821 172.771L261.345 185.228C258.248 187.72 253.752 187.721 250.654 185.227L235.179 172.772C233.685 171.569 233.404 169.416 234.539 167.87Z" fill="#793333"/>
<path d="M127.031 345.034C130.989 345.034 134.198 341.825 134.198 337.867C134.198 333.909 130.989 330.7 127.031 330.7C123.073 330.7 119.864 333.909 119.864 337.867C119.864 341.825 123.073 345.034 127.031 345.034Z" fill="#793333"/>
<path d="M346.985 147.673V133.581C346.985 129.438 343.627 126.081 339.485 126.081C335.343 126.081 331.985 129.438 331.985 133.581V147.673C331.985 151.816 335.343 155.173 339.485 155.173C343.627 155.173 346.985 151.815 346.985 147.673Z" fill="#793333"/>
<path d="M180.015 147.673V133.581C180.015 129.438 176.657 126.081 172.515 126.081C168.373 126.081 165.015 129.438 165.015 133.581V147.673C165.015 151.816 168.373 155.173 172.515 155.173C176.657 155.173 180.015 151.815 180.015 147.673Z" fill="#793333"/>
<path d="M91.713 361.008C95.6712 361.008 98.88 357.799 98.88 353.841C98.88 349.883 95.6712 346.674 91.713 346.674C87.7548 346.674 84.546 349.883 84.546 353.841C84.546 357.799 87.7548 361.008 91.713 361.008Z" fill="#793333"/>
</svg>
