<svg width="469" height="486" viewBox="0 0 469 486" fill="none" xmlns="http://www.w3.org/2000/svg">
<path d="M428.856 254.229C414.184 168.92 343.815 102.176 258.148 91.519C272.032 68.418 274.234 40.049 262.838 21.004C258.156 13.168 246.817 0 223.594 0C216.506 0 208.702 1.26 200.403 3.739C177.602 10.6 168.775 30.799 171.872 47.219C174.327 60.127 185.496 75.222 208.922 75.222C210.45 75.222 212.011 75.165 212.97 75.043C235.454 75.043 246.216 60.501 246.899 46.105C247.192 40.513 245.932 34.083 242.892 28.043C243.802 29.075 244.64 30.213 245.379 31.457C254.174 46.17 248.891 72.937 234.145 89.983H233.812C137.805 89.983 54.6737 160.515 38.7257 254.717C17.2097 259.261 1.47266 278.33 1.47266 300.757C1.47266 325.313 20.3877 345.554 45.1067 347.667C70.9307 429.254 147.933 485.861 233.803 485.861C319.665 485.861 396.626 429.327 422.508 347.846C448.056 347.334 468.686 326.419 468.686 300.765C468.678 277.363 451.527 257.749 428.856 254.229ZM421.573 327.476C420.077 327.476 418.557 327.33 416.834 327.021L407.567 325.379L405.234 334.394C384.335 411.583 313.836 465.5 233.794 465.5C153.955 465.5 83.5447 411.729 62.5327 334.728L60.2407 326.331L51.5187 327.306C50.4617 327.428 49.4867 327.477 48.5757 327.477C33.8227 327.477 21.8407 315.479 21.8407 300.758C21.8407 286.167 33.2857 274.446 47.8687 274.064L56.6067 273.893L57.7687 265.187C69.0427 176.911 144.728 110.346 233.801 110.346C322.955 110.346 398.649 176.935 409.898 265.269L411.109 274.511L421.57 274.04C436.315 274.04 448.313 286.03 448.313 300.759C448.316 315.486 436.327 327.476 421.573 327.476ZM208.759 26.841C220.415 28.003 226.975 37.018 226.577 45.057C226.252 51.43 221.545 54.681 212.084 54.714C195.778 56.283 192.6 47.122 191.909 43.415C190.698 37.018 193.835 29.223 201.923 24.996L201.809 26.118L208.759 26.841Z" fill="#793333"/>
<path d="M235.079 289.759C175.968 289.759 127.879 324.159 127.879 366.46C127.879 374.068 129.423 379.547 132.626 383.245C135.796 386.887 140.275 388.691 146.38 388.691C154.322 388.691 164.499 385.627 176.383 382.042C192.851 377.124 213.327 370.971 235.071 370.971C256.791 370.971 277.307 377.124 293.816 382.083C305.643 385.635 315.836 388.692 323.762 388.692C336.044 388.692 342.271 381.197 342.271 366.46C342.279 324.159 294.166 289.759 235.079 289.759Z" fill="#793333"/>
<path d="M132.253 231.778C132.554 231.51 162.646 203.222 188.543 203.222C192.664 203.222 196.533 203.954 199.972 205.4L201.143 205.912L204.663 197.613L203.468 197.101C198.908 195.191 193.868 194.215 188.544 194.215C159.045 194.215 127.401 224.031 126.068 225.291L125.141 226.201L131.327 232.671L132.253 231.778Z" fill="#793333"/>
<path d="M284.997 194.232C279.681 194.232 274.641 195.191 270.081 197.101L268.886 197.613L272.398 205.912L273.585 205.4C277.023 203.953 280.852 203.222 284.989 203.222C310.895 203.222 340.987 231.509 341.279 231.778L342.206 232.664L348.424 226.194L347.489 225.284C346.156 224.024 314.699 194.232 284.997 194.232Z" fill="#793333"/>
<path d="M38.2046 220.276L42.2856 220.081L42.4966 215.992C42.6756 211.928 43.2116 191.354 35.7826 183.917C31.8326 179.983 26.5646 177.788 20.9556 177.788C15.3386 177.788 10.0556 179.983 6.10463 183.917C-2.04037 192.086 -2.04037 205.409 6.13763 213.586C12.0226 219.479 26.2886 220.349 34.2466 220.349C36.2376 220.349 37.6686 220.301 38.2046 220.276ZM20.9556 186.77C24.1586 186.77 27.1736 188.03 29.4416 190.265C32.2296 193.086 33.5056 202.921 33.5876 211.399C24.9546 211.318 15.2906 210.009 12.4856 207.213C7.78763 202.555 7.78763 194.931 12.4856 190.265C14.7216 188.03 17.7366 186.77 20.9556 186.77Z" fill="#793333"/>
<path d="M423.15 190.574L427.198 190.761C427.726 190.777 429.206 190.834 431.23 190.834C439.172 190.834 453.405 189.956 459.298 184.063C467.475 175.878 467.475 162.571 459.322 154.402C455.347 150.452 450.072 148.273 444.471 148.273C438.862 148.273 433.603 150.451 429.628 154.402C422.198 161.84 422.751 182.413 422.946 186.461L423.15 190.574ZM431.84 181.861C431.889 173.415 433.206 163.555 435.994 160.751C438.27 158.491 441.269 157.264 444.472 157.264C447.675 157.264 450.69 158.491 452.958 160.751C457.616 165.449 457.616 173.041 452.958 177.707C450.153 180.495 440.448 181.796 431.84 181.861Z" fill="#793333"/>
</svg>
