<svg width="504" height="504" viewBox="0 0 504 504" fill="none" xmlns="http://www.w3.org/2000/svg">
<path d="M375.181 9.83875C366.701 1.35546 354.339 -1.95924 342.752 1.14326C331.165 4.24576 322.114 13.2941 319.007 24.8799C315.9 36.4657 319.211 48.8288 327.691 57.3121L357.37 86.9913L321.757 122.605L280.209 81.0571C270.248 71.5434 254.566 71.5434 244.604 81.0571C234.774 90.89 234.774 106.829 244.604 116.662L114.028 247.239C83.951 277.436 76.1114 323.284 94.4456 361.759L78.4226 377.807C67.667 388.64 65.5738 405.366 73.3277 418.515L2.56263 489.281C0.380696 491.388 -0.49437 494.509 0.273759 497.443C1.04189 500.378 3.33368 502.67 6.26827 503.438C9.20286 504.206 12.3236 503.331 14.431 501.149L85.1961 430.384C98.3212 438.241 115.113 436.139 125.896 425.289L141.953 409.266C180.424 427.699 226.339 419.846 256.498 389.676L309.905 336.268L369.247 276.918L387.041 259.107C396.878 268.939 412.822 268.935 422.654 259.099C432.486 249.262 432.483 233.317 422.646 223.485L381.098 181.946L416.712 146.333L446.391 176.012C454.841 184.651 467.281 188.083 478.965 184.998C490.649 181.913 499.773 172.787 502.856 161.103C505.939 149.418 502.505 136.978 493.864 128.53L375.181 9.83875ZM114.028 413.421C109.786 417.661 103.604 419.316 97.8115 417.763C92.0186 416.209 87.4944 411.684 85.9431 405.89C84.3919 400.097 86.0492 393.916 90.2909 389.676L103.234 376.733C109.651 386.013 117.693 394.057 126.97 400.478L114.028 413.421ZM363.313 259.107L333.634 229.428C330.354 226.151 325.038 226.153 321.761 229.432C318.484 232.712 318.486 238.027 321.765 241.305L351.444 270.976L333.642 288.786L303.946 259.107C301.839 256.925 298.718 256.05 295.783 256.818C292.849 257.586 290.557 259.878 289.789 262.813C289.021 265.747 289.896 268.868 292.078 270.976L321.748 300.655L303.946 318.457L274.267 288.786C272.159 286.604 269.039 285.729 266.104 286.498C263.169 287.266 260.878 289.557 260.11 292.492C259.341 295.427 260.216 298.547 262.398 300.655L292.078 330.326L244.604 377.807C223.401 399.012 192.495 407.295 163.529 399.534C134.562 391.774 111.937 369.15 104.174 340.184C96.4119 311.219 104.692 280.312 125.896 259.107L256.473 128.53L375.173 247.239L363.313 259.107ZM410.794 247.239C407.473 250.409 402.247 250.409 398.926 247.239L392.992 241.305L262.407 110.728L256.473 104.794C254.073 102.393 253.355 98.7837 254.654 95.6478C255.953 92.5119 259.013 90.4669 262.407 90.4662C264.635 90.4573 266.773 91.3433 268.341 92.9254L410.786 235.371C414.063 238.648 414.063 243.961 410.786 247.239H410.794ZM404.86 134.473L369.247 170.086L333.634 134.473L369.247 98.8596L387.041 116.67L404.86 134.473ZM482.013 164.152C475.369 170.487 464.92 170.487 458.276 164.152L398.926 104.794L375.181 81.0571L339.559 45.4437C333.005 38.8867 333.007 28.2576 339.564 21.7029C346.121 15.1482 356.75 15.1501 363.304 21.7071L482.004 140.407C485.154 143.555 486.924 147.826 486.924 152.28C486.924 156.733 485.154 161.004 482.004 164.152H482.013Z" fill="#793333"/>
<path d="M211.929 291.783C212.248 280.672 207.962 269.922 200.086 262.078C192.646 254.896 182.629 251.011 172.293 251.299C161.956 251.586 152.171 256.022 145.142 263.606C128.212 280.536 130.378 304.558 133.651 340.918C134.214 347.096 134.801 353.659 135.33 360.651C135.649 364.779 138.932 368.058 143.06 368.373C150.052 368.91 156.633 369.506 162.827 370.052C176.257 371.26 188.007 372.318 198.298 372.318C215.924 372.318 229.421 369.237 240.097 358.553C247.406 351.405 251.807 341.804 252.452 331.601C253.035 321.148 249.09 310.949 241.625 303.609C233.824 295.675 223.048 291.384 211.929 291.783V291.783ZM228.237 346.693C216.847 358.074 197.081 356.286 164.329 353.34C160.233 352.971 155.936 352.585 151.504 352.216C151.127 347.767 150.74 343.503 150.371 339.407C147.425 306.673 145.637 286.856 157.01 275.474C160.884 271.03 166.4 268.356 172.289 268.067C178.177 267.779 183.928 269.902 188.217 273.947C194.483 280.66 196.734 290.185 194.135 298.993C193.154 301.997 193.943 305.298 196.178 307.533C198.413 309.768 201.714 310.558 204.719 309.577C213.519 306.97 223.042 309.204 229.765 315.452C233.87 319.425 236.037 324.992 235.699 330.695C235.276 336.767 232.618 342.467 228.237 346.693V346.693Z" fill="#793333"/>
</svg>
