<svg width="406" height="512" viewBox="0 0 406 512" fill="none" xmlns="http://www.w3.org/2000/svg">
<style type="text/css">
    <!-- <![CDATA[
        .mater:hover {
            fill: yellow;
        }
    ]]> -->
</style>
<path class="mater" d="M283.085 297.315C261.213 275.446 225.63 275.447 203.76 297.315C181.892 319.185 181.892 354.77 203.76 376.64C214.695 387.574 229.059 393.042 243.422 393.042C257.786 393.042 272.15 387.574 283.085 376.64C304.955 354.77 304.955 319.185 283.085 297.315ZM268.944 362.497C254.875 376.568 231.977 376.57 217.904 362.497C203.832 348.426 203.832 325.528 217.903 311.457C224.939 304.421 234.181 300.903 243.424 300.903C252.665 300.903 261.907 304.421 268.944 311.457C283.015 325.528 283.015 348.426 268.944 362.497Z M365.677 263.724L365.297 263.29C361.653 259.14 355.333 258.731 351.185 262.377C347.036 266.022 346.626 272.34 350.272 276.489L350.651 276.923C352.628 279.174 355.39 280.323 358.168 280.323C360.511 280.323 362.865 279.504 364.764 277.836C368.913 274.191 369.323 267.873 365.677 263.724Z M389.564 299.812C387.156 294.842 381.172 292.767 376.205 295.173C371.234 297.581 369.158 303.563 371.566 308.532C380.988 327.977 385.765 348.88 385.765 370.658V430C385.765 464.187 357.952 492 323.765 492H253.882C244.508 492 236.882 484.374 236.882 475C236.882 465.626 244.508 458 253.882 458H309.882C333.041 458 351.882 439.159 351.882 416V384C351.882 378.478 347.404 374 341.882 374C336.36 374 331.882 378.478 331.882 384V416C331.882 428.131 322.013 438 309.882 438H266.277L307.841 396.436C341.993 362.284 341.993 306.713 307.841 272.56C273.689 238.408 218.117 238.409 183.965 272.56L97.923 358.602C91.372 365.153 85.938 372.626 81.771 380.814C79.266 385.736 81.225 391.757 86.147 394.262C91.068 396.765 97.089 394.808 99.595 389.886C102.808 383.573 107.003 377.807 112.066 372.744L149.645 335.165C145.963 361.501 148.031 388.282 155.881 414.044C157.194 418.356 161.157 421.132 165.443 421.132C166.409 421.132 167.39 420.99 168.362 420.694C173.645 419.085 176.623 413.497 175.012 408.214C165.094 375.666 165.523 341.282 176.251 308.781C176.285 308.679 176.305 308.576 176.335 308.474L198.107 286.702C224.462 260.347 267.346 260.348 293.698 286.702C320.052 313.056 320.052 355.938 293.698 382.293L207.656 468.335C201.994 473.997 195.399 478.565 188.229 481.883C188.651 479.651 188.881 477.353 188.881 475C188.881 454.598 172.283 438 151.881 438H95.882C83.751 438 73.882 428.131 73.882 416V377.366C73.882 371.844 69.404 367.366 63.882 367.366C58.36 367.366 53.882 371.844 53.882 377.366V416C53.882 439.159 72.723 458 95.882 458H151.881C161.255 458 168.881 465.626 168.881 475C168.881 484.374 161.255 492 151.881 492H81.999C47.812 492 19.999 464.187 19.999 430V370.658C19.999 291.996 83.996 228 162.657 228H243.104C270.18 228 296.524 235.615 319.288 250.021C320.947 251.071 322.798 251.573 324.626 251.573C327.94 251.573 331.183 249.927 333.086 246.919C336.039 242.252 334.65 236.075 329.983 233.122C312.058 221.777 292.191 214.128 271.451 210.476C300.764 191.265 320.168 158.127 320.168 120.538V117.287C320.168 52.615 267.554 0 202.881 0C138.208 0 85.595 52.615 85.595 117.287V120.538C85.595 158.128 104.999 191.266 134.313 210.477C58.088 223.928 0 290.635 0 370.658V430C0 475.215 36.785 512 82 512H151.882C158.204 512 164.159 510.404 169.37 507.597C187.612 505.61 204.82 497.899 218.45 485.637C223.029 500.87 237.177 512 253.883 512H323.765C368.98 512 405.765 475.215 405.765 430V370.658C405.765 345.834 400.314 321.997 389.564 299.812ZM202.881 208C172.002 208 146.881 182.878 146.881 152V125.978C155.095 124.815 168.033 122.692 181.864 119.304C204.168 113.839 220.585 107.2 231.478 99.197C239.682 112.928 251.371 120.325 258.88 123.916V152H258.882C258.882 182.878 233.761 208 202.881 208ZM105.595 120.538V117.287C105.595 63.643 149.237 20 202.882 20C256.527 20 300.169 63.643 300.169 117.287V120.538C300.169 146.403 288.879 169.678 270.973 185.705C276.026 175.54 278.882 164.1 278.882 152V117.168C278.882 112.681 275.962 108.763 271.641 107.556C270.798 107.307 250.919 101.205 244.277 78.902C243.154 75.131 239.924 72.369 236.025 71.845C232.117 71.324 228.281 73.134 226.203 76.473C215.863 93.09 165.295 104.152 135.85 107.221C130.754 107.75 126.882 112.044 126.882 117.168V152C126.882 164.1 129.738 175.54 134.791 185.705C116.884 169.678 105.595 146.403 105.595 120.538Z M219.26 170.074C215.355 166.168 209.025 166.168 205.118 170.074C203.957 171.237 202.065 171.235 200.906 170.074C197 166.169 190.67 166.169 186.763 170.074C182.858 173.979 182.858 180.311 186.763 184.217C191.242 188.696 197.127 190.936 203.012 190.936C208.896 190.936 214.781 188.696 219.26 184.217C223.164 180.312 223.164 173.98 219.26 170.074Z M244.783 340.759C243.323 340.759 242.136 339.571 242.136 338.112C242.136 332.59 237.658 328.112 232.136 328.112C226.614 328.112 222.136 332.59 222.136 338.112C222.136 350.6 232.295 360.759 244.783 360.759C250.305 360.759 254.783 356.281 254.783 350.759C254.783 345.237 250.305 340.759 244.783 340.759Z M70.951 329.35C69.092 327.48 66.512 326.42 63.882 326.42C61.252 326.42 58.672 327.479 56.812 329.35C54.952 331.21 53.882 333.781 53.882 336.42C53.882 339.05 54.951 341.62 56.812 343.49C58.672 345.349 61.252 346.42 63.882 346.42C66.512 346.42 69.092 345.35 70.951 343.49C72.811 341.62 73.882 339.05 73.882 336.42C73.881 333.78 72.811 331.21 70.951 329.35Z M184.172 138.15C182.312 136.28 179.732 135.22 177.102 135.22C174.472 135.22 171.892 136.28 170.032 138.15C168.173 140.01 167.102 142.59 167.102 145.22C167.102 147.85 168.172 150.43 170.032 152.29C171.892 154.15 174.472 155.22 177.102 155.22C179.742 155.22 182.312 154.15 184.172 152.29C186.031 150.43 187.102 147.85 187.102 145.22C187.102 142.58 186.032 140.01 184.172 138.15Z M235.991 138.15C234.132 136.28 231.552 135.22 228.922 135.22C226.292 135.22 223.712 136.28 221.852 138.15C219.992 140.01 218.922 142.59 218.922 145.22C218.922 147.85 219.991 150.43 221.852 152.29C223.712 154.15 226.292 155.22 228.922 155.22C231.552 155.22 234.132 154.15 235.991 152.29C237.851 150.43 238.922 147.85 238.922 145.22C238.922 142.58 237.852 140.01 235.991 138.15Z" fill="#793333"/>
<path class="mater" d="" fill="#793333"/>
<path class="mater" d="" fill="#793333"/>
<path class="mater" d="" fill="#793333"/>
<path class="mater" d="" fill="#793333"/>
<path class="mater" d="" fill="#793333"/>
<path class="mater" d="" fill="#793333"/>
<path class="mater" d="" fill="#793333"/>
</svg>
