<svg width="512" height="512" viewBox="0 0 512 512" fill="none" xmlns="http://www.w3.org/2000/svg">
<path d="M396.439 494.003L342.733 440.29C340.857 438.415 338.314 437.361 335.662 437.361C335.657 437.361 335.652 437.361 335.648 437.361L306.833 437.402C306.77 437.402 306.707 437.402 306.644 437.402C290.738 437.402 274.804 434.477 259.891 428.896L277.182 417.301C284.26 412.555 289.019 405.328 290.584 396.951C292.148 388.573 290.318 380.115 285.43 373.133C279.352 364.453 269.564 359.741 259.598 359.741C259.436 359.741 259.274 359.742 259.111 359.745L298.94 319.916C311.023 307.832 311.023 288.17 298.94 276.086C296 273.146 292.573 270.871 288.841 269.333C291.607 264.631 293.086 259.26 293.086 253.661C293.086 245.383 289.862 237.599 284.009 231.745C278.155 225.891 270.372 222.667 262.093 222.667C256.494 222.667 251.124 224.147 246.421 226.913C244.883 223.181 242.608 219.754 239.668 216.813C233.814 210.959 226.031 207.735 217.752 207.735C209.473 207.735 201.69 210.959 195.836 216.813L181.535 231.114C180.014 227.763 177.893 224.675 175.213 221.994C169.359 216.14 161.576 212.917 153.297 212.917C145.018 212.917 137.235 216.141 131.381 221.994L125.042 228.333L99.271 202.707C91.785 195.221 91.785 183.04 99.271 175.554C106.284 168.541 117.416 168.099 124.949 174.224L149.907 199.183C151.86 201.136 154.419 202.112 156.978 202.112C159.537 202.112 162.097 201.135 164.049 199.183C167.954 195.278 167.954 188.946 164.049 185.041L120.993 141.985C113.507 134.498 113.507 122.317 120.993 114.831C128.479 107.344 140.661 107.345 148.147 114.831L223.584 190.413C225.537 192.366 228.096 193.342 230.655 193.342C233.214 193.342 235.774 192.365 237.726 190.413C241.631 186.508 241.631 180.176 237.726 176.271L180.387 118.786C174.262 111.252 174.705 100.121 181.717 93.109C189.204 85.623 201.386 85.623 208.871 93.109L229.879 114.118C233.785 118.024 240.117 118.024 244.021 114.118C247.926 110.213 247.927 103.881 244.021 99.976L223.013 78.967C207.728 63.683 182.859 63.684 167.575 78.967C162.524 84.018 159.154 90.118 157.441 96.571C150.82 91.793 142.896 89.208 134.57 89.208C124.099 89.208 114.255 93.286 106.851 100.689C93.093 114.447 91.727 135.968 102.737 151.278C96.283 152.99 90.181 156.361 85.129 161.413C70.705 175.838 69.901 198.795 82.702 214.18C76.391 215.923 70.432 219.26 65.481 224.211C50.198 239.495 50.198 264.364 65.481 279.649L69.944 284.112C53.069 304.374 43.898 329.655 43.936 356.352L43.96 372.916L2.92899 413.95C-0.976006 417.855 -0.976006 424.187 2.92899 428.093C4.88199 430.045 7.44099 431.022 9.99999 431.022C12.559 431.022 15.119 430.045 17.071 428.093L61.037 384.126C62.916 382.247 63.97 379.697 63.966 377.04L63.936 356.325C63.9 331.471 73.561 308.102 91.136 290.527L140.762 240.9C140.762 240.9 140.762 240.899 140.763 240.899L145.523 236.139C147.599 234.062 150.359 232.919 153.296 232.919C156.233 232.919 158.993 234.062 161.069 236.139C163.146 238.215 164.289 240.975 164.289 243.912C164.289 246.433 163.441 248.822 161.887 250.762L148.668 263.981C144.763 267.886 144.763 274.218 148.668 278.124C148.677 278.133 148.687 278.14 148.695 278.149C148.704 278.158 148.711 278.167 148.72 278.176C150.673 280.128 153.232 281.105 155.791 281.105C158.35 281.105 160.91 280.128 162.862 278.176L209.976 230.957C212.052 228.88 214.812 227.737 217.749 227.737C220.686 227.737 223.446 228.881 225.522 230.957C229.512 234.947 229.783 241.265 226.343 245.577L178.355 293.67C174.45 297.575 174.45 303.907 178.355 307.813C180.308 309.765 182.867 310.742 185.426 310.742C187.985 310.742 190.545 309.765 192.497 307.813L254.316 245.889C256.392 243.812 259.152 242.669 262.089 242.669C265.026 242.669 267.786 243.813 269.862 245.889C274.148 250.175 274.148 257.149 269.862 261.435L207.939 323.253C204.034 327.158 204.033 333.49 207.939 337.396C211.845 341.3 218.177 341.301 222.081 337.396L270.175 289.408C274.486 285.967 280.804 286.238 284.794 290.23C289.08 294.515 289.08 301.49 284.794 305.775L217.279 373.292C212.523 378.047 212.083 385.339 216.234 390.631C220.384 395.923 227.572 397.234 233.324 393.747L253.721 381.382C258.863 378.263 265.593 379.68 269.042 384.607C270.823 387.15 271.489 390.23 270.919 393.282C270.349 396.332 268.616 398.964 266.039 400.692L218.85 432.336C203.495 442.633 185.614 448.072 167.128 448.072C167.085 448.072 167.04 448.072 166.997 448.072L134.946 448.026C134.941 448.026 134.937 448.026 134.932 448.026C132.28 448.026 129.736 449.08 127.861 450.955L83.894 494.922C79.989 498.827 79.989 505.159 83.894 509.065C85.847 511.017 88.406 511.994 90.965 511.994C93.524 511.994 96.084 511.017 98.036 509.065L139.068 468.033L166.969 468.073C167.022 468.073 167.073 468.073 167.127 468.073C189.592 468.073 211.328 461.461 229.988 448.948L240.093 442.172C260.742 452.136 283.716 457.405 306.639 457.405C306.71 457.405 306.785 457.405 306.857 457.405L331.521 457.37L382.297 508.146C384.25 510.098 386.809 511.075 389.368 511.075C391.927 511.075 394.487 510.098 396.439 508.146C400.344 504.241 400.344 497.909 396.439 494.003ZM104.355 249.024C104.354 249.025 104.354 249.025 104.353 249.026L83.747 269.632L79.624 265.509C72.138 258.022 72.138 245.841 79.624 238.355C86.637 231.342 97.769 230.9 105.302 237.025L110.828 242.551L104.355 249.024Z" fill="#793333"/>
<path d="M509.07 381.379C507.21 379.509 504.63 378.449 502 378.449C499.37 378.449 496.79 379.509 494.93 381.379C493.07 383.239 492 385.809 492 388.449C492 391.079 493.07 393.659 494.93 395.518C496.79 397.378 499.37 398.449 502 398.449C504.63 398.449 507.21 397.379 509.07 395.518C510.93 393.648 512 391.079 512 388.449C512 385.808 510.93 383.239 509.07 381.379Z" fill="#793333"/>
<path d="M482.18 354.485L458.294 330.599L458.352 290.167C458.395 259.619 449.426 230.062 432.412 204.69L388.397 139.052C382.385 130.086 373.23 124.057 362.619 122.075C352.007 120.093 341.294 122.412 332.452 128.604C317.964 138.749 312.203 157.053 317.326 173.279L291.191 147.143C287.286 143.239 280.954 143.239 277.048 147.143C273.143 151.048 273.143 157.38 277.048 161.286L333.192 217.43C338.386 222.624 346.353 223.105 352.133 218.57C357.913 214.036 359.345 206.185 355.536 199.902L338.336 171.53C332.936 162.622 335.39 150.963 343.923 144.988C348.327 141.905 353.666 140.75 358.947 141.737C364.232 142.724 368.791 145.727 371.785 150.192L415.8 215.83C430.591 237.888 438.389 263.583 438.351 290.139L438.288 334.721C438.284 337.378 439.338 339.928 441.217 341.807L468.038 368.628C469.991 370.58 472.55 371.557 475.109 371.557C477.668 371.557 480.228 370.58 482.18 368.628C486.085 364.723 486.085 358.391 482.18 354.485Z" fill="#793333"/>
<path d="M267.68 123.639C265.83 121.779 263.25 120.709 260.62 120.709C257.98 120.709 255.41 121.779 253.54 123.639C251.68 125.499 250.61 128.079 250.61 130.709C250.61 133.349 251.68 135.919 253.54 137.779C255.41 139.639 257.98 140.709 260.62 140.709C263.25 140.709 265.82 139.639 267.68 137.779C269.55 135.919 270.62 133.339 270.62 130.709C270.62 128.079 269.55 125.499 267.68 123.639Z" fill="#793333"/>
<path d="M360.485 278.821C364.39 274.916 364.39 268.584 360.485 264.678C356.58 260.774 350.248 260.774 346.342 264.678L341.98 269.04C323.306 287.715 323.306 318.101 341.98 336.775C343.933 338.727 346.492 339.704 349.051 339.704C351.61 339.704 354.17 338.727 356.122 336.775C360.027 332.87 360.028 326.538 356.122 322.632C345.246 311.756 345.246 294.058 356.122 283.182L360.485 278.821Z" fill="#793333"/>
<path d="M477.299 53.999C470.942 53.999 464.728 55.803 459.355 59.102C453.982 55.803 447.768 53.999 441.411 53.999C422.277 53.999 406.71 69.851 406.71 89.334C406.71 100.376 414.649 113.637 430.981 129.877C441.977 140.811 452.824 149.133 453.281 149.482C455.073 150.853 457.214 151.538 459.355 151.538C461.496 151.538 463.636 150.853 465.429 149.482C465.886 149.133 476.733 140.81 487.729 129.877C504.061 113.638 512 100.376 512 89.334C512 69.85 496.433 53.999 477.299 53.999ZM459.352 128.745C442.64 114.865 426.71 97.155 426.71 89.334C426.71 80.878 433.305 73.999 441.411 73.999C445.443 73.999 449.205 75.67 452.005 78.706C453.899 80.758 456.563 81.925 459.355 81.925C462.147 81.925 464.812 80.758 466.705 78.706C469.505 75.671 473.267 73.999 477.299 73.999C485.405 73.999 492 80.878 492 89.334C492 97.135 476.065 114.85 459.352 128.745Z" fill="#793333"/>
<path d="M70.589 4.7313e-08C64.232 4.7313e-08 58.018 1.804 52.645 5.103C47.272 1.804 41.058 4.7313e-08 34.701 4.7313e-08C15.567 -0.000999953 0 15.85 0 35.334C0 46.376 7.939 59.637 24.271 75.877C35.267 86.811 46.115 95.134 46.571 95.483C48.363 96.854 50.504 97.539 52.645 97.539C54.786 97.539 56.926 96.854 58.719 95.483C59.176 95.134 70.023 86.811 81.019 75.878C97.351 59.638 105.29 46.377 105.29 35.335C105.29 15.851 89.723 4.7313e-08 70.589 4.7313e-08ZM52.642 74.745C35.929 60.865 20 43.156 20 35.334C20 26.878 26.595 19.999 34.701 19.999C38.733 19.999 42.495 21.67 45.295 24.706C47.189 26.758 49.853 27.925 52.645 27.925C55.437 27.925 58.102 26.758 59.995 24.706C62.795 21.671 66.557 19.999 70.589 19.999C78.695 19.999 85.29 26.878 85.29 35.334C85.29 43.134 69.355 60.85 52.642 74.745Z" fill="#793333"/>
</svg>
