<svg width="512" height="512" viewBox="0 0 512 512" fill="none" xmlns="http://www.w3.org/2000/svg">
<path d="M502.063 127.676C495.655 121.268 487.136 117.739 478.063 117.739C459.356 117.739 444.139 132.958 444.139 151.663V274.367C438.823 275.672 433.789 278.195 429.532 281.892L359.835 342.427C330.066 368.282 312.993 405.724 312.993 445.152V501.99C312.993 507.512 317.47 511.99 322.993 511.99C328.516 511.99 332.993 507.512 332.993 501.99V445.152C332.993 411.519 347.556 379.581 372.949 357.527L442.645 296.992C446.993 293.217 453.218 292.25 458.504 294.533C462.73 296.356 465.852 299.949 467.068 304.387C468.285 308.826 467.432 313.508 464.727 317.232L406.047 398.021C402.801 402.49 403.793 408.744 408.261 411.989C412.73 415.234 418.984 414.243 422.229 409.775L480.909 328.986C487.203 320.321 489.189 309.428 486.357 299.101C483.525 288.772 476.262 280.414 466.429 276.17C465.673 275.844 464.908 275.547 464.137 275.278V151.663C464.137 143.985 470.384 137.738 478.074 137.738C481.794 137.738 485.291 139.187 487.921 141.817C490.551 144.447 492 147.945 492 151.665L491.999 182.996C491.999 188.519 496.476 192.996 501.999 192.996C507.521 192.996 511.999 188.519 511.999 182.996L512 151.665C511.999 142.603 508.471 134.084 502.063 127.676Z" fill="#793333"/>
<path d="M501.993 245.995C496.47 245.995 491.993 250.472 491.993 255.995L491.987 361.378C491.986 383.126 485.976 404.42 474.609 422.959L429.354 496.764C426.467 501.472 427.943 507.629 432.651 510.517C434.282 511.517 436.087 511.993 437.869 511.993C441.233 511.993 444.517 510.297 446.404 507.22L491.659 433.415C504.956 411.727 511.986 386.819 511.988 361.381L511.994 255.996C511.993 250.472 507.516 245.995 501.993 245.995Z" fill="#793333"/>
<path d="M509.06 209.743C507.21 207.873 504.63 206.813 502 206.813C499.36 206.813 496.78 207.873 494.92 209.743C493.06 211.603 491.99 214.173 491.99 216.813C491.99 219.443 493.06 222.023 494.92 223.883C496.78 225.743 499.36 226.813 502 226.813C504.63 226.813 507.2 225.743 509.06 223.883C510.93 222.023 512 219.443 512 216.813C512 214.173 510.93 211.603 509.06 209.743Z" fill="#793333"/>
<path d="M152.164 342.427L82.467 281.892C78.21 278.195 73.176 275.672 67.861 274.366V151.663C67.861 132.956 52.642 117.739 33.925 117.739C24.863 117.739 16.343 121.268 9.936 127.676C3.528 134.083 0 142.603 0 151.664L0.011 361.377C0.012 386.815 7.042 411.724 20.34 433.412L65.594 507.217C67.481 510.294 70.765 511.991 74.128 511.99C75.91 511.99 77.715 511.513 79.346 510.514C84.054 507.626 85.531 501.469 82.643 496.761L37.389 422.957C26.021 404.417 20.012 383.123 20.011 361.376L20 151.663C20 147.943 21.448 144.446 24.079 141.816C26.709 139.186 30.206 137.737 33.937 137.737C41.615 137.737 47.862 143.984 47.862 151.662V275.276C47.091 275.546 46.326 275.842 45.57 276.168C35.737 280.412 28.474 288.77 25.642 299.098C22.81 309.426 24.796 320.32 31.09 328.984L89.771 409.773C93.017 414.242 99.271 415.233 103.739 411.987C108.207 408.742 109.198 402.488 105.953 398.019L47.272 317.23C44.567 313.506 43.714 308.825 44.931 304.385C46.148 299.947 49.27 296.354 53.496 294.531C58.782 292.248 65.007 293.214 69.354 296.99L139.051 357.525C164.444 379.58 179.007 411.517 179.007 445.15V501.988C179.007 507.51 183.484 511.988 189.007 511.988C194.53 511.988 199.007 507.51 199.007 501.988V445.15C199.004 405.724 181.931 368.282 152.164 342.427Z" fill="#793333"/>
<path d="M400.539 92.7158C390.897 76.0148 375.328 64.0698 356.701 59.0778C338.074 54.0858 318.619 56.6488 301.916 66.2898C285.215 75.9328 273.27 91.5008 268.278 110.128C265.209 121.58 264.291 133.365 265.55 145.155L266.59 154.889C268.862 176.169 267.206 197.44 261.666 218.116L261.531 218.621C257.834 232.418 259.731 246.828 266.873 259.198C274.015 271.568 285.546 280.417 299.342 284.113C304.008 285.363 308.708 285.967 313.348 285.967C331.428 285.966 348.528 276.782 358.513 260.827C380.415 225.828 396.937 187.86 407.624 147.979L407.752 147.501C412.743 128.873 410.182 109.417 400.539 92.7158ZM388.432 142.326L388.304 142.804C378.132 180.764 362.404 216.904 341.557 250.219C333.703 262.768 318.82 268.627 304.517 264.796C295.882 262.48 288.664 256.941 284.193 249.198C279.722 241.454 278.535 232.433 280.85 223.792L280.985 223.287C287.164 200.228 289.011 176.502 286.476 152.764L285.436 143.03C284.439 133.697 285.165 124.368 287.595 115.304C293.837 92.0098 314.979 76.6108 338.025 76.6108C342.484 76.6108 347.016 77.1878 351.523 78.3958C379.325 85.8448 395.881 114.523 388.432 142.326Z" fill="#793333"/>
<path d="M355.293 22.4376C353.433 20.5776 350.863 19.5176 348.223 19.5176C345.593 19.5176 343.013 20.5776 341.153 22.4376C339.293 24.2976 338.223 26.8776 338.223 29.5076C338.223 32.1476 339.293 34.7176 341.153 36.5776C343.013 38.4476 345.593 39.5076 348.223 39.5076C350.863 39.5076 353.433 38.4476 355.293 36.5776C357.163 34.7176 358.223 32.1476 358.223 29.5076C358.223 26.8776 357.163 24.2976 355.293 22.4376Z" fill="#793333"/>
<path d="M387.962 33.348C386.102 31.488 383.522 30.418 380.892 30.418C378.262 30.418 375.682 31.488 373.822 33.348C371.962 35.208 370.892 37.788 370.892 40.418C370.892 43.058 371.962 45.628 373.822 47.488C375.682 49.358 378.262 50.418 380.892 50.418C383.522 50.418 386.102 49.358 387.962 47.488C389.822 45.628 390.892 43.058 390.892 40.418C390.892 37.788 389.822 35.208 387.962 33.348Z" fill="#793333"/>
<path d="M410.892 53.428C409.032 51.558 406.452 50.498 403.822 50.498C401.182 50.498 398.612 51.558 396.752 53.428C394.892 55.288 393.822 57.858 393.822 60.498C393.822 63.128 394.892 65.708 396.752 67.568C398.612 69.428 401.182 70.498 403.822 70.498C406.452 70.498 409.032 69.428 410.892 67.568C412.752 65.708 413.822 63.128 413.822 60.498C413.822 57.858 412.752 55.288 410.892 53.428Z" fill="#793333"/>
<path d="M428.302 81.6678C426.452 79.7978 423.872 78.7378 421.232 78.7378C418.602 78.7378 416.022 79.7978 414.162 81.6678C412.302 83.5178 411.232 86.0978 411.232 88.7378C411.232 91.3668 412.302 93.9468 414.162 95.8078C416.022 97.6678 418.602 98.7378 421.232 98.7378C423.872 98.7378 426.442 97.6678 428.302 95.8078C430.172 93.9378 431.232 91.3678 431.232 88.7378C431.232 86.0978 430.172 83.5278 428.302 81.6678Z" fill="#793333"/>
<path d="M325.996 18.9639C322.345 5.33794 308.289 -2.77506 294.664 0.873936C288.063 2.64294 282.546 6.87594 279.13 12.7939C275.713 18.7119 274.806 25.6069 276.574 32.2069C278.341 38.8079 282.575 44.3249 288.493 47.7419C292.435 50.0179 296.809 51.1809 301.243 51.1799C303.465 51.1799 305.702 50.8879 307.907 50.2969C314.508 48.5279 320.025 44.2949 323.441 38.3769C326.857 32.4589 327.765 25.5639 325.996 18.9639ZM306.119 28.3759C305.373 29.6679 304.169 30.5909 302.728 30.9779C301.287 31.3649 299.782 31.1659 298.492 30.4199C297.2 29.6739 296.277 28.4699 295.89 27.0289C295.504 25.5899 295.702 24.0849 296.448 22.7939C297.194 21.5019 298.398 20.5789 299.839 20.1919C300.321 20.0629 300.805 20.0009 301.282 20.0009C303.747 20.0009 306.009 21.6489 306.677 24.1399C307.063 25.5799 306.865 27.0849 306.119 28.3759Z" fill="#793333"/>
<path d="M250.46 264.169L250.322 263.65C244.783 242.98 243.127 221.709 245.399 200.429L246.439 190.695C247.698 178.904 246.781 167.119 243.711 155.668C233.407 117.216 193.743 94.3139 155.289 104.618C136.662 109.609 121.093 121.556 111.451 138.256C101.808 154.957 99.247 174.413 104.238 193.039L104.367 193.52C115.054 233.401 131.576 271.369 153.478 306.367C163.463 322.323 180.561 331.508 198.641 331.508C203.28 331.508 207.983 330.904 212.647 329.654C226.444 325.958 237.975 317.109 245.116 304.74C252.257 292.371 254.155 277.96 250.46 264.169ZM227.797 294.738C223.326 302.482 216.108 308.02 207.472 310.335C193.172 314.166 178.286 308.309 170.432 295.758C149.585 262.445 133.858 226.304 123.686 188.345L123.557 187.864C116.108 160.064 132.665 131.385 160.466 123.936C164.963 122.731 169.527 122.135 174.061 122.135C183.105 122.135 192.032 124.507 200.074 129.151C212.149 136.122 220.785 147.379 224.394 160.846C226.824 169.91 227.55 179.239 226.553 188.571L225.513 198.305C222.978 222.043 224.825 245.769 231.002 268.821L231.14 269.337C233.454 277.973 232.266 286.994 227.797 294.738Z" fill="#793333"/>
<path d="M170.837 67.9876C168.977 66.1176 166.397 65.0576 163.767 65.0576C161.137 65.0576 158.557 66.1176 156.697 67.9876C154.837 69.8476 153.767 72.4176 153.767 75.0576C153.767 77.6876 154.837 80.2576 156.697 82.1276C158.557 83.9866 161.137 85.0576 163.767 85.0576C166.397 85.0576 168.977 83.9876 170.837 82.1276C172.697 80.2576 173.767 77.6876 173.767 75.0576C173.767 72.4176 172.697 69.8476 170.837 67.9876Z" fill="#793333"/>
<path d="M138.167 78.887C136.307 77.027 133.727 75.957 131.097 75.957C128.467 75.957 125.887 77.027 124.027 78.887C122.167 80.747 121.097 83.327 121.097 85.957C121.097 88.597 122.167 91.167 124.027 93.037C125.887 94.897 128.467 95.967 131.097 95.967C133.727 95.967 136.307 94.897 138.167 93.037C140.027 91.167 141.097 88.597 141.097 85.957C141.097 83.327 140.027 80.757 138.167 78.887Z" fill="#793333"/>
<path d="M115.238 98.9681C113.378 97.1081 110.798 96.0381 108.168 96.0381C105.538 96.0381 102.958 97.1081 101.098 98.9681C99.238 100.828 98.168 103.408 98.168 106.038C98.168 108.668 99.238 111.248 101.098 113.108C102.958 114.967 105.538 116.038 108.168 116.038C110.798 116.038 113.378 114.968 115.238 113.108C117.098 111.248 118.168 108.668 118.168 106.038C118.168 103.408 117.098 100.828 115.238 98.9681Z" fill="#793333"/>
<path d="M97.828 127.206C95.968 125.336 93.388 124.276 90.758 124.276C88.128 124.276 85.548 125.336 83.688 127.206C81.818 129.066 80.758 131.646 80.758 134.276C80.758 136.906 81.818 139.486 83.688 141.346C85.548 143.206 88.128 144.276 90.758 144.276C93.388 144.276 95.968 143.206 97.828 141.346C99.688 139.486 100.758 136.906 100.758 134.276C100.758 131.646 99.688 129.066 97.828 127.206Z" fill="#793333"/>
<path d="M232.861 58.3349C229.444 52.4169 223.927 48.1829 217.327 46.4149C203.701 42.7629 189.646 50.8799 185.995 64.5049C184.226 71.1059 185.134 77.9999 188.551 83.9189C191.968 89.8359 197.485 94.0689 204.085 95.8379C206.289 96.4289 208.526 96.7209 210.748 96.7209C215.181 96.7209 219.556 95.5579 223.498 93.2819C229.416 89.8649 233.649 84.3479 235.418 77.7479C237.186 71.1479 236.278 64.2529 232.861 58.3349ZM216.1 72.5709C215.714 74.0119 214.79 75.2159 213.498 75.9619C212.206 76.7069 210.701 76.9049 209.262 76.5199C207.821 76.1339 206.617 75.2099 205.871 73.9179C205.125 72.6259 204.928 71.1219 205.313 69.6809C205.981 67.1889 208.243 65.5409 210.708 65.5409C211.185 65.5409 211.669 65.6029 212.151 65.7319C213.592 66.1179 214.796 67.0419 215.542 68.3339C216.288 69.6259 216.485 71.1299 216.1 72.5709Z" fill="#793333"/>
<path d="M127.068 429.921C125.208 428.061 122.628 426.991 119.998 426.991C117.368 426.991 114.788 428.06 112.928 429.921C111.068 431.781 109.998 434.361 109.998 436.991C109.998 439.621 111.068 442.201 112.928 444.06C114.788 445.92 117.368 446.991 119.998 446.991C122.628 446.991 125.208 445.921 127.068 444.06C128.928 442.201 129.998 439.621 129.998 436.991C129.997 434.361 128.927 431.781 127.068 429.921Z" fill="#793333"/>
</svg>
